<svg xmlns="http://www.w3.org/2000/svg" xmlns:xlink="http://www.w3.org/1999/xlink" width="83.992" height="12" viewBox="0 0 83.992 12">
  <defs>
    <clipPath id="clip-path">
      <rect id="Rectangle_1667" data-name="Rectangle 1667" width="83.992" height="12" fill="none"/>
    </clipPath>
  </defs>
  <g id="AccuWeather_icon" clip-path="url(#clip-path)">
    <path id="Path_733" data-name="Path 733" d="M95.325,11.853V8.787a1.6,1.6,0,0,1,.393-1.264A2.014,2.014,0,0,1,97,7.2h.567V5.824h-.479a2.873,2.873,0,0,0-1.119.188,1.81,1.81,0,0,0-.741.553l-.29-.742h-1.09v6.029h1.482Zm-5.26-4.911a1.207,1.207,0,0,1,.959.363,1.576,1.576,0,0,1,.363.959H88.656a1.506,1.506,0,0,1,.363-.959,1.209,1.209,0,0,1,.959-.363ZM91.3,10.037a1.155,1.155,0,0,1-.436.508,1.225,1.225,0,0,1-.727.189h-.1a1.325,1.325,0,0,1-1.017-.378,1.555,1.555,0,0,1-.392-.973h4.229v-.61a3.259,3.259,0,0,0-.742-2.251,2.559,2.559,0,0,0-2.034-.843h-.1a2.613,2.613,0,0,0-2.049.843,3.075,3.075,0,0,0-.756,2.164v.392a3.465,3.465,0,0,0,.2,1.191,2.561,2.561,0,0,0,1.468,1.54,3.186,3.186,0,0,0,1.206.218h.1a3.022,3.022,0,0,0,1.453-.334,2.438,2.438,0,0,0,.988-1L91.3,10.037Zm-9.053,1.816V8.337a1.683,1.683,0,0,1,.32-1,1.068,1.068,0,0,1,.887-.392H83.6a.979.979,0,0,1,.784.32,1.435,1.435,0,0,1,.29,1.032v3.574h1.483V8.032a2.452,2.452,0,0,0-.581-1.714,1.977,1.977,0,0,0-1.555-.654h-.174a2.084,2.084,0,0,0-.9.189,2.382,2.382,0,0,0-.727.523V3.413H80.736v8.441h1.511Zm-3.88-1.322a.613.613,0,0,1-.145-.48V7.015h1.454V5.824H78.222V4.5H76.958L76.8,5.824H75.81V7.015h.945v3.051a2.007,2.007,0,0,0,.392,1.307,1.645,1.645,0,0,0,1.337.48H79.66V10.661H78.8a.6.6,0,0,1-.436-.131Zm-6.175.232a1.179,1.179,0,0,1-.7-.174.6.6,0,0,1-.247-.509v-.043a.668.668,0,0,1,.276-.552,1.549,1.549,0,0,1,.959-.218h1.1v.218a1.209,1.209,0,0,1-.349.959,1.386,1.386,0,0,1-.93.32Zm-.29,1.249a2.343,2.343,0,0,0,1.031-.218,1.844,1.844,0,0,0,.755-.668l.247.741h1.119V7.915A2.116,2.116,0,0,0,74.4,6.23a2.7,2.7,0,0,0-1.817-.566h-.145a2.916,2.916,0,0,0-1.657.421A1.939,1.939,0,0,0,70,7.131l1.307.538a1.176,1.176,0,0,1,.378-.508,1.2,1.2,0,0,1,.727-.2h.145a1.066,1.066,0,0,1,.771.247.948.948,0,0,1,.247.712v.3H72.5a3.315,3.315,0,0,0-2.02.523,1.649,1.649,0,0,0-.7,1.38v.088a1.749,1.749,0,0,0,.523,1.336,2.119,2.119,0,0,0,1.483.494H71.9v-.029Zm-5.58-5.07a1.208,1.208,0,0,1,.959.363,1.576,1.576,0,0,1,.363.959H64.911a1.509,1.509,0,0,1,.364-.959,1.208,1.208,0,0,1,.959-.363Zm1.235,3.095a1.155,1.155,0,0,1-.436.508,1.224,1.224,0,0,1-.727.189h-.1a1.325,1.325,0,0,1-1.017-.378,1.553,1.553,0,0,1-.393-.973h4.229v-.61a3.259,3.259,0,0,0-.741-2.251,2.561,2.561,0,0,0-2.034-.843h-.116a2.612,2.612,0,0,0-2.049.843,3.073,3.073,0,0,0-.756,2.164v.392a3.477,3.477,0,0,0,.2,1.191,2.564,2.564,0,0,0,1.468,1.54,3.185,3.185,0,0,0,1.206.218h.1a3.023,3.023,0,0,0,1.454-.334,2.438,2.438,0,0,0,.988-1l-1.279-.654ZM56.337,11.852l1.773-6.145L59.8,11.852h1.351l2.427-8.339v-.1H62.121l-1.6,5.971L58.953,3.413h-1.6L55.712,9.484,54.157,3.413H52.632v.1l2.325,8.339h1.381ZM46.819,5.823V9.644a2.454,2.454,0,0,0,.581,1.714,1.98,1.98,0,0,0,1.556.654h.16a2.19,2.19,0,0,0,.988-.218,2,2,0,0,0,.756-.639l.247.7h1.1V5.823H50.743V9.339a1.6,1.6,0,0,1-.334,1,1.1,1.1,0,0,1-.9.393h-.145a1.018,1.018,0,0,1-.784-.32,1.432,1.432,0,0,1-.305-1.031V5.809H46.819v.015Zm-1.628.247a2.871,2.871,0,0,0-1.584-.393h-.1a2.766,2.766,0,0,0-2.049.756,2.719,2.719,0,0,0-.756,2.02v.77a2.7,2.7,0,0,0,.756,2.019A2.741,2.741,0,0,0,43.506,12h.1a2.873,2.873,0,0,0,1.482-.348,2.4,2.4,0,0,0,.93-1.032L44.8,9.934a1.413,1.413,0,0,1-.436.567,1.2,1.2,0,0,1-.756.218h-.1a1.216,1.216,0,0,1-1.017-.421,1.707,1.707,0,0,1-.319-1.09v-.74a1.709,1.709,0,0,1,.319-1.09,1.216,1.216,0,0,1,1.017-.421h.1a1.242,1.242,0,0,1,.77.218,1.41,1.41,0,0,1,.436.6l1.279-.61a2.368,2.368,0,0,0-.9-1.09Zm-5.943,0a2.871,2.871,0,0,0-1.584-.393h-.1a2.764,2.764,0,0,0-2.049.756,2.717,2.717,0,0,0-.756,2.02v.77a2.693,2.693,0,0,0,.756,2.019A2.741,2.741,0,0,0,37.563,12h.1a2.874,2.874,0,0,0,1.482-.348,2.4,2.4,0,0,0,.93-1.032l-1.221-.683a1.411,1.411,0,0,1-.436.567,1.2,1.2,0,0,1-.756.218h-.1a1.216,1.216,0,0,1-1.017-.421,1.7,1.7,0,0,1-.319-1.09v-.74a1.706,1.706,0,0,1,.319-1.09,1.216,1.216,0,0,1,1.017-.421h.1a1.242,1.242,0,0,1,.77.218,1.41,1.41,0,0,1,.436.6l1.279-.61a2.459,2.459,0,0,0-.9-1.09ZM30.79,5.62l1,3.109h-2.02Zm-.712-2.208-2.8,8.339v.1h1.468l.581-1.758h2.921l.567,1.758h1.54v-.1l-2.8-8.339H30.079Z" transform="translate(-13.571 -1.698)"/>
    <path id="Path_734" data-name="Path 734" d="M6,10.17A4.162,4.162,0,1,1,10.158,6,4.179,4.179,0,0,1,6,10.17m6-4.184L10.637,4.75l.552-1.757L9.387,2.6,8.995.8l-1.758.567L5.987,0,4.752,1.366,2.993.814,2.6,2.615.8,3.008l.567,1.758L0,6.015,1.366,7.25.814,9.008l1.8.392.392,1.8,1.758-.567L6.016,12l1.235-1.366,1.758.552.392-1.8,1.8-.406L10.637,7.22,12,5.985Z" transform="translate(0 0)" fill="#f05514"/>
    <path id="Path_735" data-name="Path 735" d="M5.631,5.659a3.719,3.719,0,0,1,5.26,0h0a3.717,3.717,0,0,1,0,5.257l0,0a3.72,3.72,0,0,1-5.26,0h0a3.718,3.718,0,0,1,0-5.259" transform="translate(-2.259 -2.274)" fill="#f05514"/>
  </g>
</svg>
