<svg xmlns="http://www.w3.org/2000/svg" width="28" height="28" viewBox="0 0 28 28">
  <g id="Photo_Icon" data-name="Photo Icon" transform="translate(9 11)">
    <g id="Ellipse_558" data-name="Ellipse 558" transform="translate(-9 -11)" fill="#e7412b" stroke="#fff" stroke-width="2">
      <circle cx="14" cy="14" r="14" stroke="none"/>
      <circle cx="14" cy="14" r="13" fill="none"/>
    </g>
    <g id="Group_2189" data-name="Group 2189" transform="translate(-3 -4)">
      <path id="Path_520" data-name="Path 520" d="M0,64.052a3.233,3.233,0,0,1,.184-.415.705.705,0,0,1,.6-.351c.042,0,.084,0,.126,0H12.669a.989.989,0,0,1,1.017.694,1.052,1.052,0,0,1,.05.31c0,1.155,0,2.31,0,3.465a.2.2,0,0,1-.116.2q-2.29,1.329-4.577,2.663a1.118,1.118,0,0,1-1.426-.138Q6.488,69.489,5.357,68.5a1.965,1.965,0,0,0-1.492-.525,2.058,2.058,0,0,0-1.071.427L.134,70.335c-.042.03-.089.053-.134.079V64.052m10.052,2.4a1.83,1.83,0,1,0-1.778,1.868,1.831,1.831,0,0,0,1.778-1.868" transform="translate(0 -59.965)" fill="#fff"/>
      <path id="Path_521" data-name="Path 521" d="M0,171.608l3.288-2.416a1.072,1.072,0,0,1,1.526.067q1.1.967,2.2,1.935a2.026,2.026,0,0,0,2.484.253q1.9-1.1,3.8-2.2l.44-.253v.184q0,1.97,0,3.94a.9.9,0,0,1-.864.925c-.084.006-.169.005-.253.005H.975A.839.839,0,0,1,0,173.412v-1.8" transform="translate(0 -160.051)" fill="#fff"/>
      <path id="Path_522" data-name="Path 522" d="M57.246,11.928v-.219q0-3.671,0-7.343A1.864,1.864,0,0,0,55.795,2.5a2.254,2.254,0,0,0-.517-.052q-5.033,0-10.065,0h-.221l.126-1.113c.016-.141.036-.283.048-.424a.9.9,0,0,1,1.08-.9c1.592.182,3.183.371,4.775.555,1.32.153,2.64.3,3.959.455,1.042.121,2.085.234,3.124.373a.867.867,0,0,1,.728.987Q58.54,4.9,58.245,7.42q-.224,1.924-.445,3.849a.787.787,0,0,1-.554.659" transform="translate(-42.633 0)" fill="#fff"/>
      <path id="Path_523" data-name="Path 523" d="M139.551,106.181a.955.955,0,1,1-.951.956.956.956,0,0,1,.951-.956" transform="translate(-131.335 -100.615)" fill="#fff"/>
    </g>
  </g>
</svg>
