<svg id="Photo" xmlns="http://www.w3.org/2000/svg" width="15" height="15" viewBox="0 0 15 15">
  <rect id="Rectangle_1563" data-name="Rectangle 1563" width="15" height="15" fill="#fff"/>
  <path id="Path_30" data-name="Path 30" d="M15,9.415c-.022.078-.043.157-.068.235a1.4,1.4,0,0,1-1.278.968l-.19,0c-3.137,0-6.275-.006-9.412.005A1.5,1.5,0,0,1,2.6,9.734a1.427,1.427,0,0,1-.078-.613q-.008-3.486,0-6.971a2.356,2.356,0,0,1,.018-.291A1.4,1.4,0,0,1,3.855.645c.068,0,.136,0,.2,0h9.4A1.408,1.408,0,0,1,14.982,1.82c0,.008.012.015.018.022Zm-.941-2.427c0-.063.005-.09.005-.118q0-2.4,0-4.795a.471.471,0,0,0-.523-.5q-4.779,0-9.56,0a.474.474,0,0,0-.523.527q0,3.077,0,6.154c0,.035.007.07.013.124.051-.048.086-.081.12-.115q.936-.935,1.872-1.87a1.1,1.1,0,0,1,1.614,0c.235.238.473.474.717.718l.6-.718q.837-1,1.673-2.011a1.119,1.119,0,0,1,1.171-.414,1.215,1.215,0,0,1,.648.473c.715.837,1.432,1.672,2.173,2.536M3.626,9.567a.512.512,0,0,0,.4.119H12.77c.273,0,.546,0,.819,0a.459.459,0,0,0,.475-.483c0-.2-.007-.4,0-.6a.4.4,0,0,0-.112-.3q-1.411-1.639-2.817-3.284c-.156-.182-.222-.181-.378.007Q9.5,6.541,8.235,8.057a.481.481,0,0,1-.8.032q-.5-.5-.992-.992c-.163-.164-.191-.164-.353,0L3.724,9.462c-.033.033-.065.069-.1.105" fill="#ed1c24"/>
  <path id="Path_31" data-name="Path 31" d="M10.93,14.363c-.208-.051-.547-.131-.885-.222Q5.592,12.95,1.138,11.756A1.41,1.41,0,0,1,.086,9.984Q.6,7.99,1.122,6a.47.47,0,0,1,.429-.395.433.433,0,0,1,.466.3.679.679,0,0,1,0,.341q-.5,1.95-1.011,3.9c-.1.4.013.611.411.717L10.892,13.4a.472.472,0,0,0,.648-.38c.1-.4.2-.811.3-1.217a.468.468,0,1,1,.907.22c-.1.435-.208.87-.324,1.3a1.439,1.439,0,0,1-1.495,1.039" fill="#ed1c24"/>
  <path id="Path_34" data-name="Path 34" d="M5.648,5.006A1.246,1.246,0,1,1,6.891,3.76,1.25,1.25,0,0,1,5.648,5.006m0-.937a.309.309,0,0,0,.311-.3.312.312,0,0,0-.623-.014.31.31,0,0,0,.312.315" fill="#ed1c24"/>
</svg>
