<svg id="Video1_D" xmlns="http://www.w3.org/2000/svg" width="15" height="15" viewBox="0 0 15 15">
  <rect id="Rectangle_1564" data-name="Rectangle 1564" width="15" height="15" fill="#fff"/>
  <path id="Path_36" data-name="Path 36" d="M15,3.72v7.559a.508.508,0,0,0-.028.08,2.191,2.191,0,0,1-2.165,1.853q-5.307,0-10.614,0A2.194,2.194,0,0,1,.072,11.574c-.026-.1-.048-.2-.072-.3V3.72a.5.5,0,0,0,.027-.08A2.19,2.19,0,0,1,2.178,1.788q5.322-.006,10.644,0a2.184,2.184,0,0,1,2.1,1.61c.03.107.055.215.082.322M7.485,12.334h5.243a1.321,1.321,0,0,0,1.393-1.385q0-3.449,0-6.9a1.321,1.321,0,0,0-1.392-1.385H2.271a1.321,1.321,0,0,0-1.392,1.4v6.87a1.322,1.322,0,0,0,1.407,1.4h5.2" fill="#ed1c24"/>
  <path id="Path_40" data-name="Path 40" d="M5.742,7.5c0-.708,0-1.416,0-2.124a.471.471,0,0,1,.23-.457.463.463,0,0,1,.508.048Q8.164,6.025,9.852,7.079a.452.452,0,0,1,0,.841Q8.167,8.976,6.479,10.03a.463.463,0,0,1-.508.05.47.47,0,0,1-.231-.456c0-.707,0-1.415,0-2.123m.886,1.4,2.24-1.4L6.628,6.1Z" fill="#ed1c24"/>
</svg>
