<svg xmlns="http://www.w3.org/2000/svg" xmlns:xlink="http://www.w3.org/1999/xlink" width="398" height="10" viewBox="0 0 397.91 10">
  <defs>
    <clipPath id="clip-path">
      <rect id="Rectangle_3057" data-name="Rectangle 3057" width="397.91" height="10" fill="none"/>
    </clipPath>
  </defs>
  <g id="Group_6131" data-name="Group 6131" transform="translate(0 0)" opacity="0.2">
    <g id="Group_6130" data-name="Group 6130" transform="translate(0 0)" clip-path="url(#clip-path)">
      <path id="Path_9334" data-name="Path 9334" d="M338.08,5.075A2.026,2.026,0,1,0,340.114,7.1a2.03,2.03,0,0,0-2.033-2.026" transform="translate(-139.125 -2.101)" fill="#1a1a1a"/>
      <path id="Path_9335" data-name="Path 9335" d="M335.976,0a5,5,0,1,0,5.011,5,5.011,5.011,0,0,0-5.011-5m0,8.265A3.265,3.265,0,1,1,339.253,5a3.271,3.271,0,0,1-3.276,3.265" transform="translate(-137.021 0)" fill="#1a1a1a"/>
      <path id="Path_9336" data-name="Path 9336" d="M19.892,5.045a4.129,4.129,0,0,1-2.509-.81,3.482,3.482,0,0,1-1.242-1.7,5.184,5.184,0,0,1-2.461,2.012A6.721,6.721,0,0,1,9.844.641,9.876,9.876,0,0,1,3.87,4.688,16.5,16.5,0,0,1,0,5.26a16.192,16.192,0,0,1,3.87.583A9.773,9.773,0,0,1,9.844,9.89a6.78,6.78,0,0,1,3.835-3.917A5.28,5.28,0,0,1,16.14,8a3.384,3.384,0,0,1,.849-1.369,4.153,4.153,0,0,1,2.927-1.143Z" transform="translate(0 -0.265)" fill="#1a1a1a"/>
      <path id="Path_9337" data-name="Path 9337" d="M26.823,7.052V8.787h179.96V7.052Z" transform="translate(-11.105 -2.92)" fill="#1a1a1a"/>
      <path id="Path_9338" data-name="Path 9338" d="M661.094,4.687A9.876,9.876,0,0,1,655.12.64a6.719,6.719,0,0,1-3.835,3.9,5.189,5.189,0,0,1-2.461-2.012,3.476,3.476,0,0,1-1.242,1.7,4.126,4.126,0,0,1-2.509.81l-.024.441a4.155,4.155,0,0,1,2.927,1.143A3.383,3.383,0,0,1,648.824,8a5.289,5.289,0,0,1,2.461-2.024,6.778,6.778,0,0,1,3.835,3.917,9.773,9.773,0,0,1,5.974-4.047,16.2,16.2,0,0,1,3.87-.583,16.508,16.508,0,0,1-3.87-.571" transform="translate(-267.054 -0.265)" fill="#1a1a1a"/>
      <rect id="Rectangle_3056" data-name="Rectangle 3056" width="179.961" height="1.735" transform="translate(202.232 4.132)" fill="#1a1a1a"/>
    </g>
  </g>
</svg>
