<svg xmlns="http://www.w3.org/2000/svg" width="17.875" height="19.723" viewBox="0 0 17.875 19.723">
  <path id="Path_10" data-name="Path 10" d="M0-18.348A8.183,8.183,0,0,0-5.844-15.92,8.249,8.249,0,0,0-8.25-10.1v6.445a2.475,2.475,0,0,0,.473,1.5L-2.75-7.176V-8.25H-6.4V-10.1a6.271,6.271,0,0,1,1.848-4.512A6.477,6.477,0,0,1,0-16.5a6.322,6.322,0,0,1,2.557.516,6.387,6.387,0,0,1,2.084,1.461L5.93-15.855a8.432,8.432,0,0,0-2.664-1.8A8.754,8.754,0,0,0,0-18.348Zm8.465,2.32L-7.777.215l1.16,1.16L-4.34-.9h1.59v-1.59l5.5-5.5V-.9H5.5a2.777,2.777,0,0,0,1.934-.816A2.777,2.777,0,0,0,8.25-3.652V-10.1a8.132,8.132,0,0,0-.516-2.879l1.891-1.891ZM6.273-11.516A7.679,7.679,0,0,1,6.4-10.1V-8.25H3.008Z" transform="translate(8.25 18.348)" fill="#fff"/>
</svg>
