<svg xmlns="http://www.w3.org/2000/svg" width="20" height="15.652" viewBox="0 0 20 15.652">
  <g id="noun-photo-1014344" transform="translate(-4 -16)">
    <g id="Group_6138" data-name="Group 6138" transform="translate(4 16)">
      <path id="Path_9339" data-name="Path 9339" d="M21.935,18.391h-2.8l-.087-.761a1.755,1.755,0,0,0-.435-1A1.853,1.853,0,0,0,17.217,16H10.783a1.8,1.8,0,0,0-1.8,1.609l-.109.783h-2.8A2.078,2.078,0,0,0,4,20.457v9.13a2.078,2.078,0,0,0,2.065,2.065h15.87A2.078,2.078,0,0,0,24,29.587v-9.13A2.078,2.078,0,0,0,21.935,18.391Zm.543,11.2a.538.538,0,0,1-.543.543H6.065a.538.538,0,0,1-.543-.543v-9.13a.538.538,0,0,1,.543-.543H9.543a.756.756,0,0,0,.761-.674l.174-1.457a.7.7,0,0,1,.043-.13.31.31,0,0,1,.261-.13h6.435a.349.349,0,0,1,.239.109.477.477,0,0,1,.065.174l.174,1.435a.756.756,0,0,0,.761.674h3.478a.538.538,0,0,1,.543.543v9.13Z" transform="translate(-4 -16)" fill="#f37a1f"/>
      <path id="Path_9340" data-name="Path 9340" d="M32.188,32.5a4.688,4.688,0,1,0,4.688,4.688A4.695,4.695,0,0,0,32.188,32.5Zm0,7.917a3.229,3.229,0,1,1,3.229-3.229A3.245,3.245,0,0,1,32.188,40.417Z" transform="translate(-22.187 -28.41)" fill="#f37a1f"/>
    </g>
  </g>
</svg>
