<svg xmlns="http://www.w3.org/2000/svg" width="16.5" height="17.445" viewBox="0 0 16.5 17.445">
  <path id="Path_9" data-name="Path 9" d="M0-18.348a8.224,8.224,0,0,0-5.844,2.406A8.224,8.224,0,0,0-8.25-10.1v6.445a2.777,2.777,0,0,0,.816,1.934A2.777,2.777,0,0,0-5.5-.9h2.75V-8.25H-6.4V-10.1a6.271,6.271,0,0,1,1.848-4.512A6.477,6.477,0,0,1,0-16.5a6.477,6.477,0,0,1,4.555,1.891A6.271,6.271,0,0,1,6.4-10.1V-8.25H2.75V-.9H5.5a2.777,2.777,0,0,0,1.934-.816A2.777,2.777,0,0,0,8.25-3.652V-10.1a8.224,8.224,0,0,0-2.406-5.844A8.224,8.224,0,0,0,0-18.348Z" transform="translate(8.25 18.348)" fill="#fff"/>
</svg>
