<svg xmlns="http://www.w3.org/2000/svg" width="20" height="16.544" viewBox="0 0 20 16.544">
  <g id="Group_711" data-name="Group 711" transform="translate(-1312 -447)">
    <g id="Rectangle_1579" data-name="Rectangle 1579" transform="translate(1316 447)" fill="none" stroke="#fff" stroke-width="1.7">
      <rect width="12" height="16.544" rx="2" stroke="none"/>
      <rect x="0.85" y="0.85" width="10.3" height="14.844" rx="1.15" fill="none"/>
    </g>
    <path id="Rectangle_1580" data-name="Rectangle 1580" d="M.5,0H2A0,0,0,0,1,2,0V12.544a0,0,0,0,1,0,0H.5a.5.5,0,0,1-.5-.5V.5A.5.5,0,0,1,.5,0Z" transform="translate(1312 449)" fill="#fff"/>
    <path id="Rectangle_1581" data-name="Rectangle 1581" d="M0,0H1.5A.5.5,0,0,1,2,.5V12.044a.5.5,0,0,1-.5.5H0a0,0,0,0,1,0,0V0A0,0,0,0,1,0,0Z" transform="translate(1330 449)" fill="#fff"/>
  </g>
</svg>
