<svg xmlns="http://www.w3.org/2000/svg" width="28.763" height="32" viewBox="0 0 28.763 32"><defs><style>.a{fill:#fff;}</style></defs><path class="a" d="M766.868,119.034c.171.142.42.185.553.364a.775.775,0,0,1,.117.306c.013.06.025.12.037.18a5.249,5.249,0,0,0,.047,1.228c.02.039.043.076.067.112h0l0,.006.014.019c.02.028.04.055.061.082l.027.033c.023.027.046.053.071.079l.029.029c.024.024.049.047.074.07l.014.013h0a2.732,2.732,0,0,0,.288.218q.968.046,1.937.008a.35.35,0,0,0,.237-.069.249.249,0,0,0-.044-.345.984.984,0,0,0-.351-.163,1.264,1.264,0,0,1-.627-.449.889.889,0,0,1-.078-.141c-.008-.1-.026-.2-.032-.306a.354.354,0,0,1,.068-.268.428.428,0,0,1,.155-.09,3.951,3.951,0,0,0,1.029-.625,4.087,4.087,0,0,0,.808-.151,11.859,11.859,0,0,0,2.562-1.084,2.182,2.182,0,0,0,.243.088.441.441,0,0,0,.25.017.35.35,0,0,0,.2-.2.6.6,0,0,0,.048-.3.878.878,0,0,0,.265.094.466.466,0,0,0,.51-.238.364.364,0,0,0,.025-.108.827.827,0,0,0,.165.032.442.442,0,0,0,.33-.086.479.479,0,0,0,.132-.351,1.176,1.176,0,0,0-.027-.291q.33-.225.657-.451a2.214,2.214,0,0,0,1.075-1.252,4.2,4.2,0,0,0-1.455-.067,16.044,16.044,0,0,0,3.1-4.688,8.552,8.552,0,0,0,1.865.843c.311.1.7.279.669.6-.014.166-.143.3-.173.468a1.305,1.305,0,0,0,.056.442c.177,1.02-1.087,1.77-1.177,2.8a3.177,3.177,0,0,0,.609,1.7,1.274,1.274,0,0,1,.188.539,1.251,1.251,0,0,1-.13.532,8.193,8.193,0,0,1-.571,1.143c-.15.239-.451.464-.556.721a1.178,1.178,0,0,0,.748,1.414,7.357,7.357,0,0,0,2.433.121,8.006,8.006,0,0,0,1.625-.2.864.864,0,0,0,.428-.219.344.344,0,0,0,.037-.443.52.52,0,0,0-.327-.127,2.667,2.667,0,0,1-1.041-.3,1.036,1.036,0,0,1-.493-.682c-.043-.274.14-.528.176-.8a1.615,1.615,0,0,0,.013-.208,1.573,1.573,0,0,0,.117-.261,15.479,15.479,0,0,0,.475-2.369c.027-.153.058-.3.091-.455a.714.714,0,0,0,.487-.331.724.724,0,0,0,0-.685.7.7,0,0,0,.442-.515.691.691,0,0,0-.047-.382l.008,0a.622.622,0,0,0,.368-.536.7.7,0,0,0-.1-.317,1.427,1.427,0,0,0-.214-.287v0a1.788,1.788,0,0,0,.422-.1.527.527,0,0,0,.206-.125c.173-.19.052-.492-.09-.706-.036-.054-.075-.108-.116-.161l.166-.424c.359-.919.953-2.691-.7-2.73a1.147,1.147,0,0,0-.949.537c-.8-.682-1.622-1.327-2.407-2.023a7.229,7.229,0,0,1-1.142-1.9,2.653,2.653,0,0,0,.416-1.768c-.062-.454-.246-.882-.326-1.333a4.984,4.984,0,0,1-.062-.622,1.9,1.9,0,0,0,.252-.011,1.057,1.057,0,0,0,.966-.756,1.341,1.341,0,0,0-.018-.44c0-.024-.008-.047-.012-.071.183-.04.359-.083.526-.128a1.014,1.014,0,0,0,.389-.169,1.032,1.032,0,0,0,.252-.367,23.658,23.658,0,0,0,.988-2.534A12.2,12.2,0,0,0,784.6,95.4l.01-.005a.475.475,0,0,0,.158-.284,2.255,2.255,0,0,0,.061-.719c.121-.22.229-.484.55-.414.112.024.219.11.328.075a.306.306,0,0,0,.13-.1c.03-.036.059-.072.087-.109.152.1.295.195.389.254a1.32,1.32,0,0,0,.155.423,2.556,2.556,0,0,0,.741.716,40.334,40.334,0,0,0,5.937,3.572,2.66,2.66,0,0,0,1.3.372,1.025,1.025,0,0,0,.972-.841c.065-.6-.49-1.044-.978-1.347q-2.583-1.6-5.244-3.054c-.58-.317-1.552-1.112-2.23-1.1a.611.611,0,0,0-.344.109c-.069-.049-.139-.1-.21-.142a2.734,2.734,0,0,0,.077-.688c0-.155-.037-.337-.177-.4a.613.613,0,0,0-.315,0c-.106.01-.235-.014-.276-.112a1.575,1.575,0,0,1-.026-.192c-.045-.162-.26-.18-.421-.229-.238-.074-.455-.286-.7-.227a.388.388,0,0,0-.108.046c-.015-.023-.03-.046-.047-.069a.748.748,0,0,0-.1-.11l0-.006a.982.982,0,0,0-.329-.435.4.4,0,0,0-.3-.039.463.463,0,0,0-.245-.226.345.345,0,0,0-.257.015l-.072-.03c-.016-.039-.033-.078-.052-.116a.335.335,0,0,0-.16-.173.363.363,0,0,0-.209,0c-.134.031-.266.068-.4.108a1.324,1.324,0,0,0-1.14.888,2.03,2.03,0,0,0-.173.443,2.723,2.723,0,0,0-.717.669,1.426,1.426,0,0,0-.283.637,6.566,6.566,0,0,0-1.058,1.054,3.455,3.455,0,0,0-1.919-1.4,1.681,1.681,0,0,0-1.787,1.671,2.575,2.575,0,0,1-.284,1.248,1.271,1.271,0,0,0-.227,1.025c.148.38.575.5.981.653a1.533,1.533,0,0,0-.434,1.449,3.022,3.022,0,0,0,.192.6,2.217,2.217,0,0,0-.278,1.33c.091.817.64,1.572.54,2.388-.039.322-.179.627-.2.951-.027.354.085.709.044,1.062a6.74,6.74,0,0,0-.153.8,1.023,1.023,0,0,0,.134.487,5.835,5.835,0,0,0-.643,1.3,10.565,10.565,0,0,0-.16,2.706,13.944,13.944,0,0,1-1.1,4.284.976.976,0,0,1-.171.325c-.276.3-.764.152-1.172.12a1.759,1.759,0,0,0-1.521.691c-.251.337-.371.754-.609,1.1a3.662,3.662,0,0,1-1.988,1.195,1.759,1.759,0,0,0-1.119.223A.8.8,0,0,0,766.868,119.034Zm14.711-20.956-.018-.047a.193.193,0,0,0-.221-.153,6.956,6.956,0,0,0-1.317.081q-.17-.326-.366-.638c-.024-.037-.048-.075-.075-.112.012-.064.026-.128.039-.192,0-.022.008-.044.012-.066a3.734,3.734,0,0,0,.553-1.052l.006,0a8.659,8.659,0,0,0,.981-.335.28.28,0,0,0,.151-.133.3.3,0,0,0-.052-.241,9.278,9.278,0,0,0-.6-.937,4.914,4.914,0,0,1,.275-.68l.021.007c.114.035.252.065.339-.016a.341.341,0,0,0,.08-.2c.013-.081.027-.162.041-.244l.008,0a.957.957,0,0,0,.544-.635,4.566,4.566,0,0,0,1.1.047c.191-.012.388-.019.569-.044a2.5,2.5,0,0,0-.033.336,3.2,3.2,0,0,0,.125.938,4.776,4.776,0,0,0-.435.618.561.561,0,0,0-.086.21.506.506,0,0,0,.08.3,1.63,1.63,0,0,0,.1.159q-.385.734-.762,1.472a6.1,6.1,0,0,0-.5,1.173c0,.011,0,.022-.008.034A2.334,2.334,0,0,1,781.579,98.078Z" transform="translate(-766.663 -89.8)"/></svg>