<?xml version="1.0" encoding="utf-8"?>
<!-- Generator: Adobe Illustrator 27.9.1, SVG Export Plug-In . SVG Version: 6.00 Build 0)  -->
<svg version="1.1" id="Layer_1" xmlns="http://www.w3.org/2000/svg" xmlns:xlink="http://www.w3.org/1999/xlink" x="0px" y="0px"
	 width="130px" height="68px" viewBox="0 0 130 68" style="enable-background:new 0 0 130 68;" xml:space="preserve">
<style type="text/css">
	.st0{fill:none;stroke:#FFFFFF;stroke-miterlimit:10;}
	.st1{fill-rule:evenodd;clip-rule:evenodd;fill:#061836;}
	.st2{fill-rule:evenodd;clip-rule:evenodd;fill:#FFFFFF;}
	.st3{fill-rule:evenodd;clip-rule:evenodd;fill:#EC2027;}
</style>
<g>
	<rect x="2.1" y="13.7" class="st0" width="102.1" height="34"/>
	<rect x="2.1" y="13.7" class="st1" width="102.1" height="34"/>
	<polygon class="st2" points="8.7,20.2 8.7,40.8 13.7,40.8 13.7,28 21.1,40.8 26,40.8 26,20.2 21,20.2 20.9,32.2 13.9,20.2 	"/>
	<polygon class="st2" points="28.9,20.2 28.8,40.8 44.9,40.8 44.9,36.3 34,36.3 34,32.1 43.6,32.1 43.6,27.8 34,27.8 34,24.7 
		44.4,24.8 44.4,20.2 	"/>
	<polygon class="st2" points="45.9,20.2 51.7,40.8 56.9,40.8 59.6,27.5 62.4,40.8 67.1,40.8 73,20.2 67.7,20.2 64.8,32.3 62.4,20.2 
		56.8,20.2 54.5,31.7 51.8,20.2 	"/>
	<path class="st2" d="M84.8,27c0,0,0.7-2.6-3.4-3c-2.8-0.3-3.3,1.7-2.9,2.4c0.8,1.5,7.2,1.5,10.3,4.1c2.6,2.2,2,7.3-0.8,9.1
		c-3.3,2.2-8.6,1.8-10.9,0.8c-4.7-2.1-3.9-6.7-3.9-6.7h4.9c0,0-0.3,3.2,3.6,3.2c4.1,0,4.1-2.1,3.2-3c-0.9-1-8.6-1.3-10.7-4.5
		c-1.4-2.1-1.6-6.4,2.1-8.6c3.7-2.2,9.3-1.1,11.3,1c2.4,2.5,2,5.2,2,5.2L84.8,27z"/>
	<polygon class="st0" points="93.9,2.1 128,2.1 127.9,36 93.9,36 	"/>
	<polygon class="st3" points="93.9,2.1 128,2.1 127.9,36 93.9,36 	"/>
	<polygon class="st2" points="97.4,8.8 105.7,8.8 105.7,29.9 100.7,29.9 100.7,13.7 97.4,13.7 	"/>
	<path class="st2" d="M115.3,30.2c4.4-0.1,7.1-3.1,7.4-5.9c0.4-3.9-1.6-5.2-2.8-5.9c1.3-0.9,2.3-2.1,2.1-4.6
		c-0.4-3.5-3.4-5.3-6.8-5.4c-3.5,0-6.2,2.1-6.7,5.2c-0.4,2.7,1.3,4.3,2.2,4.8c-1.6,0.9-3.2,3.3-2.9,5.9
		C108,26.7,110.5,30.3,115.3,30.2z"/>
	<path class="st3" d="M117.3,14.7c0,1.2-0.9,2.2-2.1,2.2c-1.2,0-2.1-0.9-2.1-2.2c0-1.3,1.1-2,2.1-2
		C116.4,12.6,117.3,13.4,117.3,14.7z"/>
	<path class="st3" d="M117.7,22.9c0,1.3-0.9,2.4-2.3,2.5c-1.4,0.1-2.4-1.2-2.4-2.5c0-1.4,1-2.4,2.4-2.4
		C116.7,20.5,117.7,21.6,117.7,22.9z"/>
</g>
<g>
	<g>
		<path d="M90.5,56.1h-1.7v2.8h-4.8c-0.1,0-0.1,0.1-0.2,0.1c-0.1,0.1-0.2,0.2-0.2,0.3c0,0.1,0.1,0.3,0.2,0.4
			c0.1,0.2,0.3,0.3,0.5,0.5c0.2,0.2,0.3,0.3,0.4,0.3c0.2,0,0.3-0.1,0.4-0.1c0.4-0.1,0.7-0.1,1.1-0.1c0.8,0,1.6,0.2,2.2,0.6
			c0.6,0.4,1,0.9,1,1.6c0,0.8-0.4,1.4-1.1,1.8L87,63.4c0.4-0.1,0.6-0.5,0.6-0.9c0-0.3-0.1-0.5-0.4-0.6c-0.3-0.1-0.6-0.2-1.1-0.2
			c-0.7,0-1.2,0.1-1.7,0.4c-0.4,0.3-0.6,0.7-0.6,1.3c0,0.8,0.6,1.5,1.8,1.9c1.1,0.4,1.7,0.5,1.9,0.4l-0.6,1.3
			c-0.4,0.1-1.3-0.1-2.6-0.6c-1.7-0.7-2.5-1.8-2.5-3.2c0-0.5,0.2-1,0.7-1.5c0.1-0.2,0.4-0.4,0.7-0.6c-0.1,0-0.4-0.3-0.9-0.8
			c-0.5-0.6-0.8-1.2-0.8-1.7c0-0.3,0.1-0.5,0.3-0.7c0.2-0.2,0.5-0.3,0.8-0.3H87v-1.4h-6.5v-1.4h10V56.1z"/>
		<path d="M89.7,55.1c0.1,0,0.2,0,0.2,0.2c0,0.1,0,0.1-0.2,0.2c-0.1,0-0.1,0-0.2-0.1C89.5,55.2,89.5,55.1,89.7,55.1z"/>
		<path d="M88.7,54.8h-1.9c-0.7-0.8-1.2-1.4-1.6-1.8c-1.3-1.2-2.5-1.8-3.6-1.8c-1.5,0-2.3,0.7-2.3,2.1c0,0.4,0.1,0.8,0.2,1.1
			c0,0.1,0.1,0.2,0.2,0.4h1.6v1.4h-1.4v9.6H78v-9.6h-1.6v-1.4H78c-0.1-0.2-0.2-0.3-0.2-0.5c-0.1-0.4-0.2-0.8-0.2-1.2
			c0-1.1,0.4-1.9,1.1-2.5c0.7-0.5,1.7-0.8,3-0.8c1.1,0,2.2,0.4,3.4,1.3c0.9,0.6,1.8,1.5,2.6,2.5C88,53.9,88.4,54.3,88.7,54.8z"/>
		<path d="M101.3,56.1H99v3.1h-4.2c-0.3,0-0.6,0.1-0.9,0.4c-0.3,0.3-0.4,0.6-0.4,1c0,0.9,0.5,1.5,1.5,1.8c0.5,0.1,1.1,0.2,1.8,0.2
			c0-0.5,0-0.8,0.1-1c0.2-0.5,0.7-0.8,1.3-0.8c0.4,0,0.7,0.1,0.9,0.4c0.3,0.2,0.4,0.6,0.4,0.9c0,0.5-0.2,0.9-0.5,1.2
			c-0.1,0.1-0.3,0.2-0.5,0.4l0.4,1c0.2,0.4,0.3,0.6,0.3,0.7c0,0.1,0.1,0.1,0.1,0.2L97.8,66c0,0-0.1-0.1-0.1-0.1
			c-0.1-0.2-0.2-0.4-0.2-0.7c-0.1-0.3-0.2-0.5-0.2-0.7c0-0.2-0.1-0.3-0.1-0.5c-0.1,0-0.2,0-0.3,0c-1.7,0-3.1-0.3-4-1
			c-0.9-0.6-1.4-1.6-1.4-2.8c0-0.8,0.3-1.4,0.8-1.9c0.5-0.5,1.2-0.7,1.9-0.7h2.9v-1.6h-6.7v-1.4h11V56.1z"/>
		<path d="M106.3,56.1h-1.4v9.6H103v-9.6h-1.7v-1.4h1.7c-0.2-0.9-0.4-1.5-0.6-2c-0.6-1.3-1.5-2-2.6-2c-0.5,0-0.8,0.1-1.1,0.4
			c-0.3,0.3-0.4,0.6-0.4,1.1c0,0.5,0.2,1,0.5,1.6c0.3,0.6,0.5,0.9,0.6,0.9h-1.8c-0.2-0.2-0.4-0.6-0.7-1.2c-0.2-0.5-0.3-1-0.3-1.5
			c0-0.8,0.3-1.5,0.8-2c0.5-0.5,1.3-0.7,2.2-0.7c1.4,0,2.5,0.4,3.4,1.3c0.7,0.6,1.2,1.5,1.5,2.5c0.1,0.5,0.2,0.9,0.3,1.4h1.5V56.1z"
			/>
		<path d="M91.4,52.4c0-0.3-0.1-0.5-0.2-0.6c-0.2-0.2-0.4-0.3-0.6-0.3c-0.2,0-0.5,0.1-0.6,0.3c-0.2,0.2-0.3,0.4-0.3,0.7
			c0,0.4,0.2,0.8,0.5,1c0.1,0,0.1,0.1,0.2,0.2c0.2-0.1,0.4-0.2,0.5-0.3C91.2,53.1,91.4,52.7,91.4,52.4z"/>
	</g>
</g>
</svg>
