<?xml version="1.0" encoding="utf-8"?>
<!-- Generator: Adobe Illustrator 25.4.1, SVG Export Plug-In . SVG Version: 6.00 Build 0)  -->
<svg version="1.1" id="Layer_1" xmlns="http://www.w3.org/2000/svg" xmlns:xlink="http://www.w3.org/1999/xlink" x="0px" y="0px"
	 width="115px" height="52px" viewBox="0 0 115 52" style="enable-background:new 0 0 115 52;" xml:space="preserve">
<style type="text/css">
	.st0{fill:none;stroke:#FFFFFF;stroke-miterlimit:10;}
	.st1{fill-rule:evenodd;clip-rule:evenodd;fill:#061836;}
	.st2{fill-rule:evenodd;clip-rule:evenodd;fill:#FFFFFF;}
	.st3{fill-rule:evenodd;clip-rule:evenodd;fill:#EC2027;}
</style>
<g>
	<rect x="1.2" y="18.7" class="st0" width="66.5" height="22.1"/>
	<rect x="1.2" y="18.7" class="st1" width="66.5" height="22.1"/>
	<polygon class="st2" points="5.6,22.9 5.6,36.4 8.8,36.4 8.8,28.1 13.6,36.4 16.8,36.4 16.8,22.9 13.6,22.9 13.5,30.8 9,22.9 	"/>
	<polygon class="st2" points="18.7,22.9 18.7,36.4 29.2,36.4 29.2,33.4 22,33.4 22,30.7 28.3,30.7 28.3,27.9 22,27.9 22,25.9 
		28.9,25.9 28.9,22.9 	"/>
	<polygon class="st2" points="29.8,22.9 33.6,36.4 37,36.4 38.7,27.7 40.6,36.4 43.6,36.4 47.4,22.9 44,22.9 42.1,30.8 40.5,22.9 
		36.9,22.9 35.4,30.4 33.7,22.9 	"/>
	<path class="st2" d="M55.1,27.4c0,0,0.4-1.7-2.2-1.9c-1.8-0.2-2.2,1.1-1.9,1.6c0.6,1,4.7,1,6.7,2.6c1.7,1.4,1.3,4.7-0.5,5.9
		c-2.2,1.5-5.6,1.2-7.1,0.5c-3-1.4-2.5-4.4-2.5-4.4h3.2c0,0-0.2,2.1,2.4,2.1c2.6,0,2.6-1.4,2.1-1.9c-0.6-0.6-5.6-0.8-7-2.9
		c-0.9-1.4-1-4.2,1.4-5.6c2.4-1.5,6-0.7,7.4,0.6c1.6,1.6,1.3,3.4,1.3,3.4L55.1,27.4z"/>
	<polygon class="st0" points="61.1,11.1 83.2,11.1 83.2,33.3 61.1,33.3 	"/>
	<polygon class="st3" points="61.1,11.1 83.2,11.1 83.2,33.3 61.1,33.3 	"/>
	<polygon class="st2" points="63.3,15.5 68.7,15.5 68.7,29.3 65.5,29.3 65.5,18.7 63.3,18.7 	"/>
	<path class="st2" d="M75,29.5c2.8-0.1,4.6-2,4.8-3.9c0.3-2.5-1.1-3.4-1.8-3.8c0.9-0.6,1.5-1.3,1.4-3c-0.2-2.3-2.2-3.5-4.4-3.5
		c-2.3,0-4,1.4-4.4,3.4c-0.3,1.8,0.9,2.8,1.4,3.1c-1.1,0.6-2.1,2.1-1.9,3.8C70.3,27.2,71.9,29.5,75,29.5z"/>
	<path class="st3" d="M76.3,19.3c0,0.8-0.6,1.4-1.3,1.4s-1.4-0.6-1.4-1.4c0-0.8,0.7-1.3,1.4-1.3C75.7,18,76.3,18.5,76.3,19.3z"/>
	<path class="st3" d="M76.5,24.7c0,0.9-0.6,1.6-1.5,1.6c-0.9,0-1.6-0.7-1.6-1.6c0-0.9,0.6-1.6,1.6-1.6
		C75.9,23.2,76.5,23.9,76.5,24.7z"/>
	<g>
		<g>
			<path d="M100.3,28.3h-1.5v2.4h-4.1c-0.1,0-0.1,0-0.1,0.1c-0.1,0.1-0.2,0.1-0.2,0.2c0,0.1,0.1,0.2,0.2,0.4
				c0.1,0.1,0.3,0.3,0.4,0.5c0.2,0.2,0.3,0.2,0.3,0.2c0.2,0,0.3-0.1,0.4-0.1c0.3-0.1,0.6-0.1,0.9-0.1c0.7,0,1.3,0.2,1.9,0.5
				c0.5,0.3,0.8,0.8,0.8,1.4c0,0.7-0.3,1.2-0.9,1.6l-1.1-0.7c0.4-0.1,0.5-0.4,0.5-0.8c0-0.3-0.1-0.4-0.4-0.5
				C97.3,33.1,97,33,96.6,33c-0.6,0-1,0.1-1.4,0.4c-0.4,0.2-0.6,0.6-0.6,1.1c0,0.7,0.5,1.3,1.6,1.6c0.9,0.3,1.5,0.4,1.7,0.3
				l-0.5,1.1c-0.3,0.1-1.1-0.1-2.2-0.5c-1.4-0.6-2.1-1.5-2.1-2.7c0-0.4,0.2-0.9,0.6-1.3c0.1-0.1,0.3-0.3,0.6-0.5
				c-0.1,0-0.4-0.2-0.7-0.7c-0.4-0.5-0.7-1-0.7-1.4c0-0.3,0.1-0.5,0.3-0.6c0.2-0.2,0.4-0.2,0.7-0.2h3.6v-1.2h-5.5v-1.2h8.5V28.3z"/>
			<path d="M99.6,27.5c0.1,0,0.1,0,0.2,0.1c0,0.1,0,0.1-0.1,0.2c-0.1,0-0.1,0-0.2-0.1C99.4,27.6,99.5,27.5,99.6,27.5z"/>
			<path d="M98.8,27.2h-1.6c-0.6-0.7-1-1.2-1.4-1.6c-1.1-1-2.1-1.6-3-1.6c-1.3,0-2,0.6-2,1.8c0,0.4,0.1,0.7,0.2,1
				c0,0.1,0.1,0.2,0.2,0.3h1.4v1.2h-1.2v8.2h-1.6v-8.2h-1.4v-1.2h1.4c-0.1-0.2-0.2-0.3-0.2-0.4c-0.1-0.3-0.2-0.7-0.2-1
				c0-0.9,0.3-1.6,0.9-2.1c0.6-0.5,1.4-0.7,2.5-0.7c0.9,0,1.9,0.4,2.9,1.1c0.8,0.5,1.5,1.2,2.2,2.1C98.2,26.4,98.5,26.8,98.8,27.2z"
				/>
			<path d="M109.5,28.3h-2v2.6H104c-0.3,0-0.5,0.1-0.8,0.3c-0.2,0.2-0.4,0.5-0.4,0.9c0,0.8,0.4,1.3,1.2,1.5c0.4,0.1,0.9,0.2,1.6,0.2
				c0-0.4,0-0.7,0.1-0.8c0.2-0.4,0.6-0.7,1.1-0.7c0.3,0,0.6,0.1,0.8,0.3c0.2,0.2,0.3,0.5,0.3,0.8c0,0.4-0.1,0.7-0.4,1
				c-0.1,0.1-0.2,0.2-0.4,0.3l0.3,0.8c0.1,0.3,0.2,0.5,0.3,0.6c0,0.1,0.1,0.1,0.1,0.2l-1.4,0.3c0,0,0-0.1-0.1-0.1
				c-0.1-0.1-0.1-0.3-0.2-0.6c-0.1-0.2-0.1-0.4-0.2-0.6c0-0.2,0-0.3-0.1-0.4c-0.1,0-0.2,0-0.3,0c-1.5,0-2.6-0.3-3.4-0.8
				c-0.8-0.6-1.2-1.3-1.2-2.3c0-0.7,0.2-1.2,0.7-1.6c0.5-0.4,1-0.6,1.6-0.6h2.5v-1.4h-5.7v-1.2h9.3V28.3z"/>
			<path d="M113.8,28.3h-1.2v8.1h-1.6v-8.1h-1.4v-1.2h1.5c-0.2-0.7-0.3-1.3-0.5-1.7c-0.5-1.1-1.2-1.7-2.2-1.7c-0.4,0-0.7,0.1-1,0.3
				c-0.3,0.2-0.4,0.5-0.4,0.9c0,0.4,0.1,0.9,0.4,1.4c0.3,0.5,0.4,0.8,0.5,0.8h-1.6c-0.2-0.2-0.4-0.5-0.6-1c-0.2-0.5-0.3-0.9-0.3-1.3
				c0-0.7,0.2-1.3,0.7-1.7c0.4-0.4,1.1-0.6,1.9-0.6c1.2,0,2.1,0.4,2.9,1.1c0.6,0.5,1,1.3,1.3,2.1c0.1,0.4,0.2,0.8,0.3,1.2h1.3V28.3z
				"/>
			<path d="M101,25.2c0-0.2-0.1-0.4-0.2-0.5c-0.1-0.1-0.3-0.2-0.5-0.2c-0.2,0-0.4,0.1-0.5,0.2c-0.1,0.1-0.2,0.3-0.2,0.6
				c0,0.4,0.1,0.7,0.4,0.9c0,0,0.1,0.1,0.2,0.1c0.2-0.1,0.3-0.2,0.4-0.2C100.9,25.7,101,25.5,101,25.2z"/>
		</g>
	</g>
</g>
</svg>
