<svg xmlns="http://www.w3.org/2000/svg" xmlns:xlink="http://www.w3.org/1999/xlink" width="118.752" height="62" viewBox="0 0 118.752 62">
  <defs>
    <filter id="Path_30481" x="0" y="0" width="59.707" height="62" filterUnits="userSpaceOnUse">
      <feOffset dy="3" input="SourceAlpha"/>
      <feGaussianBlur stdDeviation="3" result="blur"/>
      <feFlood flood-opacity="0.161"/>
      <feComposite operator="in" in2="blur"/>
      <feComposite in="SourceGraphic"/>
    </filter>
    <filter id="Path_30497" x="78.064" y="1.368" width="40.164" height="29.172" filterUnits="userSpaceOnUse">
      <feOffset dy="3" input="SourceAlpha"/>
      <feGaussianBlur stdDeviation="3" result="blur-2"/>
      <feFlood flood-opacity="0.161"/>
      <feComposite operator="in" in2="blur-2"/>
      <feComposite in="SourceGraphic"/>
    </filter>
    <filter id="Path_30498" x="48.612" y="10.94" width="70.14" height="36.26" filterUnits="userSpaceOnUse">
      <feOffset dy="3" input="SourceAlpha"/>
      <feGaussianBlur stdDeviation="3" result="blur-3"/>
      <feFlood flood-opacity="0.161"/>
      <feComposite operator="in" in2="blur-3"/>
      <feComposite in="SourceGraphic"/>
    </filter>
    <filter id="Path_30499" x="57.064" y="31.368" width="61.188" height="29.472" filterUnits="userSpaceOnUse">
      <feOffset dy="3" input="SourceAlpha"/>
      <feGaussianBlur stdDeviation="3" result="blur-4"/>
      <feFlood flood-opacity="0.2"/>
      <feComposite operator="in" in2="blur-4"/>
      <feComposite in="SourceGraphic"/>
    </filter>
  </defs>
  <g id="Cricket_World_Cup_2023" data-name="Cricket World Cup 2023" transform="translate(-138.005 -5)">
    <g transform="matrix(1, 0, 0, 1, 138, 5)" filter="url(#Path_30481)">
      <path id="Path_30481-2" data-name="Path 30481" d="M14.84,6.05c0,.052-.052.079-.079.1-.367.1-.786.236-1.179.393a.026.026,0,0,1-.026-.026A7.31,7.31,0,0,1,14.787,3.2c.131-.183.236-.34.367-.5,0-.026.026-.026.052-.026a5.986,5.986,0,0,1,1.257.21,8.835,8.835,0,0,1,3.2,1.519c.183.157.183.288.131.288a9.854,9.854,0,0,0-3.771-1.1.272.272,0,0,0-.21.1A6.243,6.243,0,0,0,14.84,6.05M20.89,0a7.463,7.463,0,0,0-4.06,1.2c-.052.026-.1.079-.026.1a10.327,10.327,0,0,1,1.336.367A20.819,20.819,0,0,1,23.194,4.4c.079.052.026-.157-.052-.262a10.959,10.959,0,0,0-4.086-2.776c-.026,0-.026-.026,0-.026A6.291,6.291,0,0,1,21.413,1.1a6.145,6.145,0,0,1,5.448,5.055c0,.052.052.079.079.1.393.1.786.236,1.179.367a.026.026,0,0,0,.026-.026A7.447,7.447,0,0,0,20.89,0M15.651,2.226a10.6,10.6,0,0,1,1.257.236,20.353,20.353,0,0,1,4.557,2.069c.052.026.052-.157-.052-.262a10.074,10.074,0,0,0-3.85-2.279,8.673,8.673,0,0,0-1.336-.314c-.026,0-.052.026-.079.026a4.822,4.822,0,0,0-.524.5.026.026,0,0,0,.026.026m13.3,41.7c-.471-3.3-4.3-4.636-8.119-4.636s-7.648,1.336-8.119,4.636c-.026.079.026.079.052.079a17.707,17.707,0,0,1,8.067-1.7A17.786,17.786,0,0,1,28.9,44c.026,0,.079,0,.052-.079m3.981-28.652a.746.746,0,0,1-.262-.707l.157-1.179s.026-.026.026,0a17.421,17.421,0,0,1,6.39,12.676,17.122,17.122,0,0,1-3.483,11.157c-.052.079-.1.026-.052-.026a16.674,16.674,0,0,0-2.776-21.921M30.58,43.5h0l-.21-.524a.664.664,0,0,1,.288-.812,18.115,18.115,0,0,0,9.01-16.343A17.783,17.783,0,0,0,33.33,13.043a.929.929,0,0,1-.314-.838l.367-2.593s0-.026.026,0a19.772,19.772,0,0,1,8.3,15.19A20.161,20.161,0,0,1,30.58,43.5M8.842,13.357h0l.183,1.2a.81.81,0,0,1-.262.707A16.73,16.73,0,0,0,3.106,27.055a16.528,16.528,0,0,0,2.881,10.11c.026.052-.026.1-.052.026A17.122,17.122,0,0,1,2.451,26.033a17.468,17.468,0,0,1,6.39-12.676m2.514,29.621-.183.524s-.026.026-.026,0a19.784,19.784,0,0,1-2.8-33.917H8.37l.367,2.593a.929.929,0,0,1-.314.838A17.762,17.762,0,0,0,2.059,25.8a18.064,18.064,0,0,0,9.01,16.343.745.745,0,0,1,.288.838m5.212-31.455a5.3,5.3,0,0,0-.6,1.283v.052a7.606,7.606,0,0,0,4.479,1.86s.026,0,0-.026a16.172,16.172,0,0,0-1.021-1.571L19.4,13.1a6.178,6.178,0,0,1-2.829-1.571h0M17.93,37.452a.471.471,0,0,0,.131-.655c-5.421-8.46-7.071-21.45-7.386-27.736,0-.5.052-.655.236-.786a18.118,18.118,0,0,1,4.767-1.833c.314-.052.524.183.524.6v3.9c-.943,1.231-2.1,4.086-1.283,11.5.707,6.626,3.143,13.121,4.871,14.3,2.488,1.624,3.562-5.16,3.8-6.626,1.048-6.26-.5-14.614-5.081-19.067V6.679a.706.706,0,0,1,.367-.707,1.747,1.747,0,0,1,.707-.131A20.959,20.959,0,0,1,30.659,8.2c.367.183.393.524.367.917-.314,6.338-2.2,18.2-7.438,27.71a.466.466,0,0,0,.157.629,11.691,11.691,0,0,1,2.54,2.2c.052.052.026.131-.052.1a13.207,13.207,0,0,0-5.369-1.074,12.692,12.692,0,0,0-5.369,1.074c-.079.026-.1-.026-.052-.1a10.685,10.685,0,0,1,2.488-2.2m4.086-19.2A18.178,18.178,0,0,0,20.837,15.4l-.026-.026-.393-.026a8.125,8.125,0,0,1-4.662-1.833H15.73a26.953,26.953,0,0,0-.183,8.826A42.61,42.61,0,0,0,17.563,31.4c1.021,2.933,2.017,4.4,2.567,4.767a.578.578,0,0,0,.89-.131c.026-.026,0-.026,0-.026a.872.872,0,0,1-.367-.026c-1.257-.576-1.781-5.579-1.86-6.26-.34-3.431.445-8.957,3.221-11.471m2.7-9.114a11.809,11.809,0,0,1,3.981,4.714,16.97,16.97,0,0,0-3.221-1.283,10.09,10.09,0,0,1,2.907,3.85,16.834,16.834,0,0,0-2.514-1.1A12.651,12.651,0,0,1,28.092,18.8a68.162,68.162,0,0,0,.89-8.25A21.043,21.043,0,0,0,24.713,9.14" transform="translate(8.98 6)" fill="#fff"/>
    </g>
    <g transform="matrix(1, 0, 0, 1, 138, 5)" filter="url(#Path_30497)">
      <path id="Path_30497-2" data-name="Path 30497" d="M.78-7.872v-.384q0-2.376,2.784-2.376a9.452,9.452,0,0,1,3.324.648v.936A11.576,11.576,0,0,0,3.75-9.672a2.516,2.516,0,0,0-1.524.336,1.327,1.327,0,0,0-.414,1.092v.372H2.9v.888H1.8V0H.756V-6.984h-1.1v-.888ZM5.364-5.124l-.252-.012a.913.913,0,0,0-.654.186.723.723,0,0,0-.186.534v1.644a.723.723,0,0,0,.186.534.892.892,0,0,0,.642.186,2.259,2.259,0,0,0,.756-.108V-6.984H2.208v-.888h8.124v.888H6.876v1.02a2.648,2.648,0,0,1,.8-.1q1.752,0,1.752,1.62v2A1.411,1.411,0,0,1,7.848-.828a1.418,1.418,0,0,1-.276-.024v-.972a2.12,2.12,0,0,0,.312.012q.54,0,.54-.7V-4.416q0-.732-.84-.732a2.74,2.74,0,0,0-.708.1V0H5.856V-1.272L5.8-1.26,4.26.54H3.024L4.56-1.188a1.388,1.388,0,0,1-1.3-1.548v-1.7q0-1.608,1.752-1.608a1.132,1.132,0,0,1,.348.036Zm6.984,0L12.1-5.136a.913.913,0,0,0-.654.186.723.723,0,0,0-.186.534v2.04q0,.732.84.732a2.134,2.134,0,0,0,.744-.12v-5.22H9.408v-.888h7.848v.888h-3.4v1.02a2.648,2.648,0,0,1,.8-.1q1.752,0,1.752,1.62v2A1.411,1.411,0,0,1,14.832-.828a1.418,1.418,0,0,1-.276-.024v-.972a2.12,2.12,0,0,0,.312.012q.54,0,.54-.7V-4.416q0-.732-.84-.732a2.74,2.74,0,0,0-.708.1V0H12.84V-.864A6.776,6.776,0,0,1,12-.756q-1.752,0-1.752-1.584v-2.1q0-1.608,1.752-1.608a1.132,1.132,0,0,1,.348.036Zm-1.212-5.5a1.717,1.717,0,0,1,.84.186,1.95,1.95,0,0,1,.648.666l1.236,1.9H12.78l-.912-1.38a.958.958,0,0,0-.84-.48,3.038,3.038,0,0,0-.312.012V-10.6Q10.98-10.62,11.136-10.62ZM18.312-4.2v2.376q0,.924,1.2.924a6.239,6.239,0,0,0,1.416-.18v.948a6.426,6.426,0,0,1-1.6.18,2.237,2.237,0,0,1-1.482-.48,1.7,1.7,0,0,1-.576-1.38V-4.26q0-1.716,1.92-1.716h.5V-6.984h-3.36v-.888h5.484v.888h-1.08v1.956H19.284Q18.312-5.028,18.312-4.2Z" transform="translate(87.41 18)" fill="#fff"/>
    </g>
    <g transform="matrix(1, 0, 0, 1, 138, 5)" filter="url(#Path_30498)">
      <path id="Path_30498-2" data-name="Path 30498" d="M.9-13.42v-.32a3.856,3.856,0,0,1,1.38-3.25A6.094,6.094,0,0,1,6.1-18.06a23.376,23.376,0,0,1,6.32.92v2.48a30.657,30.657,0,0,0-5.72-.82,4.8,4.8,0,0,0-2.43.4,1.592,1.592,0,0,0-.57,1.4v.26H5.28v2.34H3.64V0H.84V-11.08H-.8v-2.34ZM8.96-7.76q-1.06,0-1.06.86v2.62q0,.88,1.08.88a2.739,2.739,0,0,0,.94-.14V-7.66A4.9,4.9,0,0,0,8.96-7.76Zm.82-3.32H3.68v-2.34H14.22v2.34H12.58V0H9.78V-1.18a6.744,6.744,0,0,1-1.32.14,3.41,3.41,0,0,1-2.53-.78,3.352,3.352,0,0,1-.75-2.4v-2.7a3.339,3.339,0,0,1,.77-2.4,3.365,3.365,0,0,1,2.51-.8,6.744,6.744,0,0,1,1.32.14Zm13.06-2.34h4.44v2.34H25.64V.2h-2.8V-.54A4.683,4.683,0,0,1,21.7-.4a3.105,3.105,0,0,1-2.31-.75,3.2,3.2,0,0,1-.73-2.31v-.7a3.448,3.448,0,0,1,.02-.44l-.96-.72L16.08-3.6l-3.04-.44,2.68-2.78a4.743,4.743,0,0,1-1.39-1.45,3.832,3.832,0,0,1-.35-1.77v-.3q0-3.18,3.42-3.18a3.475,3.475,0,0,1,2.54.8,3.23,3.23,0,0,1,.8,2.38v.1a3.973,3.973,0,0,1-.21,1.37,2.677,2.677,0,0,1-.44.83,8.222,8.222,0,0,1-.77.72l.64.5a3,3,0,0,1,1.55-.4,3.461,3.461,0,0,1,1.33.2ZM18.1-9.84v-.48a1.114,1.114,0,0,0-.13-.6q-.13-.2-.57-.2t-.57.2a1.114,1.114,0,0,0-.13.6v.48a1.006,1.006,0,0,0,.32.8q.12.12.38.34.28-.24.38-.34A1.006,1.006,0,0,0,18.1-9.84Zm3.22,5.5v1.16q0,.7.76.7l.76-.08V-4.88a1.534,1.534,0,0,0-.76-.16Q21.32-5.04,21.32-4.34Zm11.34.18a.947.947,0,0,0,.18.63.811.811,0,0,0,.64.21,2.294,2.294,0,0,0,.86-.16v-7.6H28.6v-2.34H42.82v2.34H37.06V-10a6.738,6.738,0,0,1,1.22-.1,3.161,3.161,0,0,1,2.37.78,3.289,3.289,0,0,1,.75,2.36V-4.3a3.4,3.4,0,0,1-.7,2.36,3.065,3.065,0,0,1-2.34.76l-.42-.04V-3.84q.54.08.67-.11a1.153,1.153,0,0,0,.13-.63V-6.86a.947.947,0,0,0-.18-.63.841.841,0,0,0-.66-.21l-.84.1V0H34.32V-1.18a4.35,4.35,0,0,1-1.2.16,3.292,3.292,0,0,1-2.38-.73A3.1,3.1,0,0,1,30-4.04V-6.96a3.289,3.289,0,0,1,.75-2.36,3.161,3.161,0,0,1,2.37-.78l.58.06v2.36a2.421,2.421,0,0,0-.39-.02.589.589,0,0,0-.47.21.947.947,0,0,0-.18.63Zm13.42-.6a2.855,2.855,0,0,0,.82-.14v-6.18H45.18v5.52Q45.18-4.76,46.08-4.76ZM46.9,0V-2.44a4.488,4.488,0,0,1-1.3.16,3.315,3.315,0,0,1-2.47-.78,3.32,3.32,0,0,1-.75-2.38v-5.64H40.84v-2.34h10.5v2.34H49.7V0Z" transform="translate(58.41 35)" fill="#fff"/>
    </g>
    <g transform="matrix(1, 0, 0, 1, 138, 5)" filter="url(#Path_30499)">
      <path id="Path_30499-2" data-name="Path 30499" d="M1.56-2.04v.8a3.874,3.874,0,0,0,.888.1q.96,0,.96-.708V-2.22a.665.665,0,0,0-.186-.51A.979.979,0,0,0,2.556-2.9H2.268Q.444-2.9.444-4.428v-.1a1.409,1.409,0,0,1,.45-1.152,2.126,2.126,0,0,1,1.374-.372h.8v-.936H-.348v-.888H5.2v.888H4.116v1.848H2.268a.935.935,0,0,0-.618.156.613.613,0,0,0-.174.48v.048q0,.648.792.648h.288q1.884,0,1.884,1.56v.432A1.554,1.554,0,0,1,4-.6a2.134,2.134,0,0,1-1.446.4,5.444,5.444,0,0,1-1-.1V.84H.552V-2.04Zm2.64-7.3a.541.541,0,0,1-.612.612.544.544,0,0,1-.612-.618.544.544,0,0,1,.612-.618A.546.546,0,0,1,4.2-9.336ZM5.628-7.872v-.4q0-2.364,2.736-2.364a7.763,7.763,0,0,1,3.06.648v.936a8.394,8.394,0,0,0-3-.624,2.142,2.142,0,0,0-1.362.336,1.347,1.347,0,0,0-.4,1.092v.372H7.752v.888h-1.1V0H5.6V-6.984H4.5v-.888Zm6.3,5.94v.324Q11.928.1,9.72.1A7.415,7.415,0,0,1,8.064-.1v-.972a6.614,6.614,0,0,0,1.656.2q1.164,0,1.164-.756v-.288a.665.665,0,0,0-.186-.51.979.979,0,0,0-.666-.174h-.24q-1.836,0-1.836-1.524v-.42q0-1.524,1.836-1.524h.732v-.924H7.056v-.888h5.688v.888H11.568v1.848H9.792a.909.909,0,0,0-.618.162A.633.633,0,0,0,9-4.488v.336a.653.653,0,0,0,.174.492.886.886,0,0,0,.618.168h.24Q11.928-3.492,11.928-1.932Zm2.544-4.3a2.594,2.594,0,0,0-.1-.756H12.06v-.888h6.78v.888h-1.1V0H16.692V-1.152a5.846,5.846,0,0,1-1.236.132,2.963,2.963,0,0,1-1.8-.5,1.85,1.85,0,0,1-.684-1.6V-4.656h.264a1.96,1.96,0,0,0,.978-.168.732.732,0,0,0,.258-.66Zm1.02,0v.888q0,1.4-1.5,1.44v.672a1.143,1.143,0,0,0,.366.93,1.6,1.6,0,0,0,1.05.306,6.543,6.543,0,0,0,1.284-.12V-6.984H15.4A2.379,2.379,0,0,1,15.492-6.228Zm3.756-.756h-1.1v-.888H21.4v.888h-1.1V0H19.248ZM25.476-8.2q2.256,0,2.256,1.8v.7a2.392,2.392,0,0,1-.21,1.062,2.114,2.114,0,0,1-.7.774l-.972.732a3.125,3.125,0,0,0-.732.66,1.336,1.336,0,0,0-.18.756v.7H27.72V0H23.8V-1.8a2.067,2.067,0,0,1,.3-1.176A3.464,3.464,0,0,1,25-3.84l1.02-.792a1.226,1.226,0,0,0,.468-.492,1.772,1.772,0,0,0,.12-.72V-6.3a.808.808,0,0,0-.24-.642,1.6,1.6,0,0,0-.99-.21,3.888,3.888,0,0,0-1.446.276V-7.968A4.745,4.745,0,0,1,25.476-8.2Zm6.468,1.944a.864.864,0,0,0-.972-.984.938.938,0,0,0-.744.252,1.1,1.1,0,0,0-.216.732v4.368a1.1,1.1,0,0,0,.216.732.938.938,0,0,0,.744.252.864.864,0,0,0,.972-.984Zm-3.06-.024a2,2,0,0,1,.516-1.44,2.089,2.089,0,0,1,1.578-.54,2.089,2.089,0,0,1,1.578.54,2,2,0,0,1,.516,1.44v4.428a1.976,1.976,0,0,1-.516,1.434A2.1,2.1,0,0,1,30.978.12,2.1,2.1,0,0,1,29.4-.414a1.976,1.976,0,0,1-.516-1.434ZM35.868-8.2q2.256,0,2.256,1.8v.7a2.392,2.392,0,0,1-.21,1.062,2.114,2.114,0,0,1-.7.774l-.972.732a3.125,3.125,0,0,0-.732.66,1.336,1.336,0,0,0-.18.756v.7h2.784V0H34.188V-1.8a2.067,2.067,0,0,1,.3-1.176,3.464,3.464,0,0,1,.9-.864l1.02-.792a1.226,1.226,0,0,0,.468-.492,1.772,1.772,0,0,0,.12-.72V-6.3a.808.808,0,0,0-.24-.642,1.6,1.6,0,0,0-.99-.21,3.888,3.888,0,0,0-1.446.276V-7.968A4.745,4.745,0,0,1,35.868-8.2Zm4.656,0q2.28,0,2.28,1.812v.828a1.342,1.342,0,0,1-.864,1.44,1.232,1.232,0,0,1,.9,1.368v1a1.643,1.643,0,0,1-.57,1.338A2.489,2.489,0,0,1,40.638.06a4.941,4.941,0,0,1-1.674-.228v-1.08a4.155,4.155,0,0,0,1.476.276,1.639,1.639,0,0,0,1.008-.222.806.806,0,0,0,.264-.654v-.768a.969.969,0,0,0-.228-.7,1.024,1.024,0,0,0-.756-.234h-.852V-4.6h.84a.92.92,0,0,0,.732-.252,1.1,1.1,0,0,0,.216-.732V-6.3a.81.81,0,0,0-.252-.642,1.593,1.593,0,0,0-1-.222,3.653,3.653,0,0,0-1.29.2V-8.028A4.621,4.621,0,0,1,40.524-8.2Z" transform="translate(66.41 48)" fill="#fff"/>
    </g>
  </g>
</svg>
