<svg xmlns="http://www.w3.org/2000/svg" xmlns:xlink="http://www.w3.org/1999/xlink" width="274.369" height="78" viewBox="0 0 274.369 78">
  <defs>
    <filter id="Path_30481" x="0" y="0" width="74.874" height="78" filterUnits="userSpaceOnUse">
      <feOffset dy="3" input="SourceAlpha"/>
      <feGaussianBlur stdDeviation="3" result="blur"/>
      <feFlood flood-opacity="0.161"/>
      <feComposite operator="in" in2="blur"/>
      <feComposite in="SourceGraphic"/>
    </filter>
    <filter id="Path_30495" x="64.809" y="1.406" width="209.56" height="55.8" filterUnits="userSpaceOnUse">
      <feOffset dy="3" input="SourceAlpha"/>
      <feGaussianBlur stdDeviation="3" result="blur-2"/>
      <feFlood flood-opacity="0.2"/>
      <feComposite operator="in" in2="blur-2"/>
      <feComposite in="SourceGraphic"/>
    </filter>
    <filter id="Path_30500" x="68.049" y="44.815" width="70.83" height="32.16" filterUnits="userSpaceOnUse">
      <feOffset dy="3" input="SourceAlpha"/>
      <feGaussianBlur stdDeviation="3" result="blur-3"/>
      <feFlood flood-opacity="0.2"/>
      <feComposite operator="in" in2="blur-3"/>
      <feComposite in="SourceGraphic"/>
    </filter>
  </defs>
  <g id="Cricket_World_Cup_2023" data-name="Cricket World Cup 2023" transform="translate(-485.008 -1317.178)">
    <g transform="matrix(1, 0, 0, 1, 485.01, 1317.18)" filter="url(#Path_30481)">
      <path id="Path_30481-2" data-name="Path 30481" d="M20.228,8.25c0,.071-.071.107-.107.143-.5.143-1.071.321-1.607.536a.035.035,0,0,1-.036-.036,9.969,9.969,0,0,1,1.679-4.536c.179-.25.321-.464.5-.679,0-.036.036-.036.071-.036a8.163,8.163,0,0,1,1.714.286A12.047,12.047,0,0,1,26.8,6c.25.214.25.393.179.393a13.437,13.437,0,0,0-5.143-1.5.371.371,0,0,0-.286.143A8.514,8.514,0,0,0,20.228,8.25M28.478,0a10.176,10.176,0,0,0-5.536,1.643c-.071.036-.143.107-.036.143a14.083,14.083,0,0,1,1.821.5A28.39,28.39,0,0,1,31.621,6c.107.071.036-.214-.071-.357a14.943,14.943,0,0,0-5.571-3.786c-.036,0-.036-.036,0-.036A8.579,8.579,0,0,1,29.192,1.5a8.379,8.379,0,0,1,7.429,6.893c0,.071.071.107.107.143.536.143,1.071.321,1.607.5A.035.035,0,0,0,38.371,9a10.155,10.155,0,0,0-9.893-9M21.335,3.036a14.457,14.457,0,0,1,1.714.321,27.755,27.755,0,0,1,6.214,2.821c.071.036.071-.214-.071-.357a13.737,13.737,0,0,0-5.25-3.107,11.827,11.827,0,0,0-1.821-.429c-.036,0-.071.036-.107.036A6.575,6.575,0,0,0,21.3,3a.035.035,0,0,0,.036.036M39.478,59.893c-.643-4.5-5.857-6.321-11.071-6.321s-10.429,1.821-11.071,6.321c-.036.107.036.107.071.107a24.146,24.146,0,0,1,11-2.321,24.254,24.254,0,0,1,11,2.321c.036,0,.107,0,.071-.107m5.429-39.071a1.017,1.017,0,0,1-.357-.964l.214-1.607s.036-.036.036,0a23.756,23.756,0,0,1,8.714,17.286,23.348,23.348,0,0,1-4.75,15.214c-.071.107-.143.036-.071-.036a22.738,22.738,0,0,0-3.786-29.893m-3.214,38.5h0l-.286-.714A.906.906,0,0,1,41.8,57.5,24.7,24.7,0,0,0,54.085,35.214a24.249,24.249,0,0,0-8.643-17.429,1.266,1.266,0,0,1-.429-1.143l.5-3.536s0-.036.036,0A26.962,26.962,0,0,1,56.871,33.821a27.492,27.492,0,0,1-15.179,25.5M12.049,18.214h0l.25,1.643a1.1,1.1,0,0,1-.357.964A22.813,22.813,0,0,0,4.228,36.893,22.538,22.538,0,0,0,8.157,50.679c.036.071-.036.143-.071.036A23.348,23.348,0,0,1,3.335,35.5a23.821,23.821,0,0,1,8.714-17.286m3.429,40.393-.25.714s-.036.036-.036,0a26.978,26.978,0,0,1-3.821-46.25h.036l.5,3.536a1.266,1.266,0,0,1-.429,1.143A24.221,24.221,0,0,0,2.8,35.179,24.632,24.632,0,0,0,15.085,57.464a1.017,1.017,0,0,1,.393,1.143m7.107-42.893a7.224,7.224,0,0,0-.821,1.75v.071a10.372,10.372,0,0,0,6.107,2.536s.036,0,0-.036a22.053,22.053,0,0,0-1.393-2.143l-.036-.036a8.425,8.425,0,0,1-3.857-2.143h0m1.857,35.357a.642.642,0,0,0,.179-.893c-7.393-11.536-9.643-29.25-10.071-37.821,0-.679.071-.893.321-1.071a24.707,24.707,0,0,1,6.5-2.5c.429-.071.714.25.714.821v5.321c-1.286,1.679-2.857,5.571-1.75,15.679.964,9.036,4.286,17.893,6.643,19.5,3.393,2.214,4.857-7.036,5.179-9.036,1.429-8.536-.679-19.929-6.929-26V9.107a.963.963,0,0,1,.5-.964,2.383,2.383,0,0,1,.964-.179A28.581,28.581,0,0,1,41.8,11.179c.5.25.536.714.5,1.25-.429,8.643-3,24.821-10.143,37.786a.636.636,0,0,0,.214.857,15.942,15.942,0,0,1,3.464,3c.071.071.036.179-.071.143a18.009,18.009,0,0,0-7.321-1.464,17.308,17.308,0,0,0-7.321,1.464c-.107.036-.143-.036-.071-.143a14.57,14.57,0,0,1,3.393-3m5.571-26.179A24.788,24.788,0,0,0,28.407,21l-.036-.036-.536-.036a11.08,11.08,0,0,1-6.357-2.5h-.036c-.714,2.821-.786,6.929-.25,12.036a58.1,58.1,0,0,0,2.75,12.357c1.393,4,2.75,6,3.5,6.5a.788.788,0,0,0,1.214-.179c.036-.036,0-.036,0-.036a1.189,1.189,0,0,1-.5-.036c-1.714-.786-2.429-7.607-2.536-8.536-.464-4.679.607-12.214,4.393-15.643m3.679-12.429a16.1,16.1,0,0,1,5.429,6.429,23.141,23.141,0,0,0-4.393-1.75,13.759,13.759,0,0,1,3.964,5.25,22.956,22.956,0,0,0-3.429-1.5s2.464,2.786,3.036,4.75a92.947,92.947,0,0,0,1.214-11.25,28.7,28.7,0,0,0-5.821-1.929" transform="translate(8.98 6)" fill="#fff"/>
    </g>
    <g transform="matrix(1, 0, 0, 1, 485.01, 1317.18)" filter="url(#Path_30495)">
      <path id="Path_30495-2" data-name="Path 30495" d="M1.8-26.84v-.64q0-4.36,2.76-6.5t7.64-2.14a46.752,46.752,0,0,1,12.64,1.84v4.96A61.314,61.314,0,0,0,13.4-30.96q-3.72,0-4.86.8a3.184,3.184,0,0,0-1.14,2.8v.52h3.16v4.68H7.28V0H1.68V-22.16H-1.6v-4.68ZM15.96-9.76a1.894,1.894,0,0,0,.36,1.26,1.622,1.622,0,0,0,1.28.42,4.588,4.588,0,0,0,1.72-.32V-22.16H7.36v-4.68H36.24v4.68H24.76V-20a13.476,13.476,0,0,1,2.44-.2q3.24,0,4.74,1.56a6.577,6.577,0,0,1,1.5,4.72V-8.6a6.792,6.792,0,0,1-1.4,4.72q-1.4,1.52-4.68,1.52l-.84-.08V-7.68q1.08.16,1.34-.22a2.307,2.307,0,0,0,.26-1.26v-4.56a1.894,1.894,0,0,0-.36-1.26,1.682,1.682,0,0,0-1.32-.42l-1.68.2V0H19.28V-3.8L16.12,1.68H10.08L13.56-4q-2.92-1.2-2.92-5.52v-4.4a6.577,6.577,0,0,1,1.5-4.72q1.5-1.56,4.74-1.56l1.16.12v4.72a4.843,4.843,0,0,0-.78-.04,1.179,1.179,0,0,0-.94.42,1.894,1.894,0,0,0-.36,1.26Zm25.2,1.44a1.894,1.894,0,0,0,.36,1.26,1.622,1.622,0,0,0,1.28.42,4.588,4.588,0,0,0,1.72-.32v-15.2H33.04v-4.68H61.48v4.68H49.96V-20a13.476,13.476,0,0,1,2.44-.2q3.24,0,4.74,1.56a6.577,6.577,0,0,1,1.5,4.72V-8.6a6.792,6.792,0,0,1-1.4,4.72q-1.4,1.52-4.68,1.52l-.84-.08V-7.68q1.08.16,1.34-.22a2.307,2.307,0,0,0,.26-1.26v-4.56a1.894,1.894,0,0,0-.36-1.26,1.682,1.682,0,0,0-1.32-.42l-1.68.2V0H44.48V-2.36a8.7,8.7,0,0,1-2.4.32q-3.28,0-4.76-1.46a6.2,6.2,0,0,1-1.48-4.58v-5.84a6.577,6.577,0,0,1,1.5-4.72q1.5-1.56,4.74-1.56l1.16.12v4.72a4.843,4.843,0,0,0-.78-.04,1.179,1.179,0,0,0-.94.42,1.894,1.894,0,0,0-.36,1.26Zm-3.04-27.6a19.087,19.087,0,0,1,2.38-.12,6.289,6.289,0,0,1,2.9.74,7.983,7.983,0,0,1,2.8,2.78l3.76,5.68H44.28L42.2-29.72a3.607,3.607,0,0,0-3.04-1.68q-.64,0-1.04.04Zm28.8,23.76v4.92a2,2,0,0,0,.82,1.86,5.594,5.594,0,0,0,2.76.5,29.852,29.852,0,0,0,4.66-.44v5A28.338,28.338,0,0,1,69.92.2q-4.2,0-6.4-1.86a6.749,6.749,0,0,1-2.2-5.46V-12.6a6.962,6.962,0,0,1,1.86-5.24q1.86-1.8,5.58-1.8H69v-2.52H58.32v-4.68H78.2v4.68H74.6v7.6H69.44a2.612,2.612,0,0,0-1.86.62A2.324,2.324,0,0,0,66.92-12.16ZM85.88-26.84v-.64q0-4.36,2.76-6.5t7.64-2.14a46.752,46.752,0,0,1,12.64,1.84v4.96a61.313,61.313,0,0,0-11.44-1.64q-3.72,0-4.86.8a3.184,3.184,0,0,0-1.14,2.8v.52h3.16v4.68H91.36V0h-5.6V-22.16H82.48v-4.68ZM102-15.52q-2.12,0-2.12,1.72v5.24q0,1.76,2.16,1.76a5.479,5.479,0,0,0,1.88-.28v-8.24A9.791,9.791,0,0,0,102-15.52Zm1.64-6.64H91.44v-4.68h21.08v4.68h-3.28V0h-5.6V-2.36a13.489,13.489,0,0,1-2.64.28q-3.56,0-5.06-1.56a6.7,6.7,0,0,1-1.5-4.8v-5.4a6.677,6.677,0,0,1,1.54-4.8q1.54-1.6,5.02-1.6a13.489,13.489,0,0,1,2.64.28Zm26.92-4.68h8.88v4.68h-3.28V.4h-5.6V-1.08a9.365,9.365,0,0,1-2.28.28,6.21,6.21,0,0,1-4.62-1.5,6.4,6.4,0,0,1-1.46-4.62v-1.4a6.9,6.9,0,0,1,.04-.88l-1.92-1.44L117.04-7.2l-6.08-.88,5.36-5.56a9.487,9.487,0,0,1-2.78-2.9,7.663,7.663,0,0,1-.7-3.54v-.6q0-6.36,6.84-6.36,3.48,0,5.08,1.6a6.46,6.46,0,0,1,1.6,4.76v.2a7.946,7.946,0,0,1-.42,2.74,5.353,5.353,0,0,1-.88,1.66,16.444,16.444,0,0,1-1.54,1.44l1.28,1a6,6,0,0,1,3.1-.8,6.922,6.922,0,0,1,2.66.4Zm-9.48,7.16v-.96a2.227,2.227,0,0,0-.26-1.2q-.26-.4-1.14-.4t-1.14.4a2.227,2.227,0,0,0-.26,1.2v.96a2.012,2.012,0,0,0,.64,1.6q.24.24.76.68.56-.48.76-.68A2.012,2.012,0,0,0,121.08-19.68Zm6.44,11v2.32q0,1.4,1.52,1.4l1.52-.16V-9.76a3.067,3.067,0,0,0-1.52-.32Q127.52-10.08,127.52-8.68Zm24.28.36a1.894,1.894,0,0,0,.36,1.26,1.622,1.622,0,0,0,1.28.42,4.588,4.588,0,0,0,1.72-.32v-15.2H143.68v-4.68h28.44v4.68H160.6V-20a13.476,13.476,0,0,1,2.44-.2q3.24,0,4.74,1.56a6.577,6.577,0,0,1,1.5,4.72V-8.6a6.792,6.792,0,0,1-1.4,4.72q-1.4,1.52-4.68,1.52l-.84-.08V-7.68q1.08.16,1.34-.22a2.307,2.307,0,0,0,.26-1.26v-4.56a1.894,1.894,0,0,0-.36-1.26,1.682,1.682,0,0,0-1.32-.42l-1.68.2V0h-5.48V-2.36a8.7,8.7,0,0,1-2.4.32q-3.28,0-4.76-1.46a6.2,6.2,0,0,1-1.48-4.58v-5.84a6.577,6.577,0,0,1,1.5-4.72q1.5-1.56,4.74-1.56l1.16.12v4.72a4.843,4.843,0,0,0-.78-.04,1.179,1.179,0,0,0-.94.42,1.894,1.894,0,0,0-.36,1.26Zm27.64-1.2a5.711,5.711,0,0,0,1.64-.28V-22.16h-3.44v11.04Q177.64-9.52,179.44-9.52ZM181.08,0V-4.88a8.977,8.977,0,0,1-2.6.32q-3.44,0-4.94-1.56a6.64,6.64,0,0,1-1.5-4.76V-22.16h-3.08v-4.68h21v4.68h-3.28V0Z" transform="translate(75.41 43.53)" fill="#fff"/>
    </g>
    <g transform="matrix(1, 0, 0, 1, 485.01, 1317.18)" filter="url(#Path_30500)">
      <path id="Path_30500-2" data-name="Path 30500" d="M1.695-2.565v1.17a7.488,7.488,0,0,0,1.29.1q1.41,0,1.41-.99v-.555a.958.958,0,0,0-.27-.742,1.458,1.458,0,0,0-.975-.247H2.805q-2.19,0-2.19-1.815v-.105q0-1.815,2.19-1.815h1.17V-8.91H-.36v-.84H6.33v.84H4.95v2.22H2.805a1.429,1.429,0,0,0-.953.24.928.928,0,0,0-.262.72v.075a.914.914,0,0,0,.27.72,1.432,1.432,0,0,0,.945.24H3.15q2.22,0,2.22,1.845v.585a1.735,1.735,0,0,1-.555,1.41A2.709,2.709,0,0,1,3.06-.39,6.247,6.247,0,0,1,1.695-.525v1.5H.765v-3.54Zm2.76-8.34a.557.557,0,0,1-.63-.63.557.557,0,0,1,.63-.63.557.557,0,0,1,.63.63A.557.557,0,0,1,4.455-10.9ZM7.065-9.75v-.585q0-2.85,3.24-2.85a9,9,0,0,1,3.765.855v.885a9.074,9.074,0,0,0-3.735-.84,2.637,2.637,0,0,0-1.762.472,1.878,1.878,0,0,0-.533,1.477v.585H9.465v.84H8.025V0H7.05V-8.91H5.61v-.84Zm7.5,7.35v.54Q14.565.09,12,.09A9.265,9.265,0,0,1,9.96-.12v-.945A7.49,7.49,0,0,0,12-.81q1.59,0,1.59-1.065v-.51a.958.958,0,0,0-.27-.743,1.458,1.458,0,0,0-.975-.247H12.06q-2.19,0-2.19-1.815v-.57q0-1.815,2.19-1.815h1.1V-8.91H8.745v-.84h6.9v.84H14.13v2.22H12.06a1.429,1.429,0,0,0-.953.24.928.928,0,0,0-.262.72v.51a.938.938,0,0,0,.27.727,1.4,1.4,0,0,0,.945.247h.285Q14.565-4.245,14.565-2.4ZM18.03-7.86a4.192,4.192,0,0,0-.1-1.05h-3v-.84H23.13v.84H21.69V0h-.975V-1.455a6.9,6.9,0,0,1-1.665.18q-2.955,0-2.955-2.58V-5.76h.315a2.6,2.6,0,0,0,1.282-.217.972.972,0,0,0,.337-.878Zm.96,0v1.095q0,1.755-1.935,1.785v1.065a1.631,1.631,0,0,0,.487,1.305,2.088,2.088,0,0,0,1.4.42,9.322,9.322,0,0,0,1.77-.165V-8.91h-1.83A3.981,3.981,0,0,1,18.99-7.86Zm4.86-1.05H22.41v-.84h3.855v.84h-1.44V0H23.85ZM31.4-10.155q2.655,0,2.655,2.13v.87a3.165,3.165,0,0,1-.27,1.35,2.573,2.573,0,0,1-.9.945l-1.155.825a4.091,4.091,0,0,0-1.005.87,1.777,1.777,0,0,0-.255,1.035V-.99H34.08V0h-4.7V-2.175a2.529,2.529,0,0,1,.39-1.493,4.683,4.683,0,0,1,1.215-1.1l1.2-.855a1.631,1.631,0,0,0,.63-.66,2.333,2.333,0,0,0,.165-.96v-.72a1.156,1.156,0,0,0-.33-.9,2.037,2.037,0,0,0-1.313-.3,4.907,4.907,0,0,0-1.792.315V-9.885A5.652,5.652,0,0,1,31.4-10.155ZM39.5-7.83a1.253,1.253,0,0,0-1.4-1.44,1.253,1.253,0,0,0-1.4,1.44v5.58A1.253,1.253,0,0,0,38.1-.81a1.253,1.253,0,0,0,1.4-1.44ZM35.64-7.845a2.459,2.459,0,0,1,.6-1.732,2.4,2.4,0,0,1,1.853-.653,2.425,2.425,0,0,1,1.86.653,2.441,2.441,0,0,1,.608,1.732V-2.22A2.413,2.413,0,0,1,39.952-.5a2.442,2.442,0,0,1-1.86.645A2.416,2.416,0,0,1,36.24-.5a2.432,2.432,0,0,1-.6-1.725Zm8.46-2.31q2.655,0,2.655,2.13v.87a3.165,3.165,0,0,1-.27,1.35,2.573,2.573,0,0,1-.9.945l-1.155.825a4.091,4.091,0,0,0-1.005.87A1.777,1.777,0,0,0,43.17-2.13V-.99h3.615V0H42.09V-2.175a2.529,2.529,0,0,1,.39-1.493,4.683,4.683,0,0,1,1.215-1.1l1.2-.855a1.631,1.631,0,0,0,.63-.66,2.333,2.333,0,0,0,.165-.96v-.72a1.156,1.156,0,0,0-.33-.9,2.037,2.037,0,0,0-1.312-.3,4.907,4.907,0,0,0-1.792.315V-9.885A5.652,5.652,0,0,1,44.1-10.155Zm5.67,0q2.64,0,2.64,2.16V-6.96a1.81,1.81,0,0,1-1.1,1.89A1.7,1.7,0,0,1,52.47-3.255V-2.1A2,2,0,0,1,51.8-.5a2.876,2.876,0,0,1-1.92.57A6.343,6.343,0,0,1,47.85-.2v-1.05A5.056,5.056,0,0,0,49.7-.9a2.1,2.1,0,0,0,1.335-.315,1.157,1.157,0,0,0,.368-.93v-1a1.246,1.246,0,0,0-1.41-1.41H48.96v-.975h1.035a1.29,1.29,0,0,0,1.05-.368,1.662,1.662,0,0,0,.3-1.072v-.96A1.2,1.2,0,0,0,51-8.858a1.95,1.95,0,0,0-1.305-.323,4.768,4.768,0,0,0-1.65.255v-1.02A5.923,5.923,0,0,1,49.77-10.155Z" transform="translate(77.41 64)" fill="#fff"/>
    </g>
  </g>
</svg>
