<svg width="38" height="61" viewBox="0 0 38 61" fill="none" xmlns="http://www.w3.org/2000/svg">
<path d="M14.76 27.2101L24.346 22.7401L31.2295 37.5016C31.9382 39.0215 30.5741 40.6863 28.9445 40.2903L27.9618 40.0515C27.0529 39.8306 26.1122 40.2692 25.6972 41.1075L25.2484 42.0138C24.5043 43.5167 22.3522 43.4915 21.6435 41.9716L14.76 27.2101Z" fill="url(#paint0_linear_63_432)"/>
<g filter="url(#filter0_d_63_432)">
<path d="M22.4011 27.2101L12.8151 22.7401L5.9317 37.5016C5.22297 39.0215 6.58705 40.6863 8.21663 40.2903L9.19935 40.0515C10.1083 39.8306 11.049 40.2692 11.464 41.1075L11.9127 42.0138C12.6568 43.5167 14.809 43.4915 15.5177 41.9716L22.4011 27.2101Z" fill="url(#paint1_linear_63_432)"/>
</g>
<path d="M17.7923 1.44473C18.2653 1.01112 18.9913 1.01112 19.4643 1.44473C20.1578 2.08055 21.175 2.21447 22.0095 1.77981C22.5785 1.48339 23.2798 1.67129 23.6244 2.21254C24.1297 3.00618 25.0776 3.39882 25.9961 3.19494C26.6225 3.05591 27.2513 3.4189 27.4441 4.0309C27.7267 4.92829 28.5407 5.55288 29.4807 5.59368C30.1218 5.62151 30.6351 6.13486 30.6629 6.77591C30.7037 7.71588 31.3283 8.52987 32.2257 8.81256C32.8377 9.00535 33.2007 9.63408 33.0617 10.2605C32.8578 11.179 33.2504 12.1269 34.0441 12.6322C34.5853 12.9768 34.7732 13.6781 34.4768 14.2472C34.0421 15.0816 34.1761 16.0988 34.8119 16.7923C35.2455 17.2653 35.2455 17.9913 34.8119 18.4643C34.1761 19.1578 34.0421 20.175 34.4768 21.0094C34.7732 21.5785 34.5853 22.2798 34.0441 22.6244C33.2504 23.1297 32.8578 24.0776 33.0617 24.9961C33.2007 25.6225 32.8377 26.2513 32.2257 26.4441C31.3283 26.7267 30.7037 27.5407 30.6629 28.4807C30.6351 29.1218 30.1218 29.6351 29.4807 29.6629C28.5407 29.7037 27.7267 30.3283 27.4441 31.2257C27.2513 31.8377 26.6225 32.2007 25.9961 32.0617C25.0776 31.8578 24.1297 32.2504 23.6244 33.0441C23.2798 33.5853 22.5785 33.7732 22.0095 33.4768C21.175 33.0421 20.1578 33.1761 19.4643 33.8119C18.9913 34.2455 18.2653 34.2455 17.7923 33.8119C17.0988 33.1761 16.0816 33.0421 15.2472 33.4768C14.6781 33.7732 13.9768 33.5853 13.6322 33.0441C13.1269 32.2504 12.179 31.8578 11.2605 32.0617C10.6341 32.2007 10.0054 31.8377 9.81256 31.2257C9.52987 30.3283 8.71588 29.7037 7.7759 29.6629C7.13486 29.6351 6.62151 29.1218 6.59368 28.4807C6.55288 27.5407 5.92829 26.7267 5.0309 26.4441C4.4189 26.2513 4.05591 25.6225 4.19494 24.9961C4.39882 24.0776 4.00618 23.1297 3.21254 22.6244C2.67129 22.2798 2.48339 21.5785 2.77981 21.0095C3.21447 20.175 3.08055 19.1578 2.44473 18.4643C2.01112 17.9913 2.01112 17.2653 2.44473 16.7923C3.08055 16.0988 3.21447 15.0816 2.77981 14.2472C2.48339 13.6781 2.67129 12.9768 3.21254 12.6322C4.00618 12.1269 4.39882 11.179 4.19494 10.2605C4.05591 9.63408 4.4189 9.00535 5.0309 8.81256C5.92829 8.52987 6.55288 7.71588 6.59368 6.7759C6.62151 6.13486 7.13486 5.62151 7.7759 5.59368C8.71588 5.55288 9.52987 4.92829 9.81256 4.0309C10.0054 3.4189 10.6341 3.05591 11.2605 3.19494C12.179 3.39882 13.1269 3.00618 13.6322 2.21254C13.9768 1.67129 14.6781 1.48339 15.2472 1.77981C16.0816 2.21447 17.0988 2.08055 17.7923 1.44473Z" fill="url(#paint2_linear_63_432)" stroke="#B25521"/>
<circle cx="18.6285" cy="17.6283" r="13.5165" fill="url(#paint3_linear_63_432)"/>
<circle cx="18.6283" cy="17.6284" r="12.2042" fill="url(#paint4_linear_63_432)"/>
<g filter="url(#filter1_d_63_432)">
<path d="M13.1263 9.88977H19.1792C20.3773 9.88977 21.2691 9.94142 21.8544 10.0447C22.4466 10.1411 22.9734 10.3477 23.4348 10.6645C23.903 10.9812 24.2921 11.4047 24.6019 11.9349C24.9118 12.4583 25.0668 13.047 25.0668 13.7012C25.0668 14.4105 24.8739 15.0612 24.4883 15.6534C24.1096 16.2456 23.5931 16.6898 22.939 16.9859C23.8617 17.2544 24.571 17.7123 25.0668 18.3596C25.5625 19.0069 25.8104 19.7678 25.8104 20.6423C25.8104 21.331 25.6486 22.0023 25.325 22.6565C25.0082 23.3038 24.571 23.8237 24.0132 24.2162C23.4623 24.6018 22.7806 24.8394 21.968 24.9289C21.4585 24.984 20.2293 25.0184 18.2805 25.0322H13.1263V9.88977ZM16.1837 12.4101V15.9116H18.1876C19.3789 15.9116 20.1191 15.8944 20.4083 15.86C20.9317 15.798 21.3414 15.619 21.6375 15.3229C21.9405 15.0199 22.092 14.6239 22.092 14.135C22.092 13.6668 21.9611 13.288 21.6995 12.9988C21.4447 12.7027 21.0625 12.5237 20.5529 12.4617C20.25 12.4273 19.3789 12.4101 17.9397 12.4101H16.1837ZM16.1837 18.4319V22.4809H19.0139C20.1157 22.4809 20.8146 22.4499 21.1107 22.388C21.5652 22.3053 21.9336 22.1056 22.2159 21.7889C22.5051 21.4652 22.6497 21.0349 22.6497 20.4977C22.6497 20.0433 22.5396 19.6576 22.3192 19.3409C22.0989 19.0241 21.7787 18.7934 21.3586 18.6488C20.9454 18.5042 20.0434 18.4319 18.6524 18.4319H16.1837Z" fill="url(#paint5_linear_63_432)"/>
</g>
<path opacity="0.65" d="M13.1263 9.88977H19.1792C20.3773 9.88977 21.2691 9.94142 21.8544 10.0447C22.4466 10.1411 22.9734 10.3477 23.4348 10.6645C23.903 10.9812 24.2921 11.4047 24.6019 11.9349C24.9118 12.4583 25.0668 13.047 25.0668 13.7012C25.0668 14.4105 24.8739 15.0612 24.4883 15.6534C24.1096 16.2456 23.5931 16.6898 22.939 16.9859C23.8617 17.2544 24.571 17.7123 25.0668 18.3596C25.5625 19.0069 25.8104 19.7678 25.8104 20.6423C25.8104 21.331 25.6486 22.0023 25.325 22.6565C25.0082 23.3038 24.571 23.8237 24.0132 24.2162C23.4623 24.6018 22.7806 24.8394 21.968 24.9289C21.4585 24.984 20.2293 25.0184 18.2805 25.0322H13.1263V9.88977ZM16.1837 12.4101V15.9116H18.1876C19.3789 15.9116 20.1191 15.8944 20.4083 15.86C20.9317 15.798 21.3414 15.619 21.6375 15.3229C21.9405 15.0199 22.092 14.6239 22.092 14.135C22.092 13.6668 21.9611 13.288 21.6995 12.9988C21.4447 12.7027 21.0625 12.5237 20.5529 12.4617C20.25 12.4273 19.3789 12.4101 17.9397 12.4101H16.1837ZM16.1837 18.4319V22.4809H19.0139C20.1157 22.4809 20.8146 22.4499 21.1107 22.388C21.5652 22.3053 21.9336 22.1056 22.2159 21.7889C22.5051 21.4652 22.6497 21.0349 22.6497 20.4977C22.6497 20.0433 22.5396 19.6576 22.3192 19.3409C22.0989 19.0241 21.7787 18.7934 21.3586 18.6488C20.9454 18.5042 20.0434 18.4319 18.6524 18.4319H16.1837Z" fill="white"/>
<defs>
<filter id="filter0_d_63_432" x="0.739731" y="19.7401" width="36.6614" height="40.3864" filterUnits="userSpaceOnUse" color-interpolation-filters="sRGB">
<feFlood flood-opacity="0" result="BackgroundImageFix"/>
<feColorMatrix in="SourceAlpha" type="matrix" values="0 0 0 0 0 0 0 0 0 0 0 0 0 0 0 0 0 0 127 0" result="hardAlpha"/>
<feOffset dx="5" dy="7"/>
<feGaussianBlur stdDeviation="5"/>
<feComposite in2="hardAlpha" operator="out"/>
<feColorMatrix type="matrix" values="0 0 0 0 0 0 0 0 0 0 0 0 0 0 0 0 0 0 0.4 0"/>
<feBlend mode="normal" in2="BackgroundImageFix" result="effect1_dropShadow_63_432"/>
<feBlend mode="normal" in="SourceGraphic" in2="effect1_dropShadow_63_432" result="shape"/>
</filter>
<filter id="filter1_d_63_432" x="13.1263" y="9.88977" width="12.6841" height="18.1425" filterUnits="userSpaceOnUse" color-interpolation-filters="sRGB">
<feFlood flood-opacity="0" result="BackgroundImageFix"/>
<feColorMatrix in="SourceAlpha" type="matrix" values="0 0 0 0 0 0 0 0 0 0 0 0 0 0 0 0 0 0 127 0" result="hardAlpha"/>
<feOffset dy="3"/>
<feComposite in2="hardAlpha" operator="out"/>
<feColorMatrix type="matrix" values="0 0 0 0 0.698039 0 0 0 0 0.333333 0 0 0 0 0.129412 0 0 0 1 0"/>
<feBlend mode="normal" in2="BackgroundImageFix" result="effect1_dropShadow_63_432"/>
<feBlend mode="normal" in="SourceGraphic" in2="effect1_dropShadow_63_432" result="shape"/>
</filter>
<linearGradient id="paint0_linear_63_432" x1="21.0431" y1="28.1704" x2="28.1951" y2="43.508" gradientUnits="userSpaceOnUse">
<stop stop-color="#9A1514"/>
<stop offset="1" stop-color="#F9393D"/>
</linearGradient>
<linearGradient id="paint1_linear_63_432" x1="16.1181" y1="28.1704" x2="8.96609" y2="43.508" gradientUnits="userSpaceOnUse">
<stop stop-color="#9A1514"/>
<stop offset="1" stop-color="#F9393D"/>
</linearGradient>
<linearGradient id="paint2_linear_63_432" x1="29.9251" y1="30.4247" x2="7.89804" y2="3.69895" gradientUnits="userSpaceOnUse">
<stop stop-color="#BC5D20"/>
<stop offset="1" stop-color="#EBB684"/>
</linearGradient>
<linearGradient id="paint3_linear_63_432" x1="27.2903" y1="27.4399" x2="10.401" y2="6.94798" gradientUnits="userSpaceOnUse">
<stop stop-color="#EBB684"/>
<stop offset="1" stop-color="#BC5D20"/>
</linearGradient>
<linearGradient id="paint4_linear_63_432" x1="26.4492" y1="26.4874" x2="11.1997" y2="7.985" gradientUnits="userSpaceOnUse">
<stop stop-color="#BC5D20"/>
<stop offset="1" stop-color="#EBB684"/>
</linearGradient>
<linearGradient id="paint5_linear_63_432" x1="24.304" y1="25.3061" x2="10.9313" y2="13.4076" gradientUnits="userSpaceOnUse">
<stop stop-color="#EBB684"/>
<stop offset="1" stop-color="#BC5D20"/>
</linearGradient>
</defs>
</svg>
