<svg width="38" height="61" viewBox="0 0 38 61" fill="none" xmlns="http://www.w3.org/2000/svg">
<path d="M14.8079 27.2101L24.3939 22.7401L31.2774 37.5016C31.9861 39.0215 30.622 40.6863 28.9924 40.2903L28.0097 40.0515C27.1008 39.8306 26.1601 40.2692 25.745 41.1075L25.2963 42.0138C24.5522 43.5167 22.4001 43.4915 21.6914 41.9716L14.8079 27.2101Z" fill="url(#paint0_linear_63_366)"/>
<g filter="url(#filter0_d_63_366)">
<path d="M22.449 27.2101L12.863 22.7401L5.97954 37.5016C5.2708 39.0215 6.63489 40.6863 8.26447 40.2903L9.24719 40.0515C10.1561 39.8306 11.0968 40.2692 11.5119 41.1075L11.9606 42.0138C12.7047 43.5167 14.8568 43.4915 15.5655 41.9716L22.449 27.2101Z" fill="url(#paint1_linear_63_366)"/>
</g>
<path d="M17.7923 1.44473C18.2653 1.01112 18.9913 1.01112 19.4643 1.44473C20.1578 2.08055 21.175 2.21447 22.0095 1.77981C22.5785 1.48339 23.2798 1.67129 23.6244 2.21254C24.1297 3.00618 25.0776 3.39882 25.9961 3.19494C26.6225 3.05591 27.2513 3.4189 27.4441 4.0309C27.7267 4.92829 28.5407 5.55288 29.4807 5.59368C30.1218 5.62151 30.6351 6.13486 30.6629 6.77591C30.7037 7.71588 31.3283 8.52987 32.2257 8.81256C32.8377 9.00535 33.2007 9.63408 33.0617 10.2605C32.8578 11.179 33.2504 12.1269 34.0441 12.6322C34.5853 12.9768 34.7732 13.6781 34.4768 14.2472C34.0421 15.0816 34.1761 16.0988 34.8119 16.7923C35.2455 17.2653 35.2455 17.9913 34.8119 18.4643C34.1761 19.1578 34.0421 20.175 34.4768 21.0095C34.7732 21.5785 34.5853 22.2798 34.0441 22.6244C33.2504 23.1297 32.8578 24.0776 33.0617 24.9961C33.2007 25.6225 32.8377 26.2513 32.2257 26.4441C31.3283 26.7267 30.7037 27.5407 30.6629 28.4807C30.6351 29.1218 30.1218 29.6351 29.4807 29.6629C28.5407 29.7037 27.7267 30.3283 27.4441 31.2257C27.2513 31.8377 26.6225 32.2007 25.9961 32.0617C25.0776 31.8578 24.1297 32.2504 23.6244 33.0441C23.2798 33.5853 22.5785 33.7732 22.0095 33.4768C21.175 33.0421 20.1578 33.1761 19.4643 33.8119C18.9913 34.2455 18.2653 34.2455 17.7923 33.8119C17.0988 33.1761 16.0816 33.0421 15.2472 33.4768C14.6781 33.7732 13.9768 33.5853 13.6322 33.0441C13.1269 32.2504 12.179 31.8578 11.2605 32.0617C10.6341 32.2007 10.0054 31.8377 9.81256 31.2257C9.52987 30.3283 8.71588 29.7037 7.77591 29.6629C7.13486 29.6351 6.62151 29.1218 6.59368 28.4807C6.55288 27.5407 5.92829 26.7267 5.0309 26.4441C4.4189 26.2513 4.05591 25.6225 4.19494 24.9961C4.39882 24.0776 4.00618 23.1297 3.21254 22.6244C2.67129 22.2798 2.48339 21.5785 2.77981 21.0095C3.21447 20.175 3.08055 19.1578 2.44473 18.4643C2.01112 17.9913 2.01112 17.2653 2.44473 16.7923C3.08055 16.0988 3.21447 15.0816 2.77981 14.2472C2.48339 13.6781 2.67129 12.9768 3.21254 12.6322C4.00618 12.1269 4.39882 11.179 4.19494 10.2605C4.05591 9.63408 4.4189 9.00535 5.0309 8.81256C5.92829 8.52987 6.55288 7.71588 6.59368 6.77591C6.62151 6.13486 7.13486 5.62151 7.77591 5.59368C8.71588 5.55288 9.52987 4.92829 9.81256 4.0309C10.0054 3.4189 10.6341 3.05591 11.2605 3.19494C12.179 3.39882 13.1269 3.00618 13.6322 2.21254C13.9768 1.67129 14.6781 1.48339 15.2472 1.77981L15.4782 1.33637L15.2472 1.77981C16.0816 2.21447 17.0988 2.08055 17.7923 1.44473Z" fill="url(#paint2_linear_63_366)" stroke="#AB7813"/>
<circle cx="18.6285" cy="17.6283" r="13.5165" fill="url(#paint3_linear_63_366)"/>
<circle cx="18.6283" cy="17.6284" r="12.2042" fill="url(#paint4_linear_63_366)"/>
<g filter="url(#filter1_d_63_366)">
<path d="M19.1027 19.4648V16.9135H25.6927V22.9457C25.0523 23.5654 24.1226 24.1128 22.9038 24.588C21.6919 25.0562 20.4627 25.2904 19.2163 25.2904C17.6325 25.2904 16.2519 24.9598 15.0744 24.2988C13.8969 23.6308 13.012 22.6805 12.4198 21.4479C11.8276 20.2085 11.5315 18.8622 11.5315 17.4093C11.5315 15.8324 11.862 14.4311 12.5231 13.2053C13.1841 11.9796 14.1516 11.0397 15.4256 10.3855C16.3965 9.88281 17.605 9.63147 19.0511 9.63147C20.931 9.63147 22.3977 10.0274 23.4513 10.8193C24.5117 11.6043 25.1934 12.6923 25.4964 14.0833L22.4597 14.6514C22.2462 13.9077 21.8434 13.3224 21.2512 12.8955C20.6658 12.4616 19.9325 12.2447 19.0511 12.2447C17.7152 12.2447 16.6513 12.6682 15.8594 13.5152C15.0744 14.3622 14.6819 15.6189 14.6819 17.2853C14.6819 19.0826 15.0813 20.4323 15.88 21.3343C16.6788 22.2295 17.7255 22.6771 19.0201 22.6771C19.6605 22.6771 20.3009 22.5532 20.9413 22.3053C21.5886 22.0505 22.1429 21.744 22.6043 21.386V19.4648H19.1027Z" fill="url(#paint5_linear_63_366)"/>
</g>
<path opacity="0.5" d="M19.1027 19.4648V16.9135H25.6927V22.9457C25.0523 23.5654 24.1226 24.1128 22.9038 24.588C21.6919 25.0562 20.4627 25.2904 19.2163 25.2904C17.6325 25.2904 16.2519 24.9598 15.0744 24.2988C13.8969 23.6308 13.012 22.6805 12.4198 21.4479C11.8276 20.2085 11.5315 18.8622 11.5315 17.4093C11.5315 15.8324 11.862 14.4311 12.5231 13.2053C13.1841 11.9796 14.1516 11.0397 15.4256 10.3855C16.3965 9.88281 17.605 9.63147 19.0511 9.63147C20.931 9.63147 22.3977 10.0274 23.4513 10.8193C24.5117 11.6043 25.1934 12.6923 25.4964 14.0833L22.4597 14.6514C22.2462 13.9077 21.8434 13.3224 21.2512 12.8955C20.6658 12.4616 19.9325 12.2447 19.0511 12.2447C17.7152 12.2447 16.6513 12.6682 15.8594 13.5152C15.0744 14.3622 14.6819 15.6189 14.6819 17.2853C14.6819 19.0826 15.0813 20.4323 15.88 21.3343C16.6788 22.2295 17.7255 22.6771 19.0201 22.6771C19.6605 22.6771 20.3009 22.5532 20.9413 22.3053C21.5886 22.0505 22.1429 21.744 22.6043 21.386V19.4648H19.1027Z" fill="white"/>
<defs>
<filter id="filter0_d_63_366" x="0.787598" y="19.7401" width="36.6614" height="40.3864" filterUnits="userSpaceOnUse" color-interpolation-filters="sRGB">
<feFlood flood-opacity="0" result="BackgroundImageFix"/>
<feColorMatrix in="SourceAlpha" type="matrix" values="0 0 0 0 0 0 0 0 0 0 0 0 0 0 0 0 0 0 127 0" result="hardAlpha"/>
<feOffset dx="5" dy="7"/>
<feGaussianBlur stdDeviation="5"/>
<feComposite in2="hardAlpha" operator="out"/>
<feColorMatrix type="matrix" values="0 0 0 0 0 0 0 0 0 0 0 0 0 0 0 0 0 0 0.4 0"/>
<feBlend mode="normal" in2="BackgroundImageFix" result="effect1_dropShadow_63_366"/>
<feBlend mode="normal" in="SourceGraphic" in2="effect1_dropShadow_63_366" result="shape"/>
</filter>
<filter id="filter1_d_63_366" x="11.5315" y="9.63147" width="14.1612" height="18.6589" filterUnits="userSpaceOnUse" color-interpolation-filters="sRGB">
<feFlood flood-opacity="0" result="BackgroundImageFix"/>
<feColorMatrix in="SourceAlpha" type="matrix" values="0 0 0 0 0 0 0 0 0 0 0 0 0 0 0 0 0 0 127 0" result="hardAlpha"/>
<feOffset dy="3"/>
<feComposite in2="hardAlpha" operator="out"/>
<feColorMatrix type="matrix" values="0 0 0 0 0.593457 0 0 0 0 0.410541 0 0 0 0 0.0482957 0 0 0 1 0"/>
<feBlend mode="normal" in2="BackgroundImageFix" result="effect1_dropShadow_63_366"/>
<feBlend mode="normal" in="SourceGraphic" in2="effect1_dropShadow_63_366" result="shape"/>
</filter>
<linearGradient id="paint0_linear_63_366" x1="21.0909" y1="28.1704" x2="28.243" y2="43.508" gradientUnits="userSpaceOnUse">
<stop stop-color="#9A1514"/>
<stop offset="1" stop-color="#F9393D"/>
</linearGradient>
<linearGradient id="paint1_linear_63_366" x1="16.166" y1="28.1704" x2="9.01392" y2="43.508" gradientUnits="userSpaceOnUse">
<stop stop-color="#9A1514"/>
<stop offset="1" stop-color="#F9393D"/>
</linearGradient>
<linearGradient id="paint2_linear_63_366" x1="29.9251" y1="30.4247" x2="7.89804" y2="3.69895" gradientUnits="userSpaceOnUse">
<stop stop-color="#B87F14"/>
<stop offset="1" stop-color="#EAD073"/>
</linearGradient>
<linearGradient id="paint3_linear_63_366" x1="27.2903" y1="27.4399" x2="10.4011" y2="6.94798" gradientUnits="userSpaceOnUse">
<stop stop-color="#E8D075"/>
<stop offset="1" stop-color="#B98013"/>
</linearGradient>
<linearGradient id="paint4_linear_63_366" x1="26.4492" y1="26.4874" x2="11.1997" y2="7.985" gradientUnits="userSpaceOnUse">
<stop stop-color="#A36F0C"/>
<stop offset="1" stop-color="#DFC255"/>
</linearGradient>
<linearGradient id="paint5_linear_63_366" x1="24.114" y1="25.3061" x2="10.6674" y2="12.526" gradientUnits="userSpaceOnUse">
<stop stop-color="#E3C248"/>
<stop offset="1" stop-color="#CC942A"/>
</linearGradient>
</defs>
</svg>
