<svg xmlns="http://www.w3.org/2000/svg" width="64" height="40" viewBox="0 0 64 40" fill="none">
  <g filter="url(#filter0_d_634_1630)">
    <path fill-rule="evenodd" clip-rule="evenodd" d="M31.2 23.12C31.2 26.88 28.16 30 24.32 30C20.56 30 17.44 26.96 17.44 23.12C17.44 19.36 20.48 16.24 24.32 16.24C28.08 16.32 31.2 19.36 31.2 23.12ZM24.32 17.44C21.2 17.44 18.64 20 18.64 23.12C18.64 26.24 21.2 28.8 24.32 28.8C27.44 28.8 30 26.24 30 23.12C30.08 20 27.52 17.44 24.32 17.44Z" fill="#F9A500"/>
    <path fill-rule="evenodd" clip-rule="evenodd" d="M46.08 23.12C46.08 26.88 43.04 30 39.2 30C35.44 30 32.32 26.96 32.32 23.12C32.32 19.36 35.36 16.24 39.2 16.24C42.96 16.32 46.08 19.36 46.08 23.12ZM39.2 17.44C36.08 17.44 33.52 20 33.52 23.12C33.52 26.24 36.08 28.8 39.2 28.8C42.32 28.8 44.88 26.24 44.88 23.12C44.88 20 42.32 17.44 39.2 17.44Z" fill="#08943D"/>
    <path fill-rule="evenodd" clip-rule="evenodd" d="M16.88 10C13.12 10 10 13.04 10 16.88C10 20.64 13.04 23.76 16.88 23.76C17.12 23.76 17.28 23.76 17.44 23.76C17.44 23.36 17.44 22.96 17.44 22.64C17.28 22.64 17.04 22.64 16.88 22.64C13.76 22.64 11.2 20.08 11.2 16.96C11.2 13.84 13.76 11.28 16.88 11.28C20 11.28 22.56 13.84 22.56 16.96C22.56 19.52 20.88 21.68 18.64 22.4C18.56 22.8 18.56 23.2 18.56 23.6C21.52 22.8 23.68 20.16 23.68 16.96C23.76 13.04 20.72 10 16.88 10Z" fill="#0072C3"/>
    <path fill-rule="evenodd" clip-rule="evenodd" d="M46.64 10C43.04 10 40.08 12.8 39.84 16.32C40.24 16.32 40.64 16.4 40.96 16.48C41.12 13.52 43.6 11.12 46.64 11.12C49.76 11.12 52.32 13.68 52.32 16.8C52.32 19.92 49.76 22.48 46.64 22.48C43.76 22.48 41.44 20.4 40.96 17.6C40.56 17.44 40.16 17.36 39.76 17.36C40.08 20.88 43.04 23.6 46.56 23.6C50.32 23.6 53.44 20.56 53.44 16.72C53.44 13.04 50.4 10 46.64 10Z" fill="#F10148"/>
    <path fill-rule="evenodd" clip-rule="evenodd" d="M31.76 10C28.16 10 25.2 12.8 24.96 16.32C25.36 16.32 25.76 16.4 26.08 16.48C26.24 13.52 28.72 11.12 31.76 11.12C34.88 11.12 37.44 13.68 37.44 16.8C37.44 19.36 35.76 21.52 33.52 22.24C33.44 22.64 33.44 23.04 33.44 23.44C36.4 22.64 38.56 20 38.56 16.8C38.64 13.04 35.52 10 31.76 10Z" fill="black"/>
    <path fill-rule="evenodd" clip-rule="evenodd" d="M32.32 23.1204C32.32 22.8804 32.32 22.7204 32.32 22.4804C32.16 22.4804 31.92 22.4804 31.76 22.4804C28.88 22.4804 26.56 20.4004 26.08 17.6004C25.68 17.4404 25.28 17.3604 24.88 17.3604C25.2 20.8804 28.16 23.6004 31.68 23.6004C31.84 23.6004 32.08 23.6004 32.24 23.6004C32.32 23.5204 32.32 23.3604 32.32 23.1204Z" fill="black"/>
  </g>
  <defs>
    <filter id="filter0_d_634_1630" x="0" y="0" width="63.44" height="40" filterUnits="userSpaceOnUse" color-interpolation-filters="sRGB">
      <feFlood flood-opacity="0" result="BackgroundImageFix"/>
      <feColorMatrix in="SourceAlpha" type="matrix" values="0 0 0 0 0 0 0 0 0 0 0 0 0 0 0 0 0 0 127 0" result="hardAlpha"/>
      <feOffset/>
      <feGaussianBlur stdDeviation="5"/>
      <feComposite in2="hardAlpha" operator="out"/>
      <feColorMatrix type="matrix" values="0 0 0 0 1 0 0 0 0 1 0 0 0 0 1 0 0 0 0.35 0"/>
      <feBlend mode="normal" in2="BackgroundImageFix" result="effect1_dropShadow_634_1630"/>
      <feBlend mode="normal" in="SourceGraphic" in2="effect1_dropShadow_634_1630" result="shape"/>
    </filter>
  </defs>
</svg>