<svg width="63" height="85" viewBox="0 0 63 85" fill="none" xmlns="http://www.w3.org/2000/svg">
<g filter="url(#filter0_d_183_722)">
<path d="M34.198 46.6399C33.4654 46.3957 32.2445 46.3143 31.1863 47.2097C30.1282 46.3957 28.9073 46.3957 28.1747 46.6399C27.6049 46.8841 27.1165 47.0469 26.2212 47.0469C27.1165 48.919 28.9887 50.2213 31.1863 50.2213C33.384 50.2213 35.2561 48.919 36.1515 47.0469C35.2561 47.0469 34.7678 46.8841 34.198 46.6399Z" fill="white"/>
<path d="M31.1863 0C16.2094 0 4 12.2094 4 27.1862C4 40.0468 12.9536 50.8725 25.0002 53.6399C15.4768 48.512 11.5698 36.791 16.128 27.0235C16.8606 30.9305 19.3838 34.3491 23.2095 36.1398C18.3257 24.663 21.9071 11.0698 32.0816 3.58142C30.0467 10.4187 33.1398 16.6862 39.7328 21.4071C47.3027 26.7793 47.5468 37.8491 40.9538 43.791C43.5584 43.1399 46.0817 41.7561 47.8724 39.477C46.7329 45.3375 43.0701 50.5469 37.4537 53.5585C49.5004 50.7097 58.4539 39.9654 58.4539 27.1049C58.3725 12.2094 46.2445 0 31.1863 0Z" fill="white"/>
</g>
<path fill-rule="evenodd" clip-rule="evenodd" d="M30.2 78.12C30.2 81.88 27.16 85 23.32 85C19.56 85 16.44 81.96 16.44 78.12C16.44 74.36 19.48 71.24 23.32 71.24C27.08 71.32 30.2 74.36 30.2 78.12ZM23.32 72.44C20.2 72.44 17.64 75 17.64 78.12C17.64 81.24 20.2 83.8 23.32 83.8C26.44 83.8 29 81.24 29 78.12C29.08 75 26.52 72.44 23.32 72.44Z" fill="#F9A500"/>
<path fill-rule="evenodd" clip-rule="evenodd" d="M45.08 78.12C45.08 81.88 42.04 85 38.2 85C34.44 85 31.32 81.96 31.32 78.12C31.32 74.36 34.36 71.24 38.2 71.24C41.96 71.32 45.08 74.36 45.08 78.12ZM38.2 72.44C35.08 72.44 32.52 75 32.52 78.12C32.52 81.24 35.08 83.8 38.2 83.8C41.32 83.8 43.88 81.24 43.88 78.12C43.88 75 41.32 72.44 38.2 72.44Z" fill="#08943D"/>
<path fill-rule="evenodd" clip-rule="evenodd" d="M15.88 65C12.12 65 9 68.04 9 71.88C9 75.64 12.04 78.76 15.88 78.76C16.12 78.76 16.28 78.76 16.44 78.76C16.44 78.36 16.44 77.96 16.44 77.64C16.28 77.64 16.04 77.64 15.88 77.64C12.76 77.64 10.2 75.08 10.2 71.96C10.2 68.84 12.76 66.28 15.88 66.28C19 66.28 21.56 68.84 21.56 71.96C21.56 74.52 19.88 76.68 17.64 77.4C17.56 77.8 17.56 78.2 17.56 78.6C20.52 77.8 22.68 75.16 22.68 71.96C22.76 68.04 19.72 65 15.88 65Z" fill="#0072C3"/>
<path fill-rule="evenodd" clip-rule="evenodd" d="M45.64 65C42.04 65 39.08 67.8 38.84 71.32C39.24 71.32 39.64 71.4 39.96 71.48C40.12 68.52 42.6 66.12 45.64 66.12C48.76 66.12 51.32 68.68 51.32 71.8C51.32 74.92 48.76 77.48 45.64 77.48C42.76 77.48 40.44 75.4 39.96 72.6C39.56 72.44 39.16 72.36 38.76 72.36C39.08 75.88 42.04 78.6 45.56 78.6C49.32 78.6 52.44 75.56 52.44 71.72C52.44 68.04 49.4 65 45.64 65Z" fill="#F10148"/>
<path fill-rule="evenodd" clip-rule="evenodd" d="M30.76 65C27.16 65 24.2 67.8 23.96 71.32C24.36 71.32 24.76 71.4 25.08 71.48C25.24 68.52 27.72 66.12 30.76 66.12C33.88 66.12 36.44 68.68 36.44 71.8C36.44 74.36 34.76 76.52 32.52 77.24C32.44 77.64 32.44 78.04 32.44 78.44C35.4 77.64 37.56 75 37.56 71.8C37.64 68.04 34.52 65 30.76 65Z" fill="black"/>
<path fill-rule="evenodd" clip-rule="evenodd" d="M31.32 78.12C31.32 77.88 31.32 77.72 31.32 77.48C31.16 77.48 30.92 77.48 30.76 77.48C27.88 77.48 25.56 75.4 25.08 72.6C24.68 72.44 24.28 72.36 23.88 72.36C24.2 75.88 27.16 78.6 30.68 78.6C30.84 78.6 31.08 78.6 31.24 78.6C31.32 78.52 31.32 78.36 31.32 78.12Z" fill="black"/>
<defs>
<filter id="filter0_d_183_722" x="0" y="0" width="62.4539" height="61.6399" filterUnits="userSpaceOnUse" color-interpolation-filters="sRGB">
<feFlood flood-opacity="0" result="BackgroundImageFix"/>
<feColorMatrix in="SourceAlpha" type="matrix" values="0 0 0 0 0 0 0 0 0 0 0 0 0 0 0 0 0 0 127 0" result="hardAlpha"/>
<feOffset dy="4"/>
<feGaussianBlur stdDeviation="2"/>
<feComposite in2="hardAlpha" operator="out"/>
<feColorMatrix type="matrix" values="0 0 0 0 0 0 0 0 0 0 0 0 0 0 0 0 0 0 0.25 0"/>
<feBlend mode="normal" in2="BackgroundImageFix" result="effect1_dropShadow_183_722"/>
<feBlend mode="normal" in="SourceGraphic" in2="effect1_dropShadow_183_722" result="shape"/>
</filter>
</defs>
</svg>
