<svg xmlns="http://www.w3.org/2000/svg" width="60" height="60" viewBox="0 0 60 60">
  <g id="Component_3_1" data-name="Component 3 – 1" transform="translate(-5 -5)">
    <g id="Ellipse_7" data-name="Ellipse 7" transform="translate(5 5)" stroke="#fff" stroke-width="2">
      <circle cx="30" cy="30" r="30" stroke="none"/>
      <circle cx="30" cy="30" r="29" fill="none"/>
    </g>
    <g id="Polygon_1" data-name="Polygon 1" transform="translate(49 20) rotate(90)" fill="none">
      <path d="M11.7,4.847a4,4,0,0,1,6.61,0l7.431,10.9A4,4,0,0,1,22.431,22H7.569a4,4,0,0,1-3.3-6.253Z" stroke="none"/>
      <path d="M 15 5.100545883178711 C 14.32824993133545 5.100545883178711 13.72595977783203 5.418855667114258 13.3475399017334 5.973865509033203 L 5.916099548339844 16.87332534790039 C 5.303359985351562 17.77201461791992 5.631000518798828 18.61415481567383 5.800310134887695 18.93451690673828 C 5.969619750976562 19.25487518310547 6.480850219726562 20.0000057220459 7.568550109863281 20.0000057220459 L 22.43144989013672 19.99999618530273 C 23.51914978027344 19.99999618530273 24.03038024902344 19.25487518310547 24.1996898651123 18.93451690673828 C 24.36899948120117 18.61415481567383 24.69664001464844 17.77201461791992 24.08388900756836 16.87332534790039 L 16.6524600982666 5.973875045776367 C 16.27404022216797 5.418865203857422 15.67173957824707 5.100545883178711 15 5.100545883178711 M 15 3.100543975830078 C 16.2554874420166 3.100543975830078 17.5109748840332 3.682760238647461 18.30490875244141 4.847196578979492 L 25.73635101318359 15.74665546417236 C 27.54673957824707 18.40188598632812 25.6451301574707 21.99999618530273 22.43144989013672 21.99999618530273 L 7.568550109863281 22.0000057220459 C 4.354869842529297 21.99999618530273 2.45326042175293 18.40188598632812 4.263639450073242 15.74665546417236 L 11.69508934020996 4.847196578979492 C 12.4890251159668 3.682760238647461 13.7445125579834 3.100543975830078 15 3.100543975830078 Z" stroke="none" fill="#fff"/>
    </g>
  </g>
</svg>
