<svg width="38" height="61" viewBox="0 0 38 61" fill="none" xmlns="http://www.w3.org/2000/svg">
<path d="M14.7601 27.2101L24.3461 22.7401L31.2295 37.5016C31.9382 39.0215 30.5742 40.6863 28.9446 40.2903L27.9619 40.0515C27.0529 39.8306 26.1122 40.2692 25.6972 41.1075L25.2485 42.0138C24.5044 43.5167 22.3522 43.4915 21.6435 41.9716L14.7601 27.2101Z" fill="url(#paint0_linear_59_333)"/>
<g filter="url(#filter0_d_59_333)">
<path d="M22.4012 27.2101L12.8152 22.7401L5.93175 37.5016C5.22301 39.0215 6.5871 40.6863 8.21668 40.2903L9.1994 40.0515C10.1084 39.8306 11.049 40.2692 11.4641 41.1075L11.9128 42.0138C12.6569 43.5167 14.809 43.4915 15.5178 41.9716L22.4012 27.2101Z" fill="url(#paint1_linear_59_333)"/>
</g>
<path d="M17.7923 1.44473C18.2653 1.01112 18.9913 1.01112 19.4643 1.44473C20.1578 2.08055 21.175 2.21447 22.0095 1.77981C22.5785 1.48339 23.2798 1.67129 23.6244 2.21254C24.1297 3.00618 25.0776 3.39882 25.9961 3.19494C26.6225 3.05591 27.2513 3.4189 27.4441 4.0309C27.7267 4.92829 28.5407 5.55288 29.4807 5.59368C30.1218 5.62151 30.6351 6.13486 30.6629 6.77591C30.7037 7.71588 31.3283 8.52987 32.2257 8.81256C32.8377 9.00535 33.2007 9.63408 33.0617 10.2605C32.8578 11.179 33.2504 12.1269 34.0441 12.6322C34.5853 12.9768 34.7732 13.6781 34.4768 14.2472C34.0421 15.0816 34.1761 16.0988 34.8119 16.7923C35.2455 17.2653 35.2455 17.9913 34.8119 18.4643C34.1761 19.1578 34.0421 20.175 34.4768 21.0094C34.7732 21.5785 34.5853 22.2798 34.0441 22.6244C33.2504 23.1297 32.8578 24.0776 33.0617 24.9961C33.2007 25.6225 32.8377 26.2513 32.2257 26.4441C31.3283 26.7267 30.7037 27.5407 30.6629 28.4807C30.6351 29.1218 30.1218 29.6351 29.4807 29.6629C28.5407 29.7037 27.7267 30.3283 27.4441 31.2257C27.2513 31.8377 26.6225 32.2007 25.9961 32.0617C25.0776 31.8578 24.1297 32.2504 23.6244 33.0441C23.2798 33.5853 22.5785 33.7732 22.0095 33.4768C21.175 33.0421 20.1578 33.1761 19.4643 33.8119C18.9913 34.2455 18.2653 34.2455 17.7923 33.8119C17.0988 33.1761 16.0816 33.0421 15.2472 33.4768C14.6781 33.7732 13.9768 33.5853 13.6322 33.0441C13.1269 32.2504 12.179 31.8578 11.2605 32.0617C10.6341 32.2007 10.0054 31.8377 9.81256 31.2257C9.52987 30.3283 8.71588 29.7037 7.7759 29.6629C7.13486 29.6351 6.62151 29.1218 6.59368 28.4807C6.55288 27.5407 5.92829 26.7267 5.0309 26.4441C4.4189 26.2513 4.05591 25.6225 4.19494 24.9961C4.39882 24.0776 4.00618 23.1297 3.21254 22.6244C2.67129 22.2798 2.48339 21.5785 2.77981 21.0095C3.21447 20.175 3.08055 19.1578 2.44473 18.4643C2.01112 17.9913 2.01112 17.2653 2.44473 16.7923C3.08055 16.0988 3.21447 15.0816 2.77981 14.2472C2.48339 13.6781 2.67129 12.9768 3.21254 12.6322C4.00618 12.1269 4.39882 11.179 4.19494 10.2605C4.05591 9.63408 4.4189 9.00535 5.0309 8.81256C5.92829 8.52987 6.55288 7.71588 6.59368 6.7759C6.62151 6.13486 7.13486 5.62151 7.7759 5.59368C8.71588 5.55288 9.52987 4.92829 9.81256 4.0309C10.0054 3.4189 10.6341 3.05591 11.2605 3.19494C12.179 3.39882 13.1269 3.00618 13.6322 2.21254C13.9768 1.67129 14.6781 1.48339 15.2472 1.77981C16.0816 2.21447 17.0988 2.08055 17.7923 1.44473Z" fill="url(#paint2_linear_59_333)" stroke="#859697"/>
<circle cx="18.6285" cy="17.6283" r="13.5165" fill="url(#paint3_linear_59_333)"/>
<circle cx="18.6283" cy="17.6284" r="12.2042" fill="url(#paint4_linear_59_333)"/>
<g filter="url(#filter1_d_59_333)">
<path d="M12.3414 20.1052L15.3161 19.8159C15.4952 20.8144 15.8567 21.5478 16.4007 22.016C16.9516 22.4843 17.6918 22.7184 18.6215 22.7184C19.6062 22.7184 20.3464 22.5118 20.8422 22.0987C21.3449 21.6786 21.5962 21.1897 21.5962 20.6319C21.5962 20.2739 21.4895 19.9709 21.276 19.723C21.0694 19.4682 20.7045 19.2478 20.1811 19.0619C19.8231 18.938 19.0071 18.7176 17.7332 18.4009C16.0943 17.9946 14.9443 17.4953 14.2832 16.9031C13.3536 16.0699 12.8888 15.0542 12.8888 13.8561C12.8888 13.0848 13.1057 12.3652 13.5395 11.6973C13.9803 11.0225 14.6103 10.5094 15.4298 10.1583C16.2561 9.80706 17.2511 9.63147 18.4149 9.63147C20.3154 9.63147 21.7443 10.0481 22.7014 10.8813C23.6655 11.7145 24.1716 12.8266 24.2198 14.2176L21.1624 14.3519C21.0316 13.5737 20.7492 13.016 20.3154 12.6786C19.8885 12.3342 19.2446 12.1621 18.3839 12.1621C17.4956 12.1621 16.8001 12.3446 16.2974 12.7095C15.9738 12.9437 15.8119 13.257 15.8119 13.6495C15.8119 14.0076 15.9634 14.314 16.2664 14.5688C16.652 14.8924 17.5885 15.2298 19.0759 15.581C20.5633 15.9322 21.6616 16.2972 22.3709 16.6759C23.0871 17.0478 23.6448 17.5608 24.0442 18.2149C24.4505 18.8622 24.6536 19.6645 24.6536 20.6216C24.6536 21.4893 24.4126 22.3018 23.9306 23.0593C23.4486 23.8167 22.7669 24.3814 21.8854 24.7533C21.004 25.1182 19.9057 25.3007 18.5905 25.3007C16.6761 25.3007 15.206 24.86 14.1799 23.9786C13.1539 23.0903 12.5411 21.7991 12.3414 20.1052Z" fill="url(#paint5_linear_59_333)"/>
</g>
<path opacity="0.65" d="M12.3414 20.1052L15.3161 19.8159C15.4952 20.8144 15.8567 21.5478 16.4007 22.016C16.9516 22.4843 17.6918 22.7184 18.6215 22.7184C19.6062 22.7184 20.3464 22.5118 20.8422 22.0987C21.3449 21.6786 21.5962 21.1897 21.5962 20.6319C21.5962 20.2739 21.4895 19.9709 21.276 19.723C21.0694 19.4682 20.7045 19.2478 20.1811 19.0619C19.8231 18.938 19.0071 18.7176 17.7332 18.4009C16.0943 17.9946 14.9443 17.4953 14.2832 16.9031C13.3536 16.0699 12.8888 15.0542 12.8888 13.8561C12.8888 13.0848 13.1057 12.3652 13.5395 11.6973C13.9803 11.0225 14.6103 10.5094 15.4298 10.1583C16.2561 9.80706 17.2511 9.63147 18.4149 9.63147C20.3154 9.63147 21.7443 10.0481 22.7014 10.8813C23.6655 11.7145 24.1716 12.8266 24.2198 14.2176L21.1624 14.3519C21.0316 13.5737 20.7492 13.016 20.3154 12.6786C19.8885 12.3342 19.2446 12.1621 18.3839 12.1621C17.4956 12.1621 16.8001 12.3446 16.2974 12.7095C15.9738 12.9437 15.8119 13.257 15.8119 13.6495C15.8119 14.0076 15.9634 14.314 16.2664 14.5688C16.652 14.8924 17.5885 15.2298 19.0759 15.581C20.5633 15.9322 21.6616 16.2972 22.3709 16.6759C23.0871 17.0478 23.6448 17.5608 24.0442 18.2149C24.4505 18.8622 24.6536 19.6645 24.6536 20.6216C24.6536 21.4893 24.4126 22.3018 23.9306 23.0593C23.4486 23.8167 22.7669 24.3814 21.8854 24.7533C21.004 25.1182 19.9057 25.3007 18.5905 25.3007C16.6761 25.3007 15.206 24.86 14.1799 23.9786C13.1539 23.0903 12.5411 21.7991 12.3414 20.1052Z" fill="white"/>
<defs>
<filter id="filter0_d_59_333" x="0.739807" y="19.7401" width="36.6614" height="40.3864" filterUnits="userSpaceOnUse" color-interpolation-filters="sRGB">
<feFlood flood-opacity="0" result="BackgroundImageFix"/>
<feColorMatrix in="SourceAlpha" type="matrix" values="0 0 0 0 0 0 0 0 0 0 0 0 0 0 0 0 0 0 127 0" result="hardAlpha"/>
<feOffset dx="5" dy="7"/>
<feGaussianBlur stdDeviation="5"/>
<feComposite in2="hardAlpha" operator="out"/>
<feColorMatrix type="matrix" values="0 0 0 0 0 0 0 0 0 0 0 0 0 0 0 0 0 0 0.4 0"/>
<feBlend mode="normal" in2="BackgroundImageFix" result="effect1_dropShadow_59_333"/>
<feBlend mode="normal" in="SourceGraphic" in2="effect1_dropShadow_59_333" result="shape"/>
</filter>
<filter id="filter1_d_59_333" x="12.3414" y="9.63147" width="12.3123" height="18.6692" filterUnits="userSpaceOnUse" color-interpolation-filters="sRGB">
<feFlood flood-opacity="0" result="BackgroundImageFix"/>
<feColorMatrix in="SourceAlpha" type="matrix" values="0 0 0 0 0 0 0 0 0 0 0 0 0 0 0 0 0 0 127 0" result="hardAlpha"/>
<feOffset dy="3"/>
<feComposite in2="hardAlpha" operator="out"/>
<feColorMatrix type="matrix" values="0 0 0 0 0.430747 0 0 0 0 0.491113 0 0 0 0 0.488095 0 0 0 1 0"/>
<feBlend mode="normal" in2="BackgroundImageFix" result="effect1_dropShadow_59_333"/>
<feBlend mode="normal" in="SourceGraphic" in2="effect1_dropShadow_59_333" result="shape"/>
</filter>
<linearGradient id="paint0_linear_59_333" x1="21.0431" y1="28.1704" x2="28.1951" y2="43.508" gradientUnits="userSpaceOnUse">
<stop stop-color="#9A1514"/>
<stop offset="1" stop-color="#F9393D"/>
</linearGradient>
<linearGradient id="paint1_linear_59_333" x1="16.1182" y1="28.1704" x2="8.96613" y2="43.508" gradientUnits="userSpaceOnUse">
<stop stop-color="#9A1514"/>
<stop offset="1" stop-color="#F9393D"/>
</linearGradient>
<linearGradient id="paint2_linear_59_333" x1="29.9251" y1="30.4247" x2="7.89804" y2="3.69895" gradientUnits="userSpaceOnUse">
<stop stop-color="#A4B6BA"/>
<stop offset="1" stop-color="#ECF2F2"/>
</linearGradient>
<linearGradient id="paint3_linear_59_333" x1="27.2903" y1="27.4399" x2="10.4011" y2="6.94798" gradientUnits="userSpaceOnUse">
<stop stop-color="#EDF1F6"/>
<stop offset="1" stop-color="#9BADAD"/>
</linearGradient>
<linearGradient id="paint4_linear_59_333" x1="26.4492" y1="26.4874" x2="11.1997" y2="7.985" gradientUnits="userSpaceOnUse">
<stop stop-color="#7D8F93"/>
<stop offset="1" stop-color="#E6E6E6"/>
</linearGradient>
<linearGradient id="paint5_linear_59_333" x1="23.4363" y1="25.3061" x2="10.2053" y2="14.3363" gradientUnits="userSpaceOnUse">
<stop stop-color="#9BACB0"/>
<stop offset="1" stop-color="#F2F2F2"/>
</linearGradient>
</defs>
</svg>
