<?xml version="1.0" encoding="utf-8"?>
<!-- Generator: Adobe Illustrator 27.9.1, SVG Export Plug-In . SVG Version: 6.00 Build 0)  -->
<svg version="1.1" id="Layer_1" xmlns="http://www.w3.org/2000/svg" xmlns:xlink="http://www.w3.org/1999/xlink" x="0px" y="0px"
	 width="368px" height="371px" viewBox="0 0 368 371" style="enable-background:new 0 0 368 371;" xml:space="preserve">
<style type="text/css">
	.st0{fill:#FFFFFF;}
	.st1{fill-rule:evenodd;clip-rule:evenodd;fill:#FFFFFF;}
	.st2{fill:none;stroke:#FFFFFF;stroke-miterlimit:10;}
</style>
<g id="Sunsign">
	<path id="Path_4627" class="st0" d="M229.2,171.1c-1.7,0.4-3.4,0.6-5.1,0.8c-2.1,0.2-4.7,0.4-7.6,0.8c-3.1,0.4-6.2,1.3-9.1,2.5
		c-1.4,0.6-2.8,1.4-4.1,2.3c0,0,0,0,0,0.1c0.2,0.2,0.3,0.5,0.5,0.8c1.3-0.8,2.6-1.5,4.1-2.2c2.8-1.2,5.8-2,8.9-2.6
		c2.8-0.5,5.4-0.8,7.5-1.1c1.7-0.2,3.4-0.6,5.1-1.1c0.6-0.2,1.2-0.4,1.8-0.7C230.4,170.8,229.8,171,229.2,171.1"/>
	<path id="Path_4628" class="st0" d="M199,171.5c0.9-1.3,1.9-2.5,2.9-3.6c2.2-2.2,4.6-4.1,7.2-5.8c2.4-1.5,4.7-2.8,6.5-3.9
		c1.5-0.9,2.9-1.9,4.2-3c0.5-0.4,0.9-0.9,1.4-1.3c-0.5,0.4-1,0.8-1.5,1.2c-1.4,1-2.9,1.9-4.4,2.6c-1.9,1-4.2,2.2-6.7,3.6
		c-2.7,1.6-5.3,3.5-7.5,5.8c-1.1,1.1-2.1,2.4-3,3.7c0,0,0.1,0.1,0.1,0.1C198.6,171.2,198.8,171.4,199,171.5"/>
	<path id="Path_4629" class="st0" d="M163.5,191.5c-0.6,0-1.3,0.1-1.9,0.1c0.6-0.5,1.1-0.9,1.7-1.4c-0.1-0.4-0.1-0.8-0.2-1.3l0,0
		c-2.1,0.5-4.2,0.7-6.3,0.7c-2,0-4-0.2-6-0.6c-1.7-0.3-3.4-0.8-5-1.4c1.5,0.7,3.2,1.3,4.8,1.7c2,0.5,4,0.8,6,0.9
		c1.7,0.1,3.4,0,5.1-0.2c-0.6,0.5-1.2,1-1.8,1.5c-1.7,0-3.4-0.1-5.1-0.2c-3.3-0.3-6.5-1.2-9.5-2.6l0,0l0,0c-1.6-0.6-3.2-1.3-4.8-2.1
		c-1.6-0.8-3.3-1.4-4.9-2c-1.7-0.6-3.5-0.8-5.3-0.5c-1.8,0.3-3.4,1.1-4.8,2.3c1.4-1.1,3-1.8,4.8-2c1.7-0.1,3.5,0.1,5.1,0.7
		c1.6,0.6,3.3,1.3,4.8,2.1c1.6,0.8,3.2,1.6,4.8,2.2l0,0c1.5,0.8,3.1,1.4,4.8,1.8c1.6,0.5,3.3,0.8,5,1c1.3,0.1,2.6,0.2,3.9,0.3
		c-0.9,0.7-1.9,1.4-2.9,2.1c-2.7,1.8-5.8,3.1-9,3.9l0,0h0c-1.6,0.5-3.4,0.9-5.1,1.2c-1.7,0.3-3.4,0.8-5.1,1.5
		c-1.6,0.7-3.1,1.8-4.3,3.1c-1.1,1.4-2,2.9-2.5,4.6c0.6-1.6,1.5-3.1,2.7-4.4c1.2-1.3,2.6-2.2,4.3-2.8c1.6-0.6,3.3-1,5-1.3
		c1.7-0.3,3.4-0.6,5.1-1.1c1.7-0.3,3.3-0.8,4.8-1.5c1.6-0.7,3.1-1.4,4.5-2.4c1.4-0.9,2.8-1.8,4-2.9c1.2,0,2.3,0,3.5-0.1
		C163.7,192.2,163.6,191.9,163.5,191.5"/>
	<path id="Path_4630" class="st0" d="M163.5,183.2c-0.7-0.2-1.3-0.5-2-0.7c0.8-0.2,1.6-0.5,2.3-0.7c0.1-0.4,0.3-0.9,0.6-1.3
		c0,0,0,0,0-0.1c-0.2,0.1-0.4,0.1-0.6,0.2c-2.1-0.4-4.1-1-6.1-1.8c-1.8-0.8-3.6-1.7-5.3-2.8c-1.4-1-2.8-2-4.1-3.2
		c1.2,1.3,2.4,2.4,3.8,3.4c1.6,1.2,3.4,2.3,5.2,3.2c1.5,0.7,3.1,1.3,4.8,1.8c-0.7,0.2-1.5,0.5-2.3,0.7c-1.6-0.6-3.1-1.4-4.6-2.2
		c-2.9-1.6-5.6-3.6-7.8-6l0,0l0,0c-1.3-1.2-2.5-2.5-3.7-3.8c-1.2-1.3-2.5-2.6-3.8-3.7c-1.4-1.2-3-2-4.7-2.5
		c-1.7-0.4-3.6-0.3-5.3,0.3c1.7-0.5,3.5-0.5,5.2,0c1.7,0.5,3.2,1.4,4.4,2.6c1.3,1.2,2.5,2.5,3.6,3.8c1.2,1.3,2.3,2.7,3.6,3.9l0,0
		c1.1,1.3,2.4,2.5,3.7,3.5c1.3,1.1,2.8,2,4.3,2.8c1.1,0.6,2.3,1.2,3.5,1.8c-1.1,0.3-2.3,0.6-3.5,0.8c-3.2,0.6-6.5,0.7-9.8,0.1l0,0
		l0,0c-1.7-0.1-3.4-0.5-5.1-0.8c-1.7-0.4-3.5-0.5-5.3-0.5c-1.8,0-3.5,0.4-5.1,1.2c-1.6,0.8-2.9,2-4.1,3.3c1.2-1.3,2.6-2.3,4.2-3.1
		c1.6-0.7,3.3-1.1,5-1c1.7,0.1,3.5,0.3,5.1,0.7c1.7,0.3,3.4,0.7,5.2,0.9c1.7,0.3,3.3,0.5,5,0.5c1.7,0,3.4-0.2,5.1-0.5
		c1.6-0.3,3.2-0.6,4.8-1.1c1.1,0.5,2.3,0.9,3.4,1.3C163.3,183.9,163.4,183.6,163.5,183.2"/>
	<path id="Path_4631" class="st0" d="M202.3,169c-0.6,0.7-1.2,1.3-1.7,2.1c-0.3,0.4-0.5,0.8-0.8,1.2c0.2,0.2,0.5,0.4,0.7,0.7
		c0.2-0.5,0.5-0.9,0.8-1.4c0.5-0.8,1-1.5,1.5-2.1c1-1.3,2-2.3,2.8-3.1c1.6-1.7,2.6-2.6,2.6-2.6s-1,0.8-2.8,2.3
		C204.5,166.8,203.5,167.8,202.3,169"/>
	<path id="Path_4632" class="st0" d="M222.6,154.5c-1.3,1.2-2.6,2.2-4.1,3.1c-1.5,1-2.9,1.9-4.3,3l0,0c-1.4,0.9-2.7,2-3.9,3.2
		c-1.2,1.2-2.3,2.5-3.2,3.9c-0.9,1.3-1.8,2.7-2.6,4.2c-1.2,0.5-2.3,1-3.4,1.5c0.2,0.3,0.5,0.6,0.7,0.9c0.6-0.3,1.3-0.6,1.9-0.9
		c-0.4,0.7-0.8,1.4-1.1,2.2c0.2,0.4,0.4,0.8,0.6,1.2c0.1-0.1,0.1-0.2,0.2-0.4c1.7-1.2,3.6-2.2,5.6-3c1.8-0.8,3.8-1.4,5.7-1.8
		c1.7-0.3,3.4-0.5,5.1-0.6c-1.7-0.1-3.4,0-5.1,0.3c-2,0.3-4,0.8-5.9,1.4c-1.6,0.6-3.1,1.3-4.6,2.1c0.4-0.7,0.7-1.4,1.1-2.1
		c1.6-0.7,3.2-1.3,4.8-1.8c3.2-0.9,6.5-1.4,9.8-1.3h0h0c1.7-0.1,3.5,0,5.3,0.1c1.8,0.1,3.6,0.1,5.3,0c1.8-0.1,3.5-0.7,5.1-1.5
		c1.5-0.9,2.7-2.3,3.5-3.9c-0.9,1.6-2.1,2.8-3.7,3.7c-1.6,0.8-3.3,1.2-5,1.3c-1.8,0.1-3.5,0-5.3-0.1c-1.8-0.1-3.5-0.3-5.3-0.2l0,0
		c-1.7-0.1-3.4-0.1-5.1,0.1c-1.7,0.2-3.4,0.5-5,1c-1.3,0.4-2.5,0.8-3.7,1.2c0.6-1,1.2-2,1.9-3c1.8-2.7,4.2-5.1,6.8-7l0,0v0
		c1.3-1.1,2.8-2.1,4.2-3.1c1.5-1,2.9-2.1,4.1-3.3c1.2-1.3,2.2-2.8,2.7-4.5c0.5-1.7,0.7-3.4,0.6-5.2c0,1.7-0.2,3.5-0.8,5.1
		C224.8,151.9,223.9,153.3,222.6,154.5"/>
	<path id="Path_4633" class="st0" d="M140.1,163.7c1.6,0.7,3.1,1.6,4.5,2.6c1.4,1,2.9,2,4.4,2.9l0,0c1.4,1,2.9,1.8,4.5,2.4
		c1.6,0.6,3.2,1.1,4.9,1.5c1.6,0.4,3.2,0.6,4.9,0.8c1,1,2,1.9,3,2.8c0.2-0.3,0.4-0.6,0.6-0.9c-0.6-0.6-1.2-1.1-1.9-1.7
		c0.9,0.1,1.8,0.2,2.7,0.2l-0.2,0.5c0.4-0.5,0.8-1,1.2-1.5l-0.2,0c-0.2,0-0.4,0-0.6,0c-1.8-1.1-3.4-2.5-4.9-4
		c-1.4-1.4-2.7-3-3.8-4.6c-1-1.4-1.8-2.9-2.5-4.5c0.6,1.6,1.3,3.1,2.2,4.6c1,1.7,2.2,3.4,3.6,4.9c1.1,1.3,2.4,2.4,3.7,3.5
		c-0.8-0.1-1.6-0.1-2.3-0.2c-1.2-1.2-2.4-2.5-3.5-3.8c-2.1-2.6-3.8-5.5-4.9-8.6v0l0,0c-0.7-1.6-1.3-3.2-1.9-4.9
		c-0.6-1.7-1.3-3.3-2.1-4.9c-0.8-1.6-2-3-3.4-4.1c-1.5-1.1-3.2-1.7-5-1.8c1.7,0.2,3.4,0.9,4.8,2c1.3,1.1,2.4,2.6,3.1,4.1
		c0.7,1.6,1.4,3.2,1.9,4.9c0.6,1.7,1.1,3.3,1.8,5c0.5,1.6,1.2,3.2,2.1,4.7c0.8,1.5,1.8,2.9,2.9,4.2c0.8,1,1.7,2,2.6,3
		c-1.2-0.2-2.4-0.4-3.5-0.6c-3.2-0.7-6.3-1.9-9.1-3.6l0,0c-1.5-0.8-3-1.8-4.4-2.7c-1.5-1-3-1.8-4.7-2.5c-1.7-0.7-3.5-0.9-5.2-0.8
		c-1.8,0.2-3.5,0.7-5,1.5c1.6-0.7,3.3-1.1,5-1.2C136.8,162.6,138.5,163,140.1,163.7"/>
	<path id="Path_4634" class="st0" d="M207.4,142.3c-0.7,1.6-1.6,3.1-2.6,4.5c-1,1.4-2,2.9-2.8,4.4l0,0c-1,1.4-1.8,2.9-2.4,4.5
		c-0.6,1.6-1.1,3.2-1.5,4.9c-0.4,1.6-0.6,3.2-0.8,4.9c-1,1-2,2-2.9,3.1c0.3,0.2,0.6,0.3,0.9,0.5c0.6-0.6,1.2-1.3,1.8-1.9
		c-0.1,0.9-0.2,1.8-0.2,2.7l-0.5-0.2c0.5,0.3,1,0.7,1.5,1v0c0-0.2,0-0.4,0-0.6c1.1-1.8,2.5-3.4,4-4.9c1.4-1.4,3-2.7,4.6-3.8
		c1.4-1,2.9-1.8,4.5-2.5c-1.6,0.6-3.1,1.3-4.6,2.2c-1.8,1-3.4,2.2-4.9,3.6c-1.3,1.1-2.4,2.4-3.5,3.7c0.1-0.8,0.1-1.6,0.2-2.3
		c1.2-1.2,2.5-2.4,3.8-3.5c2.6-2.1,5.5-3.7,8.6-4.9l0,0l0,0c1.6-0.7,3.2-1.3,4.9-1.9c1.7-0.6,3.3-1.3,4.9-2.1c1.6-0.8,3-2,4.1-3.4
		c1.1-1.4,1.7-3.2,1.8-5c-0.2,1.8-0.9,3.4-2,4.8c-1.1,1.3-2.5,2.4-4.1,3.1c-1.6,0.7-3.2,1.4-4.9,1.9c-1.7,0.6-3.4,1.1-5,1.8h0
		c-1.6,0.5-3.2,1.2-4.7,2.1c-1.5,0.8-2.9,1.8-4.2,2.8c-1,0.8-2,1.7-3,2.6c0.2-1.2,0.3-2.4,0.6-3.5c0.7-3.2,1.9-6.3,3.6-9.1l0,0v0
		c0.8-1.5,1.7-3,2.7-4.5c1-1.5,1.8-3,2.5-4.7c0.7-1.7,0.9-3.4,0.8-5.2c-0.2-1.8-0.7-3.5-1.5-5c0.7,1.6,1.1,3.3,1.2,5.1
		C208.5,139.1,208.1,140.8,207.4,142.3"/>
	<path id="Path_4635" class="st0" d="M194.2,163.5c-0.3,0.8-0.6,1.7-0.8,2.6c-0.1,0.6-0.3,1.2-0.3,1.8c0.3,0.1,0.6,0.3,0.9,0.5
		c0-0.7,0-1.4,0.2-2.1c0.2-0.9,0.4-1.7,0.6-2.5c0.5-1.6,1-2.9,1.4-4c0.8-2.2,1.4-3.4,1.4-3.4c0,0-0.6,1.1-1.7,3.2
		C195.4,160.6,194.8,161.9,194.2,163.5"/>
	<path id="Path_4636" class="st0" d="M169.3,139.1c0.6,1.6,1.1,3.3,1.4,5c0.3,1.7,0.7,3.5,1.1,5.2l0,0c0.3,1.7,0.8,3.3,1.5,4.9
		c0.7,1.6,1.4,3.1,2.4,4.5c0.9,1.4,1.8,2.7,2.9,4c0,1.4,0.1,2.8,0.1,4.2c0.3-0.1,0.7-0.2,1-0.3c-0.1-0.9-0.1-1.7-0.1-2.6
		c0.6,0.7,1.2,1.4,1.8,2.1l-0.7,0.3c0.7-0.1,1.4-0.2,2.1-0.3l-0.1-0.1c-0.1-0.2-0.3-0.3-0.4-0.5c-0.5-2.1-0.7-4.2-0.7-6.3
		c0-2,0.2-4,0.6-5.9c0.3-1.7,0.8-3.4,1.4-5c-0.7,1.5-1.3,3.2-1.7,4.8c-0.5,2-0.8,4-0.9,6c-0.1,1.7,0,3.4,0.2,5.1
		c-0.5-0.6-1-1.2-1.5-1.8c0-1.7,0.1-3.4,0.2-5.1c0.3-3.3,1.2-6.5,2.6-9.5l0,0l0,0c0.6-1.6,1.4-3.2,2.1-4.8c0.8-1.6,1.4-3.3,2-4.9
		c0.6-1.7,0.7-3.5,0.5-5.3c-0.3-1.8-1.1-3.4-2.3-4.8c1.1,1.4,1.8,3,2,4.8c0.1,1.7-0.1,3.5-0.7,5.1c-0.6,1.6-1.3,3.2-2.1,4.8
		c-0.8,1.6-1.6,3.2-2.2,4.8v0c-0.8,1.5-1.4,3.1-1.8,4.8c-0.5,1.6-0.8,3.3-1,5c-0.2,1.3-0.2,2.6-0.3,3.9c-0.7-0.9-1.4-1.9-2.1-2.9
		c-1.8-2.7-3.1-5.8-3.9-9l0,0v0c-0.5-1.7-0.9-3.4-1.2-5.1c-0.3-1.7-0.8-3.4-1.5-5.1c-0.7-1.6-1.8-3.1-3.1-4.3
		c-1.4-1.1-2.9-2-4.6-2.5c1.6,0.6,3.1,1.5,4.4,2.7C167.7,136,168.7,137.5,169.3,139.1"/>
	<path id="Path_4637" class="st0" d="M152.2,148.5c1.2,1.3,2.2,2.6,3.1,4.1c1,1.4,1.9,2.9,3,4.3c0.9,1.4,2,2.7,3.2,3.9
		c1.2,1.2,2.5,2.3,3.9,3.2c1.3,0.9,2.7,1.8,4.2,2.6c0.6,1.3,1.1,2.6,1.8,3.9c0.3-0.2,0.6-0.5,0.9-0.7l0,0c-0.4-0.8-0.8-1.6-1.1-2.4
		c0.8,0.4,1.6,0.9,2.4,1.3l-0.8,0.8c0.7-0.5,1.4-0.9,2.2-1.3l-0.3-0.1c-0.2-0.1-0.4-0.2-0.6-0.3c-1.2-1.7-2.2-3.6-3-5.6
		c-0.8-1.8-1.4-3.8-1.7-5.7c-0.3-1.7-0.5-3.4-0.6-5.1c-0.1,3.7,0.5,7.5,1.7,11c0.6,1.6,1.3,3.1,2.1,4.6c-0.7-0.4-1.4-0.7-2.1-1.1
		c-0.7-1.6-1.3-3.2-1.7-4.8c-1-3.2-1.4-6.5-1.3-9.8l0,0v0c-0.1-1.7,0-3.5,0.1-5.3c0.1-1.8,0.1-3.6,0-5.3c-0.1-1.8-0.7-3.5-1.5-5.1
		c-0.9-1.5-2.3-2.7-3.9-3.5c1.5,0.9,2.8,2.1,3.7,3.7c0.8,1.6,1.2,3.3,1.3,5c0.1,1.8,0,3.5-0.1,5.3c-0.1,1.8-0.3,3.5-0.2,5.3l0,0
		c-0.1,1.7-0.1,3.4,0.1,5.1c0.2,1.7,0.5,3.4,1,5c0.4,1.3,0.8,2.5,1.3,3.7c-1-0.6-2-1.2-3-1.9c-2.7-1.8-5.1-4.2-7-6.8l0,0l0,0
		c-1.1-1.3-2.1-2.8-3.1-4.2c-1-1.5-2.1-2.9-3.3-4.1c-1.3-1.2-2.8-2.2-4.5-2.7c-1.7-0.5-3.5-0.7-5.2-0.6c1.7,0,3.5,0.2,5.1,0.8
		C149.6,146.2,151.1,147.2,152.2,148.5"/>
	<path id="Path_4638" class="st0" d="M188.7,136.9c-0.1,1.7-0.3,3.4-0.7,5.1c-0.4,1.7-0.7,3.5-1,5.2v0c-0.3,1.7-0.5,3.4-0.5,5.1
		c0,1.7,0.2,3.4,0.5,5c0.3,1.6,0.7,3.2,1.1,4.8c-0.5,1.3-1,2.6-1.5,3.9c0.1,0,0.3,0,0.4,0c0.2,0,0.4,0.1,0.7,0.1
		c0.3-0.8,0.6-1.6,0.9-2.4c0.3,0.9,0.5,1.7,0.8,2.6l-0.7,0c0.7,0.2,1.4,0.4,2.1,0.6l-0.1-0.3c-0.1-0.2-0.1-0.4-0.2-0.6
		c0.4-2.1,1-4.1,1.8-6.1c0.8-1.8,1.7-3.6,2.8-5.3c1-1.4,2-2.8,3.2-4.1c-1.2,1.2-2.4,2.4-3.4,3.8c-1.2,1.6-2.3,3.4-3.2,5.2
		c-0.7,1.5-1.3,3.1-1.8,4.8c-0.2-0.7-0.5-1.5-0.7-2.3c0.6-1.6,1.4-3.1,2.2-4.6c1.6-2.9,3.6-5.6,6-7.8l0,0l0,0
		c1.2-1.3,2.5-2.5,3.8-3.7c1.3-1.2,2.6-2.4,3.7-3.8c1.2-1.4,2-3,2.5-4.7c0.4-1.7,0.3-3.6-0.3-5.3c0.5,1.7,0.5,3.5,0,5.2
		c-0.5,1.7-1.4,3.2-2.6,4.4c-1.2,1.3-2.5,2.5-3.8,3.6c-1.3,1.2-2.7,2.3-3.9,3.6l0,0c-1.3,1.1-2.5,2.4-3.5,3.7
		c-1.1,1.3-2,2.8-2.8,4.2c-0.6,1.1-1.2,2.3-1.8,3.5c-0.3-1.1-0.6-2.3-0.8-3.5c-0.6-3.2-0.7-6.5-0.1-9.8l0,0l0,0
		c0.1-1.7,0.5-3.4,0.8-5.2c0.4-1.7,0.5-3.5,0.5-5.3c0-1.8-0.5-3.5-1.3-5.1c-0.8-1.6-1.9-3-3.3-4.1c1.3,1.2,2.3,2.6,3.1,4.2
		C188.4,133.5,188.7,135.2,188.7,136.9"/>
	<path id="Path_4639" class="st0" d="M160.4,177.6c-2.9-1.2-5.6-2.6-8.1-4.4c-2.4-1.6-4.4-3.2-6.1-4.5c-1.4-1-2.8-2-4.4-2.8
		c-0.6-0.3-1.1-0.5-1.7-0.8c0.6,0.3,1.1,0.6,1.7,0.9c1.4,0.9,2.8,1.9,4.1,3.1c1.7,1.4,3.6,3.1,6,4.8c2.5,1.9,5.3,3.5,8.2,4.7
		c1.5,0.6,3,1,4.6,1.3c0.1-0.3,0.2-0.6,0.4-0.9C163.4,178.7,161.9,178.2,160.4,177.6"/>
	<path id="Path_4640" class="st0" d="M169.5,172.3c-1.4-0.9-2.7-2-3.9-3.1c-2.2-2.2-4.1-4.6-5.8-7.2c-1.5-2.4-2.8-4.7-3.9-6.5
		c-0.9-1.5-1.9-2.9-3-4.3c-0.4-0.5-0.8-0.9-1.3-1.4c0.4,0.5,0.8,0.9,1.2,1.5c1,1.4,1.9,2.9,2.6,4.4c1,1.9,2.2,4.2,3.7,6.7
		c1.6,2.7,3.5,5.3,5.8,7.5c1.2,1.1,2.5,2.2,3.9,3.1C169.1,172.7,169.3,172.5,169.5,172.3"/>
	<path id="Path_4641" class="st0" d="M161.2,176.9c0.8,0.3,1.7,0.6,2.6,0.8c0.5,0.1,1.1,0.2,1.6,0.3c0.1-0.3,0.3-0.6,0.5-0.9
		c-0.6,0-1.3-0.1-1.9-0.2c-0.9-0.2-1.7-0.4-2.5-0.6c-1.6-0.5-2.9-1-4-1.4c-2.2-0.8-3.4-1.4-3.4-1.4c0,0,1.1,0.6,3.2,1.7
		C158.4,175.7,159.7,176.3,161.2,176.9"/>
	<path id="Path_4642" class="st0" d="M163.2,185.1c-0.4,0.2-0.9,0.3-1.3,0.4c-0.8,0.2-1.7,0.3-2.6,0.4c-1.6,0.2-3,0.2-4.2,0.2
		c-2.3,0-3.6,0-3.6,0s1.2,0.2,3.6,0.3c1.4,0.1,2.8,0.1,4.3,0.1c0.9,0,1.8-0.1,2.7-0.2c0.4-0.1,0.8-0.1,1.1-0.2
		C163.1,185.7,163.1,185.4,163.2,185.1"/>
	<path id="Path_4643" class="st0" d="M163.1,187.1c-1.4,0.2-2.8,0.4-4.3,0.4c-3.1,0-6.2-0.3-9.2-1c-2.8-0.6-5.3-1.3-7.4-1.8
		c-1.7-0.4-3.4-0.8-5.1-0.9c-0.6-0.1-1.3-0.1-1.9,0c0.6,0,1.3,0.1,1.9,0.2c1.7,0.3,3.3,0.7,5,1.2c2.1,0.6,4.5,1.5,7.4,2.2
		c3.1,0.8,6.2,1.2,9.4,1.2c1.4,0,2.9-0.2,4.3-0.4C163.1,187.8,163.1,187.4,163.1,187.1"/>
	<path id="Path_4644" class="st0" d="M201.6,205c1.3,1,2.3,2,3.1,2.8c1.7,1.6,2.6,2.6,2.6,2.6s-0.8-1-2.3-2.8
		c-0.8-0.9-1.7-1.9-3-3.1c-0.7-0.6-1.3-1.2-2.1-1.7c-0.2-0.2-0.5-0.3-0.7-0.5c-0.2,0.2-0.5,0.4-0.7,0.6c0.3,0.2,0.6,0.3,0.9,0.5
		C200.3,204,201,204.5,201.6,205"/>
	<path id="Path_4645" class="st0" d="M198.7,226.4c0.2,1.7,0.6,3.4,1.1,5.1c0.2,0.6,0.4,1.2,0.7,1.8c-0.2-0.6-0.4-1.2-0.5-1.8
		c-0.4-1.7-0.6-3.4-0.8-5.1c-0.2-2.2-0.4-4.7-0.8-7.6c-0.4-3.1-1.3-6.2-2.5-9.1c-0.6-1.3-1.3-2.6-2-3.8c-0.3,0.1-0.6,0.2-0.9,0.3
		c0.8,1.2,1.5,2.5,2.1,3.9c1.2,2.8,2,5.8,2.6,8.9C198.1,221.7,198.4,224.3,198.7,226.4"/>
	<path id="Path_4646" class="st0" d="M207.3,197.1c1.6,0.5,2.9,1,4,1.4c2.2,0.9,3.4,1.4,3.3,1.4s-1.1-0.6-3.2-1.7
		c-1-0.5-2.3-1.1-3.9-1.7c-0.8-0.3-1.6-0.6-2.6-0.8c-0.4-0.1-0.7-0.2-1.1-0.2c-0.1,0.3-0.3,0.6-0.4,0.9c0.4,0,0.9,0.1,1.3,0.2
		C205.7,196.6,206.5,196.8,207.3,197.1"/>
	<path id="Path_4647" class="st0" d="M212.9,217.9c0.9,1.5,1.9,2.9,2.9,4.2c0.4,0.5,0.9,0.9,1.3,1.4c-0.4-0.5-0.8-0.9-1.2-1.5
		c-1-1.4-1.9-2.9-2.6-4.4c-1-1.9-2.2-4.2-3.6-6.7c-1.6-2.7-3.6-5.3-5.8-7.5c-1-1-2-1.8-3.2-2.6c-0.2,0.3-0.4,0.5-0.6,0.8
		c1.1,0.8,2.1,1.7,3.1,2.6c2.2,2.2,4.1,4.6,5.8,7.2C210.5,213.8,211.7,216.1,212.9,217.9"/>
	<path id="Path_4648" class="st0" d="M193.3,210.2c0.8,1.4,1.4,2.7,1.8,3.8c0.9,2.1,1.4,3.3,1.4,3.3s-0.3-1.2-1.1-3.4
		c-0.4-1.3-1-2.7-1.6-4c-0.4-0.8-0.8-1.6-1.2-2.4c-0.2-0.4-0.5-0.7-0.8-1.1c-0.3,0.1-0.7,0.2-1,0.3c0.4,0.4,0.7,0.8,1,1.3
		C192.4,208.8,192.9,209.5,193.3,210.2"/>
	<path id="Path_4649" class="st0" d="M184.9,208c0.2,1.4,0.4,2.9,0.4,4.3c0,3.1-0.3,6.2-1,9.2c-0.6,2.8-1.3,5.3-1.8,7.4
		c-0.4,1.7-0.7,3.4-0.9,5.1c-0.1,0.6-0.1,1.3,0,1.9c0-0.6,0.1-1.3,0.2-1.9c0.3-1.7,0.7-3.4,1.2-5c0.6-2.1,1.5-4.5,2.2-7.3
		c0.8-3.1,1.2-6.2,1.2-9.4c0-1.4-0.2-2.9-0.4-4.3C185.5,208,185.2,208,184.9,208"/>
	<path id="Path_4650" class="st0" d="M204.3,179.7c0,0.2,0.1,0.4,0.1,0.6c0.4-0.4,0.9-0.8,1.3-1.1c0.7-0.5,1.5-0.9,2.2-1.3
		c1.4-0.8,2.7-1.4,3.8-1.8c2.1-0.9,3.3-1.4,3.3-1.4c0,0-1.2,0.3-3.4,1c-1.1,0.4-2.4,0.9-4,1.6c-0.8,0.4-1.6,0.8-2.4,1.2
		c-0.4,0.2-0.8,0.5-1.2,0.8C204.2,179.4,204.3,179.5,204.3,179.7"/>
	<path id="Path_4651" class="st0" d="M184,209.2c-0.1-0.4-0.2-0.9-0.3-1.3c-0.2,0-0.4,0-0.7,0c-0.1,0-0.2,0-0.3,0
		c0.2,0.5,0.3,0.9,0.4,1.4c0.2,0.8,0.3,1.7,0.4,2.6c0.2,1.6,0.2,3,0.3,4.2c0,2.3,0,3.6,0,3.6s0.2-1.3,0.3-3.6
		c0.1-1.4,0.1-2.8,0.1-4.3C184.2,210.9,184.2,210,184,209.2"/>
	<path id="Path_4652" class="st0" d="M216.6,224.9c-1.2-1.3-2.2-2.7-3.1-4.1c-0.9-1.5-1.9-2.9-3-4.3l0,0c-0.9-1.4-2-2.7-3.2-3.9
		c-1.2-1.2-2.5-2.3-3.9-3.2c-1.3-1-2.7-1.8-4.2-2.6c-0.4-1-0.9-2-1.3-3c-0.3,0.2-0.6,0.4-0.9,0.6c0.2,0.5,0.5,1,0.7,1.6
		c-0.6-0.3-1.2-0.6-1.8-0.9c-0.4,0.2-0.8,0.4-1.2,0.6c1.2,1.7,2.2,3.6,3,5.5c0.8,1.8,1.4,3.8,1.7,5.7c0.4,1.7,0.6,3.4,0.6,5.1
		c0.1-1.7,0-3.4-0.3-5.1c-0.3-2-0.8-4-1.4-5.9c-0.6-1.6-1.3-3.1-2.1-4.6c0.7,0.4,1.4,0.7,2.1,1.1c0.7,1.6,1.3,3.2,1.8,4.8
		c1,3.2,1.4,6.5,1.3,9.8l0,0v0c0.1,1.7,0,3.5-0.1,5.3c-0.1,1.8-0.1,3.5,0,5.3c0.1,1.8,0.7,3.5,1.5,5.1c0.9,1.5,2.3,2.7,3.9,3.5
		c-1.5-0.9-2.8-2.1-3.7-3.7c-0.8-1.6-1.2-3.3-1.3-5c-0.1-1.8,0-3.5,0.1-5.3c0.1-1.8,0.3-3.5,0.2-5.3v0c0.1-1.7,0.1-3.4-0.1-5.1
		c-0.2-1.7-0.5-3.4-1-5c-0.4-1.3-0.8-2.5-1.3-3.7c1,0.6,2,1.2,3,1.9c2.7,1.9,5.1,4.2,7,6.8l0,0v0c1.1,1.3,2.1,2.8,3.1,4.2
		c1,1.5,2.1,2.9,3.4,4.1c1.3,1.2,2.8,2.2,4.5,2.8c1.7,0.5,3.5,0.7,5.2,0.6c-1.7,0-3.5-0.2-5.1-0.8
		C219.2,227.1,217.8,226.1,216.6,224.9"/>
	<path id="Path_4653" class="st0" d="M239.2,189.9c-1.6,0.7-3.3,1.1-5,1c-1.7-0.1-3.4-0.3-5.1-0.7c-1.7-0.4-3.4-0.7-5.2-1l0,0
		c-1.7-0.4-3.4-0.5-5.1-0.5c-1.7,0-3.4,0.2-5,0.5c-1.6,0.3-3.2,0.7-4.8,1.1c-1.2-0.5-2.4-0.9-3.6-1.3c0,0.4-0.1,0.7-0.1,1.1
		c0.7,0.2,1.4,0.5,2,0.7c-0.8,0.2-1.5,0.5-2.3,0.7c-0.1,0.4-0.2,0.8-0.3,1.2c0,0,0.1,0,0.1,0c4.1,0.7,8,2.3,11.4,4.6
		c1.4,1,2.8,2,4.1,3.2c-1.2-1.2-2.4-2.4-3.8-3.4c-1.6-1.2-3.4-2.3-5.2-3.2c-1.5-0.7-3.1-1.3-4.8-1.8c0.7-0.2,1.5-0.5,2.2-0.7
		c1.6,0.6,3.1,1.4,4.6,2.2c2.9,1.6,5.6,3.6,7.8,6l0,0l0,0c1.3,1.2,2.5,2.5,3.7,3.8c1.2,1.3,2.4,2.6,3.8,3.7c1.4,1.2,3,2,4.7,2.5
		c1.7,0.4,3.6,0.3,5.3-0.3c-1.7,0.5-3.5,0.5-5.2,0c-1.7-0.5-3.2-1.4-4.5-2.6c-1.3-1.2-2.5-2.5-3.6-3.8c-1.2-1.3-2.3-2.7-3.6-3.9l0,0
		c-1.1-1.3-2.4-2.5-3.7-3.5c-1.3-1-2.8-2-4.3-2.8c-1.1-0.6-2.3-1.2-3.5-1.8c1.2-0.3,2.3-0.6,3.5-0.8c3.2-0.6,6.5-0.7,9.8-0.1l0,0h0
		c1.7,0.1,3.4,0.5,5.2,0.8c1.7,0.4,3.5,0.5,5.3,0.5c1.8,0,3.5-0.5,5.1-1.3c1.6-0.8,2.9-1.9,4.1-3.3
		C242.2,188.2,240.8,189.2,239.2,189.9"/>
	<path id="Path_4654" class="st0" d="M222.7,204.7c1.4,1,2.8,2,4.3,2.8c0.6,0.3,1.2,0.5,1.8,0.8c-0.6-0.3-1.1-0.6-1.7-0.9
		c-1.4-0.9-2.8-2-4.1-3.1c-1.7-1.4-3.6-3.1-5.9-4.8c-2.5-1.9-5.3-3.5-8.2-4.7c-1.4-0.5-2.8-1-4.2-1.3c-0.1,0.3-0.2,0.6-0.3,0.9
		c1.4,0.3,2.8,0.8,4.1,1.3c2.9,1.2,5.6,2.7,8.1,4.4C218.9,201.8,220.9,203.4,222.7,204.7"/>
	<path id="Path_4655" class="st0" d="M228.7,209.7c-1.6-0.7-3.1-1.6-4.5-2.6c-1.4-1-2.9-2-4.4-2.8l0,0c-1.4-1-2.9-1.8-4.5-2.4
		c-1.6-0.6-3.2-1.1-4.9-1.5c-1.6-0.4-3.2-0.6-4.9-0.8c-0.8-0.8-1.7-1.6-2.5-2.4c-0.2,0.3-0.3,0.6-0.5,0.9c0.5,0.4,0.9,0.8,1.4,1.2
		c-0.7-0.1-1.4-0.1-2-0.2c-0.2,0.4-0.5,0.7-0.8,1.1c1.7,1.1,3.4,2.4,4.8,3.9c1.4,1.4,2.7,3,3.8,4.6c1,1.4,1.8,2.9,2.5,4.5
		c-0.6-1.6-1.3-3.1-2.2-4.6c-1-1.8-2.2-3.4-3.6-4.9c-1.1-1.3-2.4-2.4-3.7-3.4c0.8,0.1,1.6,0.1,2.3,0.2c1.2,1.2,2.4,2.5,3.5,3.8
		c2.1,2.6,3.8,5.5,4.9,8.6l0,0l0,0c0.7,1.6,1.3,3.2,2,4.9c0.6,1.7,1.3,3.3,2.1,4.9c0.8,1.6,2,3,3.4,4.1c1.4,1.1,3.2,1.7,5,1.8
		c-1.8-0.2-3.4-0.9-4.8-2c-1.3-1.1-2.4-2.5-3.1-4.1c-0.7-1.6-1.4-3.2-1.9-4.9c-0.6-1.7-1.1-3.4-1.8-5l0,0c-0.5-1.6-1.2-3.2-2.1-4.7
		c-0.8-1.5-1.8-2.9-2.9-4.2c-0.8-1-1.7-2-2.6-3c1.2,0.2,2.4,0.3,3.5,0.6c3.2,0.7,6.3,1.9,9.1,3.6l0,0c1.5,0.8,3,1.8,4.4,2.7
		c1.5,1,3,1.9,4.7,2.5c1.7,0.7,3.4,0.9,5.2,0.8c1.8-0.2,3.5-0.7,5-1.5c-1.6,0.7-3.3,1.1-5,1.2C232,210.7,230.3,210.4,228.7,209.7"/>
	<path id="Path_4656" class="st0" d="M166.4,224.9c-1,1.4-2,2.8-2.8,4.3c-0.3,0.6-0.5,1.2-0.8,1.8c0.3-0.6,0.6-1.1,0.9-1.7
		c0.9-1.4,2-2.8,3.1-4.1c1.4-1.7,3.1-3.6,4.8-5.9c1.9-2.5,3.5-5.3,4.7-8.2c0.5-1.3,0.9-2.7,1.2-4.1c-0.3-0.1-0.6-0.2-0.9-0.3
		c-0.3,1.4-0.7,2.7-1.3,4.1c-1.2,2.8-2.7,5.6-4.4,8.1C169.3,221.1,167.7,223.1,166.4,224.9"/>
	<path id="Path_4657" class="st0" d="M161.1,196.2c0.8-0.4,1.6-0.8,2.4-1.3c0.3-0.2,0.6-0.4,0.9-0.6c-0.1-0.3-0.2-0.6-0.3-0.9
		c-0.3,0.3-0.7,0.5-1,0.8c-0.7,0.5-1.5,1-2.2,1.4c-1.4,0.8-2.7,1.4-3.8,1.8c-2.1,0.9-3.4,1.4-3.4,1.4s1.2-0.3,3.4-1.1
		C158.2,197.3,159.6,196.9,161.1,196.2"/>
	<path id="Path_4658" class="st0" d="M166.1,203.9c-1,1.3-2,2.3-2.8,3.1c-1.6,1.7-2.6,2.6-2.6,2.6s1-0.8,2.8-2.3
		c1.1-0.9,2.1-1.9,3.1-2.9c0.6-0.7,1.2-1.3,1.7-2.1c0.2-0.3,0.4-0.6,0.6-0.9c-0.2-0.2-0.4-0.5-0.6-0.7c-0.2,0.4-0.4,0.7-0.6,1.1
		C167.1,202.5,166.6,203.2,166.1,203.9"/>
	<path id="Path_4659" class="st0" d="M153.2,215.1c-1.5,0.9-2.9,1.9-4.3,2.9c-0.5,0.4-0.9,0.9-1.4,1.3c0.5-0.4,0.9-0.8,1.5-1.2
		c1.4-1,2.9-1.8,4.4-2.6c1.9-1,4.2-2.2,6.7-3.6c2.7-1.6,5.3-3.5,7.5-5.8c1-1,1.9-2.1,2.7-3.3c-0.2-0.2-0.5-0.4-0.7-0.7
		c-0.8,1.1-1.7,2.2-2.7,3.2c-2.2,2.2-4.6,4.1-7.2,5.8C157.3,212.7,155,214,153.2,215.1"/>
	<path id="Path_4660" class="st0" d="M171.3,216.9c0,0,0.6-1.1,1.7-3.2c0.5-1,1.1-2.3,1.7-3.9c0.3-0.8,0.6-1.7,0.8-2.6
		c0.1-0.3,0.1-0.7,0.2-1c-0.3-0.1-0.6-0.3-0.9-0.4c0,0.4-0.1,0.8-0.2,1.2c-0.2,0.9-0.4,1.7-0.6,2.5c-0.5,1.6-1,2.9-1.4,4
		C171.8,215.8,171.3,216.9,171.3,216.9"/>
	<path id="Path_4661" class="st0" d="M161.4,231c0.7-1.6,1.6-3.1,2.6-4.5c1-1.4,2-2.9,2.9-4.5l0,0c1-1.4,1.8-2.9,2.4-4.5
		c0.6-1.6,1.1-3.2,1.5-4.8c0.4-1.6,0.6-3.2,0.8-4.9c0.8-0.8,1.6-1.7,2.4-2.5c-0.3-0.2-0.6-0.4-0.9-0.5c-0.4,0.5-0.8,0.9-1.3,1.4
		c0.1-0.7,0.1-1.4,0.2-2.1c-0.3-0.2-0.7-0.5-1-0.8c-1.1,1.8-2.5,3.4-3.9,4.9c-1.4,1.4-3,2.7-4.6,3.8c-1.4,1-2.9,1.8-4.5,2.5
		c3.5-1.3,6.7-3.3,9.5-5.8c1.3-1.1,2.4-2.4,3.4-3.7c-0.1,0.8-0.1,1.6-0.2,2.3c-1.2,1.2-2.5,2.4-3.8,3.5c-2.6,2.1-5.5,3.8-8.6,4.9h0
		l0,0c-1.6,0.7-3.2,1.3-4.9,2c-1.7,0.6-3.3,1.3-4.9,2.1c-1.6,0.8-3,2-4.1,3.4c-1.1,1.4-1.7,3.2-1.8,5c0.2-1.7,0.9-3.4,2-4.8
		c1.1-1.3,2.5-2.4,4.1-3.1c1.6-0.7,3.2-1.4,4.9-1.9c1.7-0.6,3.4-1.1,5-1.8l0,0c1.6-0.5,3.2-1.2,4.7-2.1c1.5-0.8,2.9-1.8,4.2-2.9
		c1-0.8,2-1.7,3-2.6c-0.2,1.2-0.4,2.4-0.6,3.5c-0.7,3.2-1.9,6.3-3.6,9.1l0,0l0,0c-0.8,1.5-1.8,3-2.7,4.5c-1,1.5-1.8,3-2.5,4.7
		c-0.7,1.6-0.9,3.4-0.8,5.2c0.2,1.8,0.7,3.5,1.5,5c-0.7-1.6-1.1-3.3-1.2-5C160.4,234.3,160.7,232.6,161.4,231"/>
	<path id="Path_4662" class="st0" d="M144.7,201.5c2.2-0.2,4.7-0.4,7.6-0.8c3.1-0.4,6.2-1.3,9.1-2.5c1.3-0.6,2.6-1.2,3.8-2
		c-0.1-0.3-0.3-0.6-0.4-0.9c-1.2,0.7-2.4,1.4-3.7,2c-2.8,1.2-5.8,2.1-8.9,2.6c-2.8,0.5-5.4,0.8-7.5,1.1c-1.7,0.2-3.4,0.6-5.1,1.1
		c-0.6,0.2-1.2,0.4-1.8,0.7c0.6-0.2,1.2-0.4,1.8-0.5C141.3,201.9,143,201.6,144.7,201.5"/>
	<path id="Path_4663" class="st0" d="M180.1,236.4c0.1-1.7,0.3-3.5,0.7-5.1c0.3-1.7,0.7-3.4,0.9-5.2l0,0c0.4-1.7,0.5-3.4,0.5-5.1
		c0-1.7-0.2-3.4-0.5-5c-0.3-1.6-0.6-3.2-1.1-4.8c0.5-1.1,0.9-2.2,1.3-3.4c-0.4,0-0.7-0.1-1.1-0.1c-0.2,0.6-0.4,1.2-0.7,1.9
		c-0.2-0.7-0.4-1.4-0.7-2.1c-0.4-0.1-0.8-0.2-1.2-0.3v0c-0.4,2.1-1,4.1-1.8,6.1c-0.8,1.9-1.7,3.6-2.8,5.3c-1,1.4-2,2.8-3.2,4
		c1.2-1.2,2.4-2.4,3.4-3.8c2.3-3,4-6.3,4.9-9.9c0.2,0.8,0.5,1.5,0.7,2.3c-0.6,1.6-1.4,3.1-2.2,4.6c-1.6,2.9-3.6,5.6-6,7.8l0,0l0,0
		c-1.2,1.3-2.5,2.5-3.8,3.7c-1.3,1.2-2.6,2.4-3.7,3.8c-1.2,1.4-2,3-2.5,4.7c-0.4,1.7-0.3,3.6,0.3,5.3c-0.5-1.7-0.5-3.5,0-5.2
		c0.5-1.7,1.4-3.2,2.6-4.5c1.2-1.3,2.5-2.5,3.8-3.6c1.3-1.2,2.7-2.3,3.9-3.6c1.3-1.1,2.5-2.4,3.5-3.7c1-1.3,2-2.8,2.8-4.3
		c0.6-1.2,1.2-2.3,1.8-3.5c0.3,1.2,0.6,2.3,0.8,3.5c0.6,3.2,0.7,6.5,0.1,9.8l0,0v0c-0.1,1.7-0.5,3.4-0.8,5.2
		c-0.4,1.7-0.5,3.5-0.5,5.3c0,1.8,0.4,3.5,1.2,5.1c0.8,1.6,2,2.9,3.3,4.1c-1.3-1.2-2.3-2.6-3.1-4.2
		C180.4,239.9,180.1,238.2,180.1,236.4"/>
	<path id="Path_4664" class="st0" d="M146.2,218.8c1.3-1.2,2.7-2.2,4.1-3.1c1.5-0.9,2.9-1.9,4.3-3c1.4-0.9,2.7-2,3.9-3.2
		c1.2-1.2,2.3-2.5,3.2-3.9c1-1.3,1.8-2.7,2.6-4.2c1.1-0.4,2.1-0.9,3.2-1.4c-0.2-0.3-0.4-0.6-0.6-0.9c-0.6,0.3-1.1,0.5-1.7,0.8
		c0.3-0.6,0.7-1.3,1-1.9c-0.2-0.4-0.4-0.7-0.6-1.1v0c-1.7,1.2-3.6,2.2-5.5,3c-1.8,0.8-3.8,1.4-5.7,1.7c-1.7,0.3-3.4,0.6-5.1,0.6
		c1.7,0.1,3.4,0,5.1-0.3c2-0.3,4-0.8,5.9-1.4c1.6-0.6,3.1-1.3,4.6-2.1c-0.4,0.7-0.7,1.4-1.1,2.1c-1.6,0.7-3.2,1.3-4.8,1.7
		c-3.2,1-6.5,1.4-9.8,1.3h0h0c-1.7,0.1-3.5,0-5.3-0.1c-1.8-0.1-3.6-0.1-5.3,0c-1.8,0.1-3.5,0.7-5.1,1.5c-1.5,0.9-2.7,2.3-3.5,3.9
		c0.9-1.5,2.1-2.8,3.7-3.7c1.6-0.8,3.3-1.2,5-1.3c1.8-0.1,3.5,0,5.3,0.1c1.8,0.1,3.5,0.3,5.3,0.2h0c1.7,0.1,3.4,0.1,5.1-0.1
		c1.7-0.2,3.4-0.5,5-1c1.3-0.4,2.5-0.8,3.7-1.3c-0.6,1-1.2,2-1.9,3c-1.8,2.7-4.2,5.1-6.8,7l0,0l0,0c-1.3,1.1-2.8,2.1-4.2,3.1
		c-1.5,1-2.9,2.1-4.1,3.4c-1.2,1.3-2.2,2.8-2.8,4.5c-0.5,1.7-0.7,3.5-0.5,5.2c0-1.7,0.2-3.5,0.8-5.1
		C144,221.5,144.9,220,146.2,218.8"/>
	<path id="Path_4665" class="st0" d="M199.5,234.3c-0.6-1.6-1-3.3-1.3-5c-0.3-1.7-0.6-3.4-1.1-5.1v0c-0.3-1.7-0.8-3.3-1.5-4.9
		c-0.7-1.6-1.4-3.1-2.4-4.5c-0.9-1.4-1.8-2.7-2.9-4c0-1.3,0-2.5-0.1-3.8c-0.4,0.1-0.7,0.2-1,0.3c0,0.7,0.1,1.4,0.1,2.1
		c-0.5-0.6-1-1.2-1.5-1.7c-0.4,0.1-0.8,0.2-1.2,0.2l0,0c0.5,2.1,0.7,4.2,0.7,6.3c0,2-0.2,4-0.6,6c-0.3,1.7-0.8,3.4-1.4,5
		c0.7-1.5,1.3-3.2,1.7-4.8c0.5-2,0.8-4,0.9-6c0.1-1.7,0-3.4-0.2-5.1c0.5,0.6,1,1.2,1.5,1.8c0,1.7-0.1,3.4-0.2,5.1
		c-0.3,3.3-1.2,6.5-2.6,9.5v0l0,0c-0.6,1.6-1.3,3.2-2.1,4.8c-0.8,1.6-1.5,3.2-2,4.9c-0.6,1.7-0.8,3.5-0.5,5.3
		c0.3,1.8,1.1,3.4,2.3,4.8c-1.1-1.4-1.8-3-2-4.8c-0.1-1.7,0.1-3.5,0.7-5.1c0.6-1.6,1.3-3.3,2.1-4.8c0.8-1.6,1.6-3.2,2.2-4.8l0,0
		c0.7-1.5,1.4-3.1,1.8-4.8c0.5-1.6,0.8-3.3,1-5c0.1-1.3,0.2-2.6,0.3-3.9c0.7,0.9,1.4,1.9,2.1,2.9c1.8,2.8,3.1,5.8,3.9,9l0,0l0,0
		c0.5,1.6,0.9,3.3,1.2,5.1c0.3,1.7,0.8,3.4,1.5,5.1c0.7,1.6,1.8,3.1,3.1,4.3c1.4,1.1,2.9,2,4.6,2.5c-1.6-0.6-3.1-1.5-4.4-2.7
		C201.1,237.4,200.1,235.9,199.5,234.3"/>
	<path id="Path_4666" class="st0" d="M207,187.9c0.9-0.2,1.7-0.3,2.6-0.4c1.6-0.2,3-0.2,4.2-0.3c2.3,0,3.6,0,3.6,0
		c0,0-1.3-0.2-3.6-0.3c-1.2-0.1-2.6-0.1-4.3-0.1c-0.9,0-1.8,0.1-2.7,0.2c-0.5,0.1-1,0.2-1.5,0.3c0,0.3,0,0.7,0,1
		C205.9,188.2,206.5,188,207,187.9"/>
	<path id="Path_4667" class="st0" d="M226.6,188.7c1.7,0.4,3.4,0.7,5.1,0.9c0.6,0.1,1.3,0.1,1.9,0c-0.6,0-1.3-0.1-1.9-0.2
		c-1.7-0.3-3.4-0.7-5-1.2c-2.1-0.6-4.5-1.5-7.3-2.2c-3.1-0.8-6.2-1.2-9.4-1.2c-1.6,0-3.2,0.2-4.7,0.5c0,0.3,0,0.6,0.1,1
		c1.5-0.3,3.1-0.4,4.7-0.5c3.1,0,6.2,0.3,9.2,1C222,187.4,224.5,188.1,226.6,188.7"/>
	<path id="Path_4668" class="st0" d="M233.5,188.1c-1.6-0.6-3.3-1.3-4.8-2.1c-1.6-0.8-3.2-1.6-4.8-2.2h0c-1.5-0.7-3.1-1.4-4.8-1.8
		c-1.6-0.5-3.3-0.8-5-1c-1.3-0.2-2.6-0.2-3.9-0.3c0.9-0.7,1.9-1.4,2.9-2.1c2.7-1.8,5.8-3.1,9-3.9l0,0l0,0c1.7-0.5,3.4-0.9,5.1-1.2
		c1.7-0.3,3.4-0.9,5.1-1.5c1.6-0.7,3.1-1.8,4.3-3.1c1.1-1.4,2-2.9,2.5-4.6c-0.6,1.6-1.5,3.1-2.7,4.4c-1.2,1.3-2.6,2.2-4.3,2.8
		c-1.6,0.6-3.3,1.1-5,1.4c-1.7,0.3-3.5,0.6-5.2,1.1h0c-1.7,0.3-3.3,0.8-4.9,1.5c-1.6,0.7-3.1,1.4-4.5,2.3c-1.4,0.9-2.7,1.8-4,2.9
		c-1.3,0-2.6,0-3.9,0.1c0.1,0.4,0.2,0.7,0.2,1.1c0.8,0,1.6-0.1,2.4-0.1c-0.7,0.6-1.4,1.2-2.1,1.8c0.1,0.4,0.1,0.8,0.2,1.2
		c0.1-0.1,0.3-0.2,0.4-0.4c2.1-0.5,4.2-0.7,6.3-0.7c2,0,4,0.2,6,0.6c1.7,0.3,3.4,0.8,5,1.4c-1.6-0.7-3.2-1.3-4.8-1.7
		c-2-0.5-4-0.8-6-0.9c-1.7-0.1-3.4,0-5.1,0.2c0.6-0.5,1.2-1,1.8-1.5c1.7,0,3.4,0.1,5.1,0.2c3.3,0.3,6.5,1.2,9.5,2.6l0,0l0,0
		c1.6,0.6,3.2,1.4,4.9,2.1c1.6,0.8,3.2,1.5,4.9,2c1.7,0.6,3.5,0.7,5.3,0.5c1.8-0.3,3.4-1.1,4.8-2.3c-1.4,1.1-3,1.8-4.8,2
		C236.9,189,235.1,188.8,233.5,188.1"/>
	<path id="Path_4669" class="st0" d="M183.6,161c0-3.1,0.3-6.2,1-9.2c0.6-2.8,1.3-5.3,1.8-7.4c0.4-1.7,0.7-3.4,0.9-5.1
		c0.1-0.6,0.1-1.3,0-1.9c0,0,0,0.7-0.2,1.9c-0.3,1.7-0.7,3.3-1.2,5c-0.6,2.1-1.5,4.5-2.2,7.3c-0.8,3.1-1.2,6.2-1.2,9.4
		c0,1.6,0.2,3.3,0.5,4.9c0.3,0,0.6,0,1,0C183.8,164.3,183.6,162.7,183.6,161"/>
	<path id="Path_4670" class="st0" d="M193.5,162.7c1.2-2.9,2.7-5.6,4.4-8.1c1.6-2.3,3.2-4.4,4.5-6.1c1-1.4,2-2.8,2.8-4.4
		c0.3-0.6,0.6-1.2,0.8-1.8c-0.3,0.6-0.6,1.1-0.9,1.7c-0.9,1.4-2,2.8-3.1,4.1c-1.4,1.7-3.1,3.6-4.8,5.9c-1.9,2.5-3.5,5.3-4.7,8.2
		c-0.6,1.6-1.1,3.2-1.4,4.8c0.3,0.1,0.6,0.2,0.9,0.4C192.4,165.8,192.8,164.2,193.5,162.7"/>
	<path id="Path_4671" class="st0" d="M185.2,161.5c-0.2-1.6-0.2-3-0.2-4.2c0-2.3,0-3.6,0-3.6c0,0-0.2,1.2-0.3,3.6
		c-0.1,1.2-0.1,2.6-0.1,4.3c0,0.9,0.1,1.8,0.3,2.7c0.1,0.6,0.2,1.1,0.4,1.7c0.3,0,0.7,0,1,0.1c-0.3-0.6-0.5-1.2-0.6-1.9
		C185.4,163.2,185.3,162.3,185.2,161.5"/>
	<path id="Path_4672" class="st0" d="M174.9,163.4c0.4,0.8,0.8,1.6,1.3,2.4c0.3,0.5,0.7,1,1.1,1.5c0.3-0.1,0.7-0.2,1-0.4
		c-0.5-0.5-0.9-1-1.3-1.6c-0.5-0.7-0.9-1.5-1.3-2.2c-0.8-1.4-1.4-2.7-1.8-3.8c-0.9-2.1-1.4-3.4-1.4-3.3c0,0,0.3,1.2,1,3.4
		C173.7,160.5,174.2,161.8,174.9,163.4"/>
	<path id="Path_4673" class="st0" d="M166.7,168.8c0.7,0.6,1.4,1.2,2.1,1.7c0.5,0.4,1,0.7,1.6,1c0.3-0.2,0.5-0.5,0.8-0.7
		c-0.6-0.3-1.3-0.6-1.9-1c-0.8-0.5-1.5-1-2.1-1.5c-1.3-1-2.3-2-3.1-2.8c-1.7-1.6-2.6-2.6-2.6-2.6s0.8,1,2.3,2.8
		C164.5,166.6,165.5,167.6,166.7,168.8"/>
	<path id="Path_4674" class="st0" d="M173.8,163.3c-1.2-2.8-2.1-5.8-2.6-8.9c-0.5-2.8-0.8-5.4-1.2-7.5c-0.2-1.7-0.6-3.4-1.1-5.1
		c-0.2-0.6-0.4-1.2-0.7-1.8c0,0,0.2,0.6,0.5,1.8c0.4,1.7,0.6,3.4,0.8,5.1c0.2,2.2,0.4,4.7,0.8,7.6c0.4,3.1,1.3,6.2,2.5,9.1
		c0.7,1.5,1.5,3,2.4,4.4c0.3-0.1,0.6-0.3,0.9-0.4C175.3,166.3,174.5,164.8,173.8,163.3"/>
	<path id="Path_4675" class="st0" d="M191.8,183.7c0.3,0,0.7-0.1,0.9-0.4c0,0,0.1-0.1,0.1-0.2c-0.5,0-1,0-1.5,0c-0.1,0-0.2,0-0.2,0
		C191.2,183.4,191.5,183.6,191.8,183.7"/>
	<path id="Path_4676" class="st0" d="M195.7,183.4L195.7,183.4l0.2,0C195.8,183.4,195.8,183.4,195.7,183.4"/>
	<path id="Path_4677" class="st0" d="M194.9,182.7c-0.3-0.3-0.6-0.7-0.9-0.9c-0.4-0.3-0.8-0.5-1.3-0.6c-0.5-0.1-0.9-0.1-1.4,0
		c-0.5,0.1-0.9,0.2-1.3,0.4c-0.4,0.2-0.8,0.5-1.1,0.7c-0.7,0.6-1.2,1.2-1.7,2c0.6-0.6,1.2-1.2,1.9-1.6c0.3-0.2,0.7-0.4,1.1-0.6
		c0.1-0.1,0.2-0.1,0.4-0.1c0,0,0.1,0,0.2,0c0.2-0.1,0.4-0.1,0.6-0.1c0.4-0.1,0.9-0.1,1.3,0c0,0,0.1,0,0.1,0c0.3,0.1,0.6,0.2,0.9,0.3
		c0.4,0.2,0.7,0.5,1,0.8c0.1,0.1,0.2,0.1,0.2,0.2c-0.1,0-0.3-0.1-0.4-0.1c-0.3-0.1-0.6-0.2-1-0.2c-0.1,0-0.2,0-0.2,0
		c-0.7-0.1-1.4-0.1-2.1-0.1c-0.3,0-0.6,0.1-0.9,0.1c-0.1,0-0.2,0-0.2,0.1c-0.2,0.1-0.4,0.1-0.6,0.2c-0.5,0.2-0.9,0.4-1.3,0.7
		c-0.2,0.2-0.4,0.4-0.6,0.6c-0.2,0.2-0.3,0.4-0.2,0.5s0.2-0.1,0.5-0.4c0.6,0.3,1.2,0.5,1.9,0.7c0.7,0.2,1.4,0.3,2.2,0.3
		c0.7,0,1.5-0.1,2.1-0.4c0.3-0.2,0.6-0.4,0.9-0.6c0.2-0.2,0.4-0.5,0.6-0.8c0.2,0,0.3,0,0.3,0c0,0,0,0,0,0l0,0
		C195.8,183.3,195.2,183,194.9,182.7 M190.8,183.2L190.8,183.2c0,0.3,0.1,0.4,0.3,0.6c0,0,0.1,0.1,0.1,0.1c0.2,0.2,0.4,0.3,0.7,0.3
		c0.3,0,0.6-0.1,0.8-0.3c0.1-0.1,0.2-0.1,0.2-0.2c0.1-0.1,0.1-0.2,0.2-0.3c0-0.1,0-0.2,0-0.3c0.1,0,0.2,0,0.3,0
		c0,0.2-0.1,0.4-0.2,0.5c-0.1,0.1-0.2,0.3-0.3,0.4c-0.3,0.2-0.6,0.4-1,0.4c-0.4,0-0.7-0.1-1-0.3c-0.1-0.1-0.1-0.1-0.2-0.2
		c-0.2-0.2-0.3-0.4-0.3-0.7C190.5,183.2,190.6,183.2,190.8,183.2 M193.9,184.7c-0.7,0.2-1.3,0.4-2,0.4c-0.7,0-1.4-0.1-2.1-0.2
		c-0.4-0.1-0.7-0.1-1-0.2c-0.3-0.1-0.6-0.2-0.9-0.3c0,0,0.1-0.1,0.2-0.1c0.1-0.1,0.2-0.2,0.4-0.3c0.5-0.3,1.1-0.5,1.7-0.7
		c0,0.4,0.2,0.9,0.5,1.2c0.2,0.2,0.4,0.3,0.6,0.4c0.2,0.1,0.5,0.1,0.7,0.1c0.5,0,1-0.3,1.3-0.6c0.2-0.2,0.3-0.5,0.4-0.8
		c0-0.1,0-0.3,0-0.4c0.3,0,0.6,0.1,0.8,0.1c0.4,0.1,0.7,0.1,0.9,0.1c0,0,0.1,0,0.1,0C195.1,184,194.5,184.4,193.9,184.7"/>
	<path id="Path_4678" class="st0" d="M195.9,179.3c-0.7-0.2-1.4-0.3-2.1-0.4c-1.1-0.1-2.2-0.1-3.3,0c-1.4,0.2-2.7,0.7-3.7,1.6
		c-0.5,0.5-1,1.1-1.2,1.8c-0.2,0.6-0.3,1.3-0.4,1.9c0,1.1,0.1,2.2,0.3,3.2c0.1,0.7,0.2,1.4,0.2,2.1c0,0.5-0.1,0.8-0.1,0.8
		s0.2-0.2,0.3-0.8c0.1-0.4,0.1-0.7,0.1-1.1c0,0,0,0.1,0.1,0.1c0.2,0.3,0.5,0.6,0.7,0.9c0.1,0.1,0.1,0.3,0.1,0.4
		c-0.2,0.2-0.4,0.3-0.7,0.4c0-0.1,0-0.2,0-0.2c-0.1,0.1-0.2,0.3-0.4,0.3c-0.3,0.2-0.7,0.2-1.1,0.2c-0.4,0-0.8-0.1-1.2-0.2
		c-0.2-0.1-0.3-0.2-0.5-0.3c0,0,0,0,0,0.1c0,0,0,0,0,0c0,0,0,0,0,0c0.1,0.1,0.2,0.3,0.3,0.4c0.3,0.3,0.8,0.5,1.3,0.5
		c0.5,0,1-0.2,1.3-0.5c0.1-0.1,0.1-0.2,0.2-0.4c0,0.1,0.2,0.1,0.5,0.1c0.1,0,0.2,0,0.3-0.1c0.1-0.1,0.2-0.2,0.3-0.3
		c0.1-0.2,0.1-0.3,0-0.5c0-0.1-0.1-0.3-0.2-0.4c-0.2-0.4-0.5-0.7-0.9-0.9c-0.1-0.1-0.2-0.1-0.3-0.2c0-0.2,0-0.5,0-0.7
		c-0.1-1.1-0.2-2.1-0.2-3.2c0-0.6,0.1-1.2,0.3-1.8c0.2-0.6,0.6-1.1,1.1-1.6c1-0.8,2.2-1.4,3.4-1.5c1.1-0.2,2.1-0.2,3.2-0.1
		c0.9,0.1,1.6,0.2,2.2,0.2c0.3,0.1,0.5,0.1,0.8,0C196.4,179.4,196.2,179.3,195.9,179.3"/>
	<path id="Path_4679" class="st0" d="M189.1,193.4c0.1-0.1,0.1-0.2,0.1-0.2c-0.1-0.1-0.3,0.2-0.7,0.1c-0.6-0.2-1.1-0.5-1.6-0.8
		c-0.3-0.2-0.7-0.3-1.1-0.3c-0.3,0-0.6,0.1-0.9,0.3c-0.2,0.1-0.3,0.3-0.4,0.5c-0.1,0.2-0.1,0.2-0.1,0.3c0.1,0.1,0.2-0.2,0.6-0.4
		c0.2-0.1,0.4-0.2,0.7-0.1c0.3,0.1,0.6,0.2,0.9,0.3c0.5,0.3,1,0.6,1.5,0.7c-0.5,0.2-1,0.2-1.6,0.2c-0.6,0-1.2,0.1-1.7,0.2
		c-0.2,0-0.3,0.1-0.5,0.2c-0.1-0.1-0.3-0.1-0.5-0.2c-0.6-0.1-1.1-0.2-1.7-0.2c-0.5,0-1.1-0.1-1.6-0.2c0.5-0.2,1.1-0.4,1.5-0.7
		c0.3-0.2,0.6-0.3,0.9-0.3c0.2,0,0.5,0,0.7,0.1c0.4,0.2,0.6,0.5,0.6,0.4c0,0,0-0.1-0.1-0.3c-0.1-0.2-0.2-0.4-0.4-0.5
		c-0.3-0.2-0.6-0.3-0.9-0.3c-0.4,0-0.7,0.2-1,0.3c-0.5,0.3-1,0.6-1.6,0.8c-0.4,0.1-0.6-0.2-0.7-0.1c0,0,0,0.1,0.1,0.2
		c0.1,0.1,0.1,0.1,0.2,0.2c0,0,0.1,0.1,0.1,0.1c0.1,0.3,0.2,0.5,0.3,0.8c0.4,0.7,0.9,1.4,1.6,1.8c0.2,0.1,0.4,0.2,0.5,0.3
		c-0.4,0.1-0.9,0.4-1.2,0.7c-0.6,0.5-0.8,1-0.7,1c0.1,0.1,0.3-0.3,0.9-0.7c1.8-0.9,4-0.9,5.8,0c0.5,0.4,0.8,0.8,0.9,0.7
		c0.1,0-0.1-0.5-0.7-1c-0.4-0.3-0.8-0.5-1.2-0.7c0.2-0.1,0.4-0.2,0.5-0.3c0.7-0.4,1.3-1.1,1.6-1.8c0.1-0.2,0.2-0.5,0.3-0.8
		c0,0,0.1-0.1,0.1-0.1C189,193.5,189,193.4,189.1,193.4 M188.2,194.2c-0.4,0.6-1,1.2-1.6,1.6c-0.4,0.2-0.8,0.4-1.3,0.5
		c-1.1,0.2-2.2,0-3.1-0.5c-0.6-0.4-1.2-1-1.6-1.6c-0.1-0.1-0.1-0.1-0.1-0.2c0.5,0.3,1.1,0.4,1.7,0.4c0.7,0,1.3,0,1.7,0
		c0.1,0,0.3,0,0.4,0c0,0,0.1,0,0.1,0c0,0,0.1,0,0.1,0c0.1,0,0.2,0,0.4,0c0.4,0,1,0,1.7,0c0.6,0,1.2-0.2,1.7-0.4
		C188.3,194.1,188.3,194.1,188.2,194.2"/>
	<path id="Path_4680" class="st0" d="M187.1,183c0.2-0.4,0.4-0.8,0.7-1.1c0.3-0.4,0.6-0.7,1-0.9c0.8-0.5,1.6-0.7,2.5-0.8
		c0.7-0.1,1.5-0.1,2.2,0c0.7,0.1,1.4,0.2,2,0.4c-0.6-0.3-1.3-0.5-2-0.6c-0.7-0.1-1.5-0.2-2.3-0.1c-0.9,0.1-1.9,0.3-2.7,0.8
		c-0.4,0.3-0.8,0.6-1,1c-0.3,0.4-0.5,0.7-0.7,1.2c-0.3,0.7-0.6,1.4-0.7,2.2c-0.1,0.5-0.1,1,0,1.5c0,0.2,0.1,0.4,0.2,0.5
		c-0.1-0.2-0.1-0.3-0.2-0.5c-0.1-0.5-0.1-1,0-1.5C186.5,184.3,186.7,183.6,187.1,183"/>
	<path id="Path_4681" class="st0" d="M189.2,192.7c-0.3-0.2-0.7-0.4-0.9-0.7c-0.2-0.3-0.4-0.6-0.4-1c0,0.1,0,0.2,0,0.3
		c0,0.3,0.1,0.5,0.3,0.8c0.2,0.4,0.5,0.7,0.9,0.9c0.1,0.1,0.2,0.1,0.3,0.2c-0.1,0.2-0.2,0.3-0.3,0.5c-0.1,0.3-0.2,0.5-0.2,0.8
		c0,0.2,0,0.5,0.1,0.7c0-0.2,0-0.4,0.1-0.7c0.1-0.2,0.1-0.5,0.3-0.7c0.4-0.4,0.8-0.7,1.2-1.1C190.1,192.9,189.7,192.9,189.2,192.7"
		/>
	<path id="Path_4682" class="st0" d="M176.6,183.3c0.2,0.3,0.5,0.4,0.9,0.4c0.3,0,0.6-0.2,0.8-0.5l-0.3,0c-0.5,0-0.9,0-1.4,0
		C176.5,183.2,176.6,183.2,176.6,183.3"/>
	<path id="Path_4683" class="st0" d="M181.1,183.7c-0.4-0.3-0.8-0.5-1.3-0.7c-0.2-0.1-0.4-0.1-0.6-0.2c-0.1,0-0.2,0-0.2-0.1
		c-0.3-0.1-0.6-0.1-0.9-0.1c-0.7,0-1.4,0-2,0.1c-0.1,0-0.2,0-0.2,0c-0.3,0.1-0.6,0.1-1,0.2c-0.2,0-0.3,0.1-0.4,0.1
		c0.1-0.1,0.2-0.1,0.2-0.2c0.3-0.3,0.6-0.5,1-0.8c0.3-0.2,0.6-0.3,0.9-0.3c0,0,0.1,0,0.1,0c0.4-0.1,0.9-0.1,1.3,0
		c0.2,0,0.4,0.1,0.6,0.1l0.1,0c0.1,0,0.2,0.1,0.4,0.1c0.4,0.2,0.7,0.4,1.1,0.6c0.7,0.5,1.3,1,1.9,1.6c-0.4-0.8-1-1.4-1.7-2
		c-0.3-0.3-0.7-0.5-1.1-0.7c-0.8-0.4-1.8-0.5-2.7-0.4c-0.5,0.1-0.9,0.3-1.3,0.6c-0.3,0.3-0.7,0.6-0.9,0.9c-0.3,0.3-0.9,0.7-0.8,0.7
		c0,0,0,0,0,0c0,0,0,0,0,0c0,0,0.1,0,0.3,0c0.3,0.6,0.8,1.2,1.5,1.5c0.7,0.3,1.4,0.5,2.1,0.4c0.7,0,1.5-0.1,2.2-0.3
		c0.7-0.2,1.3-0.4,1.9-0.7c0.3,0.2,0.5,0.4,0.5,0.4c0,0,0-0.2-0.2-0.5C181.5,184.1,181.3,183.8,181.1,183.7 M176.4,183.1
		c0.1,0.3,0.2,0.6,0.4,0.8c0.2,0.2,0.5,0.3,0.8,0.3c0.2,0,0.5-0.1,0.6-0.3c0,0,0.1-0.1,0.1-0.1c0.1-0.2,0.2-0.4,0.3-0.6c0,0,0,0,0,0
		l0.3,0.1c0,0.3-0.2,0.5-0.3,0.7c-0.1,0.1-0.1,0.1-0.2,0.2c-0.6,0.5-1.4,0.5-2-0.1c-0.1-0.1-0.2-0.3-0.3-0.4
		c-0.1-0.2-0.1-0.3-0.2-0.5C176.1,183.1,176.2,183,176.4,183.1 M180.5,184.6c-0.3,0.1-0.7,0.2-1,0.2c-0.7,0.1-1.4,0.2-2.1,0.2
		c-0.7,0-1.4-0.1-2.1-0.4c-0.6-0.3-1.2-0.7-1.5-1.3c0,0,0.1,0,0.1,0c0.2,0,0.5-0.1,0.9-0.1c0.2,0,0.5-0.1,0.8-0.1c0,0.1,0,0.3,0,0.4
		c0.1,0.3,0.2,0.6,0.4,0.8c0.3,0.4,0.8,0.6,1.3,0.6c0.3,0,0.5,0,0.7-0.1c0.2-0.1,0.4-0.2,0.6-0.4c0.1-0.1,0.3-0.3,0.3-0.5
		c0.1-0.2,0.1-0.4,0.2-0.7c0.6,0.1,1.2,0.4,1.7,0.7c0.1,0.1,0.3,0.2,0.4,0.3c0.1,0,0.1,0.1,0.2,0.1
		C181.1,184.4,180.8,184.5,180.5,184.6"/>
	<path id="Path_4684" class="st0" d="M182.4,189.9c0-0.2,0-0.3,0.1-0.4c0.2-0.3,0.4-0.6,0.7-0.9c0,0,0-0.1,0.1-0.1
		c0,0.4,0,0.8,0.1,1.1c0.1,0.5,0.3,0.8,0.3,0.8c0,0-0.1-0.3-0.1-0.8c0-0.7,0.1-1.4,0.2-2.1c0.2-1.1,0.3-2.2,0.3-3.2
		c0-0.7-0.1-1.3-0.4-1.9c-0.3-0.7-0.7-1.3-1.2-1.8c-1-0.9-2.3-1.5-3.7-1.6c-1.1-0.1-2.2-0.1-3.3,0c-0.7,0.1-1.4,0.2-2.2,0.4
		c-0.3,0-0.5,0.1-0.8,0.2c0.3,0,0.5,0,0.8,0c0.5-0.1,1.2-0.1,2.2-0.2c1.1-0.1,2.1-0.1,3.2,0.1c1.3,0.2,2.4,0.7,3.4,1.5
		c0.5,0.4,0.9,1,1.1,1.6c0.2,0.6,0.3,1.2,0.3,1.8c0,1.1,0,2.1-0.2,3.2c0,0.2,0,0.5-0.1,0.7c-0.1,0-0.2,0.1-0.3,0.2
		c-0.4,0.2-0.7,0.6-0.9,0.9c-0.1,0.1-0.1,0.2-0.2,0.4c0,0.2,0,0.3,0,0.5c0.1,0.1,0.2,0.3,0.3,0.3c0.1,0,0.2,0.1,0.3,0.1
		c0.4,0,0.5-0.1,0.5-0.1C182.8,190.2,182.6,190.1,182.4,189.9"/>
	<path id="Path_4685" class="st0" d="M182.8,187.1c0.1-0.2,0.2-0.3,0.2-0.5c0.1-0.5,0.1-1,0-1.5c-0.1-0.8-0.3-1.5-0.7-2.2
		c-0.2-0.4-0.4-0.8-0.7-1.2c-0.3-0.4-0.6-0.8-1-1c-0.8-0.5-1.7-0.8-2.7-0.8c-0.8-0.1-1.5,0-2.3,0.1c-0.7,0.1-1.4,0.3-2,0.6
		c0.7-0.2,1.3-0.4,2-0.4c0.7-0.1,1.5-0.1,2.2,0c0.9,0.1,1.8,0.4,2.5,0.8c0.4,0.2,0.7,0.6,1,0.9c0.3,0.4,0.5,0.7,0.7,1.1
		c0.3,0.7,0.6,1.4,0.7,2.1c0.1,0.5,0.1,1,0.1,1.5C182.9,186.7,182.9,186.9,182.8,187.1"/>
	<path id="Path_4686" class="st0" d="M179.8,193.7c-0.1-0.2-0.2-0.4-0.3-0.5c0.1-0.1,0.2-0.1,0.3-0.2c0.4-0.2,0.7-0.5,0.9-0.9
		c0.1-0.2,0.2-0.5,0.3-0.8c0-0.1,0-0.2,0-0.3c0,0.4-0.2,0.7-0.4,1c-0.2,0.3-0.5,0.5-0.9,0.7c-0.2,0.1-0.4,0.1-0.5,0.2
		c-0.3,0-0.5,0-0.8-0.1l0.6,0.5c0.2,0.2,0.4,0.4,0.6,0.6c0.1,0.2,0.2,0.4,0.3,0.7c0.1,0.2,0.1,0.4,0.1,0.7c0.1-0.2,0.1-0.5,0.1-0.7
		C180,194.2,179.9,193.9,179.8,193.7"/>
	<path id="Path_4687" class="st0" d="M188.1,194.1c0,0-0.3,0.4-0.8,1c-0.3,0.3-0.7,0.6-1.1,0.8c-0.5,0.2-1.1,0.4-1.7,0.4
		c-1.1,0-2.1-0.4-2.9-1.1c-0.3-0.3-0.6-0.6-0.7-1c0.2,0.3,0.5,0.6,0.9,0.9c0.8,0.6,1.7,0.9,2.7,0.9c0.5,0,1.1-0.1,1.6-0.3
		c0.4-0.2,0.8-0.4,1.1-0.7C187.8,194.4,188.1,194.1,188.1,194.1"/>
	<path id="Path_4688" class="st0" d="M194.5,182.2c-0.3,0-0.6-0.1-0.9-0.1c-0.8,0-1.7,0-2.5,0.1c-0.8,0.1-1.5,0.3-2.3,0.6
		c-0.3,0.1-0.5,0.3-0.8,0.4c0.2-0.2,0.4-0.4,0.7-0.5c0.7-0.4,1.5-0.6,2.3-0.7c0.8-0.1,1.7-0.1,2.5,0
		C193.9,182,194.2,182.1,194.5,182.2"/>
	<path id="Path_4689" class="st0" d="M174.9,182.2c0.3-0.1,0.7-0.2,1-0.2c0.8-0.1,1.7-0.1,2.5,0c0.2,0,0.5,0.1,0.7,0.2l0.6,0.2
		c0.3,0.1,0.6,0.3,0.9,0.4c0.4,0.3,0.6,0.5,0.7,0.5c0,0-0.3-0.2-0.8-0.4c-0.3-0.1-0.6-0.3-0.9-0.4l-0.6-0.2
		c-0.2-0.1-0.4-0.1-0.6-0.1c-0.8-0.1-1.6-0.2-2.4-0.1C175.6,182.1,175.2,182.1,174.9,182.2"/>
	<path id="Path_4690" class="st0" d="M188.6,194.7c-0.3,0.4-0.6,0.7-0.9,1.1c-0.4,0.4-0.8,0.7-1.3,0.9c-1.7,0.8-3.7,0.4-5.1-0.8
		c-0.4-0.3-0.6-0.7-0.8-1.2c0.2,0.4,0.6,0.7,0.9,1c0.9,0.7,2,1,3.1,1c0.6,0,1.2-0.1,1.8-0.3c0.5-0.2,0.9-0.4,1.3-0.8
		C188.2,195.1,188.5,194.7,188.6,194.7"/>
	<path id="Path_4691" class="st0" d="M206.1,187.8v-1.7h0l0-0.1v-0.1h0l-0.1-1.7h0l0-0.1l0-0.1l-0.3-1.7l0,0l0-0.1l0-0.1l-0.4-1.6h0
		l0-0.1l0-0.1l0,0l-0.6-1.6h0l0-0.1l0-0.1h0l-0.7-1.5l0,0l0-0.1l0-0.1h0l-0.8-1.5l0,0l-0.1-0.1l-0.1-0.1h0l-1-1.4l0,0l-0.1-0.1
		l-0.1-0.1h0l-1.1-1.3l0,0l-0.1-0.1l-0.1-0.1l0,0l-1.2-1.2l0,0l-0.1-0.1l-0.1-0.1l0,0l-1.3-1.1l0,0l-0.1-0.1l-0.1-0.1l0,0l-1.4-1
		l0,0l-0.1,0l-0.1-0.1l0,0l-1.5-0.8h0l-0.1,0l-0.1-0.1v0l-1.5-0.7h0l-0.1,0l-0.1,0v0l-1.6-0.6l0,0l-0.1,0l-0.1,0l0,0l-1.6-0.4v0
		l-0.1,0l-0.1,0v0l-1.7-0.3v0h-0.1l-0.1,0v0l-1.7-0.1v0h-0.1l-0.1,0v0h-1.7v0l-0.1,0h-0.1v0l-1.7,0.1v0l-0.1,0h-0.1v0l-1.7,0.3v0
		l-0.1,0l-0.1,0v0l-1.6,0.4l0,0l-0.1,0l-0.1,0l0,0l-1.6,0.6l0,0l-0.1,0l-0.1,0l0,0l-1.5,0.7v0l-0.1,0.1l-0.1,0l0,0l-1.5,0.8v0
		l-0.1,0.1l-0.1,0.1h0l-1.4,1l0,0l-0.1,0.1l-0.1,0.1l0,0l-1.3,1.1v0l-0.1,0.1l-0.1,0.1l0,0l-1.2,1.2l0,0l-0.1,0.1l-0.1,0.1h0
		l-1.1,1.3l0,0l-0.1,0.1l-0.1,0.1l0,0l-1,1.4v0l-0.1,0.1l-0.1,0.1h0l-0.8,1.5l0,0.1l-0.1,0.1h0l-0.7,1.5h0l0,0.1l0,0.1l0,0l-0.6,1.6
		l0,0l0,0.1l0,0.1h0l-0.4,1.6h0l0,0.1l0,0.1h0l-0.3,1.7h0v0.1l0,0.1l0,0l-0.1,1.7h0v0.1l0,0.1h0v1.7h0l0,0.1v0.1h0l0.1,1.7l0,0
		l0,0.1v0.1h0l0.3,1.7h0l0,0.1l0,0.1l0,0l0.4,1.6h0l0,0.1l0,0.1h0l0.6,1.6l0,0l0,0.1l0,0.1l0,0l0.7,1.5h0l0.1,0.1l0,0.1v0l0.8,1.5
		l0,0l0.1,0.1l0.1,0.1v0l1,1.4l0,0l0.1,0.1l0.1,0.1l0,0l1.1,1.3l0,0l0.1,0.1l0.1,0.1l0,0l1.2,1.2l0,0l0.1,0.1l0.1,0.1v0l1.3,1.1l0,0
		l0.1,0.1l0.1,0.1l0,0l1.4,1l0,0l0.1,0.1l0.1,0.1v0l1.5,0.8v0l0.1,0l0.1,0l0,0l1.5,0.7l0,0l0.1,0l0.1,0v0l1.6,0.6l0,0l0.1,0l0.1,0v0
		l1.6,0.4l0,0l0.1,0l0.1,0l0,0l1.7,0.3l0,0l0.1,0l0.1,0v0l1.7,0.1v0h0.1l0.1,0v0h1.7v0l0.1,0h0.1v0l1.7-0.1v0l0.1,0l0.1,0l0,0
		l1.7-0.3l0,0l0.1,0l0.1,0l0,0l1.6-0.4v0l0.1,0l0.1,0v0l1.6-0.6v0l0.1,0l0.1,0l0,0l1.5-0.7l0,0l0.1,0l0.1,0l0,0l1.5-0.8l0,0l0.1-0.1
		l0.1-0.1v0l1.4-1l0,0l0.1-0.1l0.1-0.1l0,0l1.3-1.1l0,0l0.1-0.1l0.1-0.1l0,0l1.2-1.2l0,0l0.1-0.1l0.1-0.1v0l1.1-1.3l0,0l0.1-0.1
		l0.1-0.1l0,0l1-1.4v0l0.1-0.1l0.1-0.1v0l0.8-1.5l0,0l0-0.1l0-0.1l0,0l0.7-1.5l0,0l0-0.1l0.1-0.1h0l0.6-1.6h0l0-0.1l0-0.1h0l0.4-1.6
		v0l0-0.1l0-0.1l0,0l0.3-1.7l0,0l0-0.1l0-0.1h0l0.1-1.7h0v-0.1L206.1,187.8L206.1,187.8z M205.5,187.9l-4.3,0.5l4.1,1.3l-4.3,0.2
		l4,1.6l-4.3-0.2l3.8,2l-4.3-0.6l3.7,2.3l-4.2-1l3.4,2.6l-4.1-1.3l3.2,2.9l-4-1.7l2.9,3.2l-3.8-2l2.6,3.4l-3.6-2.3l2.3,3.6l-3.4-2.6
		l2,3.8l-3.2-2.9l1.7,4l-2.9-3.2l1.3,4.1l-2.6-3.4l1,4.2l-2.3-3.6l0.6,4.3l-2-3.8l0.2,4.3l-1.6-4l-0.2,4.3l-1.3-4.1l-0.5,4.3
		l-0.9-4.2l-0.9,4.2l-0.5-4.3l-1.3,4.1l-0.2-4.3l-1.6,4l0.2-4.3l-2,3.8l0.6-4.3l-2.3,3.6l1-4.2l-2.6,3.4l1.3-4.1l-2.9,3.2l1.7-4
		l-3.2,2.9l2-3.8l-3.4,2.6l2.3-3.6l-3.6,2.3l2.6-3.4l-3.8,2l2.9-3.2l-4,1.7l3.2-2.9l-4.1,1.3l3.4-2.6l-4.2,1l3.7-2.3l-4.3,0.6l3.8-2
		l-4.3,0.2l4-1.6l-4.3-0.2l4.1-1.3l-4.3-0.5l4.2-0.9l-4.2-0.9l4.3-0.5l-4.1-1.3l4.3-0.2l-4-1.6l4.3,0.2l-3.8-2l4.3,0.6l-3.7-2.3
		l4.2,1l-3.4-2.6l4.1,1.3l-3.2-2.9l4,1.7l-2.9-3.2l3.8,2l-2.6-3.4l3.6,2.3l-2.3-3.6l3.4,2.6l-2-3.8l3.2,2.9l-1.7-4l2.9,3.2l-1.3-4.1
		l2.6,3.4l-1-4.2l2.3,3.7l-0.6-4.3l2,3.8l-0.2-4.3l1.6,4l0.2-4.3l1.3,4.1l0.5-4.3l0.9,4.2l0.9-4.2l0.5,4.3l1.3-4.1l0.2,4.3l1.6-4
		l-0.2,4.3l2-3.8l-0.6,4.3l2.3-3.7l-1,4.2l2.6-3.4l-1.3,4.1l2.9-3.2l-1.7,4l3.2-2.9l-2,3.8l3.4-2.6l-2.4,3.6l3.6-2.3l-2.6,3.4l3.8-2
		l-2.9,3.2l4-1.7l-3.2,2.9l4.1-1.3l-3.4,2.6l4.2-1l-3.7,2.3l4.3-0.6l-3.8,2l4.3-0.2l-4,1.6l4.3,0.2l-4.1,1.3l4.3,0.5l-4.2,0.9
		L205.5,187.9z"/>
</g>

</svg>
