<svg id="Group_1021" data-name="Group 1021" xmlns="http://www.w3.org/2000/svg" xmlns:xlink="http://www.w3.org/1999/xlink" width="62.969" height="62.955" viewBox="0 0 62.969 62.955">
  <defs>
    <clipPath id="clip-path">
      <rect id="Rectangle_1568" data-name="Rectangle 1568" width="62.969" height="62.955" fill="none"/>
    </clipPath>
  </defs>
  <g id="Group_1020" data-name="Group 1020" clip-path="url(#clip-path)">
    <path id="Path_39" data-name="Path 39" d="M31.444,62.953H2c-1.908,0-2.01-.1-2-1.993a10.155,10.155,0,0,1,7.623-9.868,10.452,10.452,0,0,1,2.7-.327q4.854.011,9.708,0a4.07,4.07,0,0,0,4.342-4.309,6.508,6.508,0,0,0-.065-2.323c-.263-.646-1.2-.825-1.808-1.26a13.989,13.989,0,0,1-6.156-10.384,1.484,1.484,0,0,0-.476-.983c-1.106-1.077-2.2-2.164-3.277-3.273a4.614,4.614,0,0,1,3.2-7.926c.494-.018.644-.364.347-.9-.335-.61-.695-1.207-1.068-1.794a12.084,12.084,0,0,1-1.881-6.474,8.849,8.849,0,0,0-2.6-6.212c-.986-1.017-2-2.011-3-3.008A1.083,1.083,0,0,1,7.2.624,1.124,1.124,0,0,1,8.4,0Q24.2.009,40,.009a9.739,9.739,0,0,1,9.76,9.75,16.5,16.5,0,0,1-2.809,9.5.994.994,0,0,0-.243.5c-.019.344-.022.553.468.562a4.367,4.367,0,0,1,4.248,2.849,4.416,4.416,0,0,1-1.06,5.065c-1.087,1.125-2.2,2.223-3.319,3.32a1.246,1.246,0,0,0-.416.811,14.1,14.1,0,0,1-7.637,11.392.644.644,0,0,0-.414.671c.031.718,0,1.438.01,2.157a4.049,4.049,0,0,0,4.158,4.172c3.321.011,6.641,0,9.962,0a10.15,10.15,0,0,1,10.069,8.244,12.239,12.239,0,0,1,.175,2.906,1,1,0,0,1-1.053,1.03c-.19.01-.381,0-.571,0H31.444m.005-2.032q14.4,0,28.8.009c.482,0,.728-.043.674-.634A8.184,8.184,0,0,0,52.766,52.8c-3.024-.008-6.048.009-9.072-.012a1.642,1.642,0,0,0-1.182.466,14.789,14.789,0,0,1-5.453,3,22.439,22.439,0,0,1-7.166.6,14.427,14.427,0,0,1-9.543-3.679,1.348,1.348,0,0,0-.96-.379c-3.108.014-6.217.01-9.325.006a7.162,7.162,0,0,0-1.63.2,8.155,8.155,0,0,0-6.393,7.234c-.065.569.1.7.669.7q14.369-.027,28.738-.013M45.491,17.646c.065-.044.112-.059.133-.091.1-.159.206-.319.3-.485a14.6,14.6,0,0,0,1.807-7.229,7.727,7.727,0,0,0-7.809-7.8q-14.336-.01-28.672,0c-.174,0-.372-.083-.608.154.381.347.765.674,1.124,1.028a11.183,11.183,0,0,1,3.468,8.233,10.647,10.647,0,0,0,2.051,5.893c.1.148.188.3.377.105,1.317-1.39,3.243-2.45,2.653-4.878a1.149,1.149,0,0,1,0-.316,3.042,3.042,0,0,1,2.1-2.747,4.889,4.889,0,0,1,2.074-.066c1.934.188,3.867.391,5.8.584,3.132.312,6.267.6,9.4.94a3.035,3.035,0,0,1,2.972,3.348.844.844,0,0,0,.2.7c.893.867,1.766,1.755,2.641,2.63m-23.15-3.864a4.645,4.645,0,0,0,0,.634,2.257,2.257,0,0,1-.852,2.115c-1.017.922-1.96,1.927-2.928,2.9a1.272,1.272,0,0,0,.04,1.726c2.2,1.92,4.4,3.833,6.586,5.767a.53.53,0,0,0,.755.066,10.263,10.263,0,0,1,11.044-.02.562.562,0,0,0,.8-.067c2.152-1.908,4.322-3.795,6.487-5.688a1.246,1.246,0,0,0,.043-1.851c-.955-.959-1.885-1.946-2.88-2.861a2.328,2.328,0,0,1-.842-2c.066-1.2-.237-1.444-1.457-1.561-3.219-.308-6.436-.642-9.654-.963-1.935-.193-3.87-.392-5.807-.563-.979-.086-1.339.281-1.343,1.281,0,.36,0,.719,0,1.079M39.6,37.427c0-.887,0-1.775,0-2.662a6.443,6.443,0,0,0-1.3-3.894,8.48,8.48,0,0,0-9.778-2.929,7.58,7.58,0,0,0-5.17,7.41c0,1.711.01,3.423-.008,5.134a.821.821,0,0,0,.4.773,13.706,13.706,0,0,0,15.48-.008.763.763,0,0,0,.384-.719c-.023-1.035-.008-2.07-.009-3.106M22.62,52.349c4.025,3.525,14.291,3.262,17.685,0a6.17,6.17,0,0,1-3.748-6.2V44.848a15.8,15.8,0,0,1-10.151,0,9.747,9.747,0,0,1-.579,4.433,6.293,6.293,0,0,1-3.207,3.063M18.292,23.565c0,2.774,0,5.426,0,8.077a.381.381,0,0,0,.166.38c.971.578,1.938,1.162,2.945,1.766a8.43,8.43,0,0,1,2.254-4.872c.254-.275.293-.413-.023-.685-1.761-1.511-3.5-3.05-5.343-4.667m26.383,0c-1.868,1.635-3.641,3.19-5.419,4.739-.186.162-.272.277-.057.5a8.509,8.509,0,0,1,2.368,4.986c1.006-.6,1.955-1.182,2.912-1.746.238-.14.193-.357.193-.557,0-2.6,0-5.191,0-7.923M16.248,28.911c0-2.111,0-4.194.005-6.275,0-.281-.137-.3-.352-.3a2.518,2.518,0,0,0-2.391,1.378,2.3,2.3,0,0,0,.229,2.73c.751.868,1.637,1.618,2.51,2.463m30.465-.028c.862-.826,1.752-1.571,2.505-2.436a2.294,2.294,0,0,0,.259-2.674,2.51,2.51,0,0,0-2.357-1.43c-.208,0-.415-.052-.413.3.012,2.081.006,4.162.006,6.244m-2.542,5.71c-.856.514-1.606.966-2.359,1.412a.313.313,0,0,0-.179.3c0,.895,0,1.789,0,2.824a11.94,11.94,0,0,0,2.536-4.535m-25.334.027a10.1,10.1,0,0,0,2.488,4.416c0-.953,0-1.85,0-2.747,0-.187-.117-.254-.244-.33l-2.248-1.34" transform="translate(0 -0.001)" fill="#020202"/>
    <path id="Path_40" data-name="Path 40" d="M41.385,319.377q-14.369,0-28.738.013c-.564,0-.734-.132-.669-.7a8.155,8.155,0,0,1,6.393-7.234,7.151,7.151,0,0,1,1.63-.2c3.109,0,6.217.007,9.325-.006a1.347,1.347,0,0,1,.959.379,14.427,14.427,0,0,0,9.543,3.679,22.433,22.433,0,0,0,7.166-.6,14.791,14.791,0,0,0,5.453-3,1.642,1.642,0,0,1,1.182-.467c3.024.021,6.048,0,9.072.012a8.184,8.184,0,0,1,8.159,7.494c.054.591-.193.635-.674.634q-14.4-.017-28.8-.009" transform="translate(-9.936 -258.457)" fill="#3b5791"/>
    <path id="Path_41" data-name="Path 41" d="M97.586,27.566c-.876-.875-1.749-1.763-2.641-2.63a.843.843,0,0,1-.2-.7,3.035,3.035,0,0,0-2.972-3.348c-3.128-.345-6.264-.628-9.4-.94-1.934-.193-3.867-.4-5.8-.584a4.89,4.89,0,0,0-2.074.066,3.042,3.042,0,0,0-2.1,2.747,1.148,1.148,0,0,0,0,.316c.59,2.429-1.336,3.488-2.653,4.878-.189.2-.279.043-.377-.105a10.648,10.648,0,0,1-2.051-5.893,11.183,11.183,0,0,0-3.468-8.233c-.358-.354-.743-.681-1.124-1.028.236-.236.435-.153.608-.154q14.336-.008,28.672,0a7.727,7.727,0,0,1,7.809,7.8,14.6,14.6,0,0,1-1.807,7.229c-.091.166-.195.326-.3.485-.021.032-.067.047-.133.091" transform="translate(-52.095 -9.921)" fill="#c08d58"/>
    <path id="Path_42" data-name="Path 42" d="M111.685,69.639c0-.36,0-.719,0-1.079,0-1,.364-1.367,1.343-1.281,1.937.171,3.871.371,5.807.563,3.218.32,6.435.655,9.654.962,1.22.117,1.523.358,1.457,1.561a2.329,2.329,0,0,0,.842,2c1,.915,1.925,1.9,2.88,2.861a1.246,1.246,0,0,1-.043,1.851c-2.165,1.893-4.335,3.78-6.487,5.688a.562.562,0,0,1-.8.067,10.263,10.263,0,0,0-11.044.02.53.53,0,0,1-.755-.066c-2.185-1.934-4.389-3.846-6.586-5.766a1.273,1.273,0,0,1-.04-1.726c.969-.975,1.911-1.98,2.928-2.9a2.257,2.257,0,0,0,.852-2.115,4.646,4.646,0,0,1,0-.634m17.307,7.169a3.115,3.115,0,0,0,.273.166c.422.2.609.924,1.095.77.412-.131.7-.642,1.05-.984a.428.428,0,0,1,.045-.045c.226-.167.184-.3.006-.505a5.994,5.994,0,0,0-8.231-.784c-1.189.946-1.189.946-.144,1.994a1.537,1.537,0,0,1,.177.181c.223.315.406.24.642-.011a2.3,2.3,0,0,1,.971-.753c.034,1.447.79,2.342,1.971,2.376,1.236.036,1.991-.8,2.145-2.405m-12.207.011c.559.244.841.967,1.274.955.482-.014.779-.7,1.2-1.041.257-.211.177-.347-.013-.554a5.972,5.972,0,0,0-8.616-.39c-.705.652-.705.652-.009,1.346a5.169,5.169,0,0,1,.443.453c.219.28.4.29.644.015a2.505,2.505,0,0,1,.981-.777c.046,1.484.812,2.375,2.019,2.387,1.231.013,2-.857,2.079-2.4" transform="translate(-89.343 -55.858)" fill="#f9dfc8"/>
    <path id="Path_43" data-name="Path 43" d="M153.919,171.64c0,1.035-.015,2.071.009,3.106a.763.763,0,0,1-.384.719,13.706,13.706,0,0,1-15.48.008.821.821,0,0,1-.4-.773c.018-1.711.008-3.423.008-5.134a7.581,7.581,0,0,1,5.17-7.41,8.48,8.48,0,0,1,9.778,2.929,6.444,6.444,0,0,1,1.3,3.893c0,.887,0,1.775,0,2.662M146,163.658a6.445,6.445,0,0,0-4.913,2.235c-1.118,1.178-1.136,1.146.044,2.263.236.223.375.25.6.005.463-.492.935-.978,1.437-1.43a3.774,3.774,0,0,1,3.4-.947,4.722,4.722,0,0,1,2.474,1.551c1.143,1.166,1.141,1.146,2.257-.015.267-.278.217-.422-.03-.651-.479-.446-.922-.93-1.4-1.378A5.773,5.773,0,0,0,146,163.658m-.2,8.125h4.624c1.476,0,1.451,0,1.479-1.461.009-.49-.138-.583-.6-.58-3.378.02-6.757.011-10.136.011-1.49,0-1.472,0-1.477,1.525,0,.427.132.518.532.514,1.858-.02,3.716-.009,5.575-.009m-.043,4.061h2.659c1.456,0,1.438,0,1.454-1.482,0-.438-.1-.566-.552-.56-2.025.026-4.051.011-6.077.011-1.536,0-1.522,0-1.516,1.545,0,.383.088.5.487.495,1.181-.028,2.363-.01,3.545-.01" transform="translate(-114.316 -134.213)" fill="#b3b3b3"/>
    <path id="Path_44" data-name="Path 44" d="M133.369,271.921a6.293,6.293,0,0,0,3.207-3.063,9.746,9.746,0,0,0,.579-4.433,15.794,15.794,0,0,0,10.151,0v1.294a6.169,6.169,0,0,0,3.748,6.2c-3.394,3.267-13.66,3.53-17.685,0" transform="translate(-110.749 -219.573)" fill="#f0b7a0"/>
    <path id="Path_45" data-name="Path 45" d="M107.849,138.932c1.845,1.617,3.582,3.156,5.343,4.667.316.271.277.41.023.685a8.43,8.43,0,0,0-2.254,4.872c-1.007-.6-1.974-1.188-2.945-1.766a.381.381,0,0,1-.166-.38c0-2.651,0-5.3,0-8.077" transform="translate(-89.557 -115.368)" fill="#f8dec8"/>
    <path id="Path_46" data-name="Path 46" d="M235.975,138.931c0,2.732,0,5.327,0,7.923,0,.2.045.417-.193.557-.957.564-1.906,1.141-2.912,1.746a8.508,8.508,0,0,0-2.368-4.986c-.215-.224-.129-.339.057-.5,1.778-1.549,3.551-3.1,5.419-4.739" transform="translate(-191.3 -115.367)" fill="#f8dec8"/>
    <path id="Path_47" data-name="Path 47" d="M80.724,138.277c-.873-.845-1.759-1.6-2.51-2.463a2.3,2.3,0,0,1-.229-2.73,2.519,2.519,0,0,1,2.391-1.378c.215,0,.353.015.352.3-.009,2.082-.005,4.164-.005,6.275" transform="translate(-64.476 -109.368)" fill="#efb79f"/>
    <path id="Path_48" data-name="Path 48" d="M275.391,138.246c0-2.082.006-4.163-.006-6.244,0-.347.205-.3.413-.3a2.51,2.51,0,0,1,2.357,1.43,2.3,2.3,0,0,1-.259,2.674c-.753.864-1.644,1.609-2.505,2.436" transform="translate(-228.678 -109.365)" fill="#efb79f"/>
    <path id="Path_49" data-name="Path 49" d="M248.008,203.955a11.94,11.94,0,0,1-2.536,4.535c0-1.034,0-1.929,0-2.824a.314.314,0,0,1,.179-.3c.754-.445,1.5-.9,2.359-1.411" transform="translate(-203.837 -169.363)" fill="#f3dac4"/>
    <path id="Path_50" data-name="Path 50" d="M111.064,204.113l2.248,1.34c.127.075.245.143.244.33-.007.9,0,1.794,0,2.747a10.1,10.1,0,0,1-2.488-4.416" transform="translate(-92.227 -169.494)" fill="#f3dac4"/>
    <path id="Path_51" data-name="Path 51" d="M201.1,110.469c-.154,1.61-.909,2.442-2.144,2.405-1.181-.035-1.938-.929-1.972-2.376a2.3,2.3,0,0,0-.971.753c-.236.251-.419.325-.642.01a1.535,1.535,0,0,0-.177-.181c-1.045-1.048-1.045-1.048.144-1.994a5.994,5.994,0,0,1,8.231.784c.178.2.219.339-.006.505a.448.448,0,0,0-.045.045c-.345.343-.637.853-1.049.984-.485.154-.673-.57-1.095-.77a3.079,3.079,0,0,1-.273-.166" transform="translate(-161.448 -89.519)" fill="#050403"/>
    <path id="Path_52" data-name="Path 52" d="M129.055,110.46c-.081,1.538-.848,2.408-2.079,2.4-1.207-.012-1.972-.9-2.019-2.387a2.505,2.505,0,0,0-.981.777c-.248.276-.425.265-.644-.015a5.17,5.17,0,0,0-.443-.453c-.7-.695-.7-.695.009-1.346a5.972,5.972,0,0,1,8.616.39c.19.207.271.343.013.554-.42.344-.716,1.027-1.2,1.041-.434.012-.716-.711-1.274-.955" transform="translate(-101.614 -89.499)" fill="#050403"/>
    <path id="Path_53" data-name="Path 53" d="M158.664,173.605a5.773,5.773,0,0,1,3.872,1.632c.477.448.92.932,1.4,1.378.246.229.3.373.03.651-1.116,1.162-1.114,1.181-2.257.015a4.72,4.72,0,0,0-2.474-1.551,3.773,3.773,0,0,0-3.4.947c-.5.451-.974.938-1.437,1.43-.23.245-.368.218-.6-.005-1.18-1.116-1.162-1.085-.044-2.262a6.444,6.444,0,0,1,4.913-2.235" transform="translate(-126.977 -144.161)" fill="#040404"/>
    <path id="Path_54" data-name="Path 54" d="M155.726,211.519c-1.858,0-3.717-.011-5.575.009-.4,0-.534-.087-.532-.514,0-1.525-.013-1.525,1.477-1.525,3.379,0,6.757.009,10.136-.011.46,0,.607.09.6.58-.028,1.46,0,1.461-1.479,1.461h-4.624" transform="translate(-124.243 -173.949)"/>
    <path id="Path_55" data-name="Path 55" d="M165.63,235.461c-1.182,0-2.364-.018-3.545.01-.4.01-.486-.112-.487-.5-.006-1.545-.02-1.545,1.516-1.545,2.026,0,4.051.015,6.077-.011.451-.006.557.122.552.56-.016,1.481,0,1.482-1.454,1.482H165.63" transform="translate(-134.189 -193.83)"/>
  </g>
</svg>