<svg xmlns="http://www.w3.org/2000/svg" xmlns:xlink="http://www.w3.org/1999/xlink" width="48" height="48" viewBox="0 0 48 48">
  <defs>
    <filter id="Path_1" x="5" y="8" width="38" height="38.002" filterUnits="userSpaceOnUse">
      <feOffset dy="3" input="SourceAlpha"/>
      <feGaussianBlur stdDeviation="3" result="blur"/>
      <feFlood flood-opacity="0.929"/>
      <feComposite operator="in" in2="blur"/>
      <feComposite in="SourceGraphic"/>
    </filter>
  </defs>
  <g id="share" transform="translate(-287 -313.247)">
    <rect id="Rectangle_7" data-name="Rectangle 7" width="48" height="48" transform="translate(287 313.247)" fill="none"/>
    <g transform="matrix(1, 0, 0, 1, 287, 313.25)" filter="url(#Path_1)">
      <path id="Path_1-2" data-name="Path 1" d="M23.394,20.533a2.864,2.864,0,0,0-.533.056c-.042.008-.083.016-.124.026a2.824,2.824,0,0,0-.489.16c-.024.011-.046.024-.069.036a2.741,2.741,0,0,0-.381.22c-.044.029-.086.058-.128.089a2.957,2.957,0,0,0-.363.323c-.009.01-.021.016-.029.026l-8.026-4.226c.006-.021.008-.041.013-.062.029-.1.049-.209.068-.315.009-.05.021-.1.028-.148a3.614,3.614,0,0,0,.034-.471,3.454,3.454,0,0,0-.034-.471c-.006-.05-.019-.1-.027-.147-.019-.106-.04-.212-.068-.316-.005-.021-.007-.041-.013-.062l8.026-4.226.02.017a2.883,2.883,0,0,0,.387.345c.031.024.064.045.1.067a2.857,2.857,0,0,0,.415.238c.017.008.031.018.048.025a2.871,2.871,0,0,0,.5.162c.04.01.08.017.121.025A2.857,2.857,0,1,0,20.614,9.76l-8.034,4.23a3.571,3.571,0,1,0,0,4.514l8.034,4.23a2.856,2.856,0,1,0,2.779-2.2Zm0-12.857a1.429,1.429,0,1,1-1.265,2.1,1.5,1.5,0,0,1-.163-.67,1.43,1.43,0,0,1,1.429-1.429ZM9.822,18.39a2.146,2.146,0,1,1,1.9-1.146A2.146,2.146,0,0,1,9.822,18.39Zm13.572,6.429a1.43,1.43,0,0,1-1.429-1.429,1.485,1.485,0,0,1,.158-.662,1.43,1.43,0,1,1,1.271,2.09Z" transform="translate(7.75 7.75)" fill="#fff"/>
    </g>
  </g>
</svg>
