<?xml version="1.0" encoding="utf-8"?>
<!-- Generator: Adobe Illustrator 27.9.0, SVG Export Plug-In . SVG Version: 6.00 Build 0)  -->
<svg version="1.1" id="Layer_1" xmlns="http://www.w3.org/2000/svg" xmlns:xlink="http://www.w3.org/1999/xlink" x="0px" y="0px"
	 width="700px" height="22px" viewBox="0 0 700 22" style="enable-background:new 0 0 700 22;" xml:space="preserve">
<style type="text/css">
	.st0{fill:none;}
	.st1{fill:#E1261C;}
	.st2{fill:#FFFFFF;}
	.st3{fill:none;stroke:#2C2C2C;stroke-width:1.5;}
	.st4{fill:#2C2C2C;stroke:#FFFFFF;stroke-width:0.25;}
	.st5{fill:#2C2C2C;}
	.st6{opacity:0.5;fill:#2C2C2C;enable-background:new    ;}
	.st7{fill:#2C2C2C;stroke:#2C2C2C;stroke-width:0.25;stroke-miterlimit:10;}
</style>
<g id="Breaking_News" transform="translate(-30 -890)">
	<rect x="40" y="890" class="st0" width="22" height="22"/>
	<path id="lightning-bolt-outline" class="st1" d="M52,890l-6.8,14H50v8l6.8-14H52V890z"/>
	<path id="lightning-bolt-outline-2" class="st2" d="M50.5,899v1.2h2.9L52,903v-1.2h-2.9L50.5,899"/>
</g>
<g id="Videos" transform="translate(-0.646 -1)">
	<rect x="42.6" y="1" class="st0" width="22" height="22"/>
	<circle class="st3" cx="53.6" cy="12" r="10.2"/>
	<path id="Path_130" class="st1" d="M57.6,12c0,0.2-0.1,0.5-0.3,0.6L55,14.2l-2.4,1.7C52.5,16,52.3,16,52.2,16s-0.2,0-0.3-0.1
		c-0.2-0.2-0.3-0.4-0.3-0.6V8.7c0-0.2,0.1-0.5,0.3-0.6c0.2-0.1,0.4-0.1,0.6,0l4.8,3.3C57.5,11.5,57.6,11.8,57.6,12z"/>
</g>
<g id="Notifications" transform="translate(-171.013 -894.1)">
	<rect x="245" y="894.1" class="st0" width="22" height="22"/>
	<path id="Path_132" class="st4" d="M257.5,914.9c-0.4,0.4-0.9,0.6-1.4,0.6c-0.6,0-1.1-0.2-1.5-0.6c-0.4-0.4-0.6-0.9-0.6-1.4h4.1
		C258.1,914,257.9,914.5,257.5,914.9z M262.8,909.3l2.1,2.1v1h-17.7v-1l2.1-2.1v-5.7c0-1.5,0.5-3,1.5-4.2c0.9-1.2,2.2-2,3.7-2.4
		v-0.7c0-0.4,0.2-0.8,0.5-1.1s0.7-0.4,1.1-0.4c0.4,0,0.8,0.1,1.1,0.4c0.3,0.3,0.5,0.7,0.4,1.1v0.7c1.5,0.3,2.8,1.2,3.8,2.4
		s1.5,2.7,1.5,4.2L262.8,909.3z M260.7,910.3v-6.8c0-1.2-0.5-2.4-1.4-3.3c-0.9-0.9-2.1-1.4-3.3-1.4c-1.2,0-2.4,0.5-3.3,1.4
		c-0.9,0.9-1.4,2.1-1.4,3.3v6.8H260.7z"/>
</g>
<g id="Share">
	<rect x="106" class="st0" width="22" height="22"/>
	<path id="Path_133" class="st5" d="M122,14.4c0.6,0,1.3,0.3,1.7,0.7c0.5,0.5,0.7,1.1,0.7,1.7s-0.2,1.3-0.7,1.7
		c-0.4,0.5-1.1,0.7-1.7,0.7s-1.3-0.3-1.7-0.7c-0.5-0.5-0.7-1.1-0.7-1.7c0-0.2,0-0.4,0-0.5l-5.9-3.4c-0.5,0.4-1.1,0.7-1.7,0.7
		c-0.7,0-1.3-0.2-1.8-0.7s-0.7-1.1-0.7-1.8s0.2-1.3,0.7-1.8s1.1-0.7,1.8-0.7c0.6,0,1.3,0.2,1.7,0.7l5.9-3.4c0-0.2-0.1-0.4-0.1-0.6
		c0-0.7,0.2-1.3,0.7-1.8s1.1-0.7,1.8-0.7c0.7,0,1.3,0.2,1.8,0.7s0.7,1.1,0.7,1.8s-0.3,1.3-0.7,1.8c-0.5,0.5-1.1,0.8-1.8,0.7
		c-0.6,0-1.3-0.2-1.7-0.7l-5.9,3.4c0,0.2,0.1,0.4,0.1,0.6c0,0.2,0,0.4-0.1,0.6l5.9,3.4C120.8,14.6,121.4,14.4,122,14.4z"/>
</g>
<g id="Explainers">
	<rect x="138" class="st0" width="22" height="22"/>
	<path id="Path_138" class="st5" d="M138,13.5c0.2-0.3,0.3-0.7,0.5-1c0.7-1.2,1.3-2.4,2-3.6c0.3-0.6,0.8-1.2,1.4-1.6
		c0.6-0.4,1.1-0.8,1.7-1.3c0.4-0.3,0.9-0.4,1.5-0.3c0,0.1-0.1,0.1-0.1,0.2c-1.7,3-3.4,5.9-5.1,8.9c-0.2,0.4-0.6,0.6-1,0.4
		c-0.1,0-0.2-0.1-0.3-0.2c-0.3-0.2-0.5-0.6-0.6-0.9L138,13.5"/>
	<path id="Path_139" class="st5" d="M146.9,12.9l3.4-5.9c0.1,0,0.1,0.1,0.2,0.1c1.4,0.7,2.8,1.5,4.2,2.2c0.2,0.1,0.5,0.2,0.7,0.2
		s0.4,0,0.6,0v0.2c0,2.6,0,5.3,0,7.9c0,0.1-0.1,0.3-0.2,0.3c-2.4,0.9-5,0.7-7.2-0.4c-0.4-0.2-0.8-0.3-1.3-0.3c-1.6,0-3.2,0-4.8,0
		c-0.8,0-1.5-0.7-1.5-1.5c0-0.5,0.3-1,0.8-1.3c0.3-0.1,0.6-0.2,0.9-0.2c1.7,0,3.4,0,5.1,0c0.1,0,0.2,0,0.3,0
		c0.3-0.1,0.6-0.4,0.5-0.8c-0.1-0.3-0.3-0.5-0.6-0.5C147.6,12.9,147.2,12.9,146.9,12.9"/>
	<path id="Path_140" class="st5" d="M157.3,13.5c0-1.5,0-3.1,0-4.6c-0.1-0.4,0.2-0.7,0.6-0.8c0.1,0,0.1,0,0.2,0c0.4,0,0.8,0,1.2,0
		s0.7,0.2,0.7,0.6v0.1c0,3.1,0,6.2,0,9.3c0,0.4-0.2,0.7-0.6,0.7h-0.1c-0.4,0-0.8,0-1.3,0c-0.4,0-0.7-0.2-0.7-0.6v-0.1
		C157.3,16.6,157.3,15.1,157.3,13.5"/>
	<path id="Path_141" class="st1" d="M147.6,3.9l2.2,1.3c0,0.1-0.1,0.1-0.1,0.2c-1.4,2.4-2.8,4.9-4.2,7.3c-0.1,0.1-0.2,0.2-0.3,0.2
		c-0.9,0-1.8,0-2.8,0L147.6,3.9"/>
	<path id="Path_142" class="st5" d="M142.8,19.9c0.3-0.5,0.5-0.9,0.8-1.4c0,0,0.1-0.1,0.2-0.1c1.3,0,2.6,0,3.9,0
		c0.3,0.1,0.5,0.2,0.7,0.3c0,0,0,0.1,0,0.2c0,0.8-0.7,1.5-1.6,1.4c-0.7,0-1.2-0.5-1.4-1.1c0-0.1,0-0.1-0.1-0.2
		c-0.1,0.7-0.6,1.2-1.3,1.3C143.6,20.5,143.1,20.3,142.8,19.9"/>
	<path id="Path_143" class="st1" d="M142.2,18.5c-0.2,0.5-0.6,1-1,1.4c-0.5,0.5-1.1,1-1.6,1.5c-0.2,0.2-0.5,0.2-0.7,0.1
		s-0.3-0.4-0.2-0.6c0.2-0.9,0.4-1.7,0.6-2.6c0.2-0.5,0.4-0.9,0.7-1.3C140.5,17.7,141.3,18.3,142.2,18.5"/>
	<path id="Path_144" class="st1" d="M150.5,4.1l-2.2-1.3c0.1-0.2,0.2-0.4,0.3-0.6c0.2-0.4,0.5-0.8,0.7-1.2s0.7-0.6,1.1-0.4
		c0,0,0.1,0,0.1,0.1c0.2,0.1,0.5,0.3,0.7,0.4c0.4,0.2,0.5,0.7,0.3,1.1C151.2,2.8,150.8,3.4,150.5,4.1"/>
</g>
<g id="Web_Stories">
	<rect x="170" class="st0" width="22" height="22"/>
	<g>
		<path class="st2" d="M178,17.7c-0.3,0-0.5-0.2-0.5-0.5v-13c0-0.3,0.2-0.5,0.5-0.5h6c0.3,0,0.5,0.2,0.5,0.5v13
			c0,0.3-0.2,0.5-0.5,0.5H178z"/>
		<path class="st5" d="M184,4.2v13h-6v-13L184,4.2 M184,3.2h-6c-0.6,0-1,0.4-1,1v13c0,0.6,0.4,1,1,1h6c0.6,0,1-0.4,1-1v-13
			C185,3.7,184.6,3.2,184,3.2L184,3.2z"/>
	</g>
	<path class="st6" d="M176.5,16.2h-2c-0.6,0-1-0.4-1-1v-9c0-0.6,0.4-1,1-1h2V16.2z"/>
	<path class="st6" d="M187.5,16.2h-2v-11h2c0.6,0,1,0.4,1,1v9C188.5,15.8,188.1,16.2,187.5,16.2z"/>
</g>
<g id="Latest_News" transform="translate(0)">
	<rect x="202" class="st0" width="22" height="22"/>
	<path id="Path_151" class="st1" d="M207.4,12.6c0-1.3,0-2.5,0-3.8c0-0.4,0.1-0.5,0.5-0.5h6.6c0.4,0,0.5,0.1,0.5,0.5
		c0,2.5,0,5.1,0,7.6c0,0.4-0.1,0.5-0.5,0.5H208c-0.4,0-0.5-0.1-0.5-0.6C207.4,15.1,207.4,13.9,207.4,12.6"/>
	<path id="Path_150" class="st5" d="M204.6,21.4L204.6,21.4c-0.8-0.2-1.3-0.8-1.3-1.6c0-3.3,0-6.5,0-9.8c0-1.8,0-3.7,0-5.5
		c0-0.4,0.1-0.5,0.6-0.5h1.7V3.8c0-0.9,0-1.8,0-2.8c0-0.4,0.1-0.5,0.5-0.5h16c0.4,0,0.5,0.1,0.5,0.5c0,3.2,0,6.4,0,9.6
		c0,0.1,0,0.1,0,0.2c0,0.2-0.2,0.4-0.5,0.3c-0.2,0-0.3-0.2-0.3-0.4c0-0.1,0-0.1,0-0.2c0-3,0-6,0-9V1.4h-15.4v0.3c0,6,0,11.9,0,17.9
		c0,0.4,0,0.8-0.2,1.1H221c0.6,0,0.8-0.3,0.8-0.8c0-1.7,0-3.4,0-5.2c0-0.1,0-0.1,0-0.2c0-0.2,0.2-0.4,0.4-0.4s0.3,0.2,0.4,0.4
		c0,0.1,0,0.1,0,0.2c0,1.7,0,3.4,0,5.1c0.1,0.8-0.5,1.5-1.2,1.7l0,0L204.6,21.4z M204.2,4.9v0.2c0,4.9,0,9.8,0,14.7
		c0,0.1,0,0.1,0,0.2c0,0.3,0.2,0.5,0.5,0.6c0.4,0.1,0.8-0.1,0.9-0.4c0-0.1,0-0.2,0-0.3c0-4.9,0-9.9,0-14.8c0-0.1,0-0.1,0-0.2
		L204.2,4.9z"/>
	<path id="Path_152" class="st5" d="M214.1,19.2H208c-0.1,0-0.1,0-0.2,0c-0.2,0-0.4-0.2-0.4-0.4s0.2-0.4,0.4-0.4h0.1h12.3
		c0.1,0,0.1,0,0.2,0c0.2,0,0.4,0.2,0.4,0.4c0,0.2-0.2,0.3-0.4,0.4c-0.1,0-0.1,0-0.2,0H214.1"/>
	<path id="Path_153" class="st5" d="M215.6,4.9c-0.1,0.5-0.3,0.9-0.4,1.4c0,0.1-0.1,0.2-0.2,0.3c-0.2,0.2-0.5,0.2-0.7,0
		c-0.1-0.1-0.1-0.2-0.1-0.3c-0.1-0.5-0.2-1-0.3-1.5c-0.1-0.4-0.1-0.7-0.2-1.1c-0.1-0.2,0.1-0.4,0.3-0.5l0,0c0.2,0,0.4,0.1,0.5,0.3
		l0,0c0.1,0.4,0.2,0.8,0.3,1.3c0-0.1,0.1-0.1,0.1-0.2c0.1-0.4,0.2-0.8,0.4-1.1c0-0.2,0.2-0.3,0.4-0.3s0.4,0.1,0.4,0.3
		c0.1,0.4,0.3,0.8,0.4,1.3c0.1-0.4,0.2-0.8,0.2-1.2c0-0.2,0.2-0.4,0.4-0.4c0.1,0,0.2,0,0.2,0.1c0.1,0.1,0.2,0.3,0.1,0.5
		c-0.1,0.5-0.2,1-0.3,1.5C217,5.7,217,6,216.9,6.4c0,0.2-0.2,0.4-0.5,0.4c-0.2,0-0.4-0.1-0.5-0.4c-0.1-0.4-0.2-0.8-0.3-1.1
		C215.7,5,215.6,5,215.6,4.9"/>
	<path id="Path_154" class="st5" d="M208.2,4.8c0,0.4,0,0.9,0,1.3c0,0.3-0.2,0.5-0.4,0.5c-0.3,0-0.4-0.2-0.4-0.5c0-0.9,0-1.7,0-2.6
		c0-0.2,0.1-0.4,0.3-0.5s0.3,0,0.5,0.2c0.4,0.5,0.7,1.1,1.1,1.6c0-0.1,0-0.1,0-0.2c0-0.4,0-0.8,0-1.2c0-0.2,0.1-0.4,0.4-0.5
		c0,0,0,0,0.1,0c0.2,0,0.4,0.2,0.4,0.4l0,0c0,0.9,0,1.7,0,2.6c0,0.2-0.1,0.4-0.3,0.5s-0.4,0-0.5-0.2C209,5.8,208.6,5.3,208.2,4.8
		L208.2,4.8"/>
	<path id="Path_155" class="st5" d="M219.5,6.6c-0.5,0-0.9-0.2-1.2-0.5c-0.2-0.1-0.2-0.4,0-0.6l0,0c0.1-0.2,0.4-0.2,0.6,0l0,0
		c0.2,0.2,0.4,0.3,0.6,0.3c0.1,0,0.2,0,0.3-0.1c0.1,0,0.2-0.1,0.2-0.2s-0.1-0.2-0.2-0.2c-0.3-0.1-0.6-0.2-0.8-0.4
		c-0.4-0.1-0.6-0.5-0.6-0.8c0-0.4,0.2-0.8,0.6-0.9c0.6-0.3,1.2-0.2,1.7,0.3c0.2,0.1,0.2,0.4,0,0.5c-0.1,0.2-0.3,0.2-0.5,0.1
		c-0.1-0.1-0.3-0.2-0.5-0.2c-0.1,0-0.2,0-0.3,0s-0.1,0.1-0.1,0.2l0.1,0.1c0.2,0.1,0.5,0.2,0.7,0.3c0.5,0.2,0.8,0.6,0.8,1.1
		c-0.1,0.5-0.5,0.9-1.1,1C219.7,6.6,219.6,6.6,219.5,6.6"/>
	<path id="Path_156" class="st5" d="M211.8,3.9v0.6c0.2,0,0.4,0,0.6,0c0.2,0,0.4,0.1,0.4,0.4c0,0.2-0.1,0.4-0.4,0.4h-0.1
		c-0.2,0-0.4,0-0.6,0v0.6c0.2,0,0.4,0,0.7,0s0.5,0.2,0.5,0.4s-0.2,0.4-0.5,0.4s-0.7,0-1,0c-0.2,0-0.4-0.1-0.5-0.3V6.3
		c0-0.9,0-1.8,0-2.7c0-0.2,0.1-0.4,0.4-0.4h0.1c0.4,0,0.7,0,1.1,0c0.2,0,0.4,0.1,0.5,0.3c0,0,0,0,0,0.1c0,0.2-0.2,0.4-0.5,0.4
		C212.3,3.9,212.1,3.9,211.8,3.9"/>
	<path id="Path_157" class="st5" d="M218.5,9.1c-0.6,0-1.2,0-1.7,0c-0.3,0-0.5-0.2-0.5-0.4s0.2-0.4,0.5-0.4c1.2,0,2.3,0,3.5,0
		c0.3,0,0.5,0.2,0.5,0.4s-0.2,0.4-0.5,0.4C219.7,9.1,219.1,9.1,218.5,9.1"/>
	<path id="Path_158" class="st5" d="M218.6,10.3c0.6,0,1.2,0,1.8,0c0.3,0,0.5,0.2,0.5,0.4s-0.2,0.4-0.5,0.4c-1.2,0-2.3,0-3.5,0
		c-0.3,0-0.5-0.2-0.5-0.4s0.2-0.4,0.5-0.4C217.4,10.3,218,10.3,218.6,10.3"/>
	<path id="Path_159" class="st5" d="M218.5,13c-0.6,0-1.2,0-1.7,0c-0.3,0-0.5-0.2-0.5-0.4s0.2-0.4,0.5-0.4c1.2,0,2.3,0,3.5,0
		c0.3,0,0.5,0.2,0.5,0.4s-0.2,0.4-0.5,0.4C219.7,13,219.1,13,218.5,13"/>
	<path id="Path_160" class="st5" d="M218.5,15c-0.6,0-1.2,0-1.7,0c-0.3,0-0.5-0.2-0.5-0.4s0.2-0.4,0.5-0.4c1.2,0,2.3,0,3.5,0
		c0.3,0,0.5,0.2,0.5,0.4s-0.2,0.4-0.5,0.4C219.7,15,219.1,15,218.5,15"/>
	<path id="Path_161" class="st5" d="M218.6,16.1c0.6,0,1.2,0,1.7,0c0.3,0,0.5,0.2,0.5,0.4c0,0.3-0.2,0.4-0.5,0.4h-3.5
		c-0.3,0-0.5-0.2-0.5-0.4c0-0.2,0.2-0.4,0.5-0.4C217.4,16.1,218,16.1,218.6,16.1"/>
	<path id="Path_162" class="st5" d="M222.6,12.6c0,0.2-0.2,0.4-0.4,0.4s-0.4-0.2-0.4-0.4s0.2-0.4,0.4-0.4l0,0
		C222.5,12.2,222.6,12.4,222.6,12.6"/>
</g>
<g id="Photos" transform="translate(0)">
	<rect x="234" class="st0" width="22" height="22"/>
	<path class="st5" d="M236,16.9c0-3.2,0-6.4,0-9.6l0,0c0.1-0.8,0.6-1.3,1.3-1.5l0.1-0.1c0-0.3,0-0.6,0-0.9c0-0.6,0.4-1.1,1-1.1
		c0.4-0.1,0.8-0.1,1.2,0c0.5,0.1,0.9,0.6,1,1.1c0,0.3,0,0.5,0,0.8v0.1c0.2,0,0.5,0,0.7,0c0.1,0,0.1,0,0.2-0.1
		c0.1-0.3,0.2-0.6,0.3-0.9c0.2-0.7,0.8-1.1,1.5-1.1c1.1,0,2.2,0,3.4,0c0.7,0,1.3,0.4,1.5,1.1c0.1,0.3,0.2,0.6,0.3,0.8
		c0,0.1,0.1,0.2,0.3,0.2c1.1,0,2.2,0,3.3,0c0.9,0,1.6,0.5,1.9,1.3c0,0.1,0.1,0.2,0.1,0.3c0,3.2,0,6.4,0,9.6c0,0.1-0.1,0.2-0.1,0.3
		c-0.3,0.8-1,1.4-1.9,1.4c-4.7,0-9.3,0-14,0H238c-0.8,0-1.3-0.4-1.7-1.1C236.1,17.3,236.1,17.1,236,16.9z M245,17.5c2.3,0,4.7,0,7,0
		c0.6,0,1-0.4,1-1c0-3,0-6,0-8.9c0-0.6-0.4-1-1-1c-1.2,0-2.4,0-3.7,0c-0.4,0-0.5-0.1-0.7-0.5c-0.1-0.4-0.3-0.8-0.4-1.2
		c-0.1-0.3-0.3-0.4-0.6-0.4c-1.1,0-2.2,0-3.3,0c-0.3,0-0.5,0.1-0.6,0.4c-0.1,0.4-0.3,0.8-0.4,1.2c-0.1,0.4-0.3,0.5-0.6,0.5
		c-1.2,0-2.4,0-3.7,0c-0.6,0-1,0.3-1,1c0,3,0,5.9,0,8.9c0,0.6,0.4,1,1,1C240.4,17.5,242.7,17.5,245,17.5z M239.6,5.6
		c0-0.3,0-0.6,0-0.8c0-0.1-0.1-0.2-0.2-0.2c-0.2,0-0.4,0-0.6,0c-0.1,0-0.2,0.1-0.2,0.2c0,0.3,0,0.6,0,0.9
		C238.9,5.6,239.2,5.6,239.6,5.6z"/>
	<path class="st5" d="M249.7,11.7c0,2.6-2.1,4.7-4.8,4.7c-2.6,0-4.7-2.1-4.7-4.7S242.3,7,245,7C247.6,7,249.7,9.1,249.7,11.7z
		 M245,8c-2,0-3.7,1.6-3.7,3.7c0,2,1.6,3.7,3.7,3.7c2,0,3.7-1.6,3.7-3.7C248.7,9.7,247,8,245,8z"/>
	<path class="st5" d="M239.2,8.7c-0.2,0-0.4,0-0.5,0c-0.3,0-0.5-0.2-0.5-0.5s0.2-0.5,0.5-0.5c0.4,0,0.7,0,1.1,0
		c0.3,0,0.5,0.2,0.5,0.5s-0.2,0.5-0.5,0.5S239.4,8.7,239.2,8.7z"/>
	<path class="st5" d="M251.3,8.7c-0.3,0-0.5-0.2-0.5-0.5s0.2-0.5,0.5-0.5s0.5,0.2,0.5,0.5C251.9,8.5,251.6,8.7,251.3,8.7z"/>
	<path class="st1" d="M242.4,11.7c0-1.4,1.2-2.6,2.6-2.6c1.5,0,2.6,1.2,2.6,2.6s-1.2,2.6-2.6,2.6C243.5,14.3,242.4,13.1,242.4,11.7z
		 M243.4,11.7c0,0.9,0.7,1.6,1.6,1.6c0.9,0,1.6-0.7,1.6-1.6c0-0.9-0.7-1.6-1.6-1.6C244.1,10.1,243.4,10.8,243.4,11.7z"/>
	<path class="st1" d="M243.4,11.7c0-0.9,0.7-1.6,1.6-1.6c0.9,0,1.6,0.7,1.6,1.6c0,0.9-0.7,1.6-1.6,1.6
		C244.1,13.3,243.4,12.6,243.4,11.7z"/>
</g>
<g id="Movies" transform="translate(0 0)">
	<rect x="266" class="st0" width="22" height="22"/>
	<path class="st7" d="M281.6,2c0.2,0,0.3,0,0.5,0h0.1c0.8,0.1,1.3,0.6,1.6,1.3c0.2,0.7,0.4,1.3,0.6,2c0.1,0.4,0,0.5-0.4,0.6
		c-3.7,1.1-7.4,2.1-11.1,3.2c-0.1,0-0.1,0-0.2,0.1l0,0c0.1,0,0.1,0,0.2,0c3.8,0,7.7,0,11.5,0c0.3,0,0.5,0.1,0.5,0.4
		c0,2.8,0,5.6,0,8.3c0,0.9-0.5,1.6-1.4,1.9c-0.1,0-0.2,0.1-0.4,0.1c-1.5,0-3,0-4.6,0c0,0-0.1,0-0.1-0.1c-0.1-0.1-0.2-0.2-0.1-0.4
		c0-0.1,0.1-0.2,0.3-0.3c0.1,0,0.1,0,0.2,0c1.3,0,2.6,0,3.9,0c0.9,0,1.4-0.5,1.4-1.4c0-1.5,0-3,0-4.4c0-0.1,0-0.1,0-0.2
		c-4.6,0-9.2,0-13.8,0c0,0.1,0,0.1,0,0.2c0,1.5,0,3,0,4.5c0,0.8,0.5,1.3,1.3,1.3c0.7,0,1.3,0,2,0s1.4,0,2.1,0c0.2,0,0.4,0.1,0.4,0.3
		c0,0.2-0.1,0.3-0.3,0.4c-1.5,0-3,0-4.6,0l0,0c-1.1-0.3-1.7-1-1.7-2.1c0-2.6,0-5.3,0-7.9c0-0.2,0-0.4-0.1-0.6
		c-0.1-0.5-0.3-0.9-0.4-1.4c-0.1-0.3-0.2-0.5-0.2-0.8c-0.1-0.9,0.5-1.7,1.5-2c2.9-0.8,5.7-1.7,8.6-2.5C280,2.5,280.8,2.2,281.6,2z
		 M283.6,5.4c-0.2-0.6-0.3-1.2-0.5-1.8s-0.8-0.9-1.4-0.8c-0.6,0.2-1.2,0.3-1.8,0.5h-0.1l0,0c0.8,0.8,1.6,1.6,2.4,2.3h0.1
		C282.7,5.6,283.1,5.5,283.6,5.4z M273.4,8.3L273.4,8.3c-0.8-0.8-1.7-1.6-2.5-2.4h-0.1c-0.6,0.1-1.2,0.8-1,1.4
		c0.1,0.6,0.3,1.1,0.5,1.6c0,0.1,0.1,0.2,0.1,0.3C271.4,8.9,272.4,8.6,273.4,8.3z M284.2,10c-0.1,0-0.1,0-0.2,0c-0.4,0-0.8,0-1.2,0
		c-0.1,0-0.2,0-0.2,0.1c-0.4,0.8-0.9,1.5-1.3,2.3c0,0,0,0.1-0.1,0.1c1,0,2,0,3.1,0C284.2,11.7,284.2,10.8,284.2,10z M270.5,12.6
		c0.5,0,1,0,1.4,0c0.1,0,0.2,0,0.2-0.1c0.4-0.8,0.9-1.5,1.3-2.3c0,0,0-0.1,0.1-0.2c-1,0-2,0-3.1,0C270.5,10.8,270.5,11.7,270.5,12.6
		z M277,4.1L277,4.1c0,0.1,0.1,0.1,0.1,0.2c0.7,0.7,1.4,1.3,2,2c0.3,0.3,0.5,0.3,0.8,0.2c0.4-0.2,0.9-0.3,1.4-0.4c0,0,0-0.1-0.1-0.1
		c-0.8-0.8-1.6-1.5-2.4-2.3c0,0-0.1-0.1-0.2,0c-0.3,0.1-0.6,0.2-0.9,0.2C277.6,3.9,277.3,4,277,4.1z M278.7,6.8
		C278.7,6.7,278.7,6.7,278.7,6.8c-0.9-0.9-1.7-1.6-2.5-2.4c0,0-0.1-0.1-0.2,0c-0.3,0.1-0.5,0.1-0.8,0.2s-0.6,0.2-0.9,0.3
		c0,0,0,0.1,0.1,0.1c0.8,0.8,1.6,1.5,2.4,2.3c0,0,0.1,0.1,0.2,0c0.3-0.1,0.7-0.2,1-0.3C278.2,6.9,278.5,6.8,278.7,6.8z M276.1,7.5
		c-0.1-0.1-0.1-0.1-0.2-0.1c-0.7-0.7-1.4-1.4-2.1-2c-0.2-0.2-0.4-0.3-0.6-0.2c-0.5,0.2-1,0.3-1.5,0.5c0.1,0.1,0.1,0.1,0.2,0.1
		c0.7,0.7,1.5,1.4,2.2,2.1c0.2,0.2,0.3,0.2,0.5,0.1C275,7.8,275.5,7.7,276.1,7.5z M275.6,12.5c0.1,0,0.1,0,0.2,0c0.5,0,1.1,0,1.6,0
		c0.1,0,0.2,0,0.2-0.1c0.4-0.8,0.9-1.5,1.3-2.3c0,0,0.1-0.1,0.1-0.2c-0.1,0-0.1,0-0.2,0c-0.5,0-1.1,0-1.6,0c-0.1,0-0.2,0-0.2,0.1
		c-0.4,0.8-0.9,1.5-1.3,2.3C275.7,12.4,275.7,12.5,275.6,12.5z M281.8,10C281.7,10,281.7,10,281.8,10c-0.6,0-1.2,0-1.8,0
		c-0.1,0-0.1,0.1-0.2,0.1c-0.5,0.8-0.9,1.5-1.3,2.3c0,0,0,0.1-0.1,0.1c0.6,0,1.2,0,1.8,0c0.1,0,0.2,0,0.2-0.1
		c0.4-0.8,0.9-1.5,1.3-2.3C281.7,10.1,281.8,10,281.8,10z M276.3,10c-0.1,0-0.1,0-0.2,0c-0.5,0-1,0-1.6,0c-0.1,0-0.2,0-0.3,0.1
		c-0.4,0.8-0.9,1.5-1.3,2.3c0,0-0.1,0.1-0.1,0.2c0.1,0,0.1,0,0.2,0c0.5,0,1.1,0,1.6,0c0.1,0,0.2,0,0.2-0.1c0.4-0.8,0.9-1.5,1.3-2.3
		C276.2,10.1,276.2,10,276.3,10z"/>
	<path class="st5" d="M277.2,20L277.2,20c-0.2-0.2-0.3-0.3-0.2-0.5c0-0.2,0.2-0.2,0.3-0.2c0.2,0,0.3,0.1,0.3,0.2
		c0.1,0.2,0,0.3-0.1,0.4c0,0-0.1,0-0.1,0.1C277.3,20,277.3,20,277.2,20z"/>
	<path class="st1" d="M276,16.2c0-0.6,0-1.1,0-1.7c0-0.4,0.3-0.5,0.6-0.4c1,0.6,2,1.1,2.9,1.7c0.3,0.2,0.3,0.5,0,0.7
		c-1,0.6-2,1.1-3,1.7c-0.3,0.2-0.6,0-0.6-0.3C276,17.4,276,16.8,276,16.2z M278.7,16.2c-0.7-0.4-1.4-0.8-2-1.2c0,0.8,0,1.5,0,2.3
		C277.4,17,278,16.6,278.7,16.2z"/>
	<path class="st1" d="M278.7,16.2c-0.7,0.4-1.3,0.8-2,1.2c0-0.8,0-1.5,0-2.3C277.4,15.5,278,15.8,278.7,16.2z"/>
</g>
<g id="Cricket">
	<rect x="298" class="st0" width="22" height="22"/>
	<path id="Path_792" class="st1" d="M304,17.2L315.2,6c2.8,3.4,2.2,8.4-1.2,11.2C311.1,19.6,306.9,19.6,304,17.2 M310,12.7
		c0.1,0,0.1,0,0.2-0.1c0.2-0.2,0.4-0.3,0.5-0.5c0.1-0.1,0.1-0.3,0-0.3l0,0c-0.1-0.1-0.3-0.1-0.4,0c-0.2,0.1-0.3,0.3-0.4,0.5
		c-0.1,0.1-0.1,0.2,0,0.3C309.8,12.6,309.9,12.7,310,12.7 M307.1,15.6c-0.1-0.1-0.1-0.2-0.2-0.2s-0.2,0-0.3,0
		c-0.1,0.1-0.3,0.3-0.4,0.4c-0.1,0.1-0.1,0.3,0,0.4l0,0c0.1,0.1,0.3,0.1,0.4,0l0,0c0.1-0.1,0.3-0.2,0.4-0.4
		C307,15.8,307.1,15.7,307.1,15.6 M305.2,17.6h0.1c0.2-0.2,0.4-0.4,0.5-0.6c0.1-0.1,0-0.2-0.1-0.3c-0.1-0.1-0.2-0.1-0.3,0
		c-0.2,0.2-0.4,0.3-0.5,0.5C304.8,17.3,304.9,17.6,305.2,17.6 M314.1,8.1c-0.1,0-0.1,0-0.2,0.1c-0.2,0.2-0.3,0.3-0.5,0.5
		c-0.1,0.1-0.1,0.3,0,0.3c0.1,0.1,0.2,0.1,0.3,0l0,0c0.2-0.2,0.3-0.3,0.5-0.5c0-0.1,0-0.2,0-0.3C314.2,8.2,314.1,8.1,314.1,8.1
		 M312.4,10.3c0.1,0,0.1,0,0.2-0.1c0.2-0.2,0.4-0.3,0.5-0.5c0.1-0.1,0.1-0.3-0.1-0.3l0,0c-0.1-0.1-0.2-0.1-0.3,0
		c-0.2,0.1-0.3,0.3-0.5,0.5c0,0.1-0.1,0.2,0,0.3C312.2,10.2,312.3,10.2,312.4,10.3 M311.2,11.5h0.1c0.2-0.2,0.4-0.3,0.5-0.5
		c0.1-0.1,0.1-0.3,0-0.3c-0.1-0.1-0.2-0.1-0.3,0c-0.2,0.2-0.4,0.3-0.5,0.5C310.9,11.2,311,11.5,311.2,11.5 M307.5,15.1
		c0.1,0,0.1,0,0.2-0.1c0.2-0.2,0.3-0.3,0.5-0.5c0.1-0.1,0.1-0.3,0-0.3c-0.1-0.1-0.3-0.1-0.4,0c-0.2,0.1-0.3,0.3-0.4,0.4
		c-0.1,0.1-0.1,0.2,0,0.3C307.4,15,307.5,15.1,307.5,15.1 M315.5,7.1c0,0-0.1-0.2-0.2-0.2s-0.2,0-0.3,0c-0.2,0.1-0.3,0.3-0.5,0.5
		c-0.1,0.1-0.1,0.2,0,0.3c0.1,0.1,0.1,0.1,0.2,0.2C315,7.9,315.5,7.3,315.5,7.1 M309.5,13.2c-0.1-0.1-0.1-0.2-0.2-0.2s-0.2,0-0.3,0
		c-0.2,0.1-0.3,0.3-0.4,0.4c-0.1,0.1-0.1,0.3,0,0.4c0.1,0.1,0.2,0.1,0.3,0.1l0,0c0.2-0.2,0.4-0.3,0.5-0.5
		C309.5,13.3,309.5,13.3,309.5,13.2"/>
	<path id="Path_793" class="st1" d="M314,4.8L302.8,16c-2.8-3.4-2.2-8.5,1.2-11.2C306.9,2.4,311.1,2.4,314,4.8 M311.7,5.7
		c-0.1,0-0.1,0-0.2,0.1c-0.2,0.2-0.3,0.3-0.5,0.5c-0.1,0.1-0.1,0.3,0,0.3c0.1,0.1,0.2,0.1,0.3,0c0.2-0.2,0.4-0.3,0.5-0.5
		C311.8,6,311.8,5.9,311.7,5.7C311.8,5.7,311.7,5.7,311.7,5.7 M305.6,11.7c-0.1,0-0.1,0-0.2,0.1c-0.2,0.2-0.3,0.3-0.5,0.5
		c-0.1,0.1-0.1,0.3,0,0.4c0.1,0.1,0.3,0.1,0.4,0c0.2-0.1,0.3-0.3,0.5-0.5c0-0.1,0.1-0.2,0-0.3C305.8,11.8,305.7,11.8,305.6,11.7
		 M312.4,5.4c0.1,0,0.1,0,0.2-0.1c0.2-0.2,0.3-0.3,0.5-0.5c0.1-0.1,0.1-0.3,0-0.3c-0.1-0.1-0.2-0.1-0.3,0c-0.2,0.2-0.4,0.3-0.5,0.5
		C312.3,5.1,312.3,5.2,312.4,5.4C312.2,5.4,312.3,5.4,312.4,5.4 M304.6,13.2c0,0-0.1-0.2-0.2-0.2s-0.2,0-0.3,0
		c-0.2,0.1-0.3,0.3-0.5,0.5c-0.1,0.1-0.1,0.2,0,0.3s0.1,0.1,0.2,0.2C304.1,13.9,304.6,13.4,304.6,13.2 M303.4,14.4
		c0,0-0.1-0.2-0.2-0.2s-0.2,0-0.3,0c-0.2,0.1-0.3,0.3-0.4,0.4c-0.1,0.1-0.1,0.2,0,0.3s0.2,0.1,0.3,0.1
		C302.9,15.1,303.4,14.6,303.4,14.4 M310.7,7.1c0,0-0.1-0.2-0.2-0.2s-0.2,0-0.3,0c-0.2,0.1-0.3,0.3-0.4,0.4s-0.1,0.2,0,0.3
		c0.1,0.1,0.1,0.1,0.2,0.2C310.2,7.9,310.7,7.3,310.7,7.1 M308.8,9.1c0.1,0,0.1,0,0.2-0.1c0.2-0.2,0.3-0.3,0.5-0.5
		c0.1-0.1,0.1-0.3,0-0.3c-0.1-0.1-0.2-0.1-0.3,0l0,0c-0.2,0.1-0.3,0.3-0.5,0.5c0,0.1-0.1,0.2,0,0.3C308.6,9,308.7,9,308.8,9.1
		 M308.3,9.5c0,0-0.1-0.1-0.2-0.2c-0.1,0-0.2,0-0.3,0c-0.2,0.1-0.3,0.3-0.4,0.4c-0.1,0.1-0.1,0.2,0,0.3s0.1,0.1,0.2,0.2
		C307.8,10.3,308.3,9.8,308.3,9.5 M306.3,11.5c0.1,0,0.1,0,0.2-0.1c0.2-0.2,0.3-0.3,0.5-0.5c0.1-0.1,0.1-0.3,0-0.4
		c-0.1-0.1-0.3-0.1-0.4,0c-0.2,0.1-0.3,0.3-0.4,0.5c-0.1,0.1-0.1,0.2,0,0.3C306.2,11.4,306.3,11.5,306.3,11.5"/>
	<path id="Path_794" class="st1" d="M303.5,16.8l-0.4-0.3l11.3-11.3l0.4,0.4L303.5,16.8"/>
</g>
<g id="Buzz" transform="translate(-2 -4)">
	<rect x="332" y="4" class="st0" width="22" height="22"/>
	<path id="Path" class="st1" d="M349,14v2h4v-2H349z"/>
	<path id="Path-2" class="st1" d="M347,20.6c1,0.7,2.2,1.6,3.2,2.4c0.4-0.5,0.8-1.1,1.2-1.6c-1-0.7-2.2-1.7-3.2-2.4
		C347.8,19.5,347.4,20.1,347,20.6z"/>
	<path id="Path-3" class="st1" d="M351.4,8.6c-0.4-0.5-0.8-1.1-1.2-1.6c-1,0.7-2.2,1.7-3.2,2.4c0.4,0.5,0.8,1.1,1.2,1.6
		C349.2,10.3,350.4,9.4,351.4,8.6z"/>
	<path id="Path-4" class="st5" d="M335,12c-1.1,0-2,0.9-2,2v2c0,1.1,0.9,2,2,2h1v4h2v-4h1l5,3V9l-5,3H335z"/>
	<path id="Path-5" class="st5" d="M346.5,15c0-1.3-0.5-2.5-1.5-3.4v6.7C346,17.5,346.5,16.3,346.5,15z"/>
</g>
<g id="Opinion" transform="translate(8 2)">
	<rect x="354" y="-2" class="st0" width="28" height="22"/>
	<path class="st2" d="M364.8,12.6c-0.3,0.8-0.5,1.6-0.8,2.4c-0.1,0.3-0.1,0.7,0.2,0.9c0.3,0.2,0.7,0.2,1-0.1c1.3-1,2.7-2,4-3
		c0.2-0.1,0.4-0.2,0.7-0.2c2.9,0,5.7-0.1,8.6,0c1.8,0.1,3.4-1.3,3.5-3.2c0-0.1,0-0.2,0-0.3c0-2.6,0-5.1,0-7.7c0.1-1.8-1.2-3.3-3-3.4
		c-0.1,0-0.3,0-0.4,0h-12.9c-1.8-0.1-3.3,1.2-3.4,3c0,0.2,0,0.3,0,0.5c0,2.6,0,5.1,0,7.7c-0.1,1.6,1,3.1,2.6,3.4
		C364.7,12.6,364.8,12.6,364.8,12.6"/>
	<path id="Path_786" class="st5" d="M364.8,12.6c-0.3,0.8-0.5,1.6-0.8,2.4c-0.1,0.3-0.1,0.7,0.2,0.9c0.3,0.2,0.7,0.2,1-0.1
		c1.3-1,2.7-2,4-3c0.2-0.1,0.4-0.2,0.7-0.2c2.9,0,5.7-0.1,8.6,0c1.8,0.1,3.4-1.3,3.5-3.2c0-0.1,0-0.2,0-0.3c0-2.6,0-5.1,0-7.7
		c0.1-1.8-1.2-3.3-3-3.4c-0.1,0-0.3,0-0.4,0h-12.9c-1.8-0.1-3.3,1.2-3.4,3c0,0.2,0,0.3,0,0.5c0,2.6,0,5.1,0,7.7
		c-0.1,1.6,1,3.1,2.6,3.4C364.7,12.6,364.8,12.6,364.8,12.6 M365.5,14.1c0.2-0.6,0.4-1.1,0.5-1.5c0.2-0.4,0-0.9-0.4-1.1
		c-0.1,0-0.2-0.1-0.3-0.1c-1.1,0-2.1-0.9-2.1-2c0-0.1,0-0.2,0-0.3c0-2.6,0-5.1,0-7.7c-0.1-1.1,0.7-2.2,1.8-2.3c0.1,0,0.3,0,0.4,0
		h12.9c1.1-0.1,2.2,0.7,2.3,1.9c0,0.1,0,0.3,0,0.4c0,2.6,0,5.1,0,7.7c0.1,1.2-0.8,2.2-2,2.3c-0.1,0-0.2,0-0.2,0c-2.9,0-5.8,0-8.6,0
		c-0.5,0-0.9,0.1-1.2,0.4C367.6,12.6,366.6,13.3,365.5,14.1"/>
	<path id="Path_787" class="st1" d="M372,7.3h-5.7c-0.1,0-0.2,0-0.3,0c-0.3,0-0.5,0.3-0.5,0.6c0,0.2,0.2,0.4,0.4,0.5
		c0.1,0,0.3,0,0.4,0h11.3c0.6,0,0.9-0.2,0.9-0.6s-0.3-0.6-0.9-0.6L372,7.3"/>
	<path id="Path_788" class="st1" d="M372,4.4h-5.7c-0.1,0-0.3,0-0.4,0c-0.3,0-0.5,0.2-0.5,0.5s0.1,0.6,0.4,0.6l0,0
		c0.2,0,0.3,0,0.5,0c3.7,0,7.5,0,11.2,0c0.6,0,0.9-0.2,0.9-0.6s-0.3-0.6-0.9-0.6L372,4.4"/>
	<path id="Path_789" class="st1" d="M369.5,2.6c1.1,0,2.2,0,3.3,0c0.5,0,0.7-0.2,0.7-0.6s-0.3-0.6-0.8-0.6c-2.2,0-4.4,0-6.5,0h-0.1
		c-0.4,0-0.6,0.2-0.6,0.6s0.2,0.6,0.6,0.6C367.2,2.7,368.4,2.6,369.5,2.6"/>
	<path id="Path_790" class="st5" d="M354.6,20c-0.3-0.2-0.5-0.5-0.5-0.9c0.1-2.1,1.8-3.8,3.8-4.1c0.1,0,0.1,0,0.2,0
		c-0.7-0.1-1.3-0.5-1.7-1c-0.4-0.5-0.5-1.2-0.4-1.9c0.2-1.4,1.6-2.3,2.9-2c1.1,0.2,1.9,1.1,2,2.3c0.1,1.3-0.8,2.5-2.1,2.7l0.4,0.1
		c2,0.4,3.4,2.1,3.6,4.1c0.1,0.4-0.1,0.7-0.5,0.8h-7.7V20z"/>
</g>
<g id="Elections">
	<rect x="400" class="st0" width="22" height="22"/>
	<path class="st2" d="M400,16.7v-3.4c0-0.1,0.1-0.1,0.1-0.2c0.9-1.7,1.7-3.5,2.6-5.2c0-0.1,0.2-0.2,0.3-0.2c0.4,0,0.8,0,1.2,0h0.9
		V7.6l-0.4-0.3L412,0l6.4,6.4l-1.3,1.3c0.6,0,1.2,0,1.8,0c0.1,0,0.3,0.1,0.3,0.2c0.9,1.8,1.8,3.5,2.6,5.3c0.1,0.1,0.1,0.3,0.1,0.4
		c0,1,0,2,0,2.9v0.2h-1.3V22h-19.4v-5.2L400,16.7L400,16.7z"/>
	<path id="Path_784_00000178199905623217519110000018149068070605981841_" class="st5" d="M400,16.7v-3.4c0-0.1,0.1-0.1,0.1-0.2
		c0.9-1.7,1.7-3.5,2.6-5.2c0-0.1,0.2-0.2,0.3-0.2c0.4,0,0.8,0,1.2,0h0.9V7.6l-0.4-0.3L412,0l6.4,6.4l-1.3,1.3c0.6,0,1.2,0,1.8,0
		c0.1,0,0.3,0.1,0.3,0.2c0.9,1.8,1.8,3.5,2.6,5.3c0.1,0.1,0.1,0.3,0.1,0.4c0,1,0,2,0,2.9v0.2h-1.3V22h-19.4v-5.2L400,16.7L400,16.7z
		 M402.6,20.7h16.8v-3.9h-16.8V20.7z M406.7,7.3L406.7,7.3c1,1,2,2,2.9,2.9c0.1,0.1,0.2,0.1,0.2,0.1c0.9,0,1.8,0,2.7,0
		c0.1,0,0.2-0.1,0.3-0.1c1.2-1.2,2.4-2.4,3.6-3.6c0,0,0.1-0.1,0.2-0.1L412,1.9L406.7,7.3 M407.8,10.3c-0.4-0.4-0.8-0.8-1.2-1.2
		c0-0.1-0.1-0.1-0.2-0.1c-0.9,0-1.7,0-2.6,0c-0.1,0-0.2,0.1-0.2,0.2c-0.6,1.2-1.2,2.4-1.8,3.6c0,0.1,0,0.1-0.1,0.2h18.6v-0.1
		c-0.6-1.2-1.2-2.4-1.8-3.6c0-0.1-0.1-0.1-0.2-0.1c-0.5,0-1,0-1.5,0c-0.3,0-0.6,0-0.9,0c-0.3,0.1-0.4,0.4-0.6,0.6
		c-0.2,0.2-0.4,0.4-0.7,0.6v0.1h2.2v1.3h-11.6v-1.3h2.6V10.3z M420.7,14.2h-19.4v1.3h19.4V14.2z"/>
	<path id="Path_785" class="st1" d="M409.3,7.5l0.9-0.9l0.8,0.8l2.1-2.1l0.9,0.9l-3,3L409.3,7.5"/>
</g>
<g id="Bigg_Boss" transform="translate(-2.668 -6.148)">
	<rect x="434.7" y="6.1" class="st0" width="24" height="22"/>
	<path class="st2" d="M446.7,24.1c-2.5,0-5-0.7-7.2-2.1c-1.9-1.2-3.5-2.8-4.8-4.7c-0.1-0.1-0.1-0.3,0-0.4c0.8-1.3,1.9-2.4,3.1-3.4
		c1.6-1.4,3.5-2.4,5.5-2.9c3.2-0.9,6.6-0.5,9.6,1.1c2.3,1.2,4.3,3,5.7,5.2c0.1,0.1,0.1,0.3,0,0.5c-0.8,1.3-1.8,2.4-3,3.4
		c-1.6,1.4-3.5,2.4-5.5,3C449,24,447.8,24.2,446.7,24.1"/>
	<path id="Path_701_00000178178492377030845320000010390304903212439723_" class="st5" d="M446.7,24.1c-2.5,0-5-0.7-7.2-2.1
		c-1.9-1.2-3.5-2.8-4.8-4.7c-0.1-0.1-0.1-0.3,0-0.4c0.8-1.3,1.9-2.4,3.1-3.4c1.6-1.4,3.5-2.4,5.5-2.9c3.2-0.9,6.6-0.5,9.6,1.1
		c2.3,1.2,4.3,3,5.7,5.2c0.1,0.1,0.1,0.3,0,0.5c-0.8,1.3-1.8,2.4-3,3.4c-1.6,1.4-3.5,2.4-5.5,3C449,24,447.8,24.2,446.7,24.1
		 M436.5,17.2c0.6,0.8,1.3,1.6,2.1,2.3c2.1,1.9,4.7,3,7.5,3.1c1.7,0.1,3.4-0.2,5-0.8c1.6-0.6,3-1.6,4.2-2.8c0.6-0.6,1.1-1.2,1.6-1.8
		C451.5,10,442.1,9.8,436.5,17.2"/>
	<circle id="Ellipse_10" class="st1" cx="446.6" cy="17.1" r="2.6"/>
</g>
<g id="IPL" transform="translate(-244 -893)">
	<rect x="710" y="893" class="st0" width="24" height="22"/>
	<path id="Path_746" class="st5" d="M714.5,900.7c0.1-0.1,0.2-0.2,0.3-0.3c-0.1-0.1-0.1-0.2-0.1-0.2c0-0.1-0.1-0.2,0-0.2h0.1h0.1
		l0,0c0.1-0.1,0.2,0,0.2-0.1v-0.1c0-0.1,0.1-0.2,0.2-0.2h0.1l0,0c0-0.1,0.1-0.2,0.2-0.2c0,0,0,0,0.1,0l0,0c0-0.1,0.1-0.3,0.2-0.4
		c0.1-0.1,0.1-0.1,0.2-0.1c0-0.1,0-0.1,0-0.2c0.1,0,0.2,0,0.2,0.1c0.1,0,0.1,0,0.2,0c0.1,0,0.3,0.1,0.4,0.2c0.1-0.1,0.2-0.1,0.3-0.2
		c-0.1-0.1-0.1-0.1-0.1-0.2c0-0.1,0-0.2,0.1-0.3c0.5-1,1.2-1.9,1.9-2.8c0.4-0.4,0.7-0.9,1.1-1.3c0.3-0.3,0.8-1,1.2-1.1
		c0.5,0,1,0.8,1,1.2c0,0.2-0.1,0.5-0.3,0.7c-1,1.4-2.1,2.8-3.4,4c-0.1,0.1-0.2,0.2-0.4,0.3c-0.1,0-0.3,0-0.4,0h-0.1
		c-0.1,0.1-0.2,0.3-0.3,0.4l0.1,0.1c0.2,0.1,0.2,0.3,0.3,0.5c0,0.1-0.1,0.2-0.1,0.3c0.2,0.2,0.5,0.4,0.7,0.6l0.1-0.1
		c0.1,0,0.2-0.1,0.3-0.1s0.1,0,0.2,0c0.1,0,0.2-0.1,0.3-0.1s0.3,0,0.4,0c0.2-0.1,0.4-0.1,0.5-0.1s0.2,0,0.2,0l0,0
		c0-0.3-0.3-0.5-0.3-0.8c0-0.1,0-0.2,0.1-0.4v-0.2c0.3-0.5,0.8-0.9,1.4-0.8c0.6,0.1,1.2,0.4,1.4,1c0,0,0,0.1,0.1,0.1l0.1,0.1
		c0.1,0,0.3,0.1,0.4,0.2c0,0,0,0,0,0.1s-0.1,0.1-0.1,0.1l-0.7,0.1v0.1l0,0c0.2,0,0.5,0.1,0.6,0.3c0,0,0.1,0,0.1,0.1s0,0.1-0.1,0.1
		h-0.1c0,0,0,0,0,0.1s0,0.2-0.1,0.3l0,0c0,0,0,0-0.1,0.1c0,0.1-0.1,0.2-0.1,0.3c0.3,0.3,0.4,0.7,0.4,1s-0.1,0.6-0.2,0.9
		c-0.1,0.3-0.2,0.7-0.1,1.1c0.1,0.3,0.2,0.5,0.2,0.8s-0.2,0.5-0.2,0.8v0.1c0.5,0.5,0.9,1,1.2,1.6c0.3,0.7,0.6,1.4,0.9,2.1
		c0.1,0.1,0.1,0.3,0.2,0.4c0,0,0,0,0-0.1s0-0.3,0.2-0.4c0.1,0,0.3,0,0.4,0.1c0.1,0.1,0.3,0.2,0.4,0.3c0.1-0.1,0.2-0.1,0.3,0
		s0.1,0.2,0.1,0.3s0,0.1,0,0.2l0.1,0.1c0.1,0.1,0.1,0.2,0.1,0.3c0,0,0,0,0.1,0.1s0.1,0.2,0.1,0.3l0,0c0.2,0.6,0.4,1.3,0.6,1.9
		c0.1,0.1,0.1,0.2,0.2,0.4c0.1,0.1,0.3,0.2,0.4,0.3c0,0,0,0,0,0.1c0.3,0.1,0.6,0.3,0.9,0.5l0.1,0.1c0,0,0,0.1-0.1,0.1
		c-0.2,0.1-0.3,0.1-0.5,0.1l-1.6-0.1c-0.1,0-0.1,0-0.1,0l-0.1-0.1c-0.1-0.2-0.2-0.3-0.2-0.5c0-0.1-0.1-0.2-0.1-0.2
		c-0.1-0.2-0.2-0.3-0.3-0.5c0-0.1-0.1-0.1-0.1-0.2c-0.1,0-0.2-0.1-0.2-0.1c-0.1-0.1-0.1-0.3-0.2-0.4c-0.1-0.2-0.3-0.2-0.5-0.4
		c-0.2-0.1-0.3-0.2-0.4-0.4c-0.1-0.1-0.3-0.2-0.3-0.4c0-0.1,0-0.1,0-0.2c-0.5-0.5-1.1-1-1.6-1.5c-0.4-0.4-0.8-0.8-1.3-1.1
		c-0.1-0.1-0.3-0.1-0.5-0.2c-0.2,0.1-0.5,0.2-0.8,0.3c-0.7,0.2-1.4,0.5-2.1,0.7c-0.1,0-0.1,0.1-0.2,0.1c0.1,0.1,0.1,0.3,0.2,0.4
		c0,0.1,0,0.2,0,0.3v0.1c0.2,0.2,0.4,0.4,0.4,0.7c0.1,0.3-0.1,0.7,0,1s0.4,0.4,0.5,0.7c0.1,0.2,0.1,0.4,0.1,0.6c0,0.1,0,0.2,0.1,0.3
		c0.2,0.1,0.3,0.2,0.4,0.3c0,0.1,0.1,0.2,0.1,0.2c0.1,0.1,0.2,0.3,0.1,0.5c-0.1,0.1-0.1,0.1-0.2,0.2c-0.3,0.1-0.7,0.1-1,0h-0.1h-0.3
		l0,0c-0.4,0.2-0.8,0.2-1.1,0.1c-0.1,0-0.2-0.1-0.3-0.1c-0.1-0.1-0.1-0.2,0-0.3l0,0h0.1c0.2-0.2,0.6-0.1,0.9-0.2
		c0.1,0,0.1-0.1,0.2-0.1c0,0-0.1,0-0.1-0.1c-0.6-1.1-1.1-2.2-1.6-3.3c-0.1,0-0.2-0.1-0.2-0.1c-0.1-0.1-0.1-0.1-0.2-0.2
		c0-0.1,0-0.1,0-0.2c0,0-0.1,0-0.1-0.1c-0.1-0.1-0.2-0.2-0.2-0.3v-0.1c-0.1-0.1-0.1-0.1-0.2-0.2c0-0.1-0.1-0.1-0.1-0.2
		c0-0.1,0.1-0.1,0.1-0.2l0,0c-0.1-0.2-0.1-0.4-0.2-0.6c0-0.1,0-0.3,0.1-0.4c0.1,0,0.1-0.1,0.2-0.1c0.2,0,0.5,0,0.7,0
		c0.1,0,0.2,0,0.3,0c0.2-0.1,0.3-0.2,0.3-0.4c0.3-0.6,0.7-1.1,1.2-1.6c0.3-0.3,0.6-0.6,1-0.8c-0.2-0.7-0.3-1.5-0.4-2.2
		c0-0.1,0-0.2-0.1-0.3s-0.2-0.2-0.3-0.3s-0.2-0.3-0.3-0.4c-0.1,0-0.3-0.1-0.5-0.1c-0.7,0.1-1.4,0.1-2.1,0c-0.2,0-0.3-0.1-0.4-0.3
		c-0.1-0.1-0.1-0.2-0.1-0.3l-0.1-0.5c0,0.1-0.1,0.2-0.2,0.2c0,0,0,0-0.1,0l0,0l-0.5-0.6C714.5,900.8,714.5,900.8,714.5,900.7
		L714.5,900.7z M722.8,900.9c0.1,0.1,0.2,0.1,0.3,0.2l0.1-0.1l0,0l0,0l-0.2-0.1C722.9,900.8,722.9,900.8,722.8,900.9
		C722.8,900.8,722.8,900.9,722.8,900.9z M717.3,901.3c-0.1,0-0.1-0.1-0.2-0.1c-0.2-0.1-0.3-0.3-0.4-0.5c-0.1,0-0.2,0-0.3,0
		c0,0-0.1,0-0.1,0.1l-0.1,0.1c0,0.1,0,0.3,0,0.4l0,0c0,0,0,0.1,0.1,0.1C716.6,901.3,717,901.3,717.3,901.3z M716.2,900.9
		L716.2,900.9L716.2,900.9C716.2,900.8,716.2,900.9,716.2,900.9L716.2,900.9z M722.9,900.5C722.9,900.6,722.9,900.6,722.9,900.5
		C722.9,900.6,722.9,900.6,722.9,900.5c0.1,0.1,0.2,0.2,0.3,0.2c0-0.1,0-0.1,0-0.2C723.1,900.6,723,900.6,722.9,900.5L722.9,900.5z"
		/>
	<circle id="Ellipse_9" class="st1" cx="724.9" cy="896.5" r="1"/>
</g>
<g id="Live_TV" transform="translate(-244 -893)">
	<rect x="744" y="893" class="st0" width="24" height="22"/>
	<g>
		<g>
			<path class="st5" d="M754.1,899.6c-0.2-0.1-0.3-0.3-0.5-0.4c-0.4-0.4-0.9-0.9-1.3-1.3c-0.3-0.3-0.3-0.8,0-1.1s0.8-0.3,1.1,0
				c0.8,0.8,1.6,1.6,2.5,2.4c0,0,0.1,0.1,0.2,0.1c0.1-0.1,0.1-0.1,0.2-0.1c0.8-0.8,1.6-1.6,2.5-2.4c0.4-0.4,0.9-0.3,1.2,0.1
				c0.2,0.3,0.2,0.7-0.1,1c-0.5,0.5-1.1,1.1-1.6,1.6c0,0-0.1,0.1-0.2,0.1c0,0,0,0,0,0.1c0.1,0,0.1,0,0.2,0c1.1,0,2.3,0,3.4,0
				c1.2,0,2.2,0.8,2.4,2c0,0.1,0,0.3,0,0.4c0,2.4,0,4.7,0,7.1c0,1.2-0.7,2.1-1.9,2.4c-0.2,0-0.4,0.1-0.6,0.1c-3.7,0-7.4,0-11.1,0
				c-1.4,0-2.4-1-2.4-2.4c0-2.4,0-4.8,0-7.1c0-1.4,1-2.4,2.4-2.4c1.1,0,2.3,0,3.4,0C753.9,899.6,754,899.6,754.1,899.6
				C754,899.6,754.1,899.6,754.1,899.6z M756,910c1.8,0,3.6,0,5.4,0c0.1,0,0.2,0,0.3,0c0.4,0,0.6-0.3,0.7-0.6c0-0.1,0-0.2,0-0.3
				c0-2.3,0-4.6,0-6.9c0-0.1,0-0.2,0-0.3c-0.1-0.3-0.2-0.5-0.5-0.6c-0.1,0-0.3,0-0.4,0c-1.8,0-3.6,0-5.5,0c-1.8,0-3.7,0-5.5,0
				c-0.6,0-0.9,0.3-0.9,0.9c0,0.8,0,1.5,0,2.3c0,1.6,0,3.1,0,4.7c0,0.3,0.1,0.6,0.4,0.8c0.1,0.1,0.3,0.1,0.5,0.1
				C752.4,910,754.2,910,756,910z"/>
		</g>
		<path id="Path_166_00000155139659249293738740000009021523010697065874_" class="st1" d="M753.9,905.6c0-0.8,0-1.6,0-2.4
			c0-0.2,0.1-0.5,0.2-0.6c0.2-0.2,0.6-0.2,0.8,0c1.1,0.7,2.3,1.3,3.4,2c0.3,0.1,0.5,0.3,0.8,0.4c0.3,0.2,0.5,0.5,0.3,0.9
			c-0.1,0.1-0.2,0.3-0.3,0.3c-1.4,0.8-2.8,1.6-4.3,2.5c-0.3,0.2-0.7,0.1-0.9-0.2c-0.1-0.1-0.1-0.3-0.1-0.4
			C753.9,907.3,753.9,906.5,753.9,905.6 M755.2,904.3v2.8l2.4-1.4L755.2,904.3"/>
		<path id="Path_167_00000160884625042597695060000008615206744887549078_" class="st1" d="M755.2,904.3l2.4,1.4l-2.4,1.4V904.3z"/>
	</g>
</g>
<g id="Facebook">
	<rect x="534" class="st0" width="24" height="22"/>
	<path id="Path_148" class="st2" d="M549.6,3.9v2.8h-1.4c-0.2,0-0.4,0.1-0.5,0.3c-0.1,0.2-0.2,0.5-0.2,0.7v1.8h2.1v2.9h-2.1V18h-2.9
		v-5.6h-2.1V9.6h2.1V6.8c0-0.7,0.3-1.5,0.8-2s1.3-0.8,2-0.8L549.6,3.9z"/>
</g>
<g id="WhatsApp">
	<rect x="566" class="st0" width="24" height="22"/>
	<path id="Path_147" class="st2" d="M581.6,12.5c0.1,0,0.2,0.1,0.3,0.2c0,0.1,0.1,0.2,0,0.3c0,0.2-0.1,0.4-0.2,0.6
		c-0.1,0.2-0.3,0.5-0.6,0.6c-0.2,0.1-0.5,0.2-0.7,0.2c-0.2,0.1-0.3,0.1-0.5,0.1c-0.6-0.1-1.2-0.3-1.7-0.6c-0.9-0.4-1.6-1-2.2-1.7
		c-0.5-0.7-0.8-1.1-0.9-1.2s-0.2-0.3-0.4-0.7s-0.3-0.8-0.3-1.3c0-0.4,0.1-0.7,0.3-1.1c0.1-0.2,0.3-0.3,0.4-0.5
		c0.2-0.2,0.4-0.3,0.5-0.2h0.4c0.1,0,0.1,0,0.2,0c0.1,0,0.1,0.1,0.2,0.3L577,9c0.1,0.1,0.1,0.2,0,0.3l-0.2,0.3l-0.3,0.3
		c0,0-0.1,0.1-0.1,0.2c0,0.1,0,0.2,0,0.2c0.1,0.2,0.2,0.4,0.3,0.5c0.2,0.3,0.4,0.6,0.7,0.8c0.3,0.3,0.6,0.5,0.9,0.7l0.6,0.3
		c0.2,0.1,0.3,0.1,0.4,0l0.6-0.7c0.1-0.1,0.1-0.1,0.2-0.1c0.1,0,0.2,0,0.2,0L581.6,12.5z M578,3.5c2,0,3.9,0.8,5.3,2.2
		c1.4,1.4,2.2,3.3,2.2,5.3s-0.8,3.9-2.2,5.3s-3.3,2.2-5.3,2.2c-1.4,0-2.8-0.4-4-1.2l-3.5,1.2l1.2-3.5c-0.8-1.2-1.2-2.6-1.2-4
		c0-2,0.8-3.9,2.2-5.3C574.1,4.3,576,3.5,578,3.5z M578,5c-1.6,0-3.1,0.6-4.3,1.8c-1.1,1.1-1.8,2.7-1.8,4.2c0,1.2,0.4,2.4,1.1,3.4
		l-0.7,2.2l2.2-0.7c1,0.7,2.2,1.1,3.4,1.1c1.6,0,3.1-0.6,4.3-1.8c1.1-1.1,1.8-2.7,1.8-4.2c0-1.6-0.6-3.1-1.8-4.2
		C581.1,5.6,579.6,5,578,5L578,5z"/>
</g>
<g id="Twitter">
	<rect x="598" class="st0" width="24" height="22"/>
	<path id="Path_146" class="st2" d="M617.8,6.1c-0.6,0.3-1.2,0.4-1.8,0.5c0.7-0.4,1.2-1,1.4-1.8c-0.6,0.4-1.3,0.6-2,0.8
		c-0.6-0.7-1.5-1-2.4-1c-0.8,0-1.7,0.3-2.2,0.9c-0.6,0.6-0.9,1.4-0.9,2.3c0,0.2,0,0.5,0.1,0.7c-1.3-0.1-2.6-0.4-3.7-1
		c-1.3-0.5-2.3-1.3-3-2.3c-0.3,0.5-0.4,1-0.4,1.6c0,0.5,0.1,1.1,0.4,1.6c0.2,0.5,0.6,0.8,1,1.1c-0.5,0-1-0.1-1.4-0.4l0,0
		c0,0.8,0.2,1.5,0.7,2.1s1.1,1,1.8,1.1c-0.3,0.1-0.6,0.1-0.8,0.1s-0.4,0-0.6-0.1c0.2,0.6,0.6,1.2,1.1,1.6c0.5,0.4,1.2,0.6,1.9,0.7
		c-0.5,0.4-1.2,0.8-1.8,1c-0.7,0.2-1.4,0.4-2.1,0.4c-0.3,0-0.5,0-0.8,0c0.7,0.5,1.5,0.8,2.3,1.1c0.8,0.3,1.7,0.4,2.6,0.4
		c2.6,0.1,5.1-1,6.8-3c1.5-1.7,2.3-3.9,2.4-6.2V7.9C616.9,7.4,617.4,6.8,617.8,6.1z"/>
</g>
<g id="Telegram">
	<rect x="630" class="st0" width="24" height="22"/>
	<path id="Path_145" class="st2" d="M640.3,16l0.2-3.2l5.7-5.2c0.1-0.1,0.1-0.2,0-0.2s-0.3,0-0.4,0.1l-7.1,4.5l-3.1-1
		c-0.4-0.1-0.5-0.2-0.5-0.4s0.2-0.4,0.6-0.6l12-4.6c0.2-0.1,0.5-0.1,0.7,0.1c0.2,0.3,0.3,0.6,0.1,0.9l-2,9.6
		c-0.2,0.7-0.5,0.9-1.1,0.5l-3.1-2.3l-1.5,1.4c-0.1,0.1-0.2,0.2-0.2,0.2C640.6,16,640.5,16,640.3,16z"/>
</g>
<g id="Home">
	<rect x="662" y="-0.2" class="st0" width="24" height="22"/>
	<path id="Path_1268" class="st2" d="M672.3,17.2v-4.6h3.1v4.6h3.8V11h2.3l-7.6-6.9l-7.6,6.9h2.3v6.1H672.3z"/>
</g>
</svg>
