<svg width="84" height="30" viewBox="0 0 84 30" fill="none" xmlns="http://www.w3.org/2000/svg">
<g clip-path="url(#clip0_19_689)">
<mask id="mask0_19_689" style="mask-type:luminance" maskUnits="userSpaceOnUse" x="0" y="0" width="84" height="30">
<path d="M84 0H0V30H84V0Z" fill="white"/>
</mask>
<g mask="url(#mask0_19_689)">
<path d="M24.6012 0.7992V10.2858H22.134V0.7992H24.6012ZM33.2028 0.7992V10.2858H31.0464V3.8814L30.1848 10.2858H28.6554L27.7476 4.0278V10.2858H25.5912V0.7992H28.782C28.8756 1.3696 28.9756 2.0414 29.082 2.8146L29.4216 5.2284L29.9844 0.798599L33.2028 0.7992ZM34.1928 0.7992H36.6774C37.1987 0.78246 37.72 0.835735 38.2272 0.9576C38.5355 1.03249 38.8174 1.19065 39.042 1.4148C39.2264 1.61943 39.3536 1.86899 39.411 2.1384C39.4878 2.57237 39.5202 3.01305 39.5076 3.4536V4.2798C39.5324 4.72983 39.4686 5.18036 39.3198 5.6058C39.1792 5.89787 38.9334 6.12594 38.6316 6.2442C38.2149 6.40761 37.769 6.48339 37.3218 6.4668H36.6618V10.2858H34.1928V0.7992ZM36.6594 2.4222V4.836C36.7298 4.84 36.7898 4.842 36.8394 4.842C36.9255 4.85184 37.0127 4.84193 37.0944 4.81303C37.1761 4.78413 37.2502 4.73699 37.311 4.6752C37.4221 4.46174 37.468 4.22033 37.443 3.981V3.201C37.4716 2.97845 37.4173 2.75315 37.2906 2.568C37.1035 2.44761 36.8803 2.39626 36.6594 2.4228V2.4222ZM43.8768 0.7992L45.2892 10.2858H42.762L42.642 8.5806H41.7558L41.6094 10.2858H39.0546L40.3086 0.7992H43.8768ZM42.5706 6.8988C42.4458 5.8244 42.3208 4.4982 42.1956 2.9202C41.9456 4.7326 41.7894 6.0588 41.727 6.8988H42.5706ZM51.471 4.9362H49.002V3.2838C49.0217 2.98151 48.995 2.67799 48.9228 2.3838C48.8904 2.32142 48.8395 2.27061 48.7771 2.23837C48.7147 2.20613 48.6438 2.19405 48.5742 2.2038C48.4948 2.19226 48.4139 2.20724 48.3439 2.2464C48.2739 2.28557 48.2188 2.34673 48.1872 2.4204C48.1151 2.72746 48.0874 3.04328 48.105 3.3582V7.7658C48.0879 8.06821 48.1156 8.37148 48.1872 8.6658C48.2171 8.73652 48.2694 8.79548 48.3361 8.83362C48.4027 8.87177 48.48 8.88701 48.5562 8.877C48.631 8.88565 48.7066 8.86972 48.7715 8.83162C48.8365 8.79352 48.8872 8.73531 48.9162 8.6658C48.9924 8.34168 49.0211 8.00818 49.0014 7.6758V6.489H51.468V6.858C51.4997 7.5598 51.4296 8.26251 51.2598 8.9442C51.0855 9.39865 50.7609 9.77976 50.34 10.0242C49.8136 10.3459 49.2045 10.5061 48.588 10.485C47.9685 10.5087 47.3532 10.3737 46.8006 10.0926C46.3607 9.86485 46.0265 9.47499 45.8688 9.0054C45.6905 8.32421 45.6141 7.62038 45.642 6.9168V4.1454C45.6333 3.63184 45.6568 3.11824 45.7122 2.6076C45.7666 2.24822 45.9111 1.90847 46.1322 1.62C46.3824 1.28966 46.716 1.03184 47.0988 0.873C47.5482 0.684034 48.0322 0.591244 48.5196 0.600599C49.1465 0.575456 49.7685 0.720595 50.3196 1.0206C50.7459 1.24857 51.0765 1.62171 51.2514 2.0724C51.4275 2.71016 51.5026 3.37158 51.474 4.0326L51.471 4.9362ZM57.3246 0.7992V2.6976H55.8594V10.2858H53.3928V2.6982H51.9336V0.799799L57.3246 0.7992Z" fill="white"/>
<path d="M6.291 28.7754C10.638 28.7754 13.149 26.8554 13.149 24.1554C13.149 18.4314 4.374 20.8344 4.374 18.3504C4.374 17.5944 5.184 17.0004 7.074 17.0004C8.53967 16.9864 9.98314 17.3589 11.259 18.0804L12.66 15.0864C10.9285 14.2166 9.01137 13.7811 7.074 13.8174C2.835 13.8174 0.351 15.7614 0.351 18.5154C0.351 24.3204 9.126 21.8904 9.126 24.2664C9.126 25.0764 8.397 25.5864 6.453 25.5864C4.67498 25.5795 2.93138 25.0956 1.404 24.1854L0 27.2094C1.35 28.1004 3.834 28.7754 6.291 28.7754ZM23.787 13.8174C22.9413 13.785 22.0976 13.9212 21.305 14.2178C20.5124 14.5145 19.7866 14.9657 19.17 15.5454V8.5254H14.958V28.5594H19.17V21.3774C19.17 18.7044 20.628 17.4624 22.653 17.4624C24.516 17.4624 25.593 18.5424 25.593 20.8914V28.5594H29.805V20.2434C29.808 15.8154 27.216 13.8174 23.787 13.8174Z" fill="#E02A26"/>
<path d="M53.1732 15.9504V14.0334H49.1502V28.5594H53.3622V21.7014C53.3622 18.9204 54.9012 17.6514 57.2232 17.6514C57.5472 17.6514 57.8172 17.6784 58.1682 17.7054V13.8174C55.9272 13.8174 54.1992 14.5464 53.1732 15.9504ZM69.0462 24.8874C68.552 25.2456 67.9555 25.435 67.3452 25.4274C66.2112 25.4274 65.5362 24.7524 65.5362 23.5074V17.5974H69.1542V14.3574H65.5362V10.8204H61.3242V14.3574H59.0862V17.5974H61.3272V23.5644C61.3272 27.0204 63.3252 28.7754 66.7542 28.7754C67.9635 28.8211 69.1585 28.5011 70.1832 27.8574L69.0462 24.8874ZM76.6632 28.7754C81.0102 28.7754 83.5212 26.8554 83.5212 24.1554C83.5212 18.4314 74.7462 20.8344 74.7462 18.3504C74.7462 17.5944 75.5562 17.0004 77.4462 17.0004C78.9119 16.9864 80.3554 17.3589 81.6312 18.0804L83.0352 15.0834C81.3025 14.2141 79.3843 13.7796 77.4462 13.8174C73.2072 13.8174 70.7232 15.7614 70.7232 18.5154C70.7232 24.3204 79.4982 21.8904 79.4982 24.2664C79.4982 25.0764 78.7692 25.5864 76.8252 25.5864C75.0472 25.5795 73.3036 25.0956 71.7762 24.1854L70.3722 27.2094C71.7222 28.1004 74.2062 28.7754 76.6632 28.7754Z" fill="#E02A26"/>
<path d="M48.2778 21.5034C48.2778 25.8978 44.4774 29.46 39.7908 29.46C35.1042 29.46 31.3038 25.8978 31.3038 21.5034C31.3038 17.109 35.1036 13.5468 39.7908 13.5468C44.478 13.5468 48.2778 17.109 48.2778 21.5034Z" fill="#E02A26"/>
<path d="M38.2494 17.0094C38.1473 17.0096 38.0494 17.0502 37.9772 17.1224C37.905 17.1946 37.8644 17.2925 37.8642 17.3946V25.6134C37.8641 25.6641 37.874 25.7142 37.8934 25.7611C37.9127 25.8079 37.941 25.8505 37.9768 25.8864C38.0126 25.9223 38.0551 25.9507 38.1018 25.9702C38.1486 25.9897 38.1988 25.9997 38.2494 25.9998H41.331C41.3817 25.9997 41.4318 25.9897 41.4786 25.9702C41.5254 25.9507 41.5679 25.9223 41.6036 25.8864C41.6394 25.8505 41.6678 25.8079 41.6871 25.7611C41.7064 25.7142 41.7163 25.6641 41.7162 25.6134V17.3934C41.7161 17.2913 41.6754 17.1934 41.6032 17.1212C41.531 17.049 41.4331 17.0084 41.331 17.0082L38.2494 17.0094ZM38.2494 16.3674H41.331C41.6033 16.3674 41.8645 16.4754 42.0571 16.6678C42.2498 16.8602 42.3583 17.1211 42.3588 17.3934V25.6134C42.3587 25.8859 42.2503 26.1473 42.0576 26.34C41.8649 26.5327 41.6036 26.641 41.331 26.6412H38.2494C37.9774 26.6404 37.7168 26.5317 37.5248 26.3391C37.3328 26.1464 37.2251 25.8854 37.2252 25.6134V17.3934C37.2252 17.2585 37.2518 17.1249 37.3034 17.0003C37.355 16.8757 37.4307 16.7624 37.5261 16.6671C37.6215 16.5717 37.7347 16.496 37.8593 16.4444C37.984 16.3928 38.1175 16.3662 38.2524 16.3662" fill="white"/>
<path d="M36.4518 17.3946V25.6146C36.16 25.5943 35.8881 25.4593 35.6954 25.2392C35.5027 25.0191 35.405 24.7317 35.4234 24.4398V18.5688C35.4051 18.2772 35.5028 17.9901 35.6952 17.7702C35.8876 17.5502 36.1591 17.4152 36.4506 17.3946" fill="white"/>
<path d="M43.1292 17.3946C43.4207 17.4152 43.6922 17.5502 43.8846 17.7702C44.077 17.9901 44.1747 18.2772 44.1564 18.5688V24.4398C44.1747 24.7314 44.077 25.0185 43.8846 25.2384C43.6922 25.4584 43.4207 25.5934 43.1292 25.614V17.3946Z" fill="white"/>
</g>
</g>
<defs>
<clipPath id="clip0_19_689">
<rect width="84" height="30" fill="white"/>
</clipPath>
</defs>
</svg>
