<svg xmlns="http://www.w3.org/2000/svg" width="22.502" height="20.832" viewBox="0 0 22.502 20.832">
  <g id="Left-Hand-Arrow" transform="translate(-4.749 -6.645)">
    <path id="Path_1" data-name="Path 1" d="M34.657,21.021l-.376-1.034a1.656,1.656,0,0,0-2.136-.976,1.638,1.638,0,0,0-.965.953c-.032-.017-.06-.039-.092-.055a1.679,1.679,0,0,0-2.213.805c-.016.034-.023.069-.036.1a1.671,1.671,0,0,0-1.374-.1,1.628,1.628,0,0,0-.691.492l-1.948-5.351a1.66,1.66,0,0,0-3.12,1.135l2.116,5.814c-.024.007-.048.01-.072.018l-.568.206A1.812,1.812,0,0,0,22.1,25.355l.3.837a6.086,6.086,0,0,0,2.544,3.1l2.2,1.339a.415.415,0,0,0,.432-.709l-2.2-1.339a5.251,5.251,0,0,1-2.2-2.679l-.3-.837a.983.983,0,0,1,.587-1.26l.568-.206a.071.071,0,0,1,.057,0,.072.072,0,0,1,.038.041L25.3,26.867a.415.415,0,0,0,.78-.284l-.852-2.34h0l-2.742-7.535a.814.814,0,0,1,.027-.625A.829.829,0,0,1,23,15.652a.817.817,0,0,1,1.048.489l2.433,6.684v0l.065.179a.409.409,0,0,0,.079.128.4.4,0,0,0,.031.029.408.408,0,0,0,.084.061.4.4,0,0,0,.042.02.409.409,0,0,0,.1.026c.013,0,.024.005.037.006l.012,0a.416.416,0,0,0,.142-.025.4.4,0,0,0,.091-.056.4.4,0,0,0,.157-.477l-.029-.078-.037-.1a.83.83,0,0,1,1.561-.566l.308.848a.408.408,0,0,0,.079.129.393.393,0,0,0,.031.029.394.394,0,0,0,.232.108c.013,0,.024.005.037.006l.012,0a.415.415,0,0,0,.39-.557l-.308-.848a.815.815,0,0,1,.027-.625.828.828,0,0,1,.485-.431.817.817,0,0,1,1.048.488l.308.848a.415.415,0,0,0,.78-.284l-.308-.848a.831.831,0,0,1,1.561-.568l.376,1.033a8.358,8.358,0,0,1,.482,2.262l.28,3.945a.415.415,0,0,0,.413.386h.03a.415.415,0,0,0,.385-.443l-.28-3.945A9.147,9.147,0,0,0,34.657,21.021Z" transform="translate(-8.467 -3.47)" fill="#fff" stroke="#fff" stroke-width="0.5"/>
    <path id="Path_2" data-name="Path 2" d="M8.31,10.777,6.733,9.864C13.308,6.486,19.709,7.083,26.3,11.7a.455.455,0,0,0,.262.082.449.449,0,0,0,.354-.168.4.4,0,0,0-.091-.58C19.958,6.224,13.274,5.59,6.4,9.092L7.552,7.645a.4.4,0,0,0-.087-.581.457.457,0,0,0-.616.082L5.089,9.353a.4.4,0,0,0-.081.327.418.418,0,0,0,.2.276l2.64,1.529a.46.46,0,0,0,.23.061.447.447,0,0,0,.376-.2A.4.4,0,0,0,8.31,10.777Z" transform="translate(0 0)" fill="#fff" stroke="#fff" stroke-width="0.5"/>
  </g>
</svg>
