<?xml version="1.0" encoding="utf-8"?>
<!-- Generator: Adobe Illustrator 26.2.1, SVG Export Plug-In . SVG Version: 6.00 Build 0)  -->
<svg version="1.1" id="Layer_1" xmlns="http://www.w3.org/2000/svg" xmlns:xlink="http://www.w3.org/1999/xlink" x="0px" y="0px"
	 width="52px" height="52px" viewBox="0 0 52 52" style="enable-background:new 0 0 52 52;" xml:space="preserve">
<style type="text/css">
	.st0{fill:#D74946;}
	.st1{fill:#F0AF31;}
	.st2{fill:#94B224;}
	.st3{fill:#529FD5;}
</style>
<g>
	<path class="st0" d="M28.4,13.9h19c-2.5-5.2-6.9-9.3-12.2-11.6L23.6,13.9H28.4L28.4,13.9z"/>
	<path class="st1" d="M32.5,2.3c-5.4-1.8-11.4-1.7-16.8,0.4v16.4l3.4-3.4L32.5,2.3L32.5,2.3z"/>
	<path class="st2" d="M13.8,4.7C8.7,7.2,4.6,11.6,2.3,16.9l11.6,11.6v-4.8V4.7L13.8,4.7z"/>
	<path class="st3" d="M15.7,32.9L2.3,19.5l0,0C0.5,25,0.6,31,2.7,36.3h16.4L15.7,32.9z"/>
	<path class="st0" d="M23.6,38.2h-19l0,0c2.5,5.2,6.9,9.3,12.2,11.6l11.6-11.6L23.6,38.2L23.6,38.2z"/>
	<path class="st1" d="M32.9,36.3L19.5,49.7l0,0c5.4,1.9,11.4,1.7,16.8-0.4V32.9L32.9,36.3z"/>
	<path class="st2" d="M38.2,23.6v4.8v19l0,0c5.2-2.5,9.3-6.9,11.6-12.2L38.2,23.6z"/>
	<path class="st3" d="M49.3,15.7L49.3,15.7H32.9l0,0l3.4,3.4l13.4,13.4l0,0C51.6,27.1,51.4,21.1,49.3,15.7z"/>
</g>
</svg>
