<svg xmlns="http://www.w3.org/2000/svg" width="14" height="14.088" viewBox="0 0 14 14.088">
  <path id="letter-hindi-a-svgrepo-com" d="M16.351,3H12.438a.783.783,0,1,0,0,1.565h1.174v4.7H9.738a3.905,3.905,0,1,0-6.5-4.3.782.782,0,1,0,1.355.783A2.348,2.348,0,1,1,6.627,9.261a.783.783,0,1,0,0,1.565,2.348,2.348,0,1,1-2.034,3.522.782.782,0,1,0-1.355.783,3.907,3.907,0,1,0,6.5-4.3h3.874V16.3a.783.783,0,1,0,1.565,0V4.565h1.174a.783.783,0,1,0,0-1.565Z" transform="translate(-3.133 -3)" fill="#3a3a3a" opacity="0.6"/>
</svg>
