<svg xmlns="http://www.w3.org/2000/svg" width="10" height="10.063" viewBox="0 0 10 10.063">
  <path id="letter-hindi-a-svgrepo-com" d="M12.574,3h-2.8a.559.559,0,1,0,0,1.118h.839V7.472H7.851A2.79,2.79,0,1,0,3.208,4.4a.559.559,0,0,0,.968.559A1.677,1.677,0,1,1,5.629,7.472a.559.559,0,0,0,0,1.118,1.677,1.677,0,1,1-1.453,2.516.559.559,0,0,0-.968.559A2.79,2.79,0,1,0,7.851,8.59h2.767V12.5a.559.559,0,0,0,1.118,0V4.118h.839a.559.559,0,0,0,0-1.118Z" transform="translate(-3.133 -3)" fill="#3a3a3a"/>
</svg>
