<svg xmlns="http://www.w3.org/2000/svg" width="12" height="12.075" viewBox="0 0 12 12.075">
  <path id="letter-hindi-a-svgrepo-com" d="M14.463,3H11.108a.671.671,0,1,0,0,1.342h1.006V8.366H8.794A3.348,3.348,0,1,0,3.223,4.677a.671.671,0,0,0,1.161.671A2.013,2.013,0,1,1,6.128,8.366a.671.671,0,0,0,0,1.342,2.012,2.012,0,1,1-1.743,3.019.671.671,0,0,0-1.161.671A3.349,3.349,0,1,0,8.794,9.708h3.32v4.7a.671.671,0,0,0,1.342,0V4.342h1.006a.671.671,0,0,0,0-1.342Z" transform="translate(-3.133 -3)" fill="#3a3a3a"/>
</svg>
