<svg xmlns="http://www.w3.org/2000/svg" width="11" height="11.069" viewBox="0 0 11 11.069">
  <path id="letter-hindi-a-svgrepo-com" d="M13.518,3H10.444a.615.615,0,1,0,0,1.23h.922V7.919H8.322A3.069,3.069,0,1,0,3.216,4.537a.615.615,0,1,0,1.065.615,1.845,1.845,0,1,1,1.6,2.767.615.615,0,1,0,0,1.23,1.845,1.845,0,1,1-1.6,2.767.615.615,0,1,0-1.065.615A3.07,3.07,0,1,0,8.322,9.149h3.044v4.3a.615.615,0,1,0,1.23,0V4.23h.922a.615.615,0,1,0,0-1.23Z" transform="translate(-3.133 -3)" fill="#3a3a3a" opacity="0.6"/>
</svg>
