<svg xmlns="http://www.w3.org/2000/svg" width="14.2" height="16.354" viewBox="0 0 14.2 16.354">
  <g id="share" transform="translate(-77.9 38.1)">
    <path id="Path_17" data-name="Path 17" d="M17.308,2a2.692,2.692,0,1,1-2.067,4.418L11.16,9a2.7,2.7,0,0,1-.1,2.355l3.956,2.327a2.682,2.682,0,1,1-.537.934L10.361,12.19a2.692,2.692,0,1,1,.178-4.072l4.19-2.65A2.694,2.694,0,0,1,17.308,2Zm1.615,2.692a1.615,1.615,0,1,0-1.615,1.615A1.615,1.615,0,0,0,18.923,4.692Zm-8.615,5.385a1.615,1.615,0,1,0-1.615,1.615A1.615,1.615,0,0,0,10.308,10.077Zm6.731,3.769a1.615,1.615,0,1,1-1.615,1.615A1.615,1.615,0,0,1,17.038,13.846Z" transform="translate(72 -40)" fill="#3a3a3a" stroke="#3a3a3a" stroke-width="0.2" fill-rule="evenodd"/>
  </g>
</svg>
