<svg xmlns="http://www.w3.org/2000/svg" width="21" height="16.075" viewBox="0 0 21 16.075">
  <g id="Textsize" transform="translate(-1235 -53)">
    <path id="letter-hindi-a-svgrepo-com" d="M14.463,3H11.108a.671.671,0,1,0,0,1.342h1.006V8.366H8.794A3.348,3.348,0,1,0,3.223,4.677a.671.671,0,1,0,1.161.671A2.013,2.013,0,1,1,6.128,8.366a.671.671,0,0,0,0,1.342,2.012,2.012,0,1,1-1.743,3.019.671.671,0,1,0-1.161.671A3.349,3.349,0,1,0,8.794,9.708h3.32v4.7a.671.671,0,1,0,1.342,0V4.342h1.006a.671.671,0,1,0,0-1.342Z" transform="translate(1231.867 54)" fill="#3a3a3a"/>
    <text id="_" data-name="+" transform="translate(1247 66)" fill="#3a3a3a" font-size="12" font-family="SegoeUI, Segoe UI"><tspan x="0" y="0">+</tspan></text>
  </g>
</svg>
