<svg xmlns="http://www.w3.org/2000/svg" width="18" height="18" viewBox="0 0 18 18">
  <g id="whatsapp" transform="translate(0)">
    <path id="XMLID_469_" d="M86.618,83.44c-.023-.011-.9-.442-1.054-.5a.605.605,0,0,0-.2-.045.347.347,0,0,0-.295.175c-.087.13-.352.439-.434.532-.011.012-.025.027-.034.027s-.143-.056-.184-.074A4.6,4.6,0,0,1,82.665,82a.1.1,0,0,1-.015-.035.282.282,0,0,1,.051-.061c.048-.047.1-.109.149-.169l.071-.084a.942.942,0,0,0,.142-.226l.02-.039a.408.408,0,0,0-.012-.384c-.021-.041-.39-.933-.429-1.027-.094-.226-.219-.331-.393-.331l-.067,0a2.1,2.1,0,0,0-.727.187,1.523,1.523,0,0,0-.565,1.3A2.792,2.792,0,0,0,81.5,82.67l.025.036a5.7,5.7,0,0,0,2.444,2.122,3.975,3.975,0,0,0,1.476.378h0a2.305,2.305,0,0,0,.24-.014l.043,0a1.552,1.552,0,0,0,1.082-.766,1.211,1.211,0,0,0,.069-.8A.552.552,0,0,0,86.618,83.44Z" transform="translate(-74.572 -73.654)" fill="#39ae41"/>
    <path id="XMLID_470_" d="M9.16,0A8.818,8.818,0,0,0,.319,8.775a8.71,8.71,0,0,0,1.212,4.437L.013,17.691a.234.234,0,0,0,.292.3L4.975,16.5A8.855,8.855,0,0,0,18,8.775,8.818,8.818,0,0,0,9.16,0Zm0,15.72a7,7,0,0,1-3.853-1.149.234.234,0,0,0-.2-.027l-2.34.744.755-2.228a.234.234,0,0,0-.033-.213A6.851,6.851,0,0,1,2.157,8.775a7,7,0,1,1,7,6.946Z" fill="#39ae41"/>
  </g>
</svg>
