<?xml version="1.0" encoding="utf-8"?>
<!-- Generator: Adobe Illustrator 26.2.1, SVG Export Plug-In . SVG Version: 6.00 Build 0)  -->
<svg version="1.1" id="Layer_1" xmlns="http://www.w3.org/2000/svg" xmlns:xlink="http://www.w3.org/1999/xlink" x="0px" y="0px"
	 width="62px" height="62px" viewBox="0 0 62 62" style="enable-background:new 0 0 62 62;" xml:space="preserve">
<style type="text/css">
	.st0{fill:#3A3A3A;}
	.st1{fill:#FFFFFF;}
</style>
<g>
	
		<image style="overflow:visible;opacity:0.2;" width="62" height="62" xlink:href="27158E74C12BCEFF.png"  transform="matrix(1 0 0 1 0 3)">
	</image>
	<g>
		<circle class="st0" cx="31" cy="31" r="12.5"/>
		<path class="st1" d="M31,19c6.6,0,12,5.4,12,12s-5.4,12-12,12s-12-5.4-12-12S24.4,19,31,19 M31,18c-7.2,0-13,5.8-13,13
			s5.8,13,13,13s13-5.8,13-13S38.2,18,31,18L31,18z"/>
	</g>
</g>
<g>
	<path class="st1" d="M26,26.6h1.9l1.3-1.2h3.8l1.3,1.2H36c0.4,0,0.6,0.1,0.9,0.4s0.4,0.5,0.4,0.9v7.5c0,0.4-0.1,0.6-0.4,0.9
		s-0.5,0.4-0.9,0.4H26c-0.4,0-0.6-0.1-0.9-0.4s-0.4-0.5-0.4-0.9v-7.5c0-0.4,0.1-0.6,0.4-0.9S25.6,26.6,26,26.6z M31,28.5
		c-0.9,0-1.6,0.3-2.2,0.9c-0.6,0.6-0.9,1.3-0.9,2.2c0,0.9,0.3,1.6,0.9,2.2c0.6,0.6,1.3,0.9,2.2,0.9c0.9,0,1.6-0.3,2.2-0.9
		c0.6-0.6,0.9-1.3,0.9-2.2c0-0.9-0.3-1.6-0.9-2.2C32.6,28.8,31.9,28.5,31,28.5z M31,29.7c0.5,0,1,0.2,1.3,0.6s0.5,0.8,0.5,1.3
		s-0.2,1-0.5,1.3s-0.8,0.5-1.3,0.5s-1-0.2-1.3-0.5s-0.5-0.8-0.5-1.3s0.2-1,0.5-1.3S30.5,29.8,31,29.7z"/>
</g>
</svg>
