<?xml version="1.0" encoding="utf-8"?>
<!-- Generator: Adobe Illustrator 26.2.1, SVG Export Plug-In . SVG Version: 6.00 Build 0)  -->
<svg version="1.1" id="Layer_1" xmlns="http://www.w3.org/2000/svg" xmlns:xlink="http://www.w3.org/1999/xlink" x="0px" y="0px"
	 width="62px" height="62px" viewBox="0 0 62 62" style="enable-background:new 0 0 62 62;" xml:space="preserve">
<style type="text/css">
	.st0{fill:#3A3A3A;}
	.st1{fill:#FFFFFF;}
</style>
<g>
	
		<image style="overflow:visible;opacity:0.2;" width="62" height="62" xlink:href="27158E74C12BCEFF.png"  transform="matrix(1 0 0 1 0 3)">
	</image>
	<g>
		<circle class="st0" cx="31" cy="31" r="12.5"/>
		<path class="st1" d="M31,19c6.6,0,12,5.4,12,12s-5.4,12-12,12s-12-5.4-12-12S24.4,19,31,19 M31,18c-7.2,0-13,5.8-13,13
			s5.8,13,13,13s13-5.8,13-13S38.2,18,31,18L31,18z"/>
	</g>
</g>
<polygon class="st1" points="35,31 29,27 29,35 "/>
</svg>
