<svg width="19" height="18" viewBox="0 0 19 18" fill="none" xmlns="http://www.w3.org/2000/svg">
<path d="M2.79532 18C2.27754 18 1.84521 17.8266 1.49834 17.4797C1.15146 17.1328 0.978027 16.7005 0.978027 16.1827V1.8173C0.978027 1.29952 1.15146 0.867188 1.49834 0.520312C1.84521 0.173438 2.27754 0 2.79532 0H14.0021L18.978 4.97596V16.1827C18.978 16.7005 18.8046 17.1328 18.4577 17.4797C18.1108 17.8266 17.6785 18 17.1607 18H2.79532ZM2.79532 16.875H17.1607C17.3626 16.875 17.5285 16.8101 17.6583 16.6803C17.7881 16.5505 17.853 16.3846 17.853 16.1827V5.625H13.353V1.125H2.79532C2.59341 1.125 2.42754 1.1899 2.29774 1.31971C2.16793 1.44951 2.10303 1.61538 2.10303 1.8173V16.1827C2.10303 16.3846 2.16793 16.5505 2.29774 16.6803C2.42754 16.8101 2.59341 16.875 2.79532 16.875ZM4.91553 13.5H15.0405V12.375H4.91553V13.5ZM4.91553 5.625H9.97803V4.5H4.91553V5.625ZM4.91553 9.5625H15.0405V8.4375H4.91553V9.5625Z" fill="#404040"/>
</svg>
