<svg width="20" height="21" viewBox="0 0 20 21" fill="none" xmlns="http://www.w3.org/2000/svg">
<path d="M8.44768 10.0261L6.77384 9.23413L5.89373 11.1527H5.28179C5.03453 11.1527 4.7974 11.251 4.62255 11.4258C4.44771 11.6006 4.34949 11.8378 4.34949 12.085C4.34949 12.3323 4.44771 12.5694 4.62255 12.7443C4.7974 12.9191 5.03453 13.0174 5.28179 13.0174H6.37248C6.58161 13.017 6.78627 12.9568 6.96231 12.8439C7.13835 12.731 7.27842 12.5701 7.36598 12.3802L8.44768 10.0261ZM6.95563 12.1858C6.90424 12.2977 6.82179 12.3925 6.71809 12.4589C6.61439 12.5252 6.4938 12.5604 6.37068 12.5602H5.28179C5.15387 12.5602 5.03118 12.5094 4.94072 12.4189C4.85026 12.3285 4.79944 12.2058 4.79944 12.0778C4.79944 11.9499 4.85026 11.8272 4.94072 11.7368C5.03118 11.6463 5.15387 11.5955 5.28179 11.5955H6.07731C6.10803 11.5955 6.1381 11.5867 6.16395 11.5701C6.1898 11.5535 6.21033 11.5298 6.2231 11.5019L6.99342 9.82807L7.85374 10.2348L7.2274 11.6027L6.95563 12.1858Z" fill="#404040" stroke="#404040" stroke-width="0.3"/>
<path d="M11.349 3.92651C11.6385 3.92651 11.9215 3.84064 12.1621 3.67978C12.4028 3.51892 12.5903 3.29028 12.701 3.0228C12.8117 2.75532 12.8406 2.46102 12.784 2.17712C12.7274 1.89323 12.5879 1.63251 12.383 1.42794C12.1782 1.22337 11.9173 1.08415 11.6334 1.0279C11.3494 0.971641 11.0551 1.00088 10.7878 1.1119C10.5204 1.22293 10.292 1.41076 10.1315 1.65162C9.9709 1.89249 9.88539 2.17557 9.88574 2.46505C9.88622 2.85282 10.0406 3.22454 10.315 3.49857C10.5893 3.77259 10.9612 3.92651 11.349 3.92651ZM11.349 1.46795C11.5465 1.46653 11.74 1.52379 11.9049 1.63248C12.0698 1.74118 12.1987 1.8964 12.2753 2.07847C12.3519 2.26053 12.3727 2.46124 12.335 2.65513C12.2974 2.84902 12.203 3.02736 12.0638 3.16753C11.9246 3.30769 11.747 3.40338 11.5534 3.44244C11.3598 3.4815 11.1589 3.46218 10.9763 3.38692C10.7937 3.31167 10.6375 3.18388 10.5277 3.01975C10.4178 2.85563 10.3591 2.66257 10.3591 2.46505C10.3591 2.20185 10.4632 1.94932 10.6486 1.76253C10.834 1.57574 11.0858 1.46985 11.349 1.46795Z" fill="#404040" stroke="#404040" stroke-width="0.3"/>
<path d="M6.18889 7.35161C6.32889 7.35334 6.46728 7.32157 6.59251 7.25895C6.71775 7.19633 6.8262 7.10469 6.90882 6.99165L6.93941 6.95205L7.45596 5.81996H8.31988L7.43257 7.75837C7.31431 8.01983 7.30186 8.31691 7.39782 8.58735C7.49378 8.85779 7.69071 9.08058 7.94731 9.20902L10.5481 10.4779V13.1344C10.5481 13.3805 10.6458 13.6165 10.8198 13.7905C10.9938 13.9645 11.2298 14.0622 11.4759 14.0622C11.7219 14.0622 11.9579 13.9645 12.1319 13.7905C12.3059 13.6165 12.4037 13.3805 12.4037 13.1344V9.87856C12.4035 9.69752 12.353 9.52009 12.2576 9.36621C12.1622 9.21233 12.0258 9.08809 11.8637 9.00744L10.0315 8.10753L10.6236 6.81346L10.9368 7.13023C11.0372 7.23216 11.1568 7.31313 11.2887 7.36843C11.4207 7.42374 11.5623 7.45228 11.7053 7.4524H12.5459C12.7884 7.45306 13.0219 7.35968 13.197 7.19187C13.3722 7.02406 13.4756 6.79489 13.4854 6.55249C13.4958 6.30265 13.4072 6.05879 13.2388 5.87396C13.1524 5.78266 13.0483 5.70989 12.9329 5.66008C12.8175 5.61026 12.6932 5.58444 12.5675 5.58419H12.0275L11.205 4.76887C11.1558 4.71988 11.0986 4.6797 11.0358 4.65008L9.68414 4.00755C9.60361 3.9697 9.51574 3.95004 9.42676 3.94995H6.68024C6.56132 3.94994 6.44484 3.98378 6.34445 4.04753C6.24405 4.11127 6.16387 4.20228 6.1133 4.30992L5.21339 6.28972C5.1729 6.38275 5.15662 6.48451 5.16606 6.58553C5.1755 6.68655 5.21036 6.78354 5.26738 6.86746C5.37219 7.01483 5.51023 7.13546 5.67033 7.21957C5.83042 7.30368 6.00807 7.34891 6.18889 7.35161ZM5.62195 6.4805L6.52186 4.5007C6.53605 4.47001 6.55861 4.44393 6.58694 4.42547C6.61527 4.40701 6.64823 4.3969 6.68204 4.39631H9.42497C9.44869 4.39652 9.47206 4.40205 9.49336 4.41251L10.8432 5.05504C10.8599 5.0626 10.8751 5.07295 10.8882 5.08564L11.7881 5.98555C11.8177 6.0153 11.8578 6.03213 11.8997 6.03234H12.5603C12.6256 6.03273 12.6902 6.0464 12.7502 6.07253C12.8101 6.09866 12.8641 6.13669 12.9089 6.18433C12.9537 6.23197 12.9883 6.28821 13.0106 6.34965C13.033 6.41108 13.0427 6.47642 13.039 6.54169C13.0316 6.66726 12.9764 6.78523 12.8846 6.87128C12.7929 6.95733 12.6716 7.00492 12.5459 7.00425H11.7035C11.5363 7.00224 11.3765 6.93433 11.259 6.81526L10.647 6.20333C10.6289 6.18498 10.6066 6.17134 10.582 6.16357C10.5575 6.15581 10.5314 6.15416 10.506 6.15877C10.4806 6.16338 10.4568 6.17411 10.4365 6.19003C10.4162 6.20595 10.4002 6.22658 10.3897 6.25012L9.50596 8.18313C9.48795 8.22161 9.48579 8.26562 9.49993 8.30569C9.51407 8.34575 9.54338 8.37865 9.58155 8.39731L11.6675 9.416C11.7543 9.45857 11.8273 9.5247 11.8782 9.60682C11.9292 9.68894 11.9559 9.78373 11.9555 9.88036V13.138C11.956 13.2014 11.944 13.2642 11.9202 13.3229C11.8964 13.3816 11.8612 13.435 11.8168 13.4802C11.7723 13.5253 11.7194 13.5612 11.6611 13.5859C11.6027 13.6106 11.5401 13.6235 11.4768 13.624C11.4134 13.6235 11.3508 13.6106 11.2924 13.5859C11.2341 13.5612 11.1812 13.5253 11.1367 13.4802C11.0923 13.435 11.0571 13.3816 11.0333 13.3229C11.0095 13.2642 10.9975 13.2014 10.998 13.138V10.2961C10.9981 10.2658 10.9898 10.2361 10.9739 10.2104C10.958 10.1846 10.9351 10.1638 10.908 10.1503L9.029 9.23242L8.14709 8.80047C7.99502 8.72611 7.87785 8.59548 7.82041 8.43625C7.76296 8.27701 7.76975 8.10167 7.83932 7.94735L7.98871 7.61978L8.91922 5.60039C8.93068 5.57578 8.93577 5.54869 8.93403 5.52161C8.93229 5.49452 8.92377 5.46831 8.90926 5.44537C8.89475 5.42244 8.8747 5.40351 8.85097 5.39035C8.82723 5.37718 8.80057 5.37019 8.77343 5.37001H7.27058C7.23987 5.36999 7.20979 5.3788 7.18394 5.3954C7.1581 5.41199 7.13756 5.43566 7.1248 5.4636L6.55245 6.72347C6.23568 7.14283 5.52116 6.70188 5.62195 6.4805Z" fill="#404040" stroke="#404040" stroke-width="0.3"/>
<path d="M4.85701 8.56103C5.02119 8.38935 5.11164 8.16022 5.10899 7.92269C5.10634 7.68516 5.0108 7.45811 4.84283 7.29014C4.67486 7.12217 4.44781 7.02663 4.21028 7.02398C3.97275 7.02133 3.74362 7.11178 3.57194 7.27596L2.92941 6.63342L1 8.56103L3.57194 11.1258L5.49955 9.19817L4.85701 8.56103ZM4.53485 7.59633C4.6198 7.68166 4.6675 7.79718 4.6675 7.91759C4.6675 8.03801 4.6198 8.15353 4.53485 8.23886L3.89231 7.59633C3.97693 7.51065 4.09205 7.46198 4.21246 7.46096C4.33288 7.45995 4.4488 7.50668 4.53485 7.59093V7.59633ZM1.64254 8.56103L2.92761 7.27596L4.85701 9.19817L3.57194 10.4832L1.64254 8.56103Z" fill="#404040" stroke="#404040" stroke-width="0.3"/>
<path d="M16.7277 8.651V11.8007H13.5987V14.5004H10.449V17.6501H7.29932V19.861H18.9981V8.651H16.7277ZM18.5482 19.379H7.74927V18.1001H10.899V14.9504H14.0486V12.2506H17.3089V9.10096H18.5482V19.379Z" fill="#404040" stroke="#404040" stroke-width="0.3"/>
</svg>
