<svg width="18" height="18" viewBox="0 0 18 18" fill="none" xmlns="http://www.w3.org/2000/svg">
<path d="M11.4679 10.9723L9.10616 13.334C8.93747 13.5027 8.74365 13.587 8.52471 13.587C8.30577 13.587 8.11195 13.5027 7.94325 13.334L0.262301 5.65303C0.093609 5.48434 0.00627672 5.2983 0.000304222 5.09491C-0.00568382 4.89152 0.0767257 4.70442 0.247533 4.53361L2.63879 2.14235C2.8096 1.97156 3.00327 1.88616 3.21981 1.88616C3.43635 1.88616 3.62898 1.97051 3.79767 2.1392L11.4768 9.81836C11.6455 9.98705 11.7284 10.1794 11.7254 10.3953C11.7224 10.6113 11.6366 10.8036 11.4679 10.9723ZM8.52471 11.9486L10.0825 10.3908L3.20546 3.51383L1.64771 5.07158L8.52471 11.9486ZM15.1504 18L11.1484 13.998L12.1319 13.0146L16.1339 17.0166L15.1504 18ZM15.0588 5.85043C14.2513 5.85043 13.5616 5.56503 12.9897 4.99424C12.4179 4.42345 12.1319 3.73432 12.1319 2.92685C12.1319 2.11938 12.4173 1.4297 12.9881 0.857822C13.5589 0.28594 14.248 0 15.0555 0C15.863 0 16.5526 0.285396 17.1245 0.856189C17.6964 1.42698 17.9823 2.11611 17.9823 2.92358C17.9823 3.73105 17.6969 4.42073 17.1262 4.99261C16.5554 5.56449 15.8662 5.85043 15.0588 5.85043ZM15.0582 4.45065C15.4822 4.45065 15.8423 4.30224 16.1384 4.00542C16.4345 3.7086 16.5826 3.34818 16.5826 2.92417C16.5826 2.50013 16.4342 2.14007 16.1373 1.84396C15.8405 1.54784 15.4801 1.39978 15.0561 1.39978C14.632 1.39978 14.272 1.54819 13.9759 1.84501C13.6797 2.14183 13.5317 2.50225 13.5317 2.92626C13.5317 3.3503 13.6801 3.71036 13.9769 4.00647C14.2737 4.30259 14.6342 4.45065 15.0582 4.45065Z" fill="#404040"/>
</svg>
