<svg width="19" height="18" viewBox="0 0 19 18" fill="none" xmlns="http://www.w3.org/2000/svg">
<path d="M18.088 16.0057L13.4806 11.3818C13.4668 11.368 13.4504 11.357 13.4324 11.3495C13.4143 11.342 13.3949 11.3381 13.3754 11.3381C13.3558 11.3381 13.3365 11.342 13.3184 11.3495C13.3004 11.357 13.284 11.368 13.2702 11.3818L12.7818 11.872L11.3598 10.4434C11.2131 10.6067 11.0564 10.7667 10.8931 10.9167L12.3126 12.3428L11.7984 12.8589C11.7705 12.8869 11.7548 12.9249 11.7548 12.9645C11.7548 13.004 11.7705 13.042 11.7984 13.07L16.4058 17.6939C16.5024 17.7909 16.6171 17.8679 16.7435 17.9204C16.8699 17.973 17.0054 18 17.1423 18C17.2792 18 17.4147 17.973 17.5411 17.9204C17.6675 17.8679 17.7823 17.7909 17.8788 17.6939L18.088 17.4839C18.2834 17.2875 18.3931 17.0218 18.3931 16.7448C18.3931 16.4678 18.2834 16.2021 18.088 16.0057Z" fill="#404040"/>
<path d="M6.39312 2.34274e-06C5.4185 -0.000858834 4.45834 0.235715 3.59567 0.689263C2.73301 1.14281 1.99382 1.79968 1.44203 2.60306C0.890244 3.40644 0.542467 4.33214 0.428779 5.30011C0.315091 6.26808 0.438915 7.24917 0.789543 8.15854C1.14017 9.06791 1.70705 9.87818 2.44114 10.5193C3.17524 11.1603 4.05446 11.613 5.00276 11.8379C5.95105 12.0629 6.93989 12.0535 7.88373 11.8105C8.82758 11.5675 9.69802 11.0983 10.4198 10.4433C10.5863 10.2957 10.7433 10.1376 10.8898 9.97C11.6546 9.10449 12.1532 8.03659 12.3258 6.89457C12.4984 5.75256 12.3376 4.585 11.8627 3.53214C11.3879 2.47929 10.6191 1.58592 9.64888 0.959354C8.67863 0.332785 7.5481 -0.000337611 6.39312 2.34274e-06ZM1.37001 6.02816C1.34982 5.17987 1.54768 4.3406 1.94465 3.59066C2.34161 2.84072 2.92441 2.20522 3.63726 1.74496C3.71172 1.6973 3.80207 1.68117 3.88842 1.70013C3.97477 1.71908 4.05005 1.77157 4.09771 1.84603C4.14537 1.92049 4.16149 2.01084 4.14254 2.09719C4.12358 2.18354 4.0711 2.25882 3.99664 2.30648C3.3789 2.70715 2.87432 3.25964 2.53115 3.91108C2.18799 4.56252 2.01774 5.29113 2.03667 6.02718C2.03673 6.07097 2.02816 6.11433 2.01146 6.15481C1.99476 6.19528 1.97024 6.23207 1.93932 6.26307C1.9084 6.29407 1.87167 6.31867 1.83124 6.33548C1.79081 6.35228 1.74746 6.36095 1.70367 6.361C1.61535 6.361 1.53031 6.32595 1.46782 6.26354C1.40532 6.20113 1.37014 6.11648 1.37001 6.02816ZM1.55751 7.60433C1.53808 7.56509 1.52658 7.5224 1.52368 7.4787C1.52077 7.43501 1.52651 7.39117 1.54057 7.3497C1.55463 7.30823 1.57674 7.26994 1.60562 7.23703C1.6345 7.20411 1.66959 7.17721 1.70888 7.15788C2.62294 6.70621 2.69162 6.02425 2.77105 5.23438C2.79067 4.87242 2.85922 4.51479 2.97483 4.17123C3.3674 3.167 4.45334 2.49284 5.26389 2.22071C5.30541 2.20663 5.3493 2.20089 5.39304 2.20381C5.43679 2.20672 5.47953 2.21824 5.51881 2.23771C5.5581 2.25717 5.59315 2.28419 5.62198 2.31722C5.6508 2.35026 5.67283 2.38865 5.68679 2.43021C5.70075 2.47177 5.70637 2.51568 5.70333 2.55942C5.7003 2.60315 5.68866 2.64586 5.66909 2.68509C5.64952 2.72432 5.6224 2.75931 5.58929 2.78804C5.55618 2.81678 5.51772 2.83869 5.47613 2.85254C4.74859 3.09701 3.88498 3.67448 3.59592 4.4139C3.50387 4.7014 3.44948 4.99962 3.43414 5.30111C3.35178 6.12061 3.24924 7.14046 2.0038 7.75553C1.96458 7.77493 1.92191 7.78641 1.87824 7.78931C1.83458 7.79221 1.79077 7.78648 1.74932 7.77244C1.70787 7.75839 1.66959 7.73632 1.63668 7.70748C1.60377 7.67863 1.57687 7.64358 1.55751 7.60433ZM7.33551 5.79037C7.27275 5.5823 7.14538 5.39961 6.97185 5.26878C6.79832 5.13794 6.58764 5.06575 6.37034 5.06266C6.22026 5.04987 6.07 5.08516 5.94131 5.16343C5.81262 5.24171 5.71218 5.3589 5.65452 5.49805C5.59628 5.67676 5.55508 5.86058 5.53147 6.04705C5.51887 6.13448 5.47208 6.21333 5.40139 6.2663C5.3307 6.31926 5.24188 6.34201 5.15443 6.32955C5.06698 6.31709 4.98805 6.27044 4.93497 6.19983C4.88189 6.12923 4.85899 6.04044 4.87131 5.95297C4.9008 5.72485 4.95192 5.50004 5.02398 5.28159C5.12315 5.00565 5.30989 4.76974 5.55569 4.60986C5.8015 4.44999 6.09286 4.37494 6.38531 4.39617C6.74397 4.40218 7.0914 4.52227 7.3772 4.73904C7.66301 4.95581 7.87234 5.25798 7.97483 5.60174C8.15294 6.33867 8.11164 7.11161 7.85602 7.82537C7.84304 7.86724 7.82194 7.90613 7.79391 7.93983C7.76588 7.97352 7.73147 8.00136 7.69267 8.02174C7.65387 8.04212 7.61142 8.05465 7.56777 8.0586C7.52412 8.06255 7.48011 8.05785 7.43828 8.04477C7.39645 8.03169 7.35761 8.01048 7.32398 7.98237C7.29036 7.95425 7.26261 7.91978 7.24233 7.88092C7.22204 7.84207 7.20963 7.79959 7.20579 7.75593C7.20195 7.71227 7.20676 7.66827 7.21995 7.62647C7.4351 7.03847 7.47524 6.40071 7.33551 5.79037ZM6.80165 5.97965C6.78983 6.22707 6.7632 6.47355 6.7219 6.71777C6.70873 6.79538 6.66854 6.86582 6.60842 6.91664C6.54831 6.96746 6.47216 6.99537 6.39345 6.99544C6.37468 6.99547 6.35595 6.99389 6.33745 6.99072C6.25028 6.97597 6.17254 6.92719 6.12133 6.85513C6.07011 6.78307 6.04961 6.69362 6.06434 6.60644C6.10136 6.38863 6.12516 6.16877 6.13563 5.94808C6.14264 5.86084 6.18256 5.77952 6.2473 5.72062C6.31204 5.66172 6.39674 5.62963 6.48426 5.63086C6.5726 5.63503 6.65566 5.67413 6.71518 5.73954C6.7747 5.80495 6.80581 5.89131 6.80165 5.97965ZM2.27789 8.80436C2.20126 8.80444 2.12695 8.77812 2.06745 8.72984C2.00795 8.68156 1.9669 8.61426 1.95119 8.53926C1.93549 8.46426 1.9461 8.38614 1.98123 8.31805C2.01636 8.24995 2.07388 8.19603 2.1441 8.16536C3.2232 7.6945 3.4618 7.2749 3.54743 7.00033C3.62365 6.71834 3.65863 6.42679 3.65127 6.13477C3.6405 5.71771 3.7049 5.30212 3.84138 4.90788C4.0271 4.41633 4.35965 3.99387 4.79385 3.69792C4.82997 3.67305 4.87064 3.65555 4.91353 3.64643C4.95642 3.63731 5.00069 3.63675 5.0438 3.64477C5.08691 3.65279 5.12802 3.66924 5.16476 3.69317C5.2015 3.71711 5.23316 3.74806 5.25791 3.78425C5.28267 3.82045 5.30004 3.86117 5.30903 3.90409C5.31802 3.94701 5.31845 3.99128 5.3103 4.03437C5.30214 4.07745 5.28557 4.11851 5.26152 4.15517C5.23747 4.19184 5.20642 4.2234 5.17015 4.24805C4.84857 4.46747 4.60221 4.78043 4.46442 5.14453C4.35578 5.46818 4.30606 5.8087 4.31761 6.14991C4.32518 6.50438 4.28009 6.85801 4.18382 7.19924C3.98591 7.83368 3.42243 8.33481 2.41104 8.77638C2.36904 8.79472 2.32372 8.80425 2.27789 8.80436ZM2.98589 9.68473C2.90932 9.68476 2.83508 9.65845 2.77562 9.6102C2.71617 9.56195 2.67513 9.49471 2.6594 9.41978C2.64367 9.34485 2.65421 9.26678 2.68924 9.1987C2.72427 9.13062 2.78166 9.07666 2.85177 9.0459C4.38823 8.37354 4.63725 7.60498 4.74988 6.9375C4.76486 6.85054 4.81369 6.77306 4.88569 6.72204C4.95768 6.67102 5.04697 6.65062 5.13398 6.66531C5.22099 6.68 5.29862 6.72858 5.34988 6.8004C5.40114 6.87223 5.42184 6.96144 5.40744 7.0485C5.26258 7.90641 4.87749 8.8872 3.11935 9.65657C3.07729 9.67508 3.03184 9.68466 2.98589 9.68473ZM4.61612 10.3913C4.54839 10.4481 4.46087 10.4757 4.37281 10.4679C4.28475 10.4602 4.20336 10.4178 4.14655 10.3501C4.08975 10.2824 4.06217 10.1948 4.06989 10.1068C4.07762 10.0187 4.12 9.93734 4.18773 9.88054C4.76729 9.39308 5.24004 8.79129 5.5764 8.11279C5.66966 7.92417 5.75183 7.73027 5.8225 7.53206C5.85233 7.44893 5.91393 7.38103 5.99377 7.34325C6.07361 7.30548 6.16517 7.30092 6.24837 7.33058C6.33156 7.36024 6.3996 7.42169 6.43754 7.50145C6.47548 7.58121 6.48023 7.67277 6.45075 7.75602C6.08377 8.78162 5.45058 9.69113 4.61612 10.3913ZM5.89345 10.9718C5.86158 11.0019 5.82412 11.0253 5.78319 11.0408C5.74226 11.0563 5.69868 11.0637 5.65492 11.0624C5.61117 11.061 5.5681 11.0511 5.52818 11.0332C5.48826 11.0152 5.45227 10.9896 5.42226 10.9577C5.39225 10.9258 5.36881 10.8883 5.35328 10.8474C5.33775 10.8065 5.33044 10.7629 5.33175 10.7192C5.33307 10.6754 5.34299 10.6323 5.36095 10.5924C5.3789 10.5525 5.40455 10.5165 5.43642 10.4865C6.01942 9.92141 6.49948 9.25905 6.85504 8.52913C6.8744 8.48989 6.90131 8.45485 6.93422 8.426C6.96713 8.39715 7.00539 8.37507 7.04684 8.36102C7.08828 8.34696 7.13208 8.34121 7.17575 8.34408C7.21942 8.34695 7.26209 8.3584 7.30133 8.37776C7.34058 8.39713 7.37562 8.42403 7.40447 8.45694C7.43331 8.48985 7.45539 8.52812 7.46945 8.56956C7.48351 8.611 7.48926 8.65481 7.48639 8.69847C7.48352 8.74214 7.47207 8.78481 7.45271 8.82406C7.06185 9.62524 6.53418 10.3521 5.89345 10.9718ZM7.53994 10.9668C7.4778 10.9667 7.41691 10.9493 7.36414 10.9165C7.31138 10.8837 7.26884 10.8367 7.24132 10.781C7.2138 10.7253 7.2024 10.663 7.2084 10.6012C7.2144 10.5393 7.23757 10.4804 7.27529 10.431C8.3137 9.07243 9.14931 6.14518 8.176 4.88542C7.93666 4.54315 7.60858 4.27256 7.22701 4.10274C6.84544 3.93292 6.42481 3.87028 6.01031 3.92155C5.92286 3.9345 5.83384 3.91218 5.76284 3.8595C5.69184 3.80682 5.64468 3.72809 5.63173 3.64063C5.61877 3.55318 5.6411 3.46416 5.69378 3.39316C5.74646 3.32216 5.82519 3.275 5.91265 3.26205C6.44414 3.19522 6.98382 3.27286 7.47491 3.48682C7.96601 3.70077 8.39036 4.04313 8.70334 4.47786C9.91883 6.05094 8.98329 9.29427 7.80523 10.8359C7.77405 10.8767 7.73389 10.9097 7.68788 10.9324C7.64186 10.9551 7.59124 10.9669 7.53994 10.9668ZM6.05979 2.37175C6.05947 2.32796 6.06779 2.28454 6.08426 2.24397C6.10072 2.2034 6.12502 2.16647 6.15576 2.13529C6.18651 2.10411 6.22309 2.07929 6.26342 2.06225C6.30376 2.04521 6.34705 2.03628 6.39084 2.03597C6.81795 2.03215 7.24264 2.10044 7.64703 2.23797C7.73055 2.26698 7.79914 2.32798 7.83769 2.40756C7.87624 2.48713 7.8816 2.57876 7.85259 2.66229C7.82358 2.74582 7.76258 2.8144 7.68301 2.85295C7.60343 2.8915 7.5118 2.89686 7.42828 2.86786C7.10362 2.75673 6.76263 2.70083 6.41949 2.70249C6.41102 2.70249 6.40419 2.70282 6.39312 2.70265C6.30514 2.70265 6.22072 2.66786 6.15828 2.60587C6.09584 2.54389 6.06043 2.45973 6.05979 2.37175ZM9.24143 10.1333C9.18798 10.2037 9.10875 10.2501 9.02114 10.2621C8.93354 10.2741 8.84475 10.2509 8.7743 10.1974C8.70385 10.144 8.65752 10.0647 8.64549 9.97714C8.63347 9.88954 8.65673 9.80075 8.71018 9.7303C9.39424 8.60585 9.70412 7.29344 9.59527 5.98176C9.5691 5.46465 9.43449 4.95882 9.2002 4.49709C8.9659 4.03536 8.63713 3.62805 8.23524 3.30159C8.20006 3.27522 8.17045 3.24215 8.14811 3.20428C8.12577 3.16642 8.11114 3.1245 8.10507 3.08096C8.09901 3.03741 8.10161 2.9931 8.11275 2.95056C8.12389 2.90803 8.14333 2.86812 8.16996 2.83314C8.19659 2.79816 8.22988 2.76879 8.26791 2.74673C8.30595 2.72467 8.34797 2.71036 8.39156 2.70461C8.43515 2.69887 8.47944 2.7018 8.52189 2.71326C8.56434 2.72471 8.6041 2.74445 8.63889 2.77134C9.11572 3.15455 9.50651 3.63388 9.78581 4.17814C10.0651 4.72239 10.2267 5.31936 10.26 5.93019C10.3829 7.40443 10.0256 8.87886 9.24143 10.1333ZM10.0315 3.69011C9.62327 2.9837 9.01931 2.41055 8.29252 2.03988C7.76247 1.78415 7.18636 1.63774 6.59853 1.60939C6.0107 1.58103 5.42317 1.67131 4.87097 1.87484C4.78799 1.90457 4.69661 1.90022 4.61683 1.86275C4.53704 1.82529 4.47534 1.75775 4.44522 1.67491C4.4151 1.59207 4.41901 1.50068 4.4561 1.42071C4.49318 1.34075 4.56043 1.27873 4.64312 1.24821C5.27982 1.01415 5.95712 0.91067 6.63466 0.943943C7.3122 0.977215 7.9761 1.14656 8.5868 1.44188C9.42917 1.86916 10.1297 2.53132 10.6037 3.34829C10.6262 3.38587 10.641 3.4275 10.6474 3.4708C10.6537 3.5141 10.6515 3.55823 10.6408 3.60067C10.6301 3.64311 10.6111 3.68303 10.585 3.71814C10.5589 3.75326 10.5261 3.78288 10.4885 3.80532C10.4509 3.82777 10.4093 3.84259 10.366 3.84894C10.3227 3.8553 10.2786 3.85306 10.2361 3.84236C10.1937 3.83166 10.1538 3.81271 10.1186 3.78658C10.0835 3.76045 10.0539 3.72768 10.0315 3.69011ZM10.7873 8.42806C10.7343 8.42794 10.682 8.41519 10.6349 8.39087C10.5878 8.36655 10.5471 8.33136 10.5163 8.28821C10.4855 8.24505 10.4654 8.19518 10.4576 8.14271C10.4499 8.09025 10.4548 8.0367 10.4719 7.98649C10.8596 6.84994 10.84 5.61395 10.4165 4.49023C10.3856 4.40758 10.3887 4.31603 10.4252 4.23567C10.4617 4.15532 10.5286 4.09271 10.6112 4.06159C10.6937 4.03047 10.7853 4.03338 10.8657 4.06968C10.9462 4.10598 11.0089 4.1727 11.0402 4.25521C11.5184 5.52392 11.5405 6.91943 11.1027 8.20264C11.0802 8.26838 11.0377 8.32545 10.9811 8.36586C10.9246 8.40627 10.8568 8.42802 10.7873 8.42806Z" fill="#404040"/>
</svg>
