<svg width="20" height="20" viewBox="0 0 20 20" fill="none" xmlns="http://www.w3.org/2000/svg">
<path d="M10 12.9167L13.75 9.16667L12.5625 8L10 10.5625L7.43752 8L6.25002 9.16667L10 12.9167ZM10 18.3333C8.84724 18.3333 7.76391 18.1146 6.75002 17.6771C5.73613 17.2396 4.85419 16.6458 4.10419 15.8958C3.35419 15.1458 2.76044 14.2639 2.32294 13.25C1.88544 12.2361 1.66669 11.1528 1.66669 10C1.66669 8.84722 1.88544 7.76389 2.32294 6.75C2.76044 5.73611 3.35419 4.85417 4.10419 4.10417C4.85419 3.35417 5.73613 2.76042 6.75002 2.32292C7.76391 1.88542 8.84724 1.66667 10 1.66667C11.1528 1.66667 12.2361 1.88542 13.25 2.32292C14.2639 2.76042 15.1459 3.35417 15.8959 4.10417C16.6459 4.85417 17.2396 5.73611 17.6771 6.75C18.1146 7.76389 18.3334 8.84722 18.3334 10C18.3334 11.1528 18.1146 12.2361 17.6771 13.25C17.2396 14.2639 16.6459 15.1458 15.8959 15.8958C15.1459 16.6458 14.2639 17.2396 13.25 17.6771C12.2361 18.1146 11.1528 18.3333 10 18.3333Z" fill="#BBBBBB"/>
</svg>
