<svg width="15" height="18" viewBox="0 0 15 18" fill="none" xmlns="http://www.w3.org/2000/svg">
<path d="M6.92591 12H8.93882V9.48386H11.4549V7.47096H8.93882V4.95483H6.92591V7.47096H4.40979V9.48386H6.92591V12ZM7.93236 18C5.91042 17.4 4.23075 16.1752 2.89334 14.3255C1.55592 12.4758 0.887207 10.3923 0.887207 8.07483V2.63225L7.93236 0L14.9775 2.63225V8.07483C14.9775 10.3923 14.3088 12.4758 12.9714 14.3255C11.634 16.1752 9.95431 17.4 7.93236 18ZM7.93236 16.9316C9.67688 16.3781 11.1195 15.271 12.2601 13.6103C13.4007 11.9497 13.9711 10.1045 13.9711 8.07483V3.31935L7.93236 1.07418L1.89366 3.31935V8.07483C1.89366 10.1045 2.46398 11.9497 3.60463 13.6103C4.74527 15.271 6.18785 16.3781 7.93236 16.9316Z" fill="#404040"/>
</svg>
