<svg xmlns="http://www.w3.org/2000/svg" xmlns:xlink="http://www.w3.org/1999/xlink" width="1070" height="382" viewBox="0 0 1070 382">
  <defs>
    <clipPath id="clip-path">
      <rect id="Rectangle_4" data-name="Rectangle 4" width="1070" height="382" transform="translate(0 0.144)" fill="none"/>
    </clipPath>
  </defs>
  <g id="Impact_Shorts" data-name="Impact Shorts" transform="translate(0 -0.145)">
    <g id="Group_2" data-name="Group 2" transform="translate(0 0.001)" clip-path="url(#clip-path)">
      <g id="Group_10" data-name="Group 10" transform="translate(0 7.615)">
        <path id="Path_22" data-name="Path 22" d="M32.247-13.581V107.26H.82V-13.581Zm109.568,0V107.26H114.347V25.68l-10.975,81.58H83.89L72.327,27.545V107.26H44.858V-13.581H85.5q1.788,10.9,3.821,25.672L93.65,42.838l7.169-56.427Zm12.611,0h31.649a74.3,74.3,0,0,1,19.742,2.018A22.065,22.065,0,0,1,216.2-5.74a19.986,19.986,0,0,1,4.7,9.217,82.542,82.542,0,0,1,1.23,16.753V30.755a43.839,43.839,0,0,1-2.392,16.891,16.348,16.348,0,0,1-8.766,8.132,41.485,41.485,0,0,1-16.684,2.836h-8.407V107.26h-31.45Zm31.42,20.674V37.84q1.345.076,2.293.076a7.268,7.268,0,0,0,6.007-2.125,15.637,15.637,0,0,0,1.681-8.843V17.013a11.648,11.648,0,0,0-1.941-8.063,12.175,12.175,0,0,0-8.04-1.85Zm91.936-20.674L295.773,107.26H263.581l-1.529-21.721H250.764L248.9,107.26H216.356L232.33-13.581Zm-16.638,77.7q-2.385-20.529-4.777-50.68-4.777,34.63-5.969,50.68Zm113.374-25h-31.45V18.068A37.771,37.771,0,0,0,342.058,6.6a4.326,4.326,0,0,0-4.44-2.293,4.639,4.639,0,0,0-4.93,2.759,42.037,42.037,0,0,0-1.047,11.946V75.16a39.17,39.17,0,0,0,1.047,11.464,4.471,4.471,0,0,0,4.7,2.69,4.418,4.418,0,0,0,4.586-2.69,43.732,43.732,0,0,0,1.085-12.611V58.9h31.42v4.7a92.633,92.633,0,0,1-2.652,26.574,27.155,27.155,0,0,1-11.717,13.757,40.163,40.163,0,0,1-22.317,5.87,46.308,46.308,0,0,1-22.768-5A24.312,24.312,0,0,1,303.156,90.95a90.866,90.866,0,0,1-2.889-26.6v-35.3a156.974,156.974,0,0,1,.894-19.589,27.423,27.423,0,0,1,5.35-12.58,29.754,29.754,0,0,1,12.313-9.515,50.512,50.512,0,0,1,41.027,1.88,25.764,25.764,0,0,1,11.869,13.4,80.657,80.657,0,0,1,2.836,24.969Zm74.564-52.7V10.6H430.417V107.26H399V10.608H380.41V-13.574Z" transform="translate(281.125 16.147)" fill="#0b1f41" stroke="#fff" stroke-width="4"/>
        <path id="Path_23" data-name="Path 23" d="M81.035,224.556c55.372,0,87.358-24.457,87.358-58.85,0-72.913-111.777-42.3-111.777-73.945,0-9.63,10.318-17.2,34.393-17.2a106.236,106.236,0,0,1,53.309,13.757l17.846-38.138A152.153,152.153,0,0,0,91.009,34.02c-54,0-85.638,24.763-85.638,59.844,0,73.945,111.777,42.991,111.777,73.257,0,10.318-9.286,16.814-34.049,16.814a126.6,126.6,0,0,1-64.315-17.846L.9,204.609C18.1,215.958,49.738,224.556,81.035,224.556ZM303.9,34.02a81.328,81.328,0,0,0-58.812,22.011V-33.39H191.436V221.8h53.653V130.32c0-34.049,18.572-49.87,44.367-49.87,23.731,0,37.45,13.757,37.45,43.679V221.8h53.653V115.875C380.6,59.471,347.58,34.02,303.9,34.02Z" transform="translate(-0.9 134.372)" fill="#e02a26" stroke="#fff" stroke-width="4"/>
        <path id="Path_24" data-name="Path 24" d="M54.485,35.781V11.363H3.24V196.4H56.893V109.038c0-35.425,19.6-51.589,49.182-51.589,4.127,0,7.566.344,12.038.688V8.611C89.566,8.611,67.555,17.9,54.485,35.781Zm202.192,113.84A36.158,36.158,0,0,1,235.01,156.5c-14.445,0-23.043-8.6-23.043-24.457V56.761h46.086V15.49H211.966V-29.565H158.314V15.49H129.806V56.761h28.546v76.008c0,44.023,25.451,66.378,69.13,66.378a76.673,76.673,0,0,0,43.679-11.694ZM353.7,199.148c55.372,0,87.358-24.457,87.358-58.85,0-72.913-111.777-42.3-111.777-73.945,0-9.63,10.318-17.2,34.393-17.2a106.236,106.236,0,0,1,53.309,13.757L434.87,24.738A152.154,152.154,0,0,0,363.677,8.611c-54,0-85.638,24.763-85.638,59.844,0,73.945,111.777,42.991,111.777,73.257,0,10.318-9.286,16.814-34.049,16.814a126.6,126.6,0,0,1-64.315-17.846L273.568,179.2C290.764,190.549,322.406,199.148,353.7,199.148Z" transform="translate(622.84 159.781)" fill="#e02a26" stroke="#fff" stroke-width="4"/>
        <path id="Path_2" data-name="Path 2" d="M246.232,114.483c0,55.976-48.41,101.352-108.108,101.352S30.016,170.459,30.016,114.483,78.418,13.131,138.124,13.131,246.232,58.507,246.232,114.483" transform="translate(368.735 151.814)" fill="#e02a26" stroke="#fff" stroke-width="4"/>
        <path id="Path_3" data-name="Path 3" d="M48.646,23.981a4.914,4.914,0,0,0-4.907,4.907V133.58a4.914,4.914,0,0,0,4.907,4.922H87.9a4.914,4.914,0,0,0,4.907-4.922V28.873A4.914,4.914,0,0,0,87.9,23.966Zm0-8.178H87.9a13.092,13.092,0,0,1,13.092,13.069V133.58A13.1,13.1,0,0,1,87.9,146.672H48.646A13.085,13.085,0,0,1,35.6,133.58V28.873A13.085,13.085,0,0,1,48.685,15.788" transform="translate(438.578 185.071)" fill="#fff"/>
        <path id="Path_4" data-name="Path 4" d="M47.025,16.758V121.465a14.109,14.109,0,0,1-13.1-14.965V31.715A14.109,14.109,0,0,1,47.009,16.758" transform="translate(417.302 197.201)" fill="#fff"/>
        <path id="Path_5" data-name="Path 5" d="M41.163,16.758A14.109,14.109,0,0,1,54.248,31.715V106.5a14.109,14.109,0,0,1-13.085,14.957Z" transform="translate(508.221 197.201)" fill="#fff"/>
      </g>
    </g>
  </g>
</svg>
