<svg width="23" height="43" viewBox="0 0 23 43" fill="none" xmlns="http://www.w3.org/2000/svg">
<path d="M0.25 4.62427C0.25 2.5532 1.92893 0.874268 4 0.874268H19C21.0711 0.874268 22.75 2.5532 22.75 4.62427V38.3743C22.75 40.4453 21.0711 42.1243 19 42.1243H4C1.92893 42.1243 0.25 40.4453 0.25 38.3743V4.62427Z" fill="#E1281C"/>
<path d="M4 4.62427H19V30.8743H4V4.62427Z" fill="white"/>
<path d="M14.3125 35.5618C14.3125 37.1151 13.0533 38.3743 11.5 38.3743C9.9467 38.3743 8.6875 37.1151 8.6875 35.5618C8.6875 34.0085 9.9467 32.7493 11.5 32.7493C13.0533 32.7493 14.3125 34.0085 14.3125 35.5618Z" fill="white"/>
<path d="M9.625 25.2493V19.2493H7.75V10.2493H14L12.75 15.4993H15.25L9.625 25.2493Z" fill="#F9E243"/>
</svg>
