<svg width="20" height="20" viewBox="0 0 20 20" fill="none" xmlns="http://www.w3.org/2000/svg">
<path d="M13.9554 8.03681H11.0797L10.2353 5.54947C10.2177 5.49502 10.1833 5.44755 10.1371 5.41388C10.0908 5.3802 10.0351 5.36206 9.97784 5.36206C9.92062 5.36206 9.86487 5.3802 9.81861 5.41388C9.77235 5.44755 9.73796 5.49502 9.72038 5.54947L8.8869 8.03681H6.00027C5.94424 8.03684 5.88958 8.05412 5.84372 8.08631C5.79785 8.1185 5.76302 8.16403 5.74395 8.21672C5.72487 8.2694 5.72249 8.32668 5.73712 8.38077C5.75176 8.43486 5.78269 8.48312 5.82572 8.51901L8.07306 10.3932L6.87739 13.893C6.8572 13.9498 6.85642 14.0117 6.87518 14.0691C6.89393 14.1264 6.93116 14.1759 6.98103 14.2098C7.03091 14.2437 7.09062 14.2601 7.15082 14.2565C7.21103 14.2529 7.26833 14.2294 7.31376 14.1897L9.97784 11.9642L12.6441 14.1897C12.6898 14.2279 12.7468 14.25 12.8063 14.2528C12.8657 14.2555 12.9245 14.2388 12.9736 14.205C13.0226 14.1715 13.0594 14.1229 13.0783 14.0666C13.0972 14.0102 13.0972 13.9493 13.0783 13.893L11.8826 10.3823L14.1234 8.5081C14.1664 8.47221 14.1974 8.42395 14.212 8.36986C14.2266 8.31577 14.2243 8.25849 14.2052 8.20581C14.1861 8.15312 14.1513 8.10759 14.1054 8.0754C14.0596 8.04321 14.0049 8.02593 13.9489 8.0259L13.9554 8.03681ZM9.97784 6.48332L10.5037 8.03681H9.452L9.97784 6.48332ZM6.75302 8.57137H8.69053L8.25415 9.82814L6.75302 8.57137ZM7.7065 13.1533L8.52252 10.7533L9.55237 11.6107L7.7065 13.1533ZM8.71017 10.2056L9.26655 8.57574H10.6891L11.2455 10.2056L9.97784 11.2573L8.71017 10.2056ZM12.2492 13.149L10.4033 11.6216L11.4331 10.7642L12.2492 13.149ZM11.6928 9.82814L11.2564 8.57137H13.1939L11.6928 9.82814Z" fill="#404040" stroke="#404040" stroke-width="0.4"/>
<path d="M18.4326 5.89199C18.4316 5.33752 18.2217 4.80377 17.8449 4.39702C17.4681 3.99027 16.9519 3.74035 16.3991 3.69702C14.9007 2.16826 12.9059 1.22438 10.7737 1.03519C8.64144 0.846004 6.51165 1.42393 4.76751 2.665C4.49236 2.43704 4.14238 2.31933 3.7854 2.33469C3.42842 2.35005 3.08985 2.49738 2.8353 2.74813C2.58074 2.99888 2.42834 3.33519 2.4076 3.6919C2.38687 4.04861 2.49929 4.40032 2.72309 4.67887C1.58374 6.21868 0.97158 8.08498 0.977583 10.0005C0.977689 11.3291 1.27194 12.6412 1.83921 13.8426C2.40649 15.044 3.23271 16.1049 4.25857 16.9492C5.28444 17.7934 6.48449 18.4001 7.7726 18.7257C9.0607 19.0512 10.4049 19.0875 11.7087 18.832C13.0125 18.5765 14.2436 18.0355 15.3135 17.2478C16.3835 16.4602 17.2658 15.4454 17.8971 14.2764C18.5284 13.1074 18.8931 11.8131 18.9649 10.4864C19.0368 9.15976 18.814 7.83365 18.3126 6.60329C18.3918 6.37449 18.4323 6.13411 18.4326 5.89199ZM17.8871 5.89199C17.8871 6.21996 17.7899 6.54056 17.6077 6.81326C17.4255 7.08595 17.1665 7.29849 16.8635 7.424C16.5605 7.5495 16.2271 7.58234 15.9054 7.51836C15.5837 7.45438 15.2883 7.29644 15.0564 7.06454C14.8245 6.83263 14.6665 6.53716 14.6025 6.2155C14.5386 5.89383 14.5714 5.56042 14.6969 5.25742C14.8224 4.95442 15.035 4.69544 15.3076 4.51323C15.5803 4.33102 15.9009 4.23377 16.2289 4.23377C16.6685 4.23434 17.09 4.40923 17.4008 4.72009C17.7117 5.03094 17.8866 5.45238 17.8871 5.89199ZM10.7502 16.2232C10.7325 15.8456 10.583 15.4862 10.3276 15.2076C10.0722 14.929 9.72712 14.7488 9.35252 14.6985C8.97793 14.6481 8.59753 14.7308 8.27761 14.932C7.95769 15.1333 7.71852 15.4404 7.60176 15.7999C6.76159 15.4523 6.00709 14.9261 5.3906 14.2577C4.77411 13.5894 4.3104 12.7949 4.03163 11.9295C3.75285 11.064 3.66569 10.1483 3.77619 9.24576C3.88669 8.34325 4.1922 7.47558 4.67153 6.70294C5.15086 5.9303 5.79254 5.27118 6.55206 4.77131C7.31157 4.27144 8.17074 3.94278 9.06996 3.80813C9.96918 3.67348 10.8869 3.73607 11.7596 3.99154C12.6322 4.24701 13.4388 4.68926 14.1234 5.28761C14.0348 5.59205 14.0132 5.91209 14.0602 6.22567C14.1072 6.53924 14.2217 6.83889 14.3957 7.10395C14.5697 7.36901 14.7991 7.59319 15.0682 7.76101C15.3372 7.92883 15.6394 8.03632 15.954 8.07605C16.1535 8.69794 16.2536 9.34739 16.2507 10.0005C16.2469 11.529 15.6863 13.0039 14.674 14.1491C13.6616 15.2944 12.2667 16.0317 10.7502 16.2232ZM10.2069 16.2952C10.2069 16.5066 10.1442 16.7133 10.0267 16.8892C9.90927 17.065 9.7423 17.202 9.54694 17.2829C9.35159 17.3638 9.13662 17.385 8.92923 17.3438C8.72184 17.3025 8.53134 17.2007 8.38182 17.0512C8.23231 16.9017 8.13048 16.7112 8.08923 16.5038C8.04798 16.2964 8.06915 16.0814 8.15007 15.8861C8.23099 15.6907 8.36802 15.5237 8.54384 15.4062C8.71965 15.2888 8.92636 15.2261 9.13781 15.2261C9.42118 15.2266 9.69278 15.3395 9.89315 15.5398C10.0935 15.7402 10.2064 16.0118 10.2069 16.2952ZM3.8533 2.88318C4.03109 2.88318 4.20489 2.93591 4.35272 3.03468C4.50055 3.13346 4.61577 3.27385 4.6838 3.43811C4.75184 3.60237 4.76964 3.78311 4.73496 3.95749C4.70027 4.13187 4.61466 4.29204 4.48894 4.41776C4.36322 4.54348 4.20305 4.62909 4.02867 4.66378C3.8543 4.69846 3.67355 4.68066 3.50929 4.61262C3.34503 4.54459 3.20464 4.42937 3.10586 4.28154C3.00709 4.13371 2.95436 3.95991 2.95436 3.78212C2.95436 3.54371 3.04907 3.31506 3.21766 3.14648C3.38624 2.97789 3.61489 2.88318 3.8533 2.88318ZM18.4326 10.0005C18.4326 12.2428 17.5418 14.3933 15.9563 15.9789C14.3707 17.5645 12.2202 18.4552 9.97783 18.4552C7.73548 18.4552 5.58498 17.5645 3.9994 15.9789C2.41382 14.3933 1.52305 12.2428 1.52305 10.0005C1.51758 8.21528 2.08335 6.47515 3.13764 5.03452C3.35513 5.16042 3.602 5.22665 3.8533 5.22652C4.10435 5.22606 4.35096 5.16027 4.56888 5.03563C4.7868 4.91098 4.96854 4.73177 5.09621 4.5156C5.22388 4.29944 5.2931 4.05377 5.29706 3.80275C5.30102 3.55173 5.23958 3.304 5.11879 3.08392C6.69308 1.97659 8.59829 1.44003 10.5191 1.56303C12.4399 1.68603 14.2611 2.46122 15.6813 3.7603C15.1209 3.90734 14.6402 4.2675 14.3416 4.76396C13.5821 4.13156 12.6942 3.67193 11.7394 3.41695C10.7846 3.16196 9.78572 3.11773 8.8121 3.28731C7.83848 3.45688 6.9134 3.83622 6.10101 4.399C5.28863 4.96179 4.60839 5.69455 4.10746 6.54647C3.60654 7.3984 3.29693 8.34908 3.20009 9.33261C3.10326 10.3161 3.22153 11.3089 3.54669 12.2422C3.87186 13.1755 4.39614 14.0268 5.08317 14.7372C5.7702 15.4476 6.60354 16.0001 7.5254 16.3563C7.54034 16.7361 7.68878 17.0984 7.9446 17.3795C8.20041 17.6606 8.5472 17.8425 8.9239 17.893C9.3006 17.9436 9.68307 17.8597 10.004 17.656C10.3249 17.4523 10.5636 17.142 10.6782 16.7796C11.6749 16.6803 12.6373 16.362 13.4967 15.8476C14.3562 15.3332 15.0914 14.6354 15.6498 13.8039C16.2082 12.9724 16.5761 12.0278 16.7271 11.0377C16.8781 10.0475 16.8086 9.03621 16.5235 8.07605C17.0999 8.00057 17.623 7.70017 17.9788 7.24039C18.2823 8.12883 18.4357 9.06163 18.4326 10.0005Z" fill="#404040" stroke="#404040" stroke-width="0.4"/>
</svg>
