<svg width="17" height="20" viewBox="0 0 17 20" fill="none" xmlns="http://www.w3.org/2000/svg">
<path d="M2.58931 1.00092C2.54084 1.01017 2.4972 1.03624 2.46609 1.07453C2.43497 1.11283 2.41839 1.16088 2.41926 1.21021V3.4274C2.41926 3.4829 2.44132 3.53613 2.48057 3.57538C2.51981 3.61463 2.57304 3.63668 2.62855 3.63669H6.64433C6.69984 3.63668 6.75307 3.61463 6.79232 3.57538C6.83157 3.53613 6.85362 3.4829 6.85362 3.4274V1.21021C6.85362 1.15471 6.83157 1.10148 6.79232 1.06223C6.75307 1.02298 6.69984 1.00093 6.64433 1.00092H2.62855C2.6155 0.999693 2.60236 0.999693 2.58931 1.00092ZM2.83784 1.4195H6.43504V3.2181H2.83784V1.4195ZM2.70703 4.99054C1.7654 4.99054 1 5.74357 1 6.67796V17.1098C1 18.0442 1.7654 18.7972 2.70703 18.7972H5.01578C5.04352 18.7976 5.07105 18.7925 5.09679 18.7822C5.12252 18.7718 5.14595 18.7565 5.1657 18.737C5.18545 18.7175 5.20113 18.6943 5.21184 18.6687C5.22254 18.6432 5.22806 18.6157 5.22806 18.588C5.22806 18.5602 5.22254 18.5328 5.21184 18.5072C5.20113 18.4816 5.18545 18.4584 5.1657 18.4389C5.14595 18.4194 5.12252 18.4041 5.09679 18.3937C5.07105 18.3834 5.04352 18.3783 5.01578 18.3787H2.70703C1.98736 18.3787 1.41858 17.8168 1.41858 17.1098V6.67796C1.41858 5.97096 1.98736 5.40913 2.70703 5.40913H6.56585C7.28553 5.40913 7.8543 5.97096 7.8543 6.67796V10.2817C6.5359 10.7188 5.61096 12.0567 5.61096 13.6565C5.61096 14.8598 6.14897 16.1776 6.95827 17.2079C7.76757 18.2383 8.85519 19 9.99954 19C10.347 19 10.7378 18.8654 11.046 18.5487C11.3547 18.8677 11.7438 19 12.0925 19C13.2368 19 14.331 18.2383 15.1403 17.2079C15.9496 16.1776 16.4876 14.8598 16.4876 13.6565C16.4876 11.7002 15.1025 10.1247 13.309 10.1247C12.537 10.1247 11.9005 10.3807 11.2618 10.7003C11.272 10.3346 11.3238 9.94914 11.4253 9.57534C11.4554 9.59198 11.4891 9.60096 11.5234 9.6015C12.5071 9.6015 13.1761 9.36505 13.5837 8.90168C13.9912 8.43831 14.1134 7.79389 14.1134 7.04422C14.1134 6.98871 14.0914 6.93548 14.0521 6.89623C14.0129 6.85698 13.9596 6.83493 13.9041 6.83493C12.8686 6.83491 12.0829 7.41268 11.5823 8.18878C11.3062 8.6168 11.1095 9.10866 10.9871 9.60804C10.9387 9.49378 10.8829 9.37859 10.8236 9.26794C10.5554 8.76699 10.1855 8.31156 9.73138 8.03835C9.69627 8.01599 9.65528 8.0046 9.61366 8.00565C9.56754 8.00637 9.52295 8.0223 9.48682 8.05096C9.45069 8.07963 9.42503 8.11943 9.41385 8.16417C9.40266 8.20892 9.40657 8.2561 9.42496 8.2984C9.44335 8.3407 9.4752 8.37574 9.51555 8.39807C9.87813 8.61619 10.2166 9.01456 10.4574 9.46415C10.6771 9.8746 10.8084 10.3289 10.8302 10.7003C10.194 10.3819 9.55869 10.1247 8.78957 10.1247C8.61326 10.1247 8.44037 10.1477 8.27288 10.1771V6.67796C8.27288 5.74357 7.50749 4.99054 6.56585 4.99054H2.70703ZM13.6687 7.28621C13.6408 7.85798 13.5352 8.32507 13.2697 8.62698C12.975 8.96211 12.4601 9.15545 11.6019 9.16983C11.7004 8.91016 11.7841 8.64229 11.9289 8.41769C12.3327 7.7918 12.9104 7.36487 13.6687 7.28621ZM8.78957 10.5433C9.5802 10.5433 10.2201 10.8382 10.9544 11.2235C10.9838 11.2384 11.0163 11.2462 11.0493 11.2462C11.0822 11.2462 11.1147 11.2384 11.1441 11.2235C11.8784 10.8382 12.5183 10.5433 13.309 10.5433C14.8574 10.5433 16.069 11.8949 16.069 13.6565C16.069 14.7322 15.564 15.9822 14.8067 16.9463C14.0494 17.9105 13.0474 18.5814 12.0925 18.5814C11.7837 18.5814 11.4656 18.4745 11.2226 18.1171C11.2034 18.0887 11.1776 18.0655 11.1474 18.0495C11.1172 18.0335 11.0835 18.0251 11.0493 18.0251C11.0151 18.0251 10.9814 18.0335 10.9512 18.0495C10.9209 18.0655 10.8951 18.0887 10.8759 18.1171C10.633 18.4745 10.3083 18.5814 9.99954 18.5814C9.04459 18.5814 8.04262 17.9105 7.28529 16.9463C6.52796 15.9822 6.02954 14.7322 6.02954 13.6565C6.02954 11.8949 7.24109 10.5433 8.78957 10.5433Z" fill="#404040" stroke="#404040" stroke-width="0.7"/>
</svg>
