<svg width="24" height="18" viewBox="0 0 24 18" fill="none" xmlns="http://www.w3.org/2000/svg">
<path d="M22.623 0H1.377C0.6165 0 0 0.62362 0 1.3929V16.6071C0 17.3764 0.6165 18 1.377 18H22.623C23.3835 18 24 17.3764 24 16.6071V1.3929C24 0.62362 23.3835 0 22.623 0ZM3.78675 15.7604H1.60725V13.8456H3.78675V15.7604ZM3.78675 11.892H1.60725V9.97715H3.78675V11.892ZM3.78675 8.02284H1.60725V6.10798H3.78675V8.02284ZM3.78675 4.15443H1.60725V2.23957H3.78675V4.15443ZM18.6915 15.7604H5.3085V2.23957H18.6915V15.7604ZM22.3927 15.7604H20.2132V13.8456H22.3927V15.7604ZM22.3927 11.892H20.2132V9.97715H22.3927V11.892ZM22.3927 8.02284H20.2132V6.10798H22.3927V8.02284ZM22.3927 4.15443H20.2132V2.23957H22.3927V4.15443Z" fill="#EC2028"/>
<path d="M15.9389 8.99919L12.6884 6.67617L9.43787 4.35315V8.99919V13.6467L12.6884 11.323L15.9389 8.99919Z" fill="#EC2028"/>
</svg>
