<svg width="25" height="18" viewBox="0 0 25 18" fill="none" xmlns="http://www.w3.org/2000/svg">
<path d="M23.0161 0H1.77007C1.00957 0 0.393066 0.62362 0.393066 1.3929V16.6071C0.393066 17.3764 1.00957 18 1.77007 18H23.0161C23.7766 18 24.3931 17.3764 24.3931 16.6071V1.3929C24.3931 0.62362 23.7766 0 23.0161 0ZM4.17982 15.7604H2.00032V13.8456H4.17982V15.7604ZM4.17982 11.892H2.00032V9.97715H4.17982V11.892ZM4.17982 8.02284H2.00032V6.10798H4.17982V8.02284ZM4.17982 4.15443H2.00032V2.23957H4.17982V4.15443ZM19.0846 15.7604H5.70157V2.23957H19.0846V15.7604ZM22.7858 15.7604H20.6063V13.8456H22.7858V15.7604ZM22.7858 11.892H20.6063V9.97715H22.7858V11.892ZM22.7858 8.02284H20.6063V6.10798H22.7858V8.02284ZM22.7858 4.15443H20.6063V2.23957H22.7858V4.15443Z" fill="#404040"/>
<path d="M16.3319 8.99919L13.0814 6.67617L9.83093 4.35315V8.99919V13.6467L13.0814 11.323L16.3319 8.99919Z" fill="#404040"/>
</svg>
