<svg width="300" height="590" viewBox="0 0 300 590" fill="none" xmlns="http://www.w3.org/2000/svg">
<path d="M285.139 546.102C285.139 563.714 270.232 577.989 251.847 577.989H49.2736C30.8846 577.989 15.9748 563.714 15.9748 546.102V44.6121C15.9748 27.0041 30.8846 12.7288 49.2736 12.7288H251.847C270.232 12.7288 285.139 27.0041 285.139 44.6121V546.102ZM250.573 3.20974H50.5437C26.0475 3.20974 6.12158 22.2899 6.12158 45.751V544.252C6.12158 567.71 26.0475 586.793 50.5437 586.793H250.573C275.069 586.793 294.995 567.71 294.995 544.252V45.751C294.995 22.2899 275.069 3.20974 250.573 3.20974Z" fill="#1D1D1B"/>
<path d="M4.44787 132.125H2.77246V148.61H4.44787V132.125Z" fill="#B2B2B2"/>
<path d="M4.44787 45.7509C4.44787 21.3677 25.0865 1.60484 50.5454 1.60484H250.575C276.037 1.60484 296.672 21.3677 296.672 45.7509V156.631H298.348V45.7509C298.348 20.52 276.919 0 250.575 0H50.5454C24.2015 0 2.77246 20.52 2.77246 45.7509V109.585H4.44787V45.7509Z" fill="#B2B2B2"/>
<path d="M4.44787 193.687H2.77246V206.998H4.44787V193.687Z" fill="#B2B2B2"/>
<path d="M296.672 544.252C296.672 568.632 276.037 588.398 250.575 588.398H50.5454C25.0865 588.398 4.44787 568.632 4.44787 544.252V252.08H2.77246V544.252C2.77246 569.48 24.2015 590 50.5454 590H250.575C276.919 590 298.348 569.48 298.348 544.252V222.077H296.672V544.252Z" fill="#B2B2B2"/>
<path d="M295.002 544.251C295.002 567.709 275.076 586.792 250.58 586.792H50.5501C26.054 586.792 6.12805 567.709 6.12805 544.251V45.7504C6.12805 22.2893 26.054 3.20913 50.5501 3.20913H250.58C275.076 3.20913 295.002 22.2893 295.002 45.7504V544.251ZM250.58 1.60429H50.5501C25.0913 1.60429 4.45264 21.3671 4.45264 45.7504V544.251C4.45264 568.631 25.0913 588.397 50.5501 588.397H250.58C276.042 588.397 296.677 568.631 296.677 544.251V222.076H295.549V156.63H296.677V45.7504C296.677 21.3671 276.042 1.60429 250.58 1.60429Z" fill="#B2B2B2"/>
<mask id="mask0_6_241" style="mask-type:luminance" maskUnits="userSpaceOnUse" x="298" y="156" width="2" height="67">
<path d="M298.331 156.137H300V222.401H298.331V156.137Z" fill="white"/>
</mask>
<g mask="url(#mask0_6_241)">
<path d="M299.994 156.632H298.349V222.078H299.994V156.632Z" fill="#B2B2B2"/>
</g>
<path d="M296.679 156.632V222.078H298.355V156.632H296.679Z" fill="#B2B2B2"/>
<path d="M295.541 222.077H296.669V156.631H295.541V222.077Z" fill="#B2B2B2"/>
<path d="M0 148.611V193.689H2.77322V148.611H0Z" fill="#B2B2B2"/>
<path d="M4.44787 148.611H2.77246V193.689H4.44787V148.611Z" fill="#B2B2B2"/>
<path d="M0 109.585V132.124H2.77322V109.585H0Z" fill="#B2B2B2"/>
<path d="M4.44787 109.585H2.77246V132.124H4.44787V109.585Z" fill="#B2B2B2"/>
<path d="M0 206.999V252.08H2.77322V206.999H0Z" fill="#B2B2B2"/>
<path d="M4.44787 206.999H2.77246V252.08H4.44787V206.999Z" fill="#B2B2B2"/>
</svg>
