<svg width="31" height="18" viewBox="0 0 31 18" fill="none" xmlns="http://www.w3.org/2000/svg">
<path d="M25.7712 0H4.64945C2.09225 0 0 2.09225 0 4.64945V13.3506C0 15.9077 2.09225 18 4.64945 18H25.738C28.2952 18 30.3875 15.9077 30.3875 13.3506V4.64945C30.4207 2.09225 28.3284 0 25.7712 0ZM29.0922 13.3506C29.0922 15.1771 27.5978 16.6716 25.7712 16.6716H4.64945C2.82288 16.6716 1.32841 15.1771 1.32841 13.3506V4.64945C1.32841 2.82288 2.82288 1.32841 4.64945 1.32841H25.738C27.5646 1.32841 29.059 2.82288 29.059 4.64945V13.3506H29.0922Z" fill="#404040"/>
<path d="M5.18124 7.23986C6.09832 7.23986 6.84175 6.49642 6.84175 5.57934C6.84175 4.66226 6.09832 3.91882 5.18124 3.91882C4.26416 3.91882 3.52072 4.66226 3.52072 5.57934C3.52072 6.49642 4.26416 7.23986 5.18124 7.23986Z" fill="#404040"/>
<path d="M25.2405 14.0814C26.1576 14.0814 26.9011 13.338 26.9011 12.4209C26.9011 11.5038 26.1576 10.7604 25.2405 10.7604C24.3235 10.7604 23.58 11.5038 23.58 12.4209C23.58 13.338 24.3235 14.0814 25.2405 14.0814Z" fill="#404040"/>
<path d="M11.0258 4.81581C8.70111 7.14053 8.70111 10.8601 11.0258 13.1848C13.3506 15.5095 17.0701 15.5095 19.3948 13.1848C21.7196 10.8601 21.7196 7.14053 19.3948 4.81581C17.0701 2.49108 13.3506 2.49108 11.0258 4.81581ZM17.9004 6.67559H16.4391C16.572 6.87485 16.6716 7.14053 16.7048 7.40621H17.9004V8.30289H16.7048C16.5387 9.19957 15.8081 9.89699 14.9446 9.9302H14.4465L16.8708 12.6534L16.2731 13.3177L12.5203 9.00031H14.9114C15.3432 9.00031 15.6753 8.70142 15.8413 8.26968H12.952V7.373H15.8413C15.6753 6.94127 15.3432 6.64238 14.9114 6.64238H12.952V5.7457H17.9004V6.67559Z" fill="#404040"/>
</svg>
