<svg xmlns="http://www.w3.org/2000/svg" xmlns:xlink="http://www.w3.org/1999/xlink" width="185.066" height="50" viewBox="0 0 185.066 50">
  <defs>
    <clipPath id="clip-path">
      <rect id="Rectangle_8" data-name="Rectangle 8" width="185.066" height="50" fill="none"/>
    </clipPath>
  </defs>
  <g id="Mask_Group_1" data-name="Mask Group 1" clip-path="url(#clip-path)">
    <rect id="Rectangle_9" data-name="Rectangle 9" width="109.794" height="36.558" transform="translate(0.442 12.967)" fill="#061836"/>
    <path id="Path_25" data-name="Path 25" d="M8.637,22.538V44.69h5.34l0-13.713L21.891,44.7l5.262-.014,0-22.15H21.758l-.013,12.912-7.58-12.916Z" transform="translate(-0.993 -2.592)" fill="#fff" fill-rule="evenodd"/>
    <path id="Path_26" data-name="Path 26" d="M33.076,22.529l-.022,22.165H50.348l0-4.864H38.558l0-4.466,10.335,0,0-4.693-10.336,0,0-3.254,11.272.022V22.529Z" transform="translate(-3.803 -2.592)" fill="#fff" fill-rule="evenodd"/>
    <path id="Path_27" data-name="Path 27" d="M53.789,22.529,60.07,44.694l5.578-.006L68.554,30.44l3,14.254,4.99,0,6.331-22.157L77.2,22.529,74.155,35.576,71.482,22.534l-5.927-.005L63.022,34.855,60.163,22.529Z" transform="translate(-6.188 -2.592)" fill="#fff" fill-rule="evenodd"/>
    <path id="Path_9" data-name="Path 9" d="M99.388,29.748s.727-2.754-3.61-3.182c-2.975-.294-3.588,1.793-3.141,2.581.912,1.6,7.781,1.607,11.061,4.369,2.82,2.375,2.145,7.806-.843,9.809-3.574,2.4-9.209,1.987-11.694.86a6.9,6.9,0,0,1-4.195-7.2h5.3s-.285,3.412,3.889,3.416c4.367,0,4.374-2.282,3.469-3.208-1-1.025-9.226-1.372-11.483-4.788a6.671,6.671,0,0,1,2.3-9.274c4.014-2.412,9.971-1.227,12.139,1.023a7.188,7.188,0,0,1,2.2,5.6Z" transform="translate(-9.999 -2.507)" fill="#fff" fill-rule="evenodd"/>
    <path id="Path_10" data-name="Path 10" d="M112.127.5h36.614l-.025,36.541H112.152Z" transform="translate(-12.9 -0.058)" fill="none" stroke="#fff" stroke-width="1"/>
    <path id="Path_11" data-name="Path 11" d="M112.127.5h36.614l-.025,36.541H112.152Z" transform="translate(-12.9 -0.058)" fill="#ec2027" fill-rule="evenodd"/>
    <path id="Path_12" data-name="Path 12" d="M116.343,8.674h8.91V31.351h-5.3V13.911h-3.612Z" transform="translate(-13.385 -0.998)" fill="#fff" fill-rule="evenodd"/>
    <path id="Path_13" data-name="Path 13" d="M137.038,31.7c4.686-.083,7.584-3.342,7.927-6.392.467-4.151-1.742-5.569-3.032-6.35a4.924,4.924,0,0,0,2.295-4.973c-.407-3.814-3.611-5.729-7.344-5.763s-6.658,2.237-7.183,5.611a5,5,0,0,0,2.314,5.119,6.563,6.563,0,0,0-3.094,6.305,7.848,7.848,0,0,0,8.117,6.443" transform="translate(-14.827 -0.945)" fill="#fff" fill-rule="evenodd"/>
    <path id="Path_14" data-name="Path 14" d="M140.01,15.514a2.264,2.264,0,0,1-2.212,2.314,2.214,2.214,0,0,1-2.263-2.34A2.259,2.259,0,0,1,137.8,13.3a2.112,2.112,0,0,1,2.212,2.212" transform="translate(-15.592 -1.53)" fill="#ec2027" fill-rule="evenodd"/>
    <path id="Path_15" data-name="Path 15" d="M140.335,25.531a2.569,2.569,0,0,1-2.522,2.678,2.632,2.632,0,0,1-2.622-2.669,2.484,2.484,0,0,1,2.6-2.6,2.567,2.567,0,0,1,2.542,2.594" transform="translate(-15.553 -2.639)" fill="#ec2027" fill-rule="evenodd"/>
    <path id="Path_16" data-name="Path 16" d="M182.279,39.038h-2.431v3.915h-6.757c-.107.043-.18.074-.222.1a.449.449,0,0,0-.253.378.968.968,0,0,0,.284.585,9.57,9.57,0,0,0,.727.742q.441.41.537.411a5.586,5.586,0,0,1,.63-.127,9.718,9.718,0,0,1,1.515-.127,6.047,6.047,0,0,1,3.079.773,2.44,2.44,0,0,1,1.342,2.226,2.8,2.8,0,0,1-1.516,2.558l-1.863-1.2a1.25,1.25,0,0,0,.885-1.294.9.9,0,0,0-.581-.884,3.768,3.768,0,0,0-1.49-.252,4.061,4.061,0,0,0-2.324.616,2.02,2.02,0,0,0-.908,1.783q0,1.768,2.573,2.684,2.258.79,2.731.5l-.789,1.768q-.823.316-3.632-.884-3.535-1.515-3.535-4.419a3.239,3.239,0,0,1,.916-2.148,5.4,5.4,0,0,1,.914-.82c-.188,0-.589-.358-1.2-1.073a3.866,3.866,0,0,1-1.073-2.368,1.355,1.355,0,0,1,.442-1.042,1.56,1.56,0,0,1,1.1-.411h5.967V39.038H168.26V37.017h14.019Z" transform="translate(-19.357 -4.259)"/>
    <path id="Path_17" data-name="Path 17" d="M182.721,37.766c.147-.042.242.032.284.222.02.125-.053.21-.223.251-.127.021-.21-.042-.25-.189s.019-.242.189-.284" transform="translate(-20.998 -4.343)"/>
    <path id="Path_18" data-name="Path 18" d="M179.014,36.3H176.3a24.884,24.884,0,0,0-2.305-2.588q-2.745-2.588-5.019-2.589-3.22,0-3.221,2.887a4.466,4.466,0,0,0,.253,1.6,1.558,1.558,0,0,0,.284.5h2.273v2.02h-1.957V51.617h-2.653V38.135h-2.3v-2.02h2.367a3.777,3.777,0,0,1-.315-.659,4.838,4.838,0,0,1-.315-1.7,4.05,4.05,0,0,1,1.5-3.457,6.757,6.757,0,0,1,4.153-1.133A8.42,8.42,0,0,1,173.868,31a21.278,21.278,0,0,1,3.695,3.442q.723.946,1.451,1.862" transform="translate(-18.597 -3.356)"/>
    <path id="Path_19" data-name="Path 19" d="M199.226,39.038h-3.261v4.307h-5.89a1.838,1.838,0,0,0-1.283.55,1.873,1.873,0,0,0-.586,1.431,2.55,2.55,0,0,0,2.041,2.549,8.732,8.732,0,0,0,2.583.314,4.033,4.033,0,0,1,.157-1.362,1.815,1.815,0,0,1,1.885-1.076,1.918,1.918,0,0,1,1.319.506,1.7,1.7,0,0,1,.565,1.33,2.392,2.392,0,0,1-.639,1.678,4.411,4.411,0,0,1-.69.539l.538,1.362a9.784,9.784,0,0,0,.483,1.044.957.957,0,0,0,.181.253L194.275,53a.388.388,0,0,1-.095-.158,4.4,4.4,0,0,1-.35-.919,5.5,5.5,0,0,1-.286-1c-.042-.264-.074-.479-.095-.649h-.477a9.889,9.889,0,0,1-5.634-1.362,4.41,4.41,0,0,1-1.983-3.864,3.48,3.48,0,0,1,1.144-2.691,3.876,3.876,0,0,1,2.7-1.044h4.1V39.038h-9.437V37.011h15.358Z" transform="translate(-21.153 -4.258)"/>
    <path id="Path_20" data-name="Path 20" d="M207.353,38.084h-1.979V51.5h-2.681V38.084h-2.33V36.063h2.394a14.022,14.022,0,0,0-.8-2.747q-1.277-2.749-3.574-2.748a2.3,2.3,0,0,0-1.58.552,1.945,1.945,0,0,0-.622,1.532,4.95,4.95,0,0,0,.637,2.242,4.019,4.019,0,0,0,.862,1.326H195.1a4.756,4.756,0,0,1-.926-1.626,5.881,5.881,0,0,1-.447-2.1,3.5,3.5,0,0,1,1.1-2.731,4.387,4.387,0,0,1,3.049-.994,6.482,6.482,0,0,1,4.756,1.863,9.182,9.182,0,0,1,2.138,3.505q.223.978.479,1.926h2.106Z" transform="translate(-22.287 -3.31)"/>
    <path id="Path_21" data-name="Path 21" d="M185.151,33.316a1.289,1.289,0,0,0-.32-.9,1.086,1.086,0,0,0-.84-.35,1.207,1.207,0,0,0-.886.366,1.282,1.282,0,0,0-.366.947,1.769,1.769,0,0,0,.7,1.465,3.07,3.07,0,0,0,.336.213,3,3,0,0,0,.673-.4,1.71,1.71,0,0,0,.7-1.343" transform="translate(-21.023 -3.689)"/>
  </g>
</svg>
