<svg xmlns="http://www.w3.org/2000/svg" xmlns:xlink="http://www.w3.org/1999/xlink" width="17.003" height="17.029" viewBox="0 0 17.003 17.029">
  <defs>
    <clipPath id="clip-path">
      <rect id="Rectangle_13" data-name="Rectangle 13" width="17.003" height="17.029" fill="none"/>
    </clipPath>
  </defs>
  <g id="Group_12" data-name="Group 12" clip-path="url(#clip-path)">
    <path id="Path_34" data-name="Path 34" d="M10.71,3.858a3.185,3.185,0,1,1,6.263-1.146,3.17,3.17,0,0,1-3.03,3.653A3,3,0,0,1,11.5,5.325a.3.3,0,0,0-.417-.09Q8.821,6.305,6.548,7.353a.321.321,0,0,0-.222.369c.016.4-.044.8-.058,1.2a.3.3,0,0,0,.095.234c1.423.823,2.854,1.635,4.277,2.457.167.1.224-.015.312-.1A3.165,3.165,0,0,1,16.157,12.9a3.018,3.018,0,0,1-.851,3.228,2.98,2.98,0,0,1-3.262.689A3.012,3.012,0,0,1,9.973,14.2a4.376,4.376,0,0,1,.068-1.1c.02-.147.016-.222-.12-.3Q7.8,11.6,5.684,10.379c-.176-.1-.237.008-.333.094a3.052,3.052,0,0,1-3.156.7A3.058,3.058,0,0,1,.065,8.762,3.173,3.173,0,0,1,1.757,5.309a3.132,3.132,0,0,1,3.752.7.324.324,0,0,0,.46.081c1.508-.713,3.022-1.414,4.534-2.12.067-.031.132-.07.207-.111M3.184,6.377A1.776,1.776,0,1,0,4.973,8.143,1.781,1.781,0,0,0,3.184,6.377M15.613,3.185a1.785,1.785,0,0,0-3.57-.01,1.785,1.785,0,1,0,3.57.01m-2.486,12.43a1.786,1.786,0,1,0-1.794-1.771,1.8,1.8,0,0,0,1.794,1.771" transform="translate(0 -0.001)" fill="#fff"/>
    <path id="Path_35" data-name="Path 35" d="M168.628,757.982a1.776,1.776,0,1,1-1.781,1.773,1.782,1.782,0,0,1,1.781-1.773" transform="translate(-165.444 -751.606)" fill="#f04b46"/>
    <path id="Path_36" data-name="Path 36" d="M1435.232,168.273a1.785,1.785,0,1,1-1.78-1.783,1.8,1.8,0,0,1,1.78,1.783" transform="translate(-1419.619 -165.089)" fill="#f04b46"/>
    <path id="Path_37" data-name="Path 37" d="M1349.115,1435.1a1.786,1.786,0,1,1,1.777-1.787,1.8,1.8,0,0,1-1.777,1.787" transform="translate(-1335.988 -1419.482)" fill="#f04b46"/>
  </g>
</svg>
