
<svg xmlns="http://www.w3.org/2000/svg" width="87.014" height="57.052" viewBox="0 0 87.014 57.052">
  <g id="noun-hand-swipe-5326242" transform="translate(-7 -21.968)">
    <path id="Path_9345" data-name="Path 9345" d="M93.11,49.3l-8.5-13.72-9.66-9.66a3.446,3.446,0,0,0-4.88,0l-4.43,4.44,7.1,7.1A.948.948,0,0,1,71.4,38.8l-7.77-7.78a.951.951,0,0,1-.15-.2.951.951,0,0,1-.2-.15,3.452,3.452,0,0,0-4.88,0l-4.43,4.44,7.66,7.66a.948.948,0,0,1,0,1.34.964.964,0,0,1-.67.28.939.939,0,0,1-.67-.28l-8.33-8.33a.951.951,0,0,1-.15-.2.951.951,0,0,1-.2-.15,3.452,3.452,0,0,0-4.88,0L42.3,39.87l9.31,9.31a.948.948,0,0,1,0,1.34.964.964,0,0,1-.67.28.939.939,0,0,1-.67-.28l-3.69-3.69-6.29-6.29-8.45-8.45a5.374,5.374,0,0,0-7.6,7.6L51.42,66.87a.96.96,0,0,1,.21,1.03.933.933,0,0,1-.87.58H42.24a5.429,5.429,0,0,0-5.44,5.5l.04,4.11,32.99.93L92.28,56.57a5.872,5.872,0,0,0,.84-7.28Z" fill="#fff"/>
    <path id="Path_9346" data-name="Path 9346" d="M12.625,46.36c-.5-.16-5.715-12.77-.835-22.16l1.09,3.25a.942.942,0,0,0,.9.65,1.047,1.047,0,0,0,.3-.05.951.951,0,0,0,.6-1.2l-1.77-5.24a.935.935,0,0,0-1.17-.6L6.67,22.55a.946.946,0,1,0,.55,1.81l2.81-.85A23.687,23.687,0,0,0,8.45,40.14c.78,3.18,4.675,6.4,4.175,6.24Z" transform="translate(1 1)" fill="#fff"/>
  </g>
</svg>