<svg width="21" height="21" viewBox="0 0 21 21" fill="none" xmlns="http://www.w3.org/2000/svg">
<path d="M14.3938 18.2219C14.0583 18.3385 13.7193 18.3932 13.3766 18.3859C13.0339 18.3786 12.7021 18.2948 12.3812 18.1344L6.65 15.4656L7.04375 14.5906C7.18958 14.299 7.39375 14.062 7.65625 13.8797C7.91875 13.6974 8.21042 13.5917 8.53125 13.5625L10.0188 13.4531L7.56875 6.7375C7.48125 6.50417 7.48854 6.28177 7.59062 6.07031C7.69271 5.85885 7.86042 5.70937 8.09375 5.62187C8.32708 5.53437 8.54948 5.54167 8.76094 5.64375C8.9724 5.74583 9.12187 5.91354 9.20937 6.14687L11.3094 11.9L12.1406 11.5937L11.2437 9.12187C11.1562 8.88854 11.1635 8.66614 11.2656 8.45469C11.3677 8.24323 11.5354 8.09375 11.7688 8.00625C12.0021 7.91875 12.2245 7.92604 12.4359 8.02812C12.6474 8.13021 12.7969 8.29792 12.8844 8.53125L13.7812 11.0031L14.5906 10.6969L14 9.05625C13.9125 8.82292 13.9198 8.60052 14.0219 8.38906C14.124 8.1776 14.2917 8.02812 14.525 7.94062C14.7583 7.85312 14.9807 7.86042 15.1922 7.9625C15.4036 8.06458 15.5531 8.23229 15.6406 8.46562L16.2312 10.1062L17.0625 9.8C16.975 9.56667 16.9823 9.34427 17.0844 9.13281C17.1865 8.92135 17.3542 8.77187 17.5875 8.68437C17.8208 8.59687 18.0432 8.60417 18.2547 8.70625C18.4661 8.80833 18.6156 8.97604 18.7031 9.20937L19.9062 12.4906C20.2417 13.4094 20.2089 14.3026 19.8078 15.1703C19.4068 16.038 18.7469 16.6396 17.8281 16.975L14.3938 18.2219ZM5.35938 12.25C4.61562 11.3167 4.04688 10.2885 3.65313 9.16562C3.25937 8.04271 3.0625 6.88333 3.0625 5.6875C3.0625 5.29375 3.08437 4.9 3.12812 4.50625C3.17188 4.1125 3.2375 3.71875 3.325 3.325L1.79375 4.85625L0.875 3.9375L3.9375 0.875L7 3.9375L6.08125 4.85625L4.65937 3.45625C4.55729 3.82083 4.48438 4.18906 4.44062 4.56094C4.39687 4.93281 4.375 5.30833 4.375 5.6875C4.375 6.70833 4.53906 7.69635 4.86719 8.65156C5.19531 9.60677 5.67292 10.4927 6.3 11.3094L5.35938 12.25Z" fill="#BBBBBB"/>
</svg>
