<svg width="22" height="20" viewBox="0 0 22 20" fill="none" xmlns="http://www.w3.org/2000/svg">
<path d="M20.2207 9.79297C20.3752 9.79193 20.5262 9.7476 20.6568 9.66502C20.7873 9.58243 20.8922 9.46488 20.9595 9.32569C21.0268 9.18649 21.0538 9.03121 21.0375 8.87743C21.0212 8.72366 20.9622 8.57752 20.8672 8.45559C20.7722 8.33365 20.645 8.24078 20.5001 8.1875C20.3551 8.13422 20.1981 8.12265 20.0469 8.15411C19.8957 8.18557 19.7563 8.2588 19.6446 8.3655C19.5328 8.4722 19.4531 8.60812 19.4145 8.75785H14.5769C14.4949 8.3151 14.3262 7.89295 14.0807 7.5157H17.7606C17.8109 7.71085 17.9306 7.88093 18.0972 7.99405C18.2637 8.10717 18.4658 8.15557 18.6655 8.13017C18.8651 8.10478 19.0487 8.00733 19.1818 7.8561C19.3148 7.70486 19.3882 7.51023 19.3882 7.30867C19.3882 7.10712 19.3148 6.91248 19.1818 6.76125C19.0487 6.61002 18.8651 6.51257 18.6655 6.48717C18.4658 6.46178 18.2637 6.51017 18.0972 6.6233C17.9306 6.73642 17.8109 6.90649 17.7606 7.10165H13.7706L13.7086 7.01884V2.85763H16.6236C16.6716 3.05431 16.7899 3.22656 16.9561 3.34181C17.1224 3.45706 17.325 3.50733 17.5257 3.48311C17.7265 3.4589 17.9114 3.36187 18.0455 3.21038C18.1797 3.05889 18.2538 2.86343 18.2538 2.66096C18.2538 2.45849 18.1797 2.26303 18.0455 2.11154C17.9114 1.96005 17.7265 1.86302 17.5257 1.8388C17.325 1.81459 17.1224 1.86485 16.9561 1.98011C16.7899 2.09536 16.6716 2.26761 16.6236 2.46429H13.5019C13.447 2.46429 13.3944 2.4861 13.3557 2.52492C13.3169 2.56375 13.2951 2.6164 13.2951 2.67131V6.6669C12.8632 6.34003 12.3603 6.12012 11.8273 6.02512C11.8374 6.00564 11.8444 5.98468 11.848 5.96301V4.28611C12.0429 4.23572 12.2127 4.11588 12.3257 3.94907C12.4386 3.78225 12.487 3.5799 12.4616 3.37996C12.4362 3.18001 12.3389 2.99619 12.1879 2.86295C12.0369 2.72971 11.8425 2.6562 11.6412 2.6562C11.44 2.6562 11.2456 2.72971 11.0946 2.86295C10.9436 2.99619 10.8463 3.18001 10.8209 3.37996C10.7955 3.5799 10.8439 3.78225 10.9568 3.94907C11.0698 4.11588 11.2396 4.23572 11.4345 4.28611V5.96301H11.2071C10.8641 5.96096 10.5228 6.0098 10.1941 6.10793V2.62991C10.389 2.57952 10.5588 2.45968 10.6718 2.29287C10.7847 2.12605 10.8331 1.9237 10.8077 1.72376C10.7824 1.52381 10.685 1.33999 10.534 1.20675C10.383 1.07351 10.1886 1 9.98737 1C9.7861 1 9.59174 1.07351 9.44072 1.20675C9.2897 1.33999 9.19238 1.52381 9.16702 1.72376C9.14166 1.9237 9.18999 2.12605 9.30296 2.29287C9.41592 2.45968 9.58576 2.57952 9.78064 2.62991V6.17004C9.77848 6.20575 9.7856 6.24141 9.80131 6.27355C9.3102 6.49374 8.87807 6.82716 8.54023 7.24657V4.28611C8.73511 4.23572 8.90495 4.11588 9.01791 3.94907C9.13087 3.78225 9.1792 3.5799 9.15384 3.37996C9.12848 3.18001 9.03117 2.99619 8.88015 2.86295C8.72913 2.72971 8.53477 2.6562 8.33349 2.6562C8.13222 2.6562 7.93786 2.72971 7.78684 2.86295C7.63582 2.99619 7.53851 3.18001 7.51315 3.37996C7.48779 3.5799 7.53612 3.78225 7.64908 3.94907C7.76204 4.11588 7.93188 4.23572 8.12676 4.28611V7.41219H3.2685V4.51383C3.4649 4.46575 3.63691 4.34727 3.752 4.1808C3.86709 4.01433 3.91728 3.8114 3.8931 3.61038C3.86892 3.40936 3.77203 3.22418 3.62075 3.08984C3.46947 2.95551 3.27429 2.88133 3.0721 2.88133C2.86991 2.88133 2.67473 2.95551 2.52345 3.08984C2.37217 3.22418 2.27528 3.40936 2.2511 3.61038C2.22691 3.8114 2.27711 4.01433 2.3922 4.1808C2.50729 4.34727 2.6793 4.46575 2.8757 4.51383V7.61921C2.8757 7.67412 2.89748 7.72678 2.93625 7.7656C2.97502 7.80442 3.02761 7.82624 3.08243 7.82624H8.14743L8.06474 8.01256C7.61346 8.028 7.17267 8.15286 6.78018 8.37643C6.38769 8.59999 6.05523 8.91558 5.81133 9.29611H4.2815C4.23118 9.10096 4.11151 8.93088 3.94493 8.81776C3.77835 8.70464 3.57629 8.65624 3.37662 8.68164C3.17695 8.70704 2.99339 8.80448 2.86033 8.95572C2.72728 9.10695 2.65388 9.30159 2.65388 9.50314C2.65388 9.70469 2.72728 9.89933 2.86033 10.0506C2.99339 10.2018 3.17695 10.2992 3.37662 10.3246C3.57629 10.35 3.77835 10.3016 3.94493 10.1885C4.11151 10.0754 4.23118 9.90532 4.2815 9.71017H5.6046C5.45227 10.063 5.37483 10.4437 5.37719 10.8281C5.37719 10.8695 5.37719 10.9109 5.37719 10.9523H2.62762C2.5773 10.7572 2.45764 10.5871 2.29105 10.474C2.12447 10.3608 1.92241 10.3124 1.72274 10.3378C1.52307 10.3632 1.33951 10.4607 1.20646 10.6119C1.07341 10.7632 1 10.9578 1 11.1593C1 11.3609 1.07341 11.5555 1.20646 11.7068C1.33951 11.858 1.52307 11.9554 1.72274 11.9808C1.92241 12.0062 2.12447 11.9578 2.29105 11.8447C2.45764 11.7316 2.5773 11.5615 2.62762 11.3664H5.39786C5.48486 11.8221 5.68379 12.249 5.97672 12.6085H4.2815C4.23118 12.4134 4.11151 12.2433 3.94493 12.1302C3.77835 12.017 3.57629 11.9686 3.37662 11.994C3.17695 12.0194 2.99339 12.1169 2.86033 12.2681C2.72728 12.4194 2.65388 12.614 2.65388 12.8155C2.65388 13.0171 2.72728 13.2117 2.86033 13.363C2.99339 13.5142 3.17695 13.6116 3.37662 13.637C3.57629 13.6624 3.77835 13.614 3.94493 13.5009C4.11151 13.3878 4.23118 13.2177 4.2815 13.0226H6.41086C6.90273 13.4206 7.51503 13.6396 8.14743 13.6436V16.749H5.2118C5.16378 16.5523 5.04547 16.3801 4.87923 16.2648C4.71299 16.1496 4.51035 16.0993 4.30961 16.1235C4.10888 16.1478 3.92395 16.2448 3.78981 16.3963C3.65566 16.5478 3.58159 16.7432 3.58159 16.9457C3.58159 17.1482 3.65566 17.3436 3.78981 17.4951C3.92395 17.6466 4.10888 17.7436 4.30961 17.7678C4.51035 17.7921 4.71299 17.7418 4.87923 17.6265C5.04547 17.5113 5.16378 17.339 5.2118 17.1424H8.33349C8.38832 17.1424 8.44091 17.1206 8.47968 17.0817C8.51845 17.0429 8.54023 16.9902 8.54023 16.9353V13.6229H9.98737V15.7139C9.79249 15.7643 9.62265 15.8841 9.50969 16.0509C9.39673 16.2177 9.3484 16.4201 9.37376 16.62C9.39912 16.82 9.49643 17.0038 9.64745 17.1371C9.79847 17.2703 9.99284 17.3438 10.1941 17.3438C10.3954 17.3438 10.5897 17.2703 10.7408 17.1371C10.8918 17.0038 10.9891 16.82 11.0145 16.62C11.0398 16.4201 10.9915 16.2177 10.8785 16.0509C10.7656 15.8841 10.5957 15.7643 10.4008 15.7139V13.6229H11.6412V17.3701C11.4464 17.4205 11.2765 17.5403 11.1636 17.7071C11.0506 17.8739 11.0023 18.0763 11.0276 18.2762C11.053 18.4762 11.1503 18.66 11.3013 18.7933C11.4523 18.9265 11.6467 19 11.848 19C12.0493 19 12.2436 18.9265 12.3946 18.7933C12.5457 18.66 12.643 18.4762 12.6683 18.2762C12.6937 18.0763 12.6454 17.8739 12.5324 17.7071C12.4194 17.5403 12.2496 17.4205 12.0547 17.3701V13.6229H13.2951V15.7139C13.1002 15.7643 12.9304 15.8841 12.8174 16.0509C12.7045 16.2177 12.6562 16.4201 12.6815 16.62C12.7069 16.82 12.8042 17.0038 12.9552 17.1371C13.1062 17.2703 13.3006 17.3438 13.5019 17.3438C13.7031 17.3438 13.8975 17.2703 14.0485 17.1371C14.1995 17.0038 14.2968 16.82 14.3222 16.62C14.3476 16.4201 14.2992 16.2177 14.1863 16.0509C14.0733 15.8841 13.9035 15.7643 13.7086 15.7139V13.6229H14.4528C14.8047 13.6206 15.1511 13.535 15.4637 13.3731C15.7762 13.2112 16.0462 12.9776 16.2514 12.6913H19.1871V15.5897C18.9907 15.6378 18.8187 15.7562 18.7036 15.9227C18.5885 16.0892 18.5383 16.2921 18.5625 16.4931C18.5866 16.6942 18.6835 16.8793 18.8348 17.0137C18.9861 17.148 19.1813 17.2222 19.3835 17.2222C19.5856 17.2222 19.7808 17.148 19.9321 17.0137C20.0834 16.8793 20.1803 16.6942 20.2045 16.4931C20.2286 16.2921 20.1784 16.0892 20.0634 15.9227C19.9483 15.7562 19.7763 15.6378 19.5799 15.5897V12.4843C19.5799 12.4294 19.5581 12.3767 19.5193 12.3379C19.4805 12.2991 19.428 12.2773 19.3731 12.2773H16.4788C16.6819 11.822 16.7256 11.3114 16.6029 10.8281H17.7606C17.8109 11.0233 17.9306 11.1933 18.0972 11.3065C18.2637 11.4196 18.4658 11.468 18.6655 11.4426C18.8651 11.4172 19.0487 11.3197 19.1818 11.1685C19.3148 11.0173 19.3882 10.8226 19.3882 10.6211C19.3882 10.4195 19.3148 10.2249 19.1818 10.0737C19.0487 9.92242 18.8651 9.82497 18.6655 9.79957C18.4658 9.77418 18.2637 9.82258 18.0972 9.9357C17.9306 10.0488 17.8109 10.2189 17.7606 10.4141H16.4788C16.3302 10.0998 16.1111 9.82414 15.8385 9.60867C15.566 9.3932 15.2474 9.24372 14.9077 9.1719H19.4145C19.4605 9.35059 19.5649 9.50875 19.711 9.62127C19.857 9.73379 20.0365 9.79422 20.2207 9.79297ZM18.5669 6.89462C18.6486 6.89462 18.7286 6.91891 18.7966 6.9644C18.8646 7.0099 18.9176 7.07457 18.9489 7.15022C18.9801 7.22588 18.9883 7.30913 18.9724 7.38945C18.9564 7.46977 18.9171 7.54355 18.8592 7.60145C18.8014 7.65936 18.7277 7.69879 18.6475 7.71477C18.5673 7.73074 18.4842 7.72254 18.4086 7.69121C18.3331 7.65987 18.2685 7.6068 18.2231 7.53871C18.1776 7.47062 18.1534 7.39056 18.1534 7.30867C18.1534 7.19886 18.197 7.09354 18.2745 7.0159C18.352 6.93825 18.4572 6.89462 18.5669 6.89462ZM17.4298 2.23656C17.5116 2.23656 17.5915 2.26084 17.6595 2.30634C17.7275 2.35183 17.7805 2.4165 17.8118 2.49216C17.8431 2.56782 17.8513 2.65107 17.8353 2.73139C17.8194 2.8117 17.78 2.88548 17.7222 2.94339C17.6644 3.00129 17.5907 3.04073 17.5105 3.0567C17.4303 3.07268 17.3471 3.06448 17.2716 3.03314C17.196 3.0018 17.1315 2.94873 17.086 2.88064C17.0406 2.81255 17.0163 2.7325 17.0163 2.65061C17.0163 2.54079 17.0599 2.43548 17.1375 2.35783C17.215 2.28018 17.3202 2.23656 17.4298 2.23656ZM11.2278 3.47871C11.2278 3.39682 11.252 3.31676 11.2975 3.24867C11.3429 3.18058 11.4075 3.12751 11.483 3.09618C11.5586 3.06484 11.6417 3.05664 11.7219 3.07261C11.8021 3.08859 11.8758 3.12802 11.9336 3.18593C11.9914 3.24384 12.0308 3.31761 12.0468 3.39793C12.0627 3.47825 12.0545 3.5615 12.0232 3.63716C11.992 3.71282 11.939 3.77748 11.871 3.82298C11.803 3.86847 11.723 3.89276 11.6412 3.89276C11.5316 3.89276 11.4264 3.84914 11.3489 3.77149C11.2713 3.69384 11.2278 3.58852 11.2278 3.47871ZM9.5739 1.82251C9.5739 1.74062 9.59815 1.66056 9.64358 1.59247C9.68902 1.52438 9.75359 1.47131 9.82914 1.43997C9.9047 1.40864 9.98783 1.40044 10.068 1.41641C10.1482 1.43239 10.2219 1.47182 10.2797 1.52973C10.3376 1.58764 10.3769 1.66141 10.3929 1.74173C10.4089 1.82205 10.4007 1.9053 10.3694 1.98096C10.3381 2.05662 10.2851 2.12128 10.2171 2.16678C10.1491 2.21227 10.0691 2.23656 9.98737 2.23656C9.87771 2.23656 9.77254 2.19293 9.695 2.11529C9.61746 2.03764 9.5739 1.93232 9.5739 1.82251ZM2.64829 3.68573C2.64829 3.60384 2.67254 3.52379 2.71797 3.4557C2.76341 3.38761 2.82798 3.33454 2.90353 3.3032C2.97908 3.27186 3.06222 3.26366 3.14243 3.27964C3.22263 3.29562 3.2963 3.33505 3.35413 3.39296C3.41195 3.45086 3.45133 3.52464 3.46729 3.60496C3.48324 3.68527 3.47505 3.76853 3.44376 3.84418C3.41246 3.91984 3.35947 3.98451 3.29147 4.03C3.22348 4.0755 3.14354 4.09978 3.06176 4.09978C2.9521 4.09978 2.84693 4.05616 2.76939 3.97851C2.69185 3.90086 2.64829 3.79555 2.64829 3.68573ZM3.47523 9.89649C3.39345 9.89649 3.31351 9.8722 3.24552 9.82671C3.17752 9.78121 3.12453 9.71655 3.09323 9.64089C3.06194 9.56523 3.05375 9.48198 3.06971 9.40166C3.08566 9.32134 3.12504 9.24757 3.18286 9.18966C3.24069 9.13175 3.31436 9.09232 3.39457 9.07634C3.47477 9.06037 3.55791 9.06857 3.63346 9.09991C3.70901 9.13124 3.77358 9.18431 3.81902 9.2524C3.86445 9.32049 3.8887 9.40055 3.8887 9.48244C3.8887 9.59225 3.84514 9.69757 3.7676 9.77522C3.69006 9.85287 3.58489 9.89649 3.47523 9.89649ZM1.82135 11.5527C1.73958 11.5527 1.65964 11.5284 1.59164 11.4829C1.52365 11.4374 1.47065 11.3727 1.43936 11.2971C1.40806 11.2214 1.39987 11.1382 1.41583 11.0579C1.43178 10.9775 1.47116 10.9038 1.52899 10.8459C1.58681 10.788 1.66048 10.7485 1.74069 10.7325C1.82089 10.7166 1.90403 10.7248 1.97958 10.7561C2.05513 10.7874 2.11971 10.8405 2.16514 10.9086C2.21057 10.9767 2.23482 11.0567 2.23482 11.1386C2.23482 11.2485 2.19126 11.3538 2.11372 11.4314C2.03618 11.5091 1.93101 11.5527 1.82135 11.5527ZM4.40554 17.3494C4.32376 17.3494 4.24382 17.3251 4.17582 17.2796C4.10783 17.2341 4.05484 17.1694 4.02354 17.0938C3.99225 17.0181 3.98406 16.9349 4.00001 16.8546C4.01597 16.7742 4.05534 16.7005 4.11317 16.6426C4.17099 16.5847 4.24467 16.5452 4.32487 16.5292C4.40508 16.5133 4.48821 16.5215 4.56376 16.5528C4.63932 16.5841 4.70389 16.6372 4.74932 16.7053C4.79476 16.7734 4.81901 16.8535 4.81901 16.9353C4.81901 17.0452 4.77544 17.1505 4.6979 17.2281C4.62036 17.3058 4.5152 17.3494 4.40554 17.3494ZM10.6076 16.5213C10.6076 16.6032 10.5833 16.6832 10.5379 16.7513C10.4925 16.8194 10.4279 16.8725 10.3523 16.9038C10.2768 16.9352 10.1936 16.9434 10.1134 16.9274C10.0332 16.9114 9.95956 16.872 9.90174 16.8141C9.84391 16.7562 9.80454 16.6824 9.78858 16.6021C9.77263 16.5218 9.78082 16.4385 9.81211 16.3628C9.8434 16.2872 9.8964 16.2225 9.9644 16.177C10.0324 16.1315 10.1123 16.1072 10.1941 16.1072C10.3038 16.1072 10.4089 16.1509 10.4865 16.2285C10.564 16.3062 10.6076 16.4115 10.6076 16.5213ZM12.2615 18.1775C12.2615 18.2594 12.2372 18.3394 12.1918 18.4075C12.1463 18.4756 12.0818 18.5287 12.0062 18.56C11.9307 18.5914 11.8475 18.5996 11.7673 18.5836C11.6871 18.5676 11.6134 18.5282 11.5556 18.4703C11.4978 18.4124 11.4584 18.3386 11.4425 18.2583C11.4265 18.178 11.4347 18.0947 11.466 18.019C11.4973 17.9434 11.5503 17.8787 11.6183 17.8332C11.6863 17.7877 11.7662 17.7634 11.848 17.7634C11.9576 17.7634 12.0628 17.8071 12.1404 17.8847C12.2179 17.9624 12.2615 18.0677 12.2615 18.1775ZM13.9153 16.5213C13.9153 16.6032 13.8911 16.6832 13.8456 16.7513C13.8002 16.8194 13.7356 16.8725 13.6601 16.9038C13.5845 16.9352 13.5014 16.9434 13.4212 16.9274C13.341 16.9114 13.2673 16.872 13.2095 16.8141C13.1517 16.7562 13.1123 16.6824 13.0963 16.6021C13.0804 16.5218 13.0886 16.4385 13.1199 16.3628C13.1512 16.2872 13.2042 16.2225 13.2721 16.177C13.3401 16.1315 13.4201 16.1072 13.5019 16.1072C13.6115 16.1072 13.7167 16.1509 13.7942 16.2285C13.8718 16.3062 13.9153 16.4115 13.9153 16.5213ZM19.8073 16.4178C19.8073 16.4997 19.783 16.5797 19.7376 16.6478C19.6922 16.7159 19.6276 16.769 19.552 16.8003C19.4765 16.8316 19.3933 16.8398 19.3131 16.8239C19.2329 16.8079 19.1593 16.7685 19.1014 16.7106C19.0436 16.6527 19.0042 16.5789 18.9883 16.4986C18.9723 16.4182 18.9805 16.335 19.0118 16.2593C19.0431 16.1837 19.0961 16.119 19.1641 16.0735C19.2321 16.028 19.312 16.0037 19.3938 16.0037C19.5035 16.0037 19.6086 16.0474 19.6862 16.125C19.7637 16.2027 19.8073 16.308 19.8073 16.4178ZM18.5669 10.207C18.6486 10.207 18.7286 10.2313 18.7966 10.2768C18.8646 10.3223 18.9176 10.387 18.9489 10.4626C18.9801 10.5383 18.9883 10.6215 18.9724 10.7019C18.9564 10.7822 18.9171 10.8559 18.8592 10.9139C18.8014 10.9718 18.7277 11.0112 18.6475 11.0272C18.5673 11.0431 18.4842 11.0349 18.4086 11.0036C18.3331 10.9723 18.2685 10.9192 18.2231 10.8511C18.1776 10.783 18.1534 10.703 18.1534 10.6211C18.1534 10.5113 18.197 10.4059 18.2745 10.3283C18.352 10.2506 18.4572 10.207 18.5669 10.207ZM20.2207 8.55082C20.3025 8.55082 20.3825 8.57511 20.4504 8.6206C20.5184 8.6661 20.5714 8.73077 20.6027 8.80642C20.634 8.88208 20.6422 8.96533 20.6263 9.04565C20.6103 9.12597 20.5709 9.19975 20.5131 9.25765C20.4553 9.31556 20.3816 9.35499 20.3014 9.37097C20.2212 9.38694 20.1381 9.37875 20.0625 9.34741C19.987 9.31607 19.9224 9.263 19.8769 9.19491C19.8315 9.12682 19.8073 9.04677 19.8073 8.96487C19.8073 8.85506 19.8508 8.74975 19.9284 8.6721C20.0059 8.59445 20.1111 8.55082 20.2207 8.55082ZM7.92003 3.47871C7.92003 3.39682 7.94427 3.31676 7.98971 3.24867C8.03514 3.18058 8.09972 3.12751 8.17527 3.09618C8.25082 3.06484 8.33395 3.05664 8.41416 3.07261C8.49436 3.08859 8.56804 3.12802 8.62586 3.18593C8.68369 3.24384 8.72307 3.31761 8.73902 3.39793C8.75497 3.47825 8.74679 3.5615 8.71549 3.63716C8.6842 3.71282 8.6312 3.77748 8.56321 3.82298C8.49521 3.86847 8.41527 3.89276 8.33349 3.89276C8.22384 3.89276 8.11867 3.84914 8.04113 3.77149C7.96359 3.69384 7.92003 3.58852 7.92003 3.47871ZM3.47523 13.2089C3.39345 13.2089 3.31351 13.1846 3.24552 13.1391C3.17752 13.0936 3.12453 13.0289 3.09323 12.9533C3.06194 12.8776 3.05375 12.7944 3.06971 12.7141C3.08566 12.6337 3.12504 12.56 3.18286 12.5021C3.24069 12.4442 3.31436 12.4047 3.39457 12.3887C3.47477 12.3728 3.55791 12.381 3.63346 12.4123C3.70901 12.4436 3.77358 12.4967 3.81902 12.5648C3.86445 12.6329 3.8887 12.7129 3.8887 12.7948C3.8887 12.9047 3.84514 13.01 3.7676 13.0876C3.69006 13.1653 3.58489 13.2089 3.47523 13.2089ZM16.2721 11.3664C16.2667 11.8479 16.0733 12.3081 15.7333 12.6486C15.3933 12.9891 14.9337 13.1828 14.4528 13.1882H8.14743C7.51415 13.1882 6.90681 12.9363 6.45901 12.4878C6.01122 12.0394 5.75965 11.4312 5.75965 10.797C5.75965 10.1629 6.01122 9.55468 6.45901 9.10626C6.90681 8.65783 7.51415 8.40591 8.14743 8.40591H8.16811C8.21447 8.41425 8.26229 8.40648 8.30365 8.38389C8.345 8.3613 8.37741 8.32524 8.39551 8.28169C8.65796 7.63764 9.13281 7.10306 9.74099 6.76698C10.3492 6.43091 11.054 6.31361 11.738 6.43464C12.422 6.55566 13.044 6.9077 13.5004 7.43212C13.9567 7.95655 14.2199 8.6217 14.2461 9.31682C14.2461 9.37172 14.2679 9.42438 14.3067 9.46321C14.3454 9.50203 14.398 9.52384 14.4528 9.52384C14.9372 9.52929 15.3999 9.72582 15.7405 10.0708C16.0811 10.4157 16.2721 10.8813 16.2721 11.3664Z" fill="#404040" stroke="#404040" stroke-width="0.3"/>
</svg>
