<svg xmlns="http://www.w3.org/2000/svg" xmlns:xlink="http://www.w3.org/1999/xlink" width="32" height="32" viewBox="0 0 32 32">
  <defs>
    <clipPath id="clip-path">
      <rect id="Rectangle_145414" data-name="Rectangle 145414" width="32" height="32" fill="#fff"/>
    </clipPath>
    <linearGradient id="linear-gradient" x1="0.5" x2="0.5" y2="1" gradientUnits="objectBoundingBox">
      <stop offset="0" stop-color="#60d66a"/>
      <stop offset="1" stop-color="#20b038"/>
    </linearGradient>
  </defs>
  <g id="WhatsApp" clip-path="url(#clip-path)">
    <path id="Path_86956" data-name="Path 86956" d="M0,32l2.262-8.213A15.7,15.7,0,0,1,.138,15.856a15.949,15.949,0,0,1,27.2-11.209A15.685,15.685,0,0,1,32,15.863,15.915,15.915,0,0,1,16.061,31.719h-.008a16.006,16.006,0,0,1-7.618-1.932Zm8.84-5.08.481.289a13.327,13.327,0,0,0,6.739,1.84h.008A13.226,13.226,0,0,0,29.311,15.871,13.208,13.208,0,0,0,16.069,2.684,13.215,13.215,0,0,0,2.827,15.856a13.079,13.079,0,0,0,2.025,7.011l.313.5L3.828,28.228Z" transform="translate(0)" fill="#fff"/>
    <path id="Path_86957" data-name="Path 86957" d="M.7,31.584l2.185-7.932A15.181,15.181,0,0,1,.82,16,15.4,15.4,0,0,1,27.089,5.181a15.177,15.177,0,0,1,4.5,10.829A15.367,15.367,0,0,1,16.208,31.317H16.2a15.446,15.446,0,0,1-7.35-1.863Z" transform="translate(-0.139 -0.139)" fill="url(#linear-gradient)"/>
    <path id="Path_86958" data-name="Path 86958" d="M0,32l2.262-8.213A15.7,15.7,0,0,1,.138,15.856a15.949,15.949,0,0,1,27.2-11.209A15.685,15.685,0,0,1,32,15.863,15.915,15.915,0,0,1,16.061,31.719h-.008a16.006,16.006,0,0,1-7.618-1.932Zm8.84-5.08.481.289a13.327,13.327,0,0,0,6.739,1.84h.008A13.226,13.226,0,0,0,29.311,15.871,13.208,13.208,0,0,0,16.069,2.684,13.215,13.215,0,0,0,2.827,15.856a13.079,13.079,0,0,0,2.025,7.011l.313.5L3.828,28.228Z" transform="translate(0)" fill="#fff"/>
    <path id="Path_86959" data-name="Path 86959" d="M14.082,11.357c-.3-.662-.611-.677-.894-.684-.229-.008-.5-.008-.764-.008a1.468,1.468,0,0,0-1.062.494,4.425,4.425,0,0,0-1.391,3.308,7.71,7.71,0,0,0,1.628,4.1c.2.266,2.758,4.4,6.8,5.985,3.362,1.323,4.05,1.057,4.776.989a4.047,4.047,0,0,0,2.69-1.886,3.322,3.322,0,0,0,.229-1.886c-.1-.167-.367-.266-.764-.464s-2.353-1.156-2.72-1.293-.634-.2-.894.2-1.032,1.285-1.261,1.551-.466.3-.863.1a10.829,10.829,0,0,1-3.2-1.97,11.856,11.856,0,0,1-2.216-2.745c-.229-.4-.023-.608.176-.806.176-.175.4-.464.6-.692a2.541,2.541,0,0,0,.4-.662.73.73,0,0,0-.031-.692C15.213,14.1,14.434,12.141,14.082,11.357Z" transform="translate(-1.994 -2.133)" fill="#fff" fill-rule="evenodd"/>
  </g>
</svg>
