<svg xmlns="http://www.w3.org/2000/svg" width="16" height="16.909" viewBox="0 0 16 16.909">
  <g id="delete" transform="translate(-6 -3.5)">
    <path id="Path_6" data-name="Path 6" d="M6.727,7.136H8V17.864a2.545,2.545,0,0,0,2.545,2.545h7.273a2.545,2.545,0,0,0,2.545-2.545V7.136h.909a.727.727,0,1,0,0-1.455H17.636A2.182,2.182,0,0,0,15.455,3.5H12.909a2.182,2.182,0,0,0-2.182,2.182h-4a.727.727,0,1,0,0,1.455Zm12.182,0V17.864a1.091,1.091,0,0,1-1.091,1.091H10.545a1.091,1.091,0,0,1-1.091-1.091V7.136Zm-6-2.182h2.545a.727.727,0,0,1,.727.727h-4A.727.727,0,0,1,12.909,4.955Z" transform="translate(0 0)"/>
    <path id="Path_7" data-name="Path 7" d="M47.659,38.5a.659.659,0,0,0-.659.659v5.932a.659.659,0,0,0,1.318,0V39.159A.659.659,0,0,0,47.659,38.5Z" transform="translate(-33.476 -28.101)"/>
    <path id="Path_8" data-name="Path 8" d="M61,39.159v5.932a.659.659,0,0,0,1.318,0V39.159a.659.659,0,1,0-1.318,0Z" transform="translate(-44.906 -28.101)"/>
    <path id="Path_9" data-name="Path 9" d="M33.659,38.5a.659.659,0,0,0-.659.659v5.932a.659.659,0,0,0,1.318,0V39.159A.659.659,0,0,0,33.659,38.5Z" transform="translate(-22.045 -28.101)"/>
  </g>
</svg>
