<svg xmlns="http://www.w3.org/2000/svg" width="11.811" height="11.241" viewBox="0 0 11.811 11.241">
  <g id="noun-recent-search-852915" transform="translate(-4.501 -6.695)" opacity="0.5">
    <path id="Path_12" data-name="Path 12" d="M16.271,16.595,13.681,14l-.021.021a4.835,4.835,0,0,0,.638-2.15A4.917,4.917,0,0,0,9.395,6.7,4.888,4.888,0,0,0,6.023,8.257L5.844,7.173a.316.316,0,0,0-.349-.28l-.629.07a.316.316,0,0,0-.28.349,23.633,23.633,0,0,0,.6,3l.005.005a25.525,25.525,0,0,0,3.072.659.317.317,0,0,0,.346-.284l.063-.63a.317.317,0,0,0-.284-.346L7.1,9.39a3.675,3.675,0,0,1,2.3-.816A3.033,3.033,0,1,1,6.44,12.293a.237.237,0,0,0-.177-.18l-1.475-.33a.237.237,0,0,0-.286.255,4.918,4.918,0,0,0,5.191,4.473,4.868,4.868,0,0,0,2.791-1.1L14.97,17.9a.149.149,0,0,0,.211-.006l1.083-1.083A.15.15,0,0,0,16.271,16.595Z"/>
  </g>
</svg>
