<svg xmlns="http://www.w3.org/2000/svg" width="15" height="16" viewBox="0 0 15 16">
  <g id="Web_Story_D" transform="translate(0 -0.5)">
    <rect id="Rectangle" width="15" height="16" transform="translate(0 0.5)" fill="none"/>
    <g id="Group_1577" data-name="Group 1577" transform="translate(-3 -1)">
      <g id="Path_1431" data-name="Path 1431" transform="translate(6.5 1.5)" fill="none">
        <path d="M 6.400000095367432 15.5 L 1.600000023841858 15.5 C 0.9934599995613098 15.5 0.5 15.00654029846191 0.5 14.39999961853027 L 0.5 1.600000023841858 C 0.5 0.9934599995613098 0.9934599995613098 0.5 1.600000023841858 0.5 L 6.400000095367432 0.5 C 7.006539821624756 0.5 7.5 0.9934599995613098 7.5 1.600000023841858 L 7.5 14.39999961853027 C 7.5 15.00654029846191 7.006539821624756 15.5 6.400000095367432 15.5 Z" stroke="none"/>
        <path d="M 1.599999904632568 1 C 1.26915979385376 1 1 1.269160270690918 1 1.600000381469727 L 1 14.39999961853027 C 1 14.73083972930908 1.26915979385376 15 1.599999904632568 15 L 6.400000095367432 15 C 6.730839729309082 15 7 14.73083972930908 7 14.39999961853027 L 7 1.600000381469727 C 7 1.269160270690918 6.730839729309082 1 6.400000095367432 1 L 1.599999904632568 1 M 1.599999904632568 0 L 6.400000095367432 0 C 7.283659934997559 0 8 0.7163400650024414 8 1.600000381469727 L 8 14.39999961853027 C 8 15.28365039825439 7.283659934997559 16 6.400000095367432 16 L 1.599999904632568 16 C 0.7163400650024414 16 0 15.28365039825439 0 14.39999961853027 L 0 1.600000381469727 C 0 0.7163400650024414 0.7163400650024414 0 1.599999904632568 0 Z" stroke="none" fill="#ed1b25"/>
      </g>
      <path id="Path_1430" data-name="Path 1430" d="M2,0V12a1.874,1.874,0,0,1-2-1.714V1.714A1.874,1.874,0,0,1,2,0Z" transform="translate(3 3.5)" fill="#ed1b25"/>
      <path id="Path_1429" data-name="Path 1429" d="M0,0A1.874,1.874,0,0,1,2,1.714v8.571A1.874,1.874,0,0,1,0,12Z" transform="translate(16 3.5)" fill="#ed1b25"/>
    </g>
  </g>
</svg>
