<?xml version="1.0" encoding="utf-8"?>
<!-- Generator: Adobe Illustrator 25.4.1, SVG Export Plug-In . SVG Version: 6.00 Build 0)  -->
<svg version="1.1" id="Layer_1" xmlns="http://www.w3.org/2000/svg" xmlns:xlink="http://www.w3.org/1999/xlink" x="0px" y="0px"
	 width="12px" height="15px" viewBox="0 0 12 15" style="enable-background:new 0 0 12 15;" xml:space="preserve">
<style type="text/css">
	.st0{display:none;fill:#3DDC84;}
	.st1{font-family:'Material-Design-Icons';}
	.st2{font-size:14px;}
	.st3{display:none;}
	.st4{font-size:16px;}
	.st5{fill:#3DDC84;}
	.st6{display:inline;}
</style>
<text transform="matrix(1 0 0 1 -1 12.635)" class="st0 st1 st2"></text>
<text transform="matrix(1 0 0 1 -2 13.3684)" class="st3 st1 st4"></text>
<g>
	<path class="st5" d="M1.7,5.4c0.2,0.2,0.3,0.4,0.3,0.6v4.1c0,0.3-0.1,0.5-0.3,0.6S1.3,11,1,11s-0.5-0.1-0.6-0.2s-0.2-0.4-0.2-0.6
		V6.1c0-0.3,0.1-0.5,0.2-0.6s0.4-0.2,0.6-0.2C1.3,5.2,1.5,5.3,1.7,5.4z M9.1,3c0.3,0.5,0.4,1,0.4,1.6h-7C2.5,4,2.6,3.5,2.9,3
		c0.3-0.5,0.6-0.9,1-1.2L3.2,1c-0.1-0.1-0.1-0.3,0-0.4c0.1-0.1,0.3-0.1,0.4,0l0.9,0.9c0.5-0.2,1-0.4,1.6-0.4c0.6,0,1.1,0.1,1.6,0.4
		l0.8-0.9c0.1-0.1,0.3-0.1,0.4,0c0.1,0.1,0.1,0.3,0,0.4L8.1,1.8C8.5,2.1,8.8,2.5,9.1,3z M2.5,5.2h7V11c0,0.2-0.1,0.3-0.2,0.4
		s-0.2,0.2-0.4,0.2H8.3v2.1c0,0.3-0.1,0.5-0.2,0.6s-0.4,0.2-0.6,0.2S7,14.4,6.8,14.3s-0.3-0.4-0.3-0.6v-2.1H5.4v2.1
		c0,0.3-0.1,0.5-0.3,0.6s-0.4,0.2-0.6,0.2s-0.5-0.1-0.6-0.2s-0.2-0.4-0.2-0.6v-2.1H3.1c-0.2,0-0.3-0.1-0.4-0.2S2.5,11.2,2.5,11V5.2z
		 M4.8,2.8H4.2v0.6h0.6V2.8z M7.8,2.8H7.2v0.6h0.6V2.8z M11.6,5.4c0.2,0.2,0.2,0.4,0.2,0.6v4.1c0,0.3-0.1,0.5-0.2,0.6S11.2,11,11,11
		s-0.5-0.1-0.6-0.2s-0.3-0.4-0.3-0.6V6.1c0-0.3,0.1-0.5,0.3-0.6s0.4-0.2,0.6-0.2C11.2,5.2,11.4,5.3,11.6,5.4z"/>
</g>
<g class="st3">
	<path class="st6" d="M10.7,12.8c-0.3,0.5-0.6,0.9-0.9,1.2c-0.3,0.3-0.7,0.5-1.2,0.5c-0.4,0-0.8-0.1-1.1-0.2C7.2,14.1,6.8,14,6.3,14
		c-0.5,0-0.9,0.1-1.2,0.2c-0.3,0.2-0.7,0.3-1.1,0.3c-0.5,0-0.9-0.2-1.2-0.5s-0.7-0.8-1-1.2c-0.6-0.9-1.1-2-1.3-3.4
		C0.2,8,0.3,6.8,0.9,5.7c0.3-0.5,0.7-0.9,1.2-1.3c0.5-0.3,1.1-0.5,1.6-0.5c0.5,0,0.9,0.1,1.3,0.3c0.4,0.2,0.7,0.3,1,0.3
		c0.3,0,0.7-0.1,1.1-0.3c0.5-0.2,1-0.3,1.6-0.3C9,3.9,9.4,4,9.9,4.1c0.5,0.2,1,0.5,1.4,1.1c-0.1,0-0.3,0.3-0.8,0.7
		c-0.4,0.4-0.7,1.1-0.7,2c0.1,1.1,0.4,1.8,1,2.2c0.5,0.4,0.9,0.6,1,0.6c0,0-0.1,0.3-0.3,0.6C11.3,11.8,11,12.3,10.7,12.8z M6.7,1.6
		C7,1.2,7.3,1,7.7,0.8c0.4-0.2,0.7-0.3,1.1-0.3c0,0.4,0,0.8-0.1,1.2c-0.1,0.4-0.3,0.7-0.6,1C7.8,3,7.5,3.3,7.1,3.5
		C6.8,3.7,6.4,3.7,6,3.7c0-0.4,0-0.8,0.2-1.2C6.3,2.1,6.5,1.8,6.7,1.6z"/>
</g>
</svg>
