<svg id="Group_36" data-name="Group 36" xmlns="http://www.w3.org/2000/svg" width="117.582" height="59.679" viewBox="0 0 117.582 59.679">
  <g id="Scheme_type" data-name="Scheme type" transform="translate(58.866 46.525)">
    <g id="Group_4" data-name="Group 4">
      <path id="Path_1" data-name="Path 1" d="M157.6,107.494a4.017,4.017,0,0,1-1.569.323,1.963,1.963,0,0,1-1.653-.7,3.056,3.056,0,0,1-.469-1.853,2.8,2.8,0,0,1,.63-2.03,2.157,2.157,0,0,1,1.607-.523,6.623,6.623,0,0,1,1.269.131l-.069.807a7.968,7.968,0,0,0-1.107-.076,1.265,1.265,0,0,0-1,.322,2.079,2.079,0,0,0-.338,1.369,2.465,2.465,0,0,0,.231,1.223,1.073,1.073,0,0,0,.992.468,4.292,4.292,0,0,0,1.223-.231Z" transform="translate(-153.908 -102.711)" fill="#fff"/>
      <path id="Path_2" data-name="Path 2" d="M163.627,107.843v-4.952H166.7v.846H164.6v1.153h1.745v.831H164.6V107H166.7v.846Z" transform="translate(-159.477 -102.814)" fill="#fff"/>
      <path id="Path_3" data-name="Path 3" d="M174.684,107.75c-.354-.653-.661-1.268-.954-1.914-.215,0-.507-.008-.692-.023v1.938h-.969v-4.921a15.043,15.043,0,0,1,1.56-.1c1.015,0,1.961.246,1.961,1.53a1.4,1.4,0,0,1-.946,1.446c.284.584.723,1.338,1.153,2.045Zm-1.645-2.637a4.009,4.009,0,0,0,1.045-.077.673.673,0,0,0,.523-.761c0-.592-.423-.7-.9-.7-.223,0-.461.008-.669.023Z" transform="translate(-164.314 -102.721)" fill="#fff"/>
      <path id="Path_4" data-name="Path 4" d="M182.011,107.843v-4.106h-1.338v-.846h3.644v.846H182.98v4.106Z" transform="translate(-169.243 -102.814)" fill="#fff"/>
      <path id="Path_5" data-name="Path 5" d="M190.052,107.843v-4.952h.969v4.952Z" transform="translate(-174.617 -102.814)" fill="#fff"/>
      <path id="Path_6" data-name="Path 6" d="M194.192,107.843v-4.952h3.145v.846h-2.176v1.238h1.8v.83h-1.8v2.037Z" transform="translate(-176.989 -102.814)" fill="#fff"/>
      <path id="Path_7" data-name="Path 7" d="M202.633,107.843v-4.952h.969v4.952Z" transform="translate(-181.825 -102.814)" fill="#fff"/>
      <path id="Path_8" data-name="Path 8" d="M206.774,107.843v-4.952h3.076v.846h-2.107v1.153h1.745v.831h-1.745V107h2.107v.846Z" transform="translate(-184.198 -102.814)" fill="#fff"/>
      <path id="Path_9" data-name="Path 9" d="M215.215,102.86a11.034,11.034,0,0,1,1.545-.131c1.676,0,2.26.876,2.26,2.538,0,1.707-.584,2.545-2.26,2.545-.462,0-1.038-.023-1.545-.077Zm.969,4.09c.208.015.315.015.492.015,1.092,0,1.361-.468,1.361-1.7,0-1.161-.269-1.692-1.361-1.692-.177,0-.331.008-.492.023Z" transform="translate(-189.034 -102.721)" fill="#fff"/>
    </g>
  </g>
  <g id="Scheme_text" data-name="Scheme text" transform="translate(58.939 10.991)">
    <g id="Group_6" data-name="Group 6">
      <g id="Group_5" data-name="Group 5">
        <path id="Path_10" data-name="Path 10" d="M154.988,20.907V14.885h.9v6.022Z" transform="translate(-154.724 -14.791)" fill="#fff"/>
        <path id="Path_11" data-name="Path 11" d="M159.324,19.929a9.343,9.343,0,0,0,1.421.131,1.9,1.9,0,0,0,1.281-.337.817.817,0,0,0,.252-.617c0-.589-.365-.785-1.4-1.094s-1.7-.73-1.7-1.749a1.461,1.461,0,0,1,.58-1.2,2.37,2.37,0,0,1,1.487-.412,8.893,8.893,0,0,1,1.664.187l-.112.748a8.3,8.3,0,0,0-1.393-.131,1.885,1.885,0,0,0-1.038.215.655.655,0,0,0-.28.561c0,.617.477.795,1.468,1.094.973.3,1.636.711,1.636,1.767a1.623,1.623,0,0,1-.608,1.328,2.636,2.636,0,0,1-1.655.439,9.807,9.807,0,0,1-1.711-.178Z" transform="translate(-157.208 -14.655)" fill="#fff"/>
        <path id="Path_12" data-name="Path 12" d="M170.075,17.759c0-2.039.776-3.1,2.6-3.1s2.6,1.066,2.6,3.1-.777,3.1-2.6,3.1S170.075,19.8,170.075,17.759Zm4.283,0c0-1.59-.477-2.3-1.683-2.3s-1.684.711-1.684,2.3.477,2.3,1.684,2.3S174.358,19.349,174.358,17.759Z" transform="translate(-163.676 -14.655)" fill="#fff"/>
        <path id="Path_13" data-name="Path 13" d="M183.393,20.907l2.338-6.022h.729l-2.319,6.022Z" transform="translate(-171.579 -14.791)" fill="#fff"/>
        <path id="Path_14" data-name="Path 14" d="M192.246,20.907V14.885h.9v6.022Z" transform="translate(-176.832 -14.791)" fill="#fff"/>
        <path id="Path_15" data-name="Path 15" d="M196.961,20.907V14.885h3.582v.795h-2.684v1.73h2.2V18.2h-2.2v1.917h2.684v.795Z" transform="translate(-179.629 -14.791)" fill="#fff"/>
        <path id="Path_16" data-name="Path 16" d="M211.049,20.405a4.5,4.5,0,0,1-1.926.458,2.3,2.3,0,0,1-1.964-.86,3.784,3.784,0,0,1-.561-2.244,3.592,3.592,0,0,1,.664-2.338,2.49,2.49,0,0,1,2.02-.767,7.53,7.53,0,0,1,1.562.177l-.084.758a8,8,0,0,0-1.422-.131,1.665,1.665,0,0,0-1.411.542,2.944,2.944,0,0,0-.412,1.758,3.138,3.138,0,0,0,.346,1.683,1.439,1.439,0,0,0,1.3.617A4.5,4.5,0,0,0,210.8,19.7Z" transform="translate(-185.347 -14.655)" fill="#fff"/>
        <path id="Path_17" data-name="Path 17" d="M154.548,44.77v-.71c1.664-1.45,2.852-2.581,2.852-3.581,0-.748-.561-1.019-1.188-1.019a4.455,4.455,0,0,0-1.524.327l-.253-.711a4.539,4.539,0,0,1,1.842-.42c1.207,0,2.039.608,2.039,1.8,0,1.309-1.318,2.44-2.6,3.525H158.4v.795Z" transform="translate(-154.397 -28.895)" fill="#fff"/>
        <path id="Path_18" data-name="Path 18" d="M166.227,44.907a20.93,20.93,0,0,1,2.122-5.236h-3.011v-.785h3.937v.738a19.012,19.012,0,0,0-2.085,5.283Z" transform="translate(-160.866 -29.032)" fill="#fff"/>
        <path id="Path_19" data-name="Path 19" d="M176.193,41.759c0-2.02.421-3.1,2.179-3.1s2.169,1.085,2.169,3.1-.421,3.1-2.169,3.1S176.193,43.77,176.193,41.759Zm3.45,0c0-1.431-.084-2.319-1.272-2.319-1.206,0-1.281.889-1.281,2.319s.074,2.328,1.281,2.328C179.559,44.088,179.643,43.181,179.643,41.759Z" transform="translate(-167.307 -28.895)" fill="#fff"/>
        <path id="Path_20" data-name="Path 20" d="M188.475,41.759c0-2.02.421-3.1,2.179-3.1s2.169,1.085,2.169,3.1-.421,3.1-2.169,3.1S188.475,43.77,188.475,41.759Zm3.45,0c0-1.431-.084-2.319-1.272-2.319-1.206,0-1.281.889-1.281,2.319s.075,2.328,1.281,2.328C191.841,44.088,191.925,43.181,191.925,41.759Z" transform="translate(-174.594 -28.895)" fill="#fff"/>
        <path id="Path_21" data-name="Path 21" d="M200.809,44.907V39.792l-1.254.477-.271-.608,1.609-.776h.813v6.022Z" transform="translate(-181.008 -29.032)" fill="#fff"/>
        <path id="Path_22" data-name="Path 22" d="M154.574,65.813V61.1h.7v4.715Z" transform="translate(-154.479 -42.212)" fill="#fff"/>
        <path id="Path_23" data-name="Path 23" d="M160.158,67.651V65.432c0-.432-.2-.637-.571-.637a1.882,1.882,0,0,0-.82.212v2.643H158.1V64.268h.491l.058.307a1.719,1.719,0,0,1,1.025-.381,1.057,1.057,0,0,1,1.15,1.179v2.277Z" transform="translate(-156.572 -44.05)" fill="#fff"/>
        <path id="Path_24" data-name="Path 24" d="M166.07,65.706V62.873h-.5v-.49l.5-.029v-.366a1.1,1.1,0,0,1,.264-.813,1.2,1.2,0,0,1,.864-.256c.161,0,.337.015.5.029l-.037.556c-.169-.015-.322-.015-.454-.015-.175,0-.3.022-.366.117a.638.638,0,0,0-.1.439v.279h.74v.549h-.74v2.834Z" transform="translate(-161.005 -42.105)" fill="#fff"/>
        <path id="Path_25" data-name="Path 25" d="M172.091,67.724a1.457,1.457,0,0,1-1.069-.373,2.391,2.391,0,0,1,0-2.782,1.718,1.718,0,0,1,2.138,0,2.39,2.39,0,0,1,0,2.782A1.458,1.458,0,0,1,172.091,67.724Zm.842-1.764a1.447,1.447,0,0,0-.241-.945.887.887,0,0,0-1.2,0,1.444,1.444,0,0,0-.241.945,1.417,1.417,0,0,0,.241.945.758.758,0,0,0,.6.234.794.794,0,0,0,.6-.234A1.42,1.42,0,0,0,172.932,65.959Z" transform="translate(-163.973 -44.05)" fill="#fff"/>
        <path id="Path_26" data-name="Path 26" d="M179.125,67.661V64.279h.5l.088.417h.029a1.078,1.078,0,0,1,1-.483,2.332,2.332,0,0,1,.293.015l-.044.608a2.425,2.425,0,0,0-.4-.029,1.217,1.217,0,0,0-.8.256v2.6Z" transform="translate(-169.046 -44.06)" fill="#fff"/>
        <path id="Path_27" data-name="Path 27" d="M188.418,67.651V65.41c0-.425-.2-.615-.578-.615a1.609,1.609,0,0,0-.784.235,2.671,2.671,0,0,1,.037.417v2.2h-.666V65.41c0-.425-.2-.615-.571-.615a1.56,1.56,0,0,0-.754.2v2.651h-.666V64.268h.491l.058.307A1.69,1.69,0,0,1,186,64.2a.976.976,0,0,1,.879.432,1.681,1.681,0,0,1,1.054-.432c.754,0,1.149.417,1.149,1.245v2.211Z" transform="translate(-172.197 -44.05)" fill="#fff"/>
        <path id="Path_28" data-name="Path 28" d="M199.055,67.651l-.073-.285a1.489,1.489,0,0,1-.989.359,1.039,1.039,0,0,1-1.12-1.061,1,1,0,0,1,.359-.791,1.436,1.436,0,0,1,.908-.256c.234,0,.505.015.739.029v-.285a.569.569,0,0,0-.139-.425.869.869,0,0,0-.6-.146,4.8,4.8,0,0,0-.952.11l-.1-.556A4.23,4.23,0,0,1,198.2,64.2a1.544,1.544,0,0,1,1.018.264,1.052,1.052,0,0,1,.329.864v2.328Zm-.176-1.516c-.168-.015-.4-.022-.6-.022-.491,0-.725.176-.725.549a.517.517,0,0,0,.579.534,1.252,1.252,0,0,0,.747-.249Z" transform="translate(-179.577 -44.05)" fill="#fff"/>
        <path id="Path_29" data-name="Path 29" d="M206.219,66.2a1.829,1.829,0,0,1-.812.205c-.549,0-.864-.308-.864-.923v-1.97h-.505v-.49l.527-.029.051-1h.593v.967h.945v.549h-.945v1.867c0,.249.044.425.3.425a1.159,1.159,0,0,0,.49-.124Z" transform="translate(-183.828 -42.746)" fill="#fff"/>
        <path id="Path_30" data-name="Path 30" d="M210.523,61.044a.375.375,0,0,1,.373.373.369.369,0,0,1-.373.366.362.362,0,0,1-.366-.366A.369.369,0,0,1,210.523,61.044Zm-.33,4.737V62.4h.666v3.382Z" transform="translate(-187.459 -42.18)" fill="#fff"/>
        <path id="Path_31" data-name="Path 31" d="M214.5,67.724a1.458,1.458,0,0,1-1.069-.373,2.391,2.391,0,0,1,0-2.782,1.718,1.718,0,0,1,2.138,0,2.39,2.39,0,0,1,0,2.782A1.458,1.458,0,0,1,214.5,67.724Zm.842-1.764a1.447,1.447,0,0,0-.242-.945.887.887,0,0,0-1.2,0,1.442,1.442,0,0,0-.242.945,1.415,1.415,0,0,0,.242.945.756.756,0,0,0,.6.234.793.793,0,0,0,.6-.234A1.42,1.42,0,0,0,215.34,65.959Z" transform="translate(-189.135 -44.05)" fill="#fff"/>
        <path id="Path_32" data-name="Path 32" d="M223.59,67.651V65.432c0-.432-.2-.637-.571-.637a1.884,1.884,0,0,0-.82.212v2.643h-.666V64.268h.491l.058.307a1.718,1.718,0,0,1,1.025-.381,1.057,1.057,0,0,1,1.15,1.179v2.277Z" transform="translate(-194.209 -44.05)" fill="#fff"/>
        <path id="Path_33" data-name="Path 33" d="M233.043,65.048a7.324,7.324,0,0,0,1.113.1,1.487,1.487,0,0,0,1-.264.639.639,0,0,0,.2-.484c0-.461-.286-.615-1.1-.856s-1.333-.571-1.333-1.369a1.146,1.146,0,0,1,.454-.937,1.858,1.858,0,0,1,1.165-.322,6.971,6.971,0,0,1,1.3.146l-.088.586a6.515,6.515,0,0,0-1.091-.1,1.475,1.475,0,0,0-.812.168.513.513,0,0,0-.22.44c0,.483.373.622,1.149.856s1.282.557,1.282,1.384a1.27,1.27,0,0,1-.476,1.04,2.059,2.059,0,0,1-1.3.344,7.685,7.685,0,0,1-1.34-.139Z" transform="translate(-200.969 -42.105)" fill="#fff"/>
        <path id="Path_34" data-name="Path 34" d="M244,67.453a2.91,2.91,0,0,1-1.172.271c-1,0-1.53-.622-1.53-1.742,0-.93.425-1.786,1.457-1.786.82,0,1.3.586,1.3,1.494A2.7,2.7,0,0,1,244,66.2h-2.028a1.112,1.112,0,0,0,.227.7.883.883,0,0,0,.674.234,2.568,2.568,0,0,0,.974-.212Zm-.579-1.779c0-.505-.146-.908-.688-.908-.491,0-.725.44-.754.908Z" transform="translate(-205.936 -44.05)" fill="#fff"/>
        <path id="Path_35" data-name="Path 35" d="M251.235,67.453a2.834,2.834,0,0,1-1.157.271c-.886,0-1.457-.5-1.457-1.75,0-1.435.725-1.779,1.552-1.779a4.173,4.173,0,0,1,.937.1l-.058.556a5.271,5.271,0,0,0-.769-.066c-.651,0-.988.256-.988,1.172,0,.82.278,1.172.849,1.172a2.3,2.3,0,0,0,.908-.212Z" transform="translate(-210.282 -44.05)" fill="#fff"/>
        <path id="Path_36" data-name="Path 36" d="M258.112,67.758l-.051-.285a1.733,1.733,0,0,1-1.025.366,1.055,1.055,0,0,1-1.142-1.179V64.375h.667v2.219c0,.461.2.637.593.637a1.842,1.842,0,0,0,.783-.19V64.375h.667v3.382Z" transform="translate(-214.597 -44.156)" fill="#fff"/>
        <path id="Path_37" data-name="Path 37" d="M264.191,67.661V64.279h.5l.088.417h.029a1.079,1.079,0,0,1,1-.483,2.339,2.339,0,0,1,.293.015l-.044.608a2.433,2.433,0,0,0-.4-.029,1.217,1.217,0,0,0-.8.256v2.6Z" transform="translate(-219.52 -44.06)" fill="#fff"/>
        <path id="Path_38" data-name="Path 38" d="M269.776,61.044a.375.375,0,0,1,.373.373.369.369,0,0,1-.373.366.363.363,0,0,1-.366-.366A.369.369,0,0,1,269.776,61.044Zm-.33,4.737V62.4h.667v3.382Z" transform="translate(-222.617 -42.18)" fill="#fff"/>
        <path id="Path_39" data-name="Path 39" d="M273.987,66.2a1.826,1.826,0,0,1-.812.205c-.549,0-.864-.308-.864-.923v-1.97h-.505v-.49l.527-.029.051-1h.593v.967h.944v.549h-.944v1.867c0,.249.044.425.3.425a1.156,1.156,0,0,0,.49-.124Z" transform="translate(-224.038 -42.746)" fill="#fff"/>
        <path id="Path_40" data-name="Path 40" d="M278.144,69.091c.2-.52.359-.981.476-1.333h-.359c-.344-.937-.7-2.167-1-3.382h.7c.227,1,.476,1.947.769,2.855h.052c.271-.82.556-1.882.776-2.855h.681a39.664,39.664,0,0,1-1.435,4.715Z" transform="translate(-227.274 -44.156)" fill="#fff"/>
        <path id="Path_41" data-name="Path 41" d="M158.323,84.813c-.037-1.259-.1-2.555-.154-3.8h-.037l-1.069,3h-.754l-1.069-3H155.2c-.058,1.244-.117,2.541-.154,3.8h-.71c.051-1.567.131-3.141.22-4.715h1.025l1.084,3.126h.037l1.084-3.126h1.025c.088,1.574.168,3.148.22,4.715Z" transform="translate(-154.34 -53.486)" fill="#fff"/>
        <path id="Path_42" data-name="Path 42" d="M169.139,86.651l-.073-.285a1.489,1.489,0,0,1-.989.359,1.039,1.039,0,0,1-1.12-1.061,1,1,0,0,1,.359-.791,1.436,1.436,0,0,1,.908-.256c.234,0,.505.015.739.029v-.285a.567.567,0,0,0-.139-.425.869.869,0,0,0-.6-.147,4.77,4.77,0,0,0-.952.11l-.1-.557a4.23,4.23,0,0,1,1.113-.146,1.544,1.544,0,0,1,1.018.263,1.052,1.052,0,0,1,.329.864v2.328Zm-.176-1.516c-.168-.014-.4-.022-.6-.022-.491,0-.725.176-.725.549a.517.517,0,0,0,.579.534,1.252,1.252,0,0,0,.747-.249Z" transform="translate(-161.826 -55.323)" fill="#fff"/>
        <path id="Path_43" data-name="Path 43" d="M177.151,86.651V84.432c0-.431-.2-.637-.571-.637a1.888,1.888,0,0,0-.82.212v2.643h-.666V83.268h.491l.059.307a1.716,1.716,0,0,1,1.025-.381,1.057,1.057,0,0,1,1.15,1.179v2.277Z" transform="translate(-166.654 -55.323)" fill="#fff"/>
        <path id="Path_44" data-name="Path 44" d="M184.979,86.651l-.073-.285a1.489,1.489,0,0,1-.989.359,1.039,1.039,0,0,1-1.12-1.061,1,1,0,0,1,.359-.791,1.435,1.435,0,0,1,.908-.256c.235,0,.505.015.74.029v-.285a.567.567,0,0,0-.139-.425.87.87,0,0,0-.6-.147,4.769,4.769,0,0,0-.952.11l-.1-.557a4.227,4.227,0,0,1,1.113-.146,1.544,1.544,0,0,1,1.018.263,1.053,1.053,0,0,1,.329.864v2.328Zm-.176-1.516c-.168-.014-.4-.022-.6-.022-.491,0-.725.176-.725.549a.517.517,0,0,0,.579.534,1.253,1.253,0,0,0,.747-.249Z" transform="translate(-171.225 -55.323)" fill="#fff"/>
        <path id="Path_45" data-name="Path 45" d="M192.653,86.461a1.453,1.453,0,0,1-.806.263c-.959,0-1.311-.622-1.311-1.735,0-1.267.4-1.794,1.333-1.794a4.949,4.949,0,0,1,1.45.235v3.528a1.056,1.056,0,0,1-.307.806,1.539,1.539,0,0,1-1.04.293,6.157,6.157,0,0,1-1.091-.117l.088-.571a6.361,6.361,0,0,0,.908.088.957.957,0,0,0,.644-.154.593.593,0,0,0,.132-.417Zm0-2.607a4.323,4.323,0,0,0-.718-.066c-.578,0-.725.4-.725,1.208,0,.762.154,1.179.717,1.179a1.641,1.641,0,0,0,.725-.161Z" transform="translate(-175.818 -55.323)" fill="#fff"/>
        <path id="Path_46" data-name="Path 46" d="M201.014,86.453a2.906,2.906,0,0,1-1.172.271c-1,0-1.53-.622-1.53-1.743,0-.93.425-1.786,1.457-1.786.82,0,1.3.586,1.3,1.494a2.66,2.66,0,0,1-.051.512h-2.028a1.111,1.111,0,0,0,.227.7.883.883,0,0,0,.674.234,2.566,2.566,0,0,0,.974-.212Zm-.578-1.779c0-.505-.146-.908-.688-.908-.49,0-.725.439-.754.908Z" transform="translate(-180.431 -55.323)" fill="#fff"/>
        <path id="Path_47" data-name="Path 47" d="M210.142,86.651V84.41c0-.425-.2-.615-.578-.615a1.617,1.617,0,0,0-.784.234,2.73,2.73,0,0,1,.037.417v2.2h-.666V84.41c0-.425-.2-.615-.571-.615a1.558,1.558,0,0,0-.754.205v2.65h-.666V83.268h.491l.058.307a1.688,1.688,0,0,1,1.018-.381.975.975,0,0,1,.878.432,1.683,1.683,0,0,1,1.055-.432c.754,0,1.149.417,1.149,1.245v2.211Z" transform="translate(-185.087 -55.323)" fill="#fff"/>
        <path id="Path_48" data-name="Path 48" d="M221.174,86.453a2.91,2.91,0,0,1-1.172.271c-1,0-1.531-.622-1.531-1.743,0-.93.425-1.786,1.457-1.786.82,0,1.3.586,1.3,1.494a2.7,2.7,0,0,1-.051.512h-2.028a1.11,1.11,0,0,0,.227.7.883.883,0,0,0,.674.234,2.57,2.57,0,0,0,.974-.212Zm-.579-1.779c0-.505-.146-.908-.688-.908-.49,0-.725.439-.754.908Z" transform="translate(-192.393 -55.323)" fill="#fff"/>
        <path id="Path_49" data-name="Path 49" d="M228.377,86.651V84.432c0-.431-.2-.637-.571-.637a1.89,1.89,0,0,0-.82.212v2.643h-.666V83.268h.491l.058.307a1.718,1.718,0,0,1,1.025-.381,1.057,1.057,0,0,1,1.15,1.179v2.277Z" transform="translate(-197.05 -55.323)" fill="#fff"/>
        <path id="Path_50" data-name="Path 50" d="M235.719,85.2a1.829,1.829,0,0,1-.812.205c-.549,0-.864-.308-.864-.923V82.514h-.505v-.491l.527-.029.051-1h.593v.967h.945v.549h-.945v1.867c0,.249.044.425.3.425a1.159,1.159,0,0,0,.49-.124Z" transform="translate(-201.332 -54.02)" fill="#fff"/>
      </g>
    </g>
  </g>
  <g id="Key_line" data-name="Key line" transform="translate(26.228 5.438)">
    <path id="Path_51" data-name="Path 51" d="M133.255,54.241H69.773a.678.678,0,1,1,0-1.356h63.481a25.764,25.764,0,1,0,0-51.529H83.37A.678.678,0,1,1,83.37,0h49.885a27.12,27.12,0,1,1,0,54.241Z" transform="translate(-69.093)" fill="#fff"/>
  </g>
  <g id="Roundel" transform="translate(0 0)">
    <g id="Group_7" data-name="Group 7" transform="translate(11.061 17.466)">
      <path id="Path_52" data-name="Path 52" d="M46.54,40.284a5.777,5.777,0,0,1,11.541,0Zm4.867,13.7c-.819-2.406-2.759-3.674-4.394-4.74-1.815-1.183-2.577-1.8-2.609-2.933a2.815,2.815,0,0,1,2.767-2.828h10.08Zm-7.8,9.138a8.889,8.889,0,0,0,1.358.123,7.252,7.252,0,0,0,1.355-.125l-1.355,2.432ZM41.961,43.488a6.182,6.182,0,0,0-.7,2.75h0c0,.032,0,.065,0,.1v.007c.048,3.008,2.272,4.461,4.065,5.629,2.13,1.389,3.334,2.285,3.334,4.566,0,2.246-1.78,3.552-3.969,3.552a4.748,4.748,0,0,1-3.894-2l-.629-1.092L32.605,43.488Zm-4.212-8.7a5.832,5.832,0,0,1,5.77,5.5H31.982a5.831,5.831,0,0,1,5.766-5.5M52.31,31.722a8.617,8.617,0,0,0-7.281,3.98,8.613,8.613,0,0,0-7.281-3.98,8.947,8.947,0,0,0-8.921,8.951s0,.047,0,.907a5,5,0,0,0,.782,2.813c.684,1.177,15.357,26.486,15.357,26.486s14.57-25.153,15.29-26.486a5.03,5.03,0,0,0,.835-2.813v-.907a8.877,8.877,0,0,0-8.779-8.951" transform="translate(-28.826 -31.722)" fill="#fff"/>
    </g>
    <g id="Group_9" data-name="Group 9" transform="translate(16.879)">
      <g id="Group_8" data-name="Group 8">
        <path id="Path_53" data-name="Path 53" d="M48.779-9.418a4.825,4.825,0,0,0-2.61.782v-5.537H43.987V.818H45.27l.352-.8a5.039,5.039,0,0,0,3.157,1.041c2.84,0,3.892-1.957,3.892-5.237,0-3.258-1.052-5.235-3.892-5.235m-.51,1.9c1.911,0,2.2,1.5,2.2,3.336,0,1.859-.29,3.344-2.2,3.344a4.063,4.063,0,0,1-2.1-.584V-6.939a4.04,4.04,0,0,1,2.1-.579M55.429-6.3c0-.9.722-1.238,1.874-1.238a7.856,7.856,0,0,1,2.976.561V-8.92a7.315,7.315,0,0,0-3.02-.5c-2.861,0-3.951,1.459-3.951,3.178s.721,2.655,3.661,2.921c1.3.116,1.615.495,1.615,1.236,0,.879-.76,1.243-2.316,1.243a8.318,8.318,0,0,1-2.9-.561V.516a9.035,9.035,0,0,0,3.214.539c3.117,0,4.149-1.5,4.149-3.217,0-1.858-.761-2.76-3.682-3.017C55.782-5.3,55.429-5.6,55.429-6.3M64.186.957a2.172,2.172,0,0,0,.429-.044V-.9c-.625,0-.818-.2-.818-.761V-9.178H61.615v7.537a2.269,2.269,0,0,0,2.571,2.6m-2.9-13.095a1.446,1.446,0,0,0,1.419,1.46,1.449,1.449,0,0,0,1.425-1.46A1.448,1.448,0,0,0,62.705-13.6a1.445,1.445,0,0,0-1.419,1.458" transform="translate(-43.987 14.173)" fill="#fff"/>
      </g>
    </g>
    <g id="Group_10" data-name="Group 10" transform="translate(0 9.184)">
      <path id="Path_54" data-name="Path 54" d="M27.193,60.256A27.185,27.185,0,0,1,0,33.141,26.894,26.894,0,0,1,13.247,9.857a.678.678,0,1,1,.7,1.164A25.551,25.551,0,0,0,1.36,33.141a25.833,25.833,0,0,0,51.666,0A25.551,25.551,0,0,0,40.44,11.02a.678.678,0,1,1,.7-1.164A26.894,26.894,0,0,1,54.385,33.141,27.184,27.184,0,0,1,27.193,60.256Z" transform="translate(0 -9.76)" fill="#fff"/>
    </g>
  </g>
</svg>
