<svg xmlns="http://www.w3.org/2000/svg" width="150.913" height="77.012" viewBox="0 0 150.913 77.012">
  <g id="Group_35" data-name="Group 35" transform="translate(0 14.173)">
    <g id="Scheme_type" data-name="Scheme type" transform="translate(75.563 45.963)">
      <g id="Group_4" data-name="Group 4">
        <path id="Path_1" data-name="Path 1" d="M158.643,108.847a5.154,5.154,0,0,1-2.012.414,2.518,2.518,0,0,1-2.121-.9,3.92,3.92,0,0,1-.6-2.377,3.6,3.6,0,0,1,.809-2.6,2.768,2.768,0,0,1,2.062-.671,8.5,8.5,0,0,1,1.628.168l-.089,1.036a10.222,10.222,0,0,0-1.42-.1,1.623,1.623,0,0,0-1.283.414,2.667,2.667,0,0,0-.434,1.757,3.162,3.162,0,0,0,.3,1.569,1.377,1.377,0,0,0,1.272.6,5.507,5.507,0,0,0,1.569-.3Z" transform="translate(-153.908 -102.711)" fill="#fff"/>
        <path id="Path_2" data-name="Path 2" d="M163.627,109.244v-6.353h3.946v1.085h-2.7v1.48h2.239v1.066H164.87v1.638h2.7v1.085Z" transform="translate(-158.302 -102.792)" fill="#fff"/>
        <path id="Path_3" data-name="Path 3" d="M175.424,109.171c-.454-.838-.848-1.627-1.223-2.456-.276,0-.651-.01-.888-.03v2.486H172.07v-6.313a19.3,19.3,0,0,1,2-.128c1.3,0,2.516.316,2.516,1.963a1.792,1.792,0,0,1-1.214,1.855c.365.75.927,1.717,1.48,2.624Zm-2.111-3.383a5.143,5.143,0,0,0,1.341-.1.863.863,0,0,0,.671-.977c0-.759-.542-.9-1.154-.9-.287,0-.592.01-.859.03Z" transform="translate(-162.119 -102.719)" fill="#fff"/>
        <path id="Path_4" data-name="Path 4" d="M182.39,109.244v-5.268h-1.717v-1.085h4.676v1.085h-1.716v5.268Z" transform="translate(-166.009 -102.792)" fill="#fff"/>
        <path id="Path_5" data-name="Path 5" d="M190.052,109.244v-6.353H191.3v6.353Z" transform="translate(-170.249 -102.792)" fill="#fff"/>
        <path id="Path_6" data-name="Path 6" d="M194.192,109.244v-6.353h4.035v1.085h-2.792v1.589h2.308v1.065h-2.308v2.614Z" transform="translate(-172.121 -102.792)" fill="#fff"/>
        <path id="Path_7" data-name="Path 7" d="M202.633,109.244v-6.353h1.243v6.353Z" transform="translate(-175.937 -102.792)" fill="#fff"/>
        <path id="Path_8" data-name="Path 8" d="M206.774,109.244v-6.353h3.946v1.085h-2.7v1.48h2.239v1.066h-2.239v1.638h2.7v1.085Z" transform="translate(-177.809 -102.792)" fill="#fff"/>
        <path id="Path_9" data-name="Path 9" d="M215.215,102.9a14.157,14.157,0,0,1,1.983-.168c2.15,0,2.9,1.124,2.9,3.256,0,2.19-.749,3.265-2.9,3.265-.592,0-1.331-.03-1.983-.1Zm1.243,5.248c.266.02.4.02.631.02,1.4,0,1.746-.6,1.746-2.179,0-1.49-.345-2.171-1.746-2.171-.227,0-.424.01-.631.03Z" transform="translate(-181.626 -102.719)" fill="#fff"/>
      </g>
    </g>
    <g id="Scheme_text" data-name="Scheme text" transform="translate(75.676 0.147)">
      <g id="Group_6" data-name="Group 6">
        <g id="Group_5" data-name="Group 5">
          <path id="Path_10" data-name="Path 10" d="M154.988,22.611V14.885h1.152v7.726Z" transform="translate(-154.65 -14.765)" fill="#fff"/>
          <path id="Path_11" data-name="Path 11" d="M159.366,21.421a11.988,11.988,0,0,0,1.823.168,2.438,2.438,0,0,0,1.644-.432,1.048,1.048,0,0,0,.323-.792c0-.756-.468-1.007-1.8-1.4s-2.183-.936-2.183-2.243a1.874,1.874,0,0,1,.744-1.535,3.04,3.04,0,0,1,1.907-.528,11.409,11.409,0,0,1,2.135.24l-.144.959a10.652,10.652,0,0,0-1.787-.168,2.418,2.418,0,0,0-1.332.276.84.84,0,0,0-.359.72c0,.792.611,1.019,1.883,1.4,1.248.384,2.1.912,2.1,2.267a2.082,2.082,0,0,1-.779,1.7,3.381,3.381,0,0,1-2.123.563,12.582,12.582,0,0,1-2.2-.228Z" transform="translate(-156.652 -14.655)" fill="#fff"/>
          <path id="Path_12" data-name="Path 12" d="M170.075,18.638c0-2.615,1-3.983,3.335-3.983s3.335,1.367,3.335,3.983-1,3.983-3.335,3.983S170.075,21.253,170.075,18.638Zm5.495,0c0-2.039-.612-2.951-2.159-2.951s-2.16.912-2.16,2.951.612,2.951,2.16,2.951S175.57,20.677,175.57,18.638Z" transform="translate(-161.866 -14.655)" fill="#fff"/>
          <path id="Path_13" data-name="Path 13" d="M183.393,22.611l3-7.726h.935l-2.975,7.726Z" transform="translate(-168.236 -14.765)" fill="#fff"/>
          <path id="Path_14" data-name="Path 14" d="M192.246,22.611V14.885H193.4v7.726Z" transform="translate(-172.47 -14.765)" fill="#fff"/>
          <path id="Path_15" data-name="Path 15" d="M196.961,22.611V14.885h4.6V15.9h-3.443v2.219h2.819v1.008h-2.819v2.459h3.443v1.019Z" transform="translate(-174.725 -14.765)" fill="#fff"/>
          <path id="Path_16" data-name="Path 16" d="M212.309,22.033a5.77,5.77,0,0,1-2.471.588,2.955,2.955,0,0,1-2.519-1.1,4.855,4.855,0,0,1-.72-2.879,4.608,4.608,0,0,1,.852-3,3.194,3.194,0,0,1,2.591-.983,9.66,9.66,0,0,1,2,.227l-.108.972a10.264,10.264,0,0,0-1.824-.168,2.136,2.136,0,0,0-1.811.7,3.777,3.777,0,0,0-.528,2.255,4.026,4.026,0,0,0,.443,2.159,1.846,1.846,0,0,0,1.668.792,5.772,5.772,0,0,0,2.1-.468Z" transform="translate(-179.334 -14.655)" fill="#fff"/>
          <path id="Path_17" data-name="Path 17" d="M154.58,46.5v-.911c2.135-1.86,3.659-3.311,3.659-4.595,0-.96-.72-1.308-1.524-1.308a5.716,5.716,0,0,0-1.955.42l-.324-.912a5.824,5.824,0,0,1,2.363-.539c1.548,0,2.615.779,2.615,2.3,0,1.679-1.691,3.131-3.335,4.523h3.443V46.5Z" transform="translate(-154.386 -26.134)" fill="#fff"/>
          <path id="Path_18" data-name="Path 18" d="M166.478,46.611a26.853,26.853,0,0,1,2.723-6.718h-3.863V38.885h5.051v.947a24.393,24.393,0,0,0-2.675,6.778Z" transform="translate(-159.6 -26.244)" fill="#fff"/>
          <path id="Path_19" data-name="Path 19" d="M176.193,42.638c0-2.591.54-3.983,2.8-3.983s2.783,1.391,2.783,3.983-.54,3.983-2.783,3.983S176.193,45.217,176.193,42.638Zm4.427,0c0-1.835-.108-2.975-1.631-2.975-1.548,0-1.643,1.14-1.643,2.975s.1,2.987,1.643,2.987C180.512,45.625,180.62,44.461,180.62,42.638Z" transform="translate(-164.792 -26.134)" fill="#fff"/>
          <path id="Path_20" data-name="Path 20" d="M188.475,42.638c0-2.591.54-3.983,2.8-3.983s2.783,1.391,2.783,3.983-.54,3.983-2.783,3.983S188.475,45.217,188.475,42.638Zm4.427,0c0-1.835-.108-2.975-1.631-2.975-1.547,0-1.643,1.14-1.643,2.975s.1,2.987,1.643,2.987C192.794,45.625,192.9,44.461,192.9,42.638Z" transform="translate(-170.666 -26.134)" fill="#fff"/>
          <path id="Path_21" data-name="Path 21" d="M201.24,46.611V40.048l-1.608.612-.348-.78,2.064-1h1.043v7.726Z" transform="translate(-175.836 -26.244)" fill="#fff"/>
          <path id="Path_22" data-name="Path 22" d="M154.574,67.147V61.1h.9v6.049Z" transform="translate(-154.452 -36.868)" fill="#fff"/>
          <path id="Path_23" data-name="Path 23" d="M160.74,68.629V65.783c0-.555-.253-.818-.732-.818a2.415,2.415,0,0,0-1.052.272v3.391H158.1v-4.34h.63l.075.394a2.2,2.2,0,0,1,1.315-.488,1.355,1.355,0,0,1,1.475,1.512v2.921Z" transform="translate(-156.139 -38.349)" fill="#fff"/>
          <path id="Path_24" data-name="Path 24" d="M166.211,67.061V63.426h-.639V62.8l.639-.038v-.47a1.415,1.415,0,0,1,.338-1.043,1.539,1.539,0,0,1,1.109-.329c.207,0,.432.019.639.038l-.047.714c-.217-.019-.414-.019-.583-.019-.225,0-.384.029-.469.15a.819.819,0,0,0-.132.563v.357h.949v.7h-.949v3.635Z" transform="translate(-159.712 -36.782)" fill="#fff"/>
          <path id="Path_25" data-name="Path 25" d="M172.519,68.722a1.869,1.869,0,0,1-1.372-.479,3.067,3.067,0,0,1,0-3.57,2.2,2.2,0,0,1,2.743,0,3.067,3.067,0,0,1,0,3.57A1.87,1.87,0,0,1,172.519,68.722Zm1.08-2.264a1.856,1.856,0,0,0-.309-1.212,1.138,1.138,0,0,0-1.541,0,1.853,1.853,0,0,0-.309,1.212,1.818,1.818,0,0,0,.309,1.212.972.972,0,0,0,.771.3,1.019,1.019,0,0,0,.771-.3A1.821,1.821,0,0,0,173.6,66.459Z" transform="translate(-162.105 -38.349)" fill="#fff"/>
          <path id="Path_26" data-name="Path 26" d="M179.125,68.637V64.3h.639l.113.535h.038a1.383,1.383,0,0,1,1.287-.62,3,3,0,0,1,.376.019l-.056.779a3.111,3.111,0,0,0-.516-.038,1.561,1.561,0,0,0-1.024.329v3.335Z" transform="translate(-166.194 -38.358)" fill="#fff"/>
          <path id="Path_27" data-name="Path 27" d="M189.545,68.629V65.754c0-.545-.263-.789-.742-.789a2.064,2.064,0,0,0-1.005.3,3.429,3.429,0,0,1,.047.535v2.827h-.855V65.754c0-.545-.253-.789-.732-.789a2,2,0,0,0-.967.263v3.4h-.855v-4.34h.63l.075.394a2.168,2.168,0,0,1,1.306-.488,1.252,1.252,0,0,1,1.127.554,2.157,2.157,0,0,1,1.353-.554c.968,0,1.474.535,1.474,1.6v2.837Z" transform="translate(-168.734 -38.349)" fill="#fff"/>
          <path id="Path_28" data-name="Path 28" d="M199.673,68.629l-.094-.366a1.91,1.91,0,0,1-1.268.46,1.332,1.332,0,0,1-1.437-1.362,1.279,1.279,0,0,1,.46-1.015,1.842,1.842,0,0,1,1.165-.329c.3,0,.648.019.948.038v-.366a.73.73,0,0,0-.178-.545,1.114,1.114,0,0,0-.77-.188,6.161,6.161,0,0,0-1.221.141l-.131-.714a5.427,5.427,0,0,1,1.428-.188,1.98,1.98,0,0,1,1.306.338,1.35,1.35,0,0,1,.423,1.109v2.987Zm-.226-1.944c-.216-.019-.507-.028-.77-.028-.63,0-.93.225-.93.7a.663.663,0,0,0,.742.686,1.607,1.607,0,0,0,.958-.319Z" transform="translate(-174.683 -38.349)" fill="#fff"/>
          <path id="Path_29" data-name="Path 29" d="M206.837,67.39a2.347,2.347,0,0,1-1.042.263c-.7,0-1.109-.395-1.109-1.184V63.942h-.648v-.629l.676-.038L204.779,62h.761v1.24h1.212v.7H205.54v2.4c0,.32.056.545.386.545a1.487,1.487,0,0,0,.629-.16Z" transform="translate(-178.109 -37.298)" fill="#fff"/>
          <path id="Path_30" data-name="Path 30" d="M210.627,61.044a.481.481,0,0,1,.479.479.473.473,0,0,1-.479.47.465.465,0,0,1-.47-.47A.473.473,0,0,1,210.627,61.044Zm-.423,6.077v-4.34h.855v4.34Z" transform="translate(-181.036 -36.842)" fill="#fff"/>
          <path id="Path_31" data-name="Path 31" d="M214.926,68.722a1.87,1.87,0,0,1-1.372-.479,3.067,3.067,0,0,1,0-3.57,2.2,2.2,0,0,1,2.743,0,3.067,3.067,0,0,1,0,3.57A1.87,1.87,0,0,1,214.926,68.722Zm1.08-2.264a1.856,1.856,0,0,0-.31-1.212,1.138,1.138,0,0,0-1.541,0,1.85,1.85,0,0,0-.31,1.212,1.815,1.815,0,0,0,.31,1.212.97.97,0,0,0,.77.3,1.018,1.018,0,0,0,.771-.3A1.821,1.821,0,0,0,216.007,66.459Z" transform="translate(-182.388 -38.349)" fill="#fff"/>
          <path id="Path_32" data-name="Path 32" d="M224.172,68.629V65.783c0-.555-.253-.818-.732-.818a2.417,2.417,0,0,0-1.052.272v3.391h-.855v-4.34h.63l.075.394a2.2,2.2,0,0,1,1.315-.488,1.356,1.356,0,0,1,1.475,1.512v2.921Z" transform="translate(-186.477 -38.349)" fill="#fff"/>
          <path id="Path_33" data-name="Path 33" d="M233.076,66.216a9.4,9.4,0,0,0,1.428.131,1.908,1.908,0,0,0,1.287-.338.819.819,0,0,0,.254-.62c0-.592-.367-.789-1.409-1.1s-1.71-.732-1.71-1.757a1.47,1.47,0,0,1,.582-1.2A2.384,2.384,0,0,1,235,60.918a8.944,8.944,0,0,1,1.672.188l-.113.751a8.357,8.357,0,0,0-1.4-.131,1.893,1.893,0,0,0-1.042.216.659.659,0,0,0-.282.564c0,.62.479.8,1.474,1.1.977.3,1.644.714,1.644,1.775a1.629,1.629,0,0,1-.611,1.334,2.642,2.642,0,0,1-1.663.441,9.859,9.859,0,0,1-1.719-.178Z" transform="translate(-191.927 -36.782)" fill="#fff"/>
          <path id="Path_34" data-name="Path 34" d="M244.762,68.375a3.733,3.733,0,0,1-1.5.347c-1.278,0-1.963-.8-1.963-2.236,0-1.193.545-2.292,1.869-2.292,1.052,0,1.663.751,1.663,1.916a3.459,3.459,0,0,1-.066.657h-2.6a1.426,1.426,0,0,0,.291.893,1.133,1.133,0,0,0,.865.3,3.3,3.3,0,0,0,1.249-.272Zm-.742-2.283c0-.648-.187-1.165-.883-1.165-.63,0-.93.564-.968,1.165Z" transform="translate(-195.93 -38.349)" fill="#fff"/>
          <path id="Path_35" data-name="Path 35" d="M251.975,68.375a3.636,3.636,0,0,1-1.484.347c-1.136,0-1.869-.639-1.869-2.245,0-1.841.93-2.283,1.991-2.283a5.354,5.354,0,0,1,1.2.131l-.075.714a6.761,6.761,0,0,0-.987-.085c-.836,0-1.268.329-1.268,1.5,0,1.052.357,1.5,1.09,1.5a2.948,2.948,0,0,0,1.164-.272Z" transform="translate(-199.433 -38.349)" fill="#fff"/>
          <path id="Path_36" data-name="Path 36" d="M258.74,68.715l-.066-.366a2.223,2.223,0,0,1-1.315.47,1.353,1.353,0,0,1-1.465-1.512V64.375h.855v2.846c0,.592.254.817.761.817a2.363,2.363,0,0,0,1-.244V64.375h.855v4.34Z" transform="translate(-202.912 -38.435)" fill="#fff"/>
          <path id="Path_37" data-name="Path 37" d="M264.191,68.637V64.3h.639l.113.535h.038a1.384,1.384,0,0,1,1.287-.62,3,3,0,0,1,.376.019l-.056.779a3.121,3.121,0,0,0-.517-.038,1.561,1.561,0,0,0-1.024.329v3.335Z" transform="translate(-206.88 -38.358)" fill="#fff"/>
          <path id="Path_38" data-name="Path 38" d="M269.88,61.044a.481.481,0,0,1,.479.479.473.473,0,0,1-.479.47.465.465,0,0,1-.47-.47A.473.473,0,0,1,269.88,61.044Zm-.423,6.077v-4.34h.855v4.34Z" transform="translate(-209.376 -36.842)" fill="#fff"/>
          <path id="Path_39" data-name="Path 39" d="M274.6,67.39a2.343,2.343,0,0,1-1.042.263c-.7,0-1.109-.395-1.109-1.184V63.942H271.8v-.629l.676-.038L272.547,62h.761v1.24h1.211v.7h-1.211v2.4c0,.32.056.545.385.545a1.483,1.483,0,0,0,.629-.16Z" transform="translate(-210.522 -37.298)" fill="#fff"/>
          <path id="Path_40" data-name="Path 40" d="M278.395,70.425c.254-.667.46-1.259.61-1.71h-.46c-.442-1.2-.893-2.78-1.287-4.34h.893c.291,1.278.61,2.5.986,3.663h.066c.348-1.052.714-2.414,1-3.663h.874a50.9,50.9,0,0,1-1.842,6.05Z" transform="translate(-213.13 -38.435)" fill="#fff"/>
          <path id="Path_41" data-name="Path 41" d="M159.45,86.147c-.047-1.615-.122-3.278-.2-4.875h-.047l-1.372,3.851h-.967L155.5,81.272h-.047c-.075,1.6-.15,3.26-.2,4.875h-.911c.066-2.01.168-4.03.282-6.049h1.315l1.39,4.011h.047l1.39-4.011h1.315c.113,2.02.216,4.039.282,6.049Z" transform="translate(-154.34 -45.955)" fill="#fff"/>
          <path id="Path_42" data-name="Path 42" d="M169.757,87.629l-.094-.366a1.91,1.91,0,0,1-1.268.46,1.332,1.332,0,0,1-1.437-1.362,1.279,1.279,0,0,1,.46-1.015,1.842,1.842,0,0,1,1.165-.329c.3,0,.648.019.949.038v-.366a.727.727,0,0,0-.178-.545,1.115,1.115,0,0,0-.77-.188,6.119,6.119,0,0,0-1.221.141l-.131-.714a5.427,5.427,0,0,1,1.428-.188,1.98,1.98,0,0,1,1.306.338,1.349,1.349,0,0,1,.423,1.109v2.987Zm-.226-1.944c-.216-.018-.507-.028-.77-.028-.63,0-.93.226-.93.7a.663.663,0,0,0,.742.686,1.606,1.606,0,0,0,.958-.319Z" transform="translate(-160.375 -47.437)" fill="#fff"/>
          <path id="Path_43" data-name="Path 43" d="M177.733,87.629V84.782c0-.554-.254-.817-.733-.817a2.422,2.422,0,0,0-1.052.272v3.391h-.855v-4.34h.63l.075.394a2.2,2.2,0,0,1,1.315-.488,1.355,1.355,0,0,1,1.475,1.512v2.921Z" transform="translate(-164.266 -47.437)" fill="#fff"/>
          <path id="Path_44" data-name="Path 44" d="M185.6,87.629l-.093-.366a1.91,1.91,0,0,1-1.268.46,1.332,1.332,0,0,1-1.437-1.362,1.279,1.279,0,0,1,.46-1.015,1.842,1.842,0,0,1,1.164-.329c.3,0,.648.019.949.038v-.366a.727.727,0,0,0-.178-.545,1.117,1.117,0,0,0-.771-.188,6.118,6.118,0,0,0-1.221.141l-.131-.714A5.424,5.424,0,0,1,184.5,83.2a1.98,1.98,0,0,1,1.306.338,1.351,1.351,0,0,1,.422,1.109v2.987Zm-.225-1.944c-.216-.018-.507-.028-.77-.028-.63,0-.93.226-.93.7a.663.663,0,0,0,.742.686,1.607,1.607,0,0,0,.958-.319Z" transform="translate(-167.951 -47.437)" fill="#fff"/>
          <path id="Path_45" data-name="Path 45" d="M193.252,87.385a1.863,1.863,0,0,1-1.034.338c-1.23,0-1.681-.8-1.681-2.226,0-1.625.507-2.3,1.71-2.3a6.35,6.35,0,0,1,1.86.3v4.527a1.355,1.355,0,0,1-.394,1.034,1.974,1.974,0,0,1-1.334.376,7.9,7.9,0,0,1-1.4-.15l.113-.732a8.163,8.163,0,0,0,1.164.113,1.228,1.228,0,0,0,.826-.2.76.76,0,0,0,.17-.535Zm0-3.345a5.545,5.545,0,0,0-.921-.085c-.742,0-.93.508-.93,1.55,0,.977.2,1.512.92,1.512a2.105,2.105,0,0,0,.93-.207Z" transform="translate(-171.652 -47.437)" fill="#fff"/>
          <path id="Path_46" data-name="Path 46" d="M201.778,87.375a3.729,3.729,0,0,1-1.5.347c-1.278,0-1.963-.8-1.963-2.236,0-1.193.545-2.292,1.87-2.292,1.052,0,1.662.751,1.662,1.916a3.413,3.413,0,0,1-.066.657h-2.6a1.425,1.425,0,0,0,.291.893,1.133,1.133,0,0,0,.864.3,3.293,3.293,0,0,0,1.249-.272Zm-.742-2.282c0-.648-.188-1.164-.883-1.164-.629,0-.93.563-.967,1.164Z" transform="translate(-175.371 -47.437)" fill="#fff"/>
          <path id="Path_47" data-name="Path 47" d="M211.269,87.629V84.754c0-.545-.263-.789-.741-.789a2.074,2.074,0,0,0-1.005.3,3.5,3.5,0,0,1,.047.535v2.828h-.855V84.754c0-.545-.253-.789-.732-.789a2,2,0,0,0-.968.263v3.4h-.855v-4.34h.63l.075.394a2.166,2.166,0,0,1,1.306-.488,1.251,1.251,0,0,1,1.127.554,2.159,2.159,0,0,1,1.353-.554c.967,0,1.474.535,1.474,1.6v2.837Z" transform="translate(-179.124 -47.437)" fill="#fff"/>
          <path id="Path_48" data-name="Path 48" d="M221.939,87.375a3.734,3.734,0,0,1-1.5.347c-1.278,0-1.964-.8-1.964-2.236,0-1.193.545-2.292,1.87-2.292,1.052,0,1.662.751,1.662,1.916a3.456,3.456,0,0,1-.065.657h-2.6a1.425,1.425,0,0,0,.291.893,1.133,1.133,0,0,0,.864.3,3.3,3.3,0,0,0,1.249-.272Zm-.742-2.282c0-.648-.188-1.164-.883-1.164-.629,0-.93.563-.967,1.164Z" transform="translate(-185.013 -47.437)" fill="#fff"/>
          <path id="Path_49" data-name="Path 49" d="M228.959,87.629V84.782c0-.554-.253-.817-.732-.817a2.425,2.425,0,0,0-1.052.272v3.391h-.855v-4.34h.63l.075.394a2.2,2.2,0,0,1,1.315-.488,1.356,1.356,0,0,1,1.475,1.512v2.921Z" transform="translate(-188.767 -47.437)" fill="#fff"/>
          <path id="Path_50" data-name="Path 50" d="M236.337,86.39a2.347,2.347,0,0,1-1.042.263c-.7,0-1.109-.395-1.109-1.184V82.943h-.648v-.63l.676-.038L234.279,81h.761v1.24h1.212v.7H235.04v2.395c0,.32.056.545.386.545a1.487,1.487,0,0,0,.629-.16Z" transform="translate(-192.219 -46.386)" fill="#fff"/>
        </g>
      </g>
    </g>
    <g id="Key_line" data-name="Key line" transform="translate(33.709 -7.196)">
      <path id="Path_51" data-name="Path 51" d="M151.41,70.035H69.965a.875.875,0,0,1,0-1.751h81.444a33.267,33.267,0,0,0,0-66.534h-64a.875.875,0,0,1,0-1.751h64a35.018,35.018,0,0,1,0,70.035Z" transform="translate(-69.093)" fill="#fff"/>
    </g>
    <g id="Roundel" transform="translate(0 -14.173)">
      <g id="Group_7" data-name="Group 7" transform="translate(14.191 22.855)">
        <path id="Path_52" data-name="Path 52" d="M51.553,42.707a7.412,7.412,0,0,1,14.807,0ZM57.8,60.289c-1.051-3.087-3.54-4.714-5.637-6.081-2.328-1.518-3.306-2.3-3.347-3.763a3.611,3.611,0,0,1,3.55-3.628H65.3ZM47.788,72.013a11.406,11.406,0,0,0,1.743.158,9.3,9.3,0,0,0,1.738-.161l-1.738,3.12Zm-2.11-25.2a7.931,7.931,0,0,0-.895,3.528h0c0,.041,0,.083,0,.123v.009C44.844,54.336,47.7,56.2,50,57.7c2.733,1.783,4.278,2.931,4.278,5.858,0,2.881-2.284,4.558-5.092,4.558a6.092,6.092,0,0,1-5-2.568l-.807-1.4L33.675,46.817Zm-5.4-11.165a7.482,7.482,0,0,1,7.4,7.055h-14.8a7.481,7.481,0,0,1,7.4-7.055m18.682-3.93a11.055,11.055,0,0,0-9.341,5.106,11.05,11.05,0,0,0-9.341-5.106A11.479,11.479,0,0,0,28.827,43.205s0,.061,0,1.164a6.413,6.413,0,0,0,1,3.609c.877,1.51,19.7,33.981,19.7,33.981s18.693-32.27,19.616-33.981a6.453,6.453,0,0,0,1.071-3.609V43.205A11.388,11.388,0,0,0,58.955,31.722" transform="translate(-28.826 -31.722)" fill="#fff"/>
      </g>
      <g id="Group_9" data-name="Group 9" transform="translate(21.655)">
        <g id="Group_8" data-name="Group 8">
          <path id="Path_53" data-name="Path 53" d="M50.135-8.073a6.191,6.191,0,0,0-3.349,1v-7.1h-2.8V5.06h1.646l.452-1.032a6.465,6.465,0,0,0,4.05,1.335c3.643,0,4.993-2.51,4.993-6.719,0-4.18-1.35-6.717-4.993-6.717m-.654,2.437c2.452,0,2.824,1.92,2.824,4.28,0,2.385-.373,4.29-2.824,4.29a5.213,5.213,0,0,1-2.7-.749V-4.892a5.183,5.183,0,0,1,2.7-.743m9.185,1.563c0-1.154.926-1.589,2.4-1.589a10.078,10.078,0,0,1,3.818.719V-7.433a9.385,9.385,0,0,0-3.874-.64c-3.67,0-5.069,1.872-5.069,4.078s.926,3.406,4.7,3.748c1.672.149,2.073.635,2.073,1.586,0,1.127-.975,1.6-2.972,1.6a10.671,10.671,0,0,1-3.721-.72V4.672a11.592,11.592,0,0,0,4.123.691c4,0,5.323-1.922,5.323-4.128,0-2.384-.977-3.541-4.724-3.871-1.625-.154-2.077-.541-2.077-1.437M69.9,5.238a2.787,2.787,0,0,0,.55-.056V2.853c-.8,0-1.05-.259-1.05-.976V-7.764H66.6V1.9c0,2.2,1.028,3.333,3.3,3.333m-3.721-16.8A1.855,1.855,0,0,0,68-9.689a1.859,1.859,0,0,0,1.828-1.873A1.858,1.858,0,0,0,68-13.432a1.854,1.854,0,0,0-1.821,1.87" transform="translate(-43.987 14.173)" fill="#fff"/>
        </g>
      </g>
      <g id="Group_10" data-name="Group 10" transform="translate(0 11.782)">
        <path id="Path_54" data-name="Path 54" d="M34.887,74.991A35.059,35.059,0,0,1,17,9.885a.875.875,0,0,1,.895,1.5,33.143,33.143,0,1,0,33.992,0,.875.875,0,0,1,.895-1.5,35.059,35.059,0,0,1-17.89,65.106Z" transform="translate(0 -9.76)" fill="#fff"/>
      </g>
    </g>
  </g>
</svg>
