<svg xmlns="http://www.w3.org/2000/svg" width="29.953" height="29.953" viewBox="0 0 29.953 29.953">
  <path id="Path_65" data-name="Path 65" d="M18-2.672a11.1,11.1,0,0,1-5.168-1.371A10.947,10.947,0,0,1,9-7.523q.281-2.25,3.375-3.445A15.77,15.77,0,0,1,18-12.164a15.77,15.77,0,0,1,5.625,1.2Q26.719-9.773,27-7.523a10.947,10.947,0,0,1-3.832,3.48A11.1,11.1,0,0,1,18-2.672Zm0-21.3a4.293,4.293,0,0,1,3.164,1.266,4.336,4.336,0,0,1,1.266,3.2,4.336,4.336,0,0,1-1.266,3.2A4.293,4.293,0,0,1,18-15.047a4.293,4.293,0,0,1-3.164-1.266,4.336,4.336,0,0,1-1.266-3.2,4.336,4.336,0,0,1,1.266-3.2A4.293,4.293,0,0,1,18-23.977Zm0-4.5A14.887,14.887,0,0,0,7.383-24.117,14.887,14.887,0,0,0,3.023-13.5,14.887,14.887,0,0,0,7.383-2.883,14.887,14.887,0,0,0,18,1.477,14.887,14.887,0,0,0,28.617-2.883,14.887,14.887,0,0,0,32.977-13.5a14.82,14.82,0,0,0-4.395-10.617A14.927,14.927,0,0,0,18-28.477Z" transform="translate(-3.023 28.477)" fill="#909090"/>
</svg>
