<svg xmlns="http://www.w3.org/2000/svg" width="13.426" height="17" viewBox="0 0 13.426 17"><defs><style>.a{fill:#e1261c;}</style></defs><path class="a" d="M9.116,11.443c-.409.621-.3,1.451-.87,2.015a2.085,2.085,0,0,1,.336.2,1.64,1.64,0,0,1,.3.357c.023.037-.037.175-.089.2a5.22,5.22,0,0,0-.919.5,1.773,1.773,0,0,1-1.243.429A.694.694,0,0,0,6.3,15.2c-.483.182-.969.359-1.441.567-.335.146-.649.339-.991.522a.41.41,0,0,0,.27.477c.1.04.151.195.225.3a1.053,1.053,0,0,1-.316.168,2.12,2.12,0,0,1-.59,0,.654.654,0,0,1-.522-.4c-.134-.287-.305-.556-.461-.833-.063-.11-.139-.214-.191-.329a.311.311,0,0,1,.17-.455,3.647,3.647,0,0,0,.893-.507c.112-.079.226-.174.336.012.012.02.087,0,.162,0l-.132-.278c.21-.03.386-.27.588,0,.2-.134.39-.262.579-.392.038-.026.1-.063.1-.094,0-.328.284-.32.477-.39a3.149,3.149,0,0,1,.548-.108l.176-.334.189.154.366-.519a1.458,1.458,0,0,1,.08-1.08,1.537,1.537,0,0,0-.014-1.3,2.264,2.264,0,0,1-.078-.885c0-.079.1-.172.178-.235.3-.248.3-.322.036-.6a.38.38,0,0,1-.1-.288c.06-.244.161-.478.254-.738-.049-.068-.114-.158-.18-.246A.575.575,0,0,1,6.8,6.873a1,1,0,0,0-.041-.358c-.016-.107-.086-.243-.044-.316.223-.392.108-.829.193-1.236a4.893,4.893,0,0,1,.247-.833.63.63,0,0,1,.3-.26c.173-.088.3-.178.3-.4,0-.062.088-.126.172-.237-.039-.186-.1-.438-.141-.693-.008-.047.033-.147.062-.151.174-.027.183-.165.194-.283a1.1,1.1,0,0,1,1.827-.575,1.706,1.706,0,0,1,.279.59c.042.1,0,.243.171.277.026.006.039.128.039.2a2.5,2.5,0,0,1-.339,1.324,2.152,2.152,0,0,0-.2,1.276,7.281,7.281,0,0,0,.785-.067.3.3,0,0,0,.159-.242c-.016-.193.075-.217.229-.248.213-.043.415-.149.629-.183a1.2,1.2,0,0,1,.406.1.422.422,0,0,0,.037-.2.46.46,0,0,1,.147-.425A19.921,19.921,0,0,1,14.965,1.4a.231.231,0,0,1,.367.051.61.61,0,0,1,.04.059c.433.659.416.7-.165,1.222-.754.672-1.493,1.362-2.229,2.054a.448.448,0,0,0-.094.289c-.008.221.033.446.01.664-.04.379-.2.5-.584.5-.087,0-.174-.009-.278-.014a2.725,2.725,0,0,1-.184.4,4.592,4.592,0,0,1-.534.721.665.665,0,0,1-.9.155,3.157,3.157,0,0,0-.634-.22.482.482,0,0,0-.069.5.586.586,0,0,1,.045.347,1.115,1.115,0,0,0,.091.713.9.9,0,0,0,.376.5A1.5,1.5,0,0,1,10.6,9.7a4.212,4.212,0,0,1,.9,1.244,1.623,1.623,0,0,0,.319.423c.213-.284.079-.81.66-.787a4.549,4.549,0,0,0,.066.529,7.563,7.563,0,0,0,.234.8,2.023,2.023,0,0,1,.114,1.1,3.38,3.38,0,0,0-.008.753c.008.294.015.589.043.881.015.161.086.317.108.478a3.626,3.626,0,0,1,.058.7.575.575,0,0,0,.381.647c.125.05.263.065.387.117a.865.865,0,0,1,.273.172c.1.1.08.225-.056.261a2.473,2.473,0,0,1-.673.11c-.5-.011-1-.059-1.5-.095A1.085,1.085,0,0,1,11.716,17c-.259-.066-.31-.162-.236-.425.019-.068.031-.138.053-.206s.046-.117.079-.2c-.208-.066-.205-.184-.1-.35.2-.3-.047-.571-.077-.856a1.769,1.769,0,0,0-.114-.36,3.79,3.79,0,0,1-.282-1.285,1.266,1.266,0,0,1,0-.238c.028-.145-.02-.213-.148-.3s-.19-.266-.3-.388a1.935,1.935,0,0,0-.412-.383C9.84,11.805,9.481,11.634,9.116,11.443Z" transform="translate(-2.247 -0.252)"/><circle class="a" cx="0.5" cy="0.5" r="0.5" transform="translate(10)"/></svg>