<svg xmlns="http://www.w3.org/2000/svg" width="640" height="42.305" viewBox="0 0 640 42.305">
  <g id="Cricket_Silhouette" data-name="Cricket Silhouette" transform="translate(888 -7.268)">
    <g id="Silhouette" transform="translate(-103.605 2.695)">
      <path id="_1" data-name="1" d="M250.862,70.348a.949.949,0,0,1,1.091-.664,2.759,2.759,0,0,1,1.239.651,47.965,47.965,0,0,1,5.3,4.5,2.886,2.886,0,0,1,.683.944,1.325,1.325,0,0,1,.035.815l.176.153a4.593,4.593,0,0,1,1.3-.109,1.879,1.879,0,0,1,.76.151,1.422,1.422,0,0,1,.546-.34,2.544,2.544,0,0,1,1.284-.034l.047.009a.261.261,0,0,1,.041-.141.4.4,0,0,1,.46-.091,1.014,1.014,0,0,1,.307.165c.044-.051.09-.106.137-.163a1.7,1.7,0,0,1,.3-.562,2.661,2.661,0,0,1-.082-.48,1.014,1.014,0,0,1-.115-.238.884.884,0,0,1-.08-.346.3.3,0,0,1,.185-.28.174.174,0,0,1,.087,0c.016-.06.033-.12.054-.178a1.655,1.655,0,0,1,2.064-1.183.777.777,0,0,1,.276.195,1.051,1.051,0,0,1,.537,1.243.729.729,0,0,1,.266.308.252.252,0,0,1-.15.331.361.361,0,0,1-.271-.106c-.007.067-.016.129-.025.186a2.922,2.922,0,0,1-.753,1.5,1.771,1.771,0,0,1-.256.226q.012.061.02.119h.078a1.714,1.714,0,0,1,1.607.839,1.592,1.592,0,0,1-.45,1.946.856.856,0,0,1,.084.943,4.17,4.17,0,0,1-.6.808,1.409,1.409,0,0,0-.38.908c.007.159.06.313.063.471a.459.459,0,0,1-.123.338l4.23.74a2.209,2.209,0,0,1-.006-.735,1.274,1.274,0,0,1,.944-1.067,1.175,1.175,0,0,1,1.127.533,1.666,1.666,0,0,1,.256.681,6.6,6.6,0,0,1,.246.755.812.812,0,0,1,.113.082.505.505,0,0,1,.179.318.4.4,0,0,1-.127.331.388.388,0,0,1,.128.1.4.4,0,0,1,.039.433.385.385,0,0,1-.085.106l.006.051a.4.4,0,0,1,.118.1.464.464,0,0,1,.011.562l-.009.01a.658.658,0,0,1,.1.129.584.584,0,0,1,.127.488.367.367,0,0,1-.238.207,11.979,11.979,0,0,0,.686,4.21,3.058,3.058,0,0,1,.317.929.877.877,0,0,1-.215.668,2.19,2.19,0,0,1,.3.4.7.7,0,0,1,.042.659.786.786,0,0,1-.9.259c-.326-.089-.623-.277-.956-.335a8.936,8.936,0,0,0-1.07.014.821.821,0,0,1-.819-.559c-.077-.448.436-.824.4-1.277-.018-.243-.2-.458-.191-.7,0-.292.261-.517.345-.8a1.417,1.417,0,0,0-.116-.865l-.507-1.418a10.652,10.652,0,0,1-.473-1.574,2.373,2.373,0,0,1-1.086.417,6.6,6.6,0,0,0-1.366.119,4.765,4.765,0,0,0-.785.425,3.217,3.217,0,0,1-.669.281q-.231,1.991-.6,3.964h.033a.363.363,0,0,1,.282.3,1.052,1.052,0,0,1-.031.434q-.135.633-.28,1.263a.748.748,0,0,1,.133.15.4.4,0,0,1,.026.428.316.316,0,0,1-.221.131l0,0a.361.361,0,0,1,.063.357.322.322,0,0,1-.216.172.39.39,0,0,1,.03.078.442.442,0,0,1-.162.456.2.2,0,0,0,.045.389.4.4,0,0,1-.3.268q-.766,2.935-1.741,5.809a.545.545,0,0,1-.2.317.29.29,0,0,1-.222.025.939.939,0,0,0,.565.7,2.535,2.535,0,0,1,.307.11.3.3,0,0,1,.176.255c-.006.192-.248.268-.439.291a3.687,3.687,0,0,1-1.178.018,1.248,1.248,0,0,1-.921-.669,2.239,2.239,0,0,0-.251-.622c-.22-.256-.621-.229-.926-.373a.859.859,0,0,1,.125-1.6c.231-.068.5-.043.688-.193a.764.764,0,0,0,.218-.63,2.2,2.2,0,0,1,.022-.687.721.721,0,0,1,.1-.2,2.859,2.859,0,0,1,.22-.69l.134-.324.052-.276.025-.132a.862.862,0,0,1,.229-1.151c.1-.446.208-.89.345-1.325.055-.176.115-.351.176-.526a2.313,2.313,0,0,1,.08-1.646,2.121,2.121,0,0,0,.247-.644,2.215,2.215,0,0,0-.191-.817,2.1,2.1,0,0,1-.005-1.161c-.1-.234-.211-.464-.32-.692a6.555,6.555,0,0,1-.775-2.309,2.388,2.388,0,0,1,.609-1.836,2.653,2.653,0,0,1,.029-.656,1.627,1.627,0,0,1-.444-.791,1.89,1.89,0,0,1-.008-.783c-.016-.04-.029-.081-.041-.122a3.517,3.517,0,0,1-.137-1.137,1.9,1.9,0,0,0-.009-.48,4.488,4.488,0,0,0-.241-.575,1.118,1.118,0,0,1-.066-.421,3.124,3.124,0,0,0-.359.454c-.239.362-.422.757-.648,1.126a1.872,1.872,0,0,1-.511.591.813.813,0,0,1-.747.115.788.788,0,0,1-.433-.526,1.568,1.568,0,0,1-.006-.7,3.152,3.152,0,0,1,.681-1.442,3.512,3.512,0,0,1-.029-.414.784.784,0,0,1-.258-.531.5.5,0,0,1-.281-.065.35.35,0,0,1-.131-.476.492.492,0,0,1-.318-.665c-.162.07-.34-.125-.318-.3a.533.533,0,0,1,.21-.328q-.078-.064-.153-.131a1.949,1.949,0,0,1-.587-.131,3.891,3.891,0,0,1-.92-.591,67.4,67.4,0,0,1-5.5-4.84A1.387,1.387,0,0,1,250.862,70.348Z" transform="translate(-1035.248 -57.336)" fill="#bababa"/>
      <path id="_2" data-name="2" d="M12.761,2.606c.041-.025.057-.034.071-.044a.234.234,0,0,1,.377.055.236.236,0,0,1-.035.216,1.416,1.416,0,0,1-.276.193l-.233.154.02.043c.115.019.231.031.343.059a1.509,1.509,0,0,1,.333.113.687.687,0,0,1,.318.661.446.446,0,0,0,.123.3,8.677,8.677,0,0,0,1.459,1.2q.819.6,1.626,1.219a3.569,3.569,0,0,1,.391.359.636.636,0,0,1,.23.491.143.143,0,0,0,.025.075.816.816,0,0,1-.214,1.131,1.269,1.269,0,0,1-.679.245,3.71,3.71,0,0,1-1.46-.181.165.165,0,0,0-.067-.012,1.214,1.214,0,0,1-.56-.111,1.958,1.958,0,0,0-.592-.03c-.048,0-.1.069-.14.118-.263.347-.526.695-.782,1.046-.183.251-.354.511-.537.762-.069.095-.166.171-.229.269a1.516,1.516,0,0,0-.123.293c-.017.046-.01.108-.038.142a.692.692,0,0,0-.1.414,4.757,4.757,0,0,1-.1.5.856.856,0,0,0-.023.477.547.547,0,0,1-.147.493.6.6,0,0,0-.057.622,2.033,2.033,0,0,1,.067,1.244c-.038.18-.117.351-.161.53-.037.149-.045.3-.076.455a1.843,1.843,0,0,1-.829,1.2,1.149,1.149,0,0,0-.514,1.01A10.82,10.82,0,0,1,9.965,19.5a.607.607,0,0,0,.022.263.7.7,0,0,1,.05.438.123.123,0,0,0,0,.08,3.374,3.374,0,0,0,.248.426c.14.184.315.341.448.53a1.87,1.87,0,0,1,.146.387.516.516,0,0,0,.1.184c.3.285.606.563.908.846a9.356,9.356,0,0,0,.77.726c.871.648,1.762,1.271,2.643,1.907.28.2.557.408.825.625.223.18.243.31.1.557a5.156,5.156,0,0,1-.322.454c-.091.121-.085.177.059.234a1.3,1.3,0,0,0,.245.042,3.205,3.205,0,0,1,.5.1.357.357,0,0,1,.234.363,3.178,3.178,0,0,1-.307,1.289,1.036,1.036,0,0,0-.069.646,1.346,1.346,0,0,1-.227,1c-.231.374-.483.737-.738,1.1a.357.357,0,0,1-.587.009.575.575,0,0,1-.148-.468,2.255,2.255,0,0,0-.432-1.645,5.307,5.307,0,0,1-.274-.532c-.027-.052-.043-.128-.135-.089-.014.006-.045-.01-.06-.024-.142-.133-.289-.262-.421-.4-.059-.063-.07-.175-.133-.227a4.831,4.831,0,0,1-.64-.663,1.605,1.605,0,0,0-.334-.254c-.1-.069-.2-.13-.3-.2-.243-.166-.488-.329-.724-.5-.269-.2-.532-.41-.792-.623a26.264,26.264,0,0,0-2.493-1.761c-.05-.032-.1-.067-.147-.1a1.7,1.7,0,0,1-.8-1.1c-.074-.317-.23-.615-.3-.932a29.126,29.126,0,0,1-.541-3.168c-.016-.163-.045-.324-.068-.486a.113.113,0,0,0-.135-.113c-.154.007-.31-.007-.464,0a.319.319,0,0,0-.172.085c-.113.1-.21.223-.326.321-.15.128-.173.167-.107.35a3.61,3.61,0,0,1,.177,1.57,3.2,3.2,0,0,0,.072.645c.044.36.106.719.125,1.08a4.525,4.525,0,0,0,.213,1.077c.049.16.072.327.107.491a.125.125,0,0,1-.1.173c-.207.05-.413.1-.62.159a1.183,1.183,0,0,0-.168.054.089.089,0,0,0-.049.142,3.926,3.926,0,0,1,.239,1.056c.036.177.056.357.095.533a.465.465,0,0,1-.22.512,1.824,1.824,0,0,1-1.132.329,1.272,1.272,0,0,0-.675.171,1.974,1.974,0,0,1-1.336.186A4.9,4.9,0,0,1,.334,26.9a.85.85,0,0,1-.225-.173.4.4,0,0,1,.182-.658,1.079,1.079,0,0,1,.133-.028,1.81,1.81,0,0,0,.783-.325c.215-.154.48-.237.7-.38a4.447,4.447,0,0,0,.586-.463.812.812,0,0,0,.27-.536c.012-.134.047-.247.228-.21a2.751,2.751,0,0,0,.049-.887C3,22.673,2.954,22.1,2.924,21.53c-.009-.175.046-.352.047-.528a7.583,7.583,0,0,0-.035-.8c-.028-.275-.079-.548-.128-.821a.927.927,0,0,0-.09-.224,3.176,3.176,0,0,1-.367-1.314c0-.063.016-.127.014-.19a2.817,2.817,0,0,0-.024-.485.681.681,0,0,1,.3-.754,10.96,10.96,0,0,1,2.622-1.256A3.83,3.83,0,0,0,6.295,14.6a.158.158,0,0,0,.062-.069A3.858,3.858,0,0,0,6.672,13.4a.478.478,0,0,0-.027-.158A1.339,1.339,0,0,1,6.6,12.4a.839.839,0,0,0,.022-.147,1.942,1.942,0,0,1,.042-.392,10.436,10.436,0,0,0,.21-1.687c.008-.049.006-.1.017-.149a2.3,2.3,0,0,0-.048-1.186,2.783,2.783,0,0,1-.066-1.094.317.317,0,0,0-.058-.294.072.072,0,0,1-.02-.05c.023-.333-.289-.531-.34-.835,0-.023-.085-.061-.112-.049a.682.682,0,0,1-.731-.162,4.386,4.386,0,0,1-.491-.426.9.9,0,0,1-.261-.851,1.184,1.184,0,0,1,.34-.481,2.111,2.111,0,0,1,1.327-.564c.808-.1,1.613-.213,2.42-.322.026,0,.052-.011.093-.019a9.315,9.315,0,0,0,.029-1.031c-.011-.148-.048-.273.051-.4.013-.017-.011-.06-.009-.09a.911.911,0,0,1,.033-.317c.108-.227.242-.442.369-.659a1.714,1.714,0,0,1,.13-.171.353.353,0,0,1-.1-.488.871.871,0,0,1,.79-.515A4.3,4.3,0,0,1,10.926.01a6.431,6.431,0,0,1,.653.121,1.662,1.662,0,0,1,.748.494.1.1,0,0,1,.027.03,2.44,2.44,0,0,1,.418,1,4.946,4.946,0,0,1-.011.852.841.841,0,0,0,0,.1m.716,3.045a1.158,1.158,0,0,0-.156-.163q-.445-.314-.9-.616c-.043-.029-.144-.046-.16-.025-.051.068-.113.157-.031.243a3.389,3.389,0,0,0,.4.381,2.571,2.571,0,0,0,.417.217c.014.007.035,0,.052,0l.381-.034" transform="translate(-730.395 14.875)" fill="#bababa"/>
      <path id="_3" data-name="3" d="M484.627,119.808c.031.366-.131.755.018,1.091a.854.854,0,0,0,.553.438,2.527,2.527,0,0,0,.722.068,1.9,1.9,0,0,0,.632-.073.643.643,0,0,0,.43-.436c.071-.33-.195-.607-.345-.871a2.518,2.518,0,0,1-.324-1.012c-.02-.2-.014-.444-.016-.7a.78.78,0,0,0,.317-.335c.09-.172.145-.363.243-.528l.7-.493c.13-.046.263-.087.389-.135a2.921,2.921,0,0,0,1.374-1.1l.244-.171a.3.3,0,0,0,.2-.05.343.343,0,0,0,.126-.174.476.476,0,0,0,.092.017.54.54,0,0,0,.54-.36c0-.005,0-.01,0-.016a.442.442,0,0,0,.388-.051.472.472,0,0,0,.161-.415v-.007l.309-.216c.419-.294.835-.65.792-1.183l.138-.187c.1-.136.2-.313.125-.462a.3.3,0,0,0-.242-.142.76.76,0,0,0-.287.047l-.1.035a9.2,9.2,0,0,0,.255-1.746,21.426,21.426,0,0,1,.223-2.738,7.1,7.1,0,0,0,3.563.99,1.649,1.649,0,0,1,1.221.293.756.756,0,0,1,.152.232,1.1,1.1,0,0,0-.345.663c-.092.363-.212.717-.339,1.07a.277.277,0,0,0-.054.034.7.7,0,0,0-.185.3l-.39.974a.9.9,0,0,0-.087.628l.005.012-.568,1.553-.324.291a.712.712,0,0,0-.268.379.432.432,0,0,0,.056.279l-.45.518a1.415,1.415,0,0,0-.435.814,1.293,1.293,0,0,0,.311.771,7.627,7.627,0,0,0,2.386,2.157,1.286,1.286,0,0,0,.616.214.494.494,0,0,0,.5-.349.552.552,0,0,0-.146-.442c-.1-.124-.231-.223-.335-.345a2.1,2.1,0,0,1-.4-1.045,13.686,13.686,0,0,1-.155-1.426,4.244,4.244,0,0,1,.051-.663,17.481,17.481,0,0,0,3.026-4.3.539.539,0,0,0,.3-.191.394.394,0,0,0,.072-.182.512.512,0,0,0,.334-.094.418.418,0,0,0,.145-.43.385.385,0,0,0-.036-.087.459.459,0,0,0,.321-.549.45.45,0,0,0-.115-.2.391.391,0,0,0,.145-.222.486.486,0,0,0-.179-.446,4.915,4.915,0,0,0,.3-1.956c-.025-.263-.127-.568-.382-.636-.3-.08-.552.219-.718.481l-.309.489c-.133-.137-.278-.265-.421-.386q-.864-.729-1.8-1.372a23.509,23.509,0,0,0-3.467-1.982c-.3-.139-.624-.254-.933-.39a.651.651,0,0,0,.229-.247.76.76,0,0,0,.01-.6,2.247,2.247,0,0,0-.31-.529l-.957-1.337a4.227,4.227,0,0,0,1.2.31,3.377,3.377,0,0,0,1.491-.238,3.221,3.221,0,0,0,2.029-1.4l.05-.048a.4.4,0,0,0,.115.04.388.388,0,0,0,.344-.11.372.372,0,0,0,.038-.048.339.339,0,0,0,.173.03.511.511,0,0,0,.307-.207,1.1,1.1,0,0,0,.29-.564.556.556,0,0,0-.011-.192.943.943,0,0,0,.189-.369.616.616,0,0,0-.01-.372.4.4,0,0,0-.268-.239c.035-.417-.241-.586-.593-.648a1.817,1.817,0,0,0-.257-.3,1.021,1.021,0,0,0-.089-.082.549.549,0,0,0,.006-.092.377.377,0,0,0-.279-.368.462.462,0,0,0-.467-.533.336.336,0,0,0-.183-.508.525.525,0,0,0-.508.165l-.06-.071a.747.747,0,0,0,.253-.448.976.976,0,0,0-.333-.684,5.988,5.988,0,0,0-.992-1.2q-1.555-1.839-3.141-3.652-.893-1.021-1.794-2.033c-.374-.42-.865-.88-1.414-.758a1.105,1.105,0,0,0-.7,1.317,3.214,3.214,0,0,0,.849,1.395l2.32,2.651a42.105,42.105,0,0,0,2.965,3.539,1.406,1.406,0,0,0,.686.5.739.739,0,0,0,.229.014,2.15,2.15,0,0,0,.3.281,1.563,1.563,0,0,0-.158.459,1.746,1.746,0,0,0,.252,1.069c-.006.028-.011.055-.015.082h-.039a1.657,1.657,0,0,0-.848.4,2.619,2.619,0,0,1-.808.487,2.3,2.3,0,0,1-1.38-.187c-.071-.025-.184-.077-.315-.129q-.115-.084-.231-.166a5.434,5.434,0,0,0-1.88-1.055.578.578,0,0,0,.185-.127.686.686,0,0,0,.165-.317l.113-.007a.862.862,0,0,0,.278-.059l.024-.012a1.013,1.013,0,0,0,1.068-.718,1.453,1.453,0,0,0-.544-1.531c0-.035,0-.071-.007-.106.074-.018.148-.038.22-.058a1.154,1.154,0,0,0,.413-.186.439.439,0,0,0,.178-.4.663.663,0,0,0-.268-.362,6.3,6.3,0,0,0-1.29-.914,2.638,2.638,0,0,0-.574-.2,2.187,2.187,0,0,0-2.238.552,1.861,1.861,0,0,0-.256.514,2.328,2.328,0,0,0-.343.736.728.728,0,0,0-.015.384,2.286,2.286,0,0,0-.125.655.228.228,0,0,0,.055.191.238.238,0,0,0,.23,0c.118-.044.235-.09.351-.138q.05.107.109.21a1.547,1.547,0,0,0,.027.408,1.88,1.88,0,0,0,.382.807l-.223-.042a.452.452,0,0,0-.342.026.291.291,0,0,0-.1.292.631.631,0,0,0,.155.283c.022.026.044.05.068.074a2.817,2.817,0,0,0-.361,1.115c-.006.061-.01.122-.012.183a4,4,0,0,0,.039,1.329,10.177,10.177,0,0,0,.78,2.2,6,6,0,0,0,.384.763l.621,1.776a1.017,1.017,0,0,0,.065.156,3.257,3.257,0,0,0,.016,3.129,2.253,2.253,0,0,0,.324.43c-.016.084-.033.169-.047.253a10.608,10.608,0,0,0-.027,2.5l.124,1.819a1.491,1.491,0,0,0-.178.1c-.693.431-.946,1.3-1.443,1.952a15.066,15.066,0,0,1-1.19,1.189,2.7,2.7,0,0,0-.612.922.528.528,0,0,0-.366.08.422.422,0,0,0-.119.131,1.8,1.8,0,0,0-.929.4c-.53.489-.287,1.139.078,1.647A2.361,2.361,0,0,1,484.627,119.808Zm6.235-24.921c-.12-.064-.249-.115-.373-.169.018-.189.03-.379.031-.568A1.449,1.449,0,0,1,490.862,94.888Zm-.429.3c.01-.074.021-.149.03-.223a3.045,3.045,0,0,0,.4.147,1,1,0,0,1-.016.119.86.86,0,0,1-.034.125A2.321,2.321,0,0,0,490.433,95.186Zm-.172.685a1.579,1.579,0,0,0,.135-.44,2.271,2.271,0,0,0,.332.1A.751.751,0,0,1,490.26,95.87ZM495.1,98.5a1.258,1.258,0,0,0,.287-.511.95.95,0,0,0,.151-.1c.025-.019.049-.04.072-.061a1.69,1.69,0,0,0,.012.2.411.411,0,0,0-.141.323.42.42,0,0,0,.166.282,2.991,2.991,0,0,1-1.216.6A6.356,6.356,0,0,0,495.1,98.5Z" transform="translate(-1166.076 -75.389)" fill="#bababa"/>
      <path id="_4" data-name="4" d="M9.186,17.153c-1.035.516-2.212.251-3.351.551.093.061.159.109.229.149a3.372,3.372,0,0,1,1.3,1.078.318.318,0,0,0,.219.109A1.526,1.526,0,0,1,9.139,20.4a1.692,1.692,0,0,0,1.39.926,3.749,3.749,0,0,1,1.1.351c.114.04.213.125.328.157.338.1.511.306.386.634a3.246,3.246,0,0,1-.581,1.024,3.617,3.617,0,0,0-.826,1.279,2.651,2.651,0,0,1-1.881,1.7.763.763,0,0,1-.6-.041c-.1-.078-.1-.4-.029-.562.151-.36.4-.678.56-1.035a6.824,6.824,0,0,0,.271-.911c-.739-.378-.9-.948-.479-1.557l-.439-.337c-.223.33-.461.212-.732.058a11.245,11.245,0,0,0-1.135-.558,3.9,3.9,0,0,1-1.734-1.339.979.979,0,0,0-.267-.2c-.594-.4-1.22-.766-1.777-1.216a1.194,1.194,0,0,1-.183-2.017,13,13,0,0,1,1.542-1.4,11.9,11.9,0,0,1,1.382-.947c.348-.208.743-.338,1.106-.524a5.482,5.482,0,0,0,.552-.366.811.811,0,0,0-.8-.5,19.034,19.034,0,0,1-2.25-.169c-.7-.1-1.375-.319-2.064-.476a1.523,1.523,0,0,1-.887-.653c-.182-.245-.354-.491-.724-.5-.1,0-.253-.216-.28-.353C.028,10.553.037,10.225,0,9.9a.7.7,0,0,1,.4-.73c.489-.142.829-.031.987.341a4.253,4.253,0,0,1,.587,1.365.7.7,0,0,0,.631.531,8.622,8.622,0,0,0,1.078.161A15.826,15.826,0,0,0,5.3,11.358c-.112-.143-.148-.232-.191-.236-.373-.032-.331-.333-.407-.575a1.917,1.917,0,0,0-.3-.618,3.724,3.724,0,0,1-.659-1.778,3.56,3.56,0,0,0-.532-1.314c-.131-.208-.153-.361.1-.534A.882.882,0,0,0,3.4,5.062a.386.386,0,0,0-.283-.085c-.558.081-.615.056-.852-.463-.217-.472-.217-.472-.193-.8-.372-.238-.38-.243-.139-.622a.488.488,0,0,0,.039-.569.484.484,0,0,1,.137-.716A.68.68,0,0,1,2.183.788,3.019,3.019,0,0,1,4.827.067a1.563,1.563,0,0,1,1.1,2.065.886.886,0,0,0,.011.733c.154.288-.012.57-.243.793a.8.8,0,0,0-.116.219.847.847,0,0,0,.234.059,2.039,2.039,0,0,1,1.321.239.2.2,0,0,0,.159.017,2.686,2.686,0,0,1,1.447.05c.54.08,1.072.21,1.609.313a.622.622,0,0,1,.6.714,1.121,1.121,0,0,0,.071.3,9.4,9.4,0,0,1,.526,3.05c-.018.738.114,1.479.159,2.22.016.26-.022.509.221.706.075.061.058.235.092.4.285.2.635.438.966.7a1.2,1.2,0,0,1,.432.776,7.587,7.587,0,0,0,.4,1.686A4.707,4.707,0,0,1,14,16.41a.482.482,0,0,0,.013.131c.288.647.6,1.286.864,1.94.311.757.583,1.53.884,2.291a1.06,1.06,0,0,0,.246.357A25.407,25.407,0,0,1,19.1,24.923c.383.55.867,1.029,1.305,1.54a.683.683,0,0,1,.109.132,2.035,2.035,0,0,0,.933.829,5.915,5.915,0,0,1,1.16.992.531.531,0,0,1,.011.487,5.089,5.089,0,0,1-.541.7c-.308.381-.638.746-.923,1.144A2.228,2.228,0,0,1,18.3,31.3a.5.5,0,0,1-.226-.344c.005-.1.171-.207.286-.278a2.91,2.91,0,0,0,.722-.424,1.4,1.4,0,0,0,.181-.727c0-.039-.23-.093-.347-.155-.2-.108-.481-.178-.586-.35A36.666,36.666,0,0,0,14.9,24.663a86.624,86.624,0,0,1-5.639-7.446.478.478,0,0,0-.076-.064m.983-7.983.169-.072a7.055,7.055,0,0,0-.247-1.073c-.22-.559-.492-1.1-.765-1.636a.464.464,0,0,0-.7-.133c-.25.176-.022.323.05.46.195.373.4.741.622,1.1.282.458.583.9.876,1.354" transform="translate(-635.395 14.877)" fill="#bababa"/>
      <path id="_5" data-name="5" d="M235.423,72.787c-.023-.29-.268-.19-.381-.386-.157-.273.105-.364-.3-.531l-.028-.011a.574.574,0,0,0-.22-.538.421.421,0,0,0-.275-.065c-.023-.112-.125-.215-.087-.323.02-.056.073-.095.088-.152a.166.166,0,0,0-.14-.183.483.483,0,0,0-.251.04.407.407,0,0,0-.484-.648,1.1,1.1,0,0,0,.077-.519.377.377,0,0,0-.355-.33.473.473,0,0,0-.236.1,1.86,1.86,0,0,0-.33.3,6.93,6.93,0,0,0-.59-.784c.326-.564-.034-1.4-.3-2l-1.684-3.723-1.89-4.178a.763.763,0,0,0-.155-.249c-.244-.23-.642-.053-.911.148a7.929,7.929,0,0,0-.713.6.464.464,0,0,0-.171.535,18.321,18.321,0,0,0,1.436,4.109,37.909,37.909,0,0,0,1.7,3.484c.409.715,1.024,2.085,2.059,1.748a2.579,2.579,0,0,0,.241.789,2.9,2.9,0,0,0,.2.358,2.91,2.91,0,0,0-.176.284.93.93,0,0,0-.143.368,1.626,1.626,0,0,0,.122.537l-.028.057c-.041.082-.085.163-.131.242a1.009,1.009,0,0,0-.12-.137,1.837,1.837,0,0,0-.673-.363c-.011-.017-.023-.034-.035-.051a1.549,1.549,0,0,0-.815-.547.188.188,0,0,0-.035-.045.361.361,0,0,0-.226-.07l-.956-.072c-.051,0-.1-.008-.155-.016a6.719,6.719,0,0,0,.149-1.124c0-.016,0-.034,0-.051.076-.037.151-.075.225-.115a.387.387,0,0,0,.175-.148.271.271,0,0,0-.141-.337.429.429,0,0,0-.116-.04.24.24,0,0,0-.032-.217l-.007-.007c0-.04.006-.079.008-.118a2.211,2.211,0,0,0-2.177-2.15,1.971,1.971,0,0,0-1.627.908,2.621,2.621,0,0,0-.318,1.033l-.008,0a.858.858,0,0,0-.223.249.6.6,0,0,0-.132.3.4.4,0,0,0,.246.351l.049.021a1.248,1.248,0,0,0-.161.4.7.7,0,0,0,.047.479.509.509,0,0,0,.074.1,2,2,0,0,0,.069.432,1.832,1.832,0,0,0,.229.495c-.428.358-.854.72-1.286,1.073a2.155,2.155,0,0,0-.887,1.153,5.88,5.88,0,0,0,.115,1.284c.035,1.025-.847,1.879-.945,2.9a11.225,11.225,0,0,1-.036,1.15,5.3,5.3,0,0,1-.343.889c-.016.041-.031.082-.046.124a5.223,5.223,0,0,0-.42,2.777,5.481,5.481,0,0,0,.868,2.057,5.016,5.016,0,0,0-.857,1.812c-.247.768-.417,1.558-.622,2.337a.674.674,0,0,1-.119.274.753.753,0,0,1-.487.185,6.039,6.039,0,0,0-3.659,2.4c-.4.5-.84,1.092-1.482,1.157-.536.055-1.122-.276-1.587-.005a.942.942,0,0,0-.418.728,2.792,2.792,0,0,0,.091.862,1.647,1.647,0,0,0,.208.593c.1.146.249.272.267.447a.832.832,0,0,1-.135.423,1.578,1.578,0,0,0,1.588,2.248,2.2,2.2,0,0,0,.577-1.222,4.241,4.241,0,0,1-.048-.941c.1-.389.487-.619.843-.8q1.412-.726,2.867-1.366c.4-.178.811-.351,1.211-.537a.363.363,0,0,0,.25.067.631.631,0,0,0,.349-.179,1.182,1.182,0,0,0,.236-.3.434.434,0,0,0,.193.036.82.82,0,0,0,.5-.264,1.2,1.2,0,0,0,.233-.311.324.324,0,0,0,.265.053.608.608,0,0,0,.353-.335,1.476,1.476,0,0,0,.143-.433,9.184,9.184,0,0,0,1.671-2.313,12.754,12.754,0,0,0,.6-1.36.687.687,0,0,1,.174.273.886.886,0,0,1-.231.8c-.186.224-.423.4-.6.636a2.454,2.454,0,0,0-.307,1.8c.06.439.165.875.209,1.314a2.018,2.018,0,0,0-.71,1.488,1.672,1.672,0,0,0,.189.761c-.045.2-.078.4-.134.6l-.085.234-.023.047c-.1.194-.243.361-.333.558a.67.67,0,0,0-.04.507.221.221,0,0,0,0,.07.367.367,0,0,0,.135.185,2.23,2.23,0,0,0,1.307.709.782.782,0,0,1,.321.041.708.708,0,0,1,.186.163,1.658,1.658,0,0,0,2.419-.141,3.516,3.516,0,0,1-1.3-1.682,22.353,22.353,0,0,1,.639-2.637l.277-.78q.191-.538.385-1.076c.144-.355.292-.713.4-1.079l.018-.046.465-.551.162-.193a1.681,1.681,0,0,0,.41-.248.46.46,0,0,0,.154-.191.192.192,0,0,0-.06-.223l-.048.031.021-.036a2.587,2.587,0,0,0,.357-.386.534.534,0,0,0,.14-.365.237.237,0,0,0-.208-.2c0-.034,0-.069,0-.1a2.134,2.134,0,0,0,.149-.22.4.4,0,0,0,.064-.356.254.254,0,0,0-.158-.131,7.21,7.21,0,0,0,.814-1.859.58.58,0,0,0-.066-.521.558.558,0,0,0-.339-.143,2.591,2.591,0,0,0-1.6.277l-.36-.676a3.958,3.958,0,0,0,.281-1.226c.046-.612,0-1.227-.008-1.84.07-.062.137-.127.2-.193a2.767,2.767,0,0,0,.519-.677,3.5,3.5,0,0,0,.24-.715l.825-3.2c.215-.173.436-.339.638-.528a3.835,3.835,0,0,0,.786-1.048,3.858,3.858,0,0,0,1.484.706.353.353,0,0,0,.087.069,4.379,4.379,0,0,0,.892.427.844.844,0,0,0,.688.015.922.922,0,0,0,.273-.292,1.689,1.689,0,0,0,.264-.488,1.155,1.155,0,0,0,.031-.407,1.173,1.173,0,0,0,.03-.209,1.283,1.283,0,0,0-.248-.809L234.5,73.9C234.921,73.614,235.455,73.194,235.423,72.787Zm-3.178.23a1.756,1.756,0,0,1,.328-.13c.1-.026.194-.045.287-.075,0,.019,0,.037,0,.056a3.3,3.3,0,0,0-.059.416c-.134-.065-.262-.126-.38-.185C232.362,73.07,232.3,73.042,232.245,73.017Z" transform="translate(-794.851 -52.208)" fill="#bababa"/>
      <g id="_6" data-name="6" transform="translate(-529.395 14.877)">
        <path id="Path_621" data-name="Path 621" d="M670.051,161.924a.7.7,0,0,0,.429.588c.238.077.5-.026.745.018a2.479,2.479,0,0,1,.489.2,2.6,2.6,0,0,0,1.053.123l1.8-.038c.168,0,.368-.026.445-.175a.331.331,0,0,0-.105-.381,1.248,1.248,0,0,0-.379-.192,2.161,2.161,0,0,1-1.1-.913,6.19,6.19,0,0,1-.3-.679.937.937,0,0,0,.386-.185,1.463,1.463,0,0,0,.36-.588l1.075-2.61a.672.672,0,0,0,.347-.211.74.74,0,0,0,.07-.8l.121-.293a.734.734,0,0,0,.4-.66.469.469,0,0,0-.014-.083.887.887,0,0,0,.487-.617.839.839,0,0,0-.072-.5l.376-.973a5.391,5.391,0,0,0,.468-1.82,3.281,3.281,0,0,0-.072-.715,17.6,17.6,0,0,1,1.985,1.494c.663.687,1.107,1.66,2,2,.334.129.728.17,1.046.311a.929.929,0,0,0-.066.161,1.519,1.519,0,0,0,.146,1.093,2.264,2.264,0,0,1,.239.552q-.155.367-.327.727c-.1.1-.207.193-.3.3a1.343,1.343,0,0,0-.308.852l-.039.069a4.567,4.567,0,0,0-.477.969,1.675,1.675,0,0,0-.063.325,2.12,2.12,0,0,0-.836,1.766.98.98,0,0,0,.254.664,1.282,1.282,0,0,0,.828.252l4.51.289c.263.017.6-.012.684-.262a.435.435,0,0,0-.211-.47,2.021,2.021,0,0,0-.518-.193c-.87-.274-1.268-1.028-1.813-1.674a11.755,11.755,0,0,0,1.761-2.36h.033a.7.7,0,0,0,.6-.378.471.471,0,0,0-.046-.431.716.716,0,0,0,.382-.32.826.826,0,0,1,.407-.957.725.725,0,0,0-.029-.544,14.743,14.743,0,0,0,.662-1.671,1.021,1.021,0,0,0-.05-.98.706.706,0,0,0-.831-.1,1.493,1.493,0,0,0-.491.442,4.645,4.645,0,0,0-1.537-2.483,26.573,26.573,0,0,0-5.027-4.367,10.191,10.191,0,0,0,1.8-2.061c.374-.5.772-.977,1.134-1.481a1.374,1.374,0,0,0,.421-.034,1.226,1.226,0,0,0,.376-.165c.1.117.192.232.292.343a2.051,2.051,0,0,0,1.845.819,1.466,1.466,0,0,0,.395-.157,2.29,2.29,0,0,0,.455.391c.1.066.246.121.336.039s.045-.235-.017-.342c-.026-.045-.055-.088-.085-.131a3.086,3.086,0,0,0,.675.3,1.068,1.068,0,0,0,.619.038.546.546,0,0,0,.234-.147,2.517,2.517,0,0,0,.251.025,1.1,1.1,0,0,0,.139,0l.012.005a1.194,1.194,0,0,0,1.008.053,1.149,1.149,0,0,1,.352-.175c.224-.031.413.172.636.206a.438.438,0,0,0,.359-.76,1.322,1.322,0,0,0,.662.159.455.455,0,0,0,.426-.45.665.665,0,0,0-.288-.393l-.12-.1c.005-.022.01-.045.015-.067a2.806,2.806,0,0,0-.282-1.787c-.027-.056-.057-.124-.091-.2a.487.487,0,0,0,.249-.538.509.509,0,0,0-.421-.258,2.223,2.223,0,0,0-1.24.248c-.368.172-.712.371-1.076.535a2.483,2.483,0,0,0-.622-.213,1.556,1.556,0,0,0,.449-.4.434.434,0,0,0-.043-.558.563.563,0,0,0-.62.066,9.3,9.3,0,0,0-1,.814,6.589,6.589,0,0,1-1.828-.081,11.342,11.342,0,0,1-1.237-.475l-.077-.029a3.027,3.027,0,0,0-.061-.349c.028-.013.056-.027.084-.042a2.116,2.116,0,0,0,.691.2,1.957,1.957,0,0,0,1.515-.493c.355-.314.746-.912.533-1.4a.594.594,0,0,0-.274-.305.181.181,0,0,0,0-.077,3.464,3.464,0,0,0-.247-.752l.082.009a.909.909,0,0,0,.35-.009.309.309,0,0,0,.231-.24c.022-.193-.188-.319-.309-.47a1.558,1.558,0,0,1-.206-.814,2.494,2.494,0,0,0-.846-1.576,2.334,2.334,0,0,0-1.719-.579,2.182,2.182,0,0,0-1.283.1,2.052,2.052,0,0,0-1.257,1.861,1.71,1.71,0,0,0,.023.255q-.011.046-.021.092a1.348,1.348,0,0,0-.029.346,1.865,1.865,0,0,0-.04.2,3.62,3.62,0,0,0-1.329.1,5.2,5.2,0,0,0-2.527,1.319,14.347,14.347,0,0,0-1.918,3.206c-.805,1.406-2,2.64-2.356,4.221a2.124,2.124,0,0,0-.046.793,3.754,3.754,0,0,0-1.128,1.793,4.2,4.2,0,0,0,.269,2.4c.283.768.671,1.5.922,2.275a11.551,11.551,0,0,0,.477,1.443.871.871,0,0,0-.724.326,1.63,1.63,0,0,0-.317.918c0,.027,0,.053,0,.08a1.692,1.692,0,0,0-.582.93,3.081,3.081,0,0,0,.074,1.5c.011.042.023.083.035.124-.07.191-.14.383-.2.575a10.818,10.818,0,0,0-.87,3.313,1.536,1.536,0,0,0-.229.314,4.142,4.142,0,0,0-.354,1.033A2.062,2.062,0,0,0,670.051,161.924Zm20.355-22.007c.117.215.282.4.39.623a1.351,1.351,0,0,1,.124.412l-.291-.237a.782.782,0,0,1-.33-.439A.475.475,0,0,1,690.406,139.918Zm-4.567-3.856a3.4,3.4,0,0,0-.556.055,3.249,3.249,0,0,0,.157-.857l.11.011A4.574,4.574,0,0,0,685.839,136.062Zm-.169.977a2.784,2.784,0,0,0,.1-.615.371.371,0,0,1,.352.152.475.475,0,0,1,0,.424C685.968,137.021,685.819,137.034,685.67,137.039Zm-.422.8a1.619,1.619,0,0,0,.306-.469,3.157,3.157,0,0,0,.375-.063,1.967,1.967,0,0,1-.369.358A1.583,1.583,0,0,1,685.248,137.836Zm-.057-.811a2.7,2.7,0,0,1-.3-.05,4.131,4.131,0,0,0,.267-.523,1.641,1.641,0,0,0,.351-.009l.062-.006a2.074,2.074,0,0,1-.206.6C685.307,137.035,685.249,137.031,685.191,137.025Zm-1.036.841a2.788,2.788,0,0,0,.284-.274c.077-.086.152-.178.223-.274a2.41,2.41,0,0,0,.481.064c-.147.174-.323.313-.462.5a.116.116,0,0,0-.023.08,1.456,1.456,0,0,1-.244-.02A1.368,1.368,0,0,1,684.155,137.866Z" transform="translate(-670.042 -131.586)" fill="#bababa"/>
        <path id="Path_622" data-name="Path 622" d="M753.924,158.565l.052.005a.9.9,0,1,1-.052-.005Z" transform="translate(-730.594 -151.286)" fill="#bababa"/>
      </g>
      <path id="_7" data-name="7" d="M0,2.952c.183-.24.334-.436.482-.633.273-.363.546-.717,1.11-.3C1.5,1.6,1.412,1.189,1.319.777a1.354,1.354,0,0,1-.1-.4A1.236,1.236,0,0,1,1.406,0c.1.072.261.122.3.221.224.524.435,1.054.62,1.592.235.686.41,1.394.676,2.066a1.492,1.492,0,0,0,.592.648A22.327,22.327,0,0,0,8.435,6.715a3.913,3.913,0,0,1,.985.591,2.6,2.6,0,0,0,1.426.471,11.589,11.589,0,0,1,1.335.265,6.379,6.379,0,0,0,1.181.147,4.367,4.367,0,0,1,2.665.376.648.648,0,0,0,.367-.894A3.55,3.55,0,0,1,16.443,6.6a1.894,1.894,0,0,0-.051-.651,1.64,1.64,0,0,1,1.593-2.368,2.531,2.531,0,0,1,2.847,1.78,3.435,3.435,0,0,1-.286,2.707c.856.049,1.678.1,2.5.141.343.016.688,0,1.032,0a.764.764,0,0,0,.171.007c.535-.133,1.076-.247,1.6-.417a3.51,3.51,0,0,0,.659-.4,10.821,10.821,0,0,1,1.219-.714c.874-.382,1.773-.7,2.656-1.064a1.2,1.2,0,0,0,.766-.9c.245-1,.577-1.982.891-2.965a4.8,4.8,0,0,1,.323-.659l.2.055-.228,2.164c.837-.549,1.142.164,1.563.549.25.228.068.43-.142.611a.963.963,0,0,0-.319.429A1.95,1.95,0,0,1,32.424,6.32a1.559,1.559,0,0,0-.4.308,16.392,16.392,0,0,1-4,2.818c-.714.374-1.389.627-1.513,1.569-.049.37-.488.406-.853.372s-.717-.038-1.062-.055a19.989,19.989,0,0,0,.427,4.336c.1.335.165.587.584.71.262.077.453.445.643.706.137.188.188.443.333.622.566.7,1.156,1.38,1.735,2.07.069.082.167.171.178.266a3.236,3.236,0,0,0,.825,1.471,10.169,10.169,0,0,1,.979,2.579,1.429,1.429,0,0,0,.25.52,3.479,3.479,0,0,1,1.026,2.507.626.626,0,0,0,.363.621,1.506,1.506,0,0,1,.87,1.371,1.89,1.89,0,0,0,.916,1.426,5.754,5.754,0,0,1,.993.951c.31.388.18.622-.3.642-1.142.048-2.285.122-3.427.117-.686,0-.695-.123-.855-.768a6.593,6.593,0,0,0-.757-2.239A9.336,9.336,0,0,0,28.261,27.5a6.95,6.95,0,0,1-1.069-1.956c-.062-.119-.124-.24-.2-.353-.269-.414-.558-.816-.808-1.24-.187-.318-.262-.743-.783-.642-.682-.586-1.56-.29-2.336-.49a4.645,4.645,0,0,0-2.373-.032c-2.236.669-4.525.281-6.775.529a2.173,2.173,0,0,0-.756.184,1.017,1.017,0,0,1-1.185-.061c-.189.839-.358,1.616-.542,2.389a1.515,1.515,0,0,1-.253.72,1.464,1.464,0,0,0-.455,1.192,2.519,2.519,0,0,1-.527,1.826.31.31,0,0,0-.047.218c.073.626-.178,1.259.127,1.892.192.4-.049.692-.491.7-1.576.023-3.153.045-4.729.028-.291,0-.754-.116-.835-.307-.17-.4.246-.643.542-.86a1.109,1.109,0,0,1,.5-.236c.553-.055.884-.468,1.3-.748a.292.292,0,0,0,.134-.17c.064-.827.623-1.5.66-2.36A16.837,16.837,0,0,1,7.846,25.1c.228-1.1.432-2.212.715-3.3A8.95,8.95,0,0,1,9.3,19.878a1.568,1.568,0,0,1,.844-.672c1.275-.407,2.568-.763,3.865-1.1.877-.226,1.77-.386,2.56-.555-.146-.47-.278-.891-.405-1.314-.035-.118-.039-.245-.081-.36-.409-1.128-.831-2.251-1.232-3.382-.219-.618-.727-.743-1.281-.892a7.139,7.139,0,0,0-3.041-.3c.228-1.018-.43-1.18-1.1-1.318-2.156-.447-3.656-2-5.372-3.186a25.567,25.567,0,0,1-2.23-1.641,7.063,7.063,0,0,1-.9-1.253,3.666,3.666,0,0,0-.379-.392L0,2.952" transform="translate(-475.395 13.607)" fill="#bababa"/>
      <path id="_8" data-name="8" d="M766.884,121.212c.184.152.452.2.594.391a.836.836,0,0,1,.125.328c.014.064.027.128.039.193a5.653,5.653,0,0,0,.05,1.32c.022.042.046.081.071.12h0l.005.007.015.021c.021.03.043.06.066.088l.029.036c.024.029.05.057.076.085l.031.031c.026.026.053.051.08.075l.015.014h0a2.928,2.928,0,0,0,.31.234q1.04.05,2.081.009a.375.375,0,0,0,.254-.074.268.268,0,0,0-.047-.371,1.058,1.058,0,0,0-.377-.175,1.358,1.358,0,0,1-.674-.482.952.952,0,0,1-.084-.151c-.009-.109-.028-.219-.034-.329a.38.38,0,0,1,.074-.288.459.459,0,0,1,.167-.1,4.25,4.25,0,0,0,1.106-.672,4.4,4.4,0,0,0,.869-.162,12.742,12.742,0,0,0,2.753-1.165,2.327,2.327,0,0,0,.261.094.473.473,0,0,0,.268.019.376.376,0,0,0,.215-.215.642.642,0,0,0,.051-.322.945.945,0,0,0,.285.1.5.5,0,0,0,.548-.256.4.4,0,0,0,.027-.116.889.889,0,0,0,.178.034.476.476,0,0,0,.355-.092.515.515,0,0,0,.142-.377,1.274,1.274,0,0,0-.03-.313q.355-.241.706-.484a2.38,2.38,0,0,0,1.155-1.346,4.514,4.514,0,0,0-1.563-.072,17.237,17.237,0,0,0,3.329-5.037,9.194,9.194,0,0,0,2,.906c.334.107.749.3.719.649-.015.179-.154.326-.185.5a1.4,1.4,0,0,0,.06.475c.19,1.1-1.168,1.9-1.265,3.01a3.414,3.414,0,0,0,.654,1.831,1.367,1.367,0,0,1,.2.58,1.344,1.344,0,0,1-.139.572,8.779,8.779,0,0,1-.613,1.228c-.161.257-.485.5-.6.775a1.266,1.266,0,0,0,.8,1.52,7.906,7.906,0,0,0,2.615.13,8.6,8.6,0,0,0,1.747-.22.928.928,0,0,0,.46-.235.37.37,0,0,0,.039-.476.559.559,0,0,0-.351-.137,2.868,2.868,0,0,1-1.119-.328,1.113,1.113,0,0,1-.529-.733c-.047-.294.15-.568.19-.859a1.758,1.758,0,0,0,.014-.223,1.714,1.714,0,0,0,.126-.28,16.634,16.634,0,0,0,.511-2.546c.029-.164.063-.327.1-.489a.767.767,0,0,0,.523-.356.779.779,0,0,0,0-.737.756.756,0,0,0,.475-.554.743.743,0,0,0-.051-.41l.009,0a.668.668,0,0,0,.4-.576.748.748,0,0,0-.11-.34,1.524,1.524,0,0,0-.23-.308v0a1.918,1.918,0,0,0,.454-.113.566.566,0,0,0,.221-.134c.186-.2.056-.529-.1-.758-.039-.058-.08-.116-.124-.173l.179-.455c.386-.987,1.024-2.891-.752-2.934a1.232,1.232,0,0,0-1.019.577c-.856-.733-1.743-1.426-2.587-2.174a7.77,7.77,0,0,1-1.227-2.042,2.851,2.851,0,0,0,.447-1.9c-.066-.487-.264-.948-.35-1.432a5.363,5.363,0,0,1-.066-.668,2.034,2.034,0,0,0,.271-.012,1.136,1.136,0,0,0,1.038-.812,1.443,1.443,0,0,0-.02-.473c0-.025-.009-.051-.013-.076.2-.043.386-.09.565-.137a1.09,1.09,0,0,0,.418-.182,1.108,1.108,0,0,0,.271-.395,25.419,25.419,0,0,0,1.062-2.723,13.091,13.091,0,0,0,.406-1.346l.01-.006a.511.511,0,0,0,.169-.305,2.427,2.427,0,0,0,.065-.773c.13-.236.245-.52.591-.445.12.026.235.118.352.081a.329.329,0,0,0,.14-.112c.032-.038.063-.077.093-.117.163.112.317.209.418.273a1.417,1.417,0,0,0,.166.454,2.749,2.749,0,0,0,.8.769,43.335,43.335,0,0,0,6.38,3.839,2.858,2.858,0,0,0,1.4.4,1.1,1.1,0,0,0,1.045-.9c.069-.645-.526-1.122-1.05-1.447q-2.776-1.722-5.635-3.282c-.623-.34-1.667-1.2-2.4-1.177a.655.655,0,0,0-.37.118c-.074-.052-.15-.1-.226-.152a2.941,2.941,0,0,0,.083-.74c0-.166-.04-.362-.191-.432a.658.658,0,0,0-.338-.005c-.114.011-.253-.015-.3-.12a1.7,1.7,0,0,1-.027-.206c-.048-.174-.28-.193-.452-.246-.256-.079-.489-.308-.748-.244a.417.417,0,0,0-.116.05c-.016-.025-.032-.05-.05-.074a.8.8,0,0,0-.107-.118l0-.007a1.055,1.055,0,0,0-.354-.467.427.427,0,0,0-.326-.042.5.5,0,0,0-.263-.243.371.371,0,0,0-.277.017l-.078-.033c-.017-.042-.036-.084-.056-.124a.359.359,0,0,0-.172-.186.39.39,0,0,0-.224,0c-.144.033-.285.073-.426.116a1.423,1.423,0,0,0-1.225.955,2.17,2.17,0,0,0-.186.476,2.927,2.927,0,0,0-.77.719,1.533,1.533,0,0,0-.3.685,7.066,7.066,0,0,0-1.137,1.132,3.712,3.712,0,0,0-2.062-1.508,1.807,1.807,0,0,0-1.92,1.8,2.766,2.766,0,0,1-.305,1.341,1.366,1.366,0,0,0-.244,1.1c.16.408.618.542,1.054.7a1.647,1.647,0,0,0-.466,1.557,3.247,3.247,0,0,0,.206.65,2.381,2.381,0,0,0-.3,1.429c.1.878.688,1.689.581,2.566-.042.346-.193.674-.219,1.022-.029.38.092.762.047,1.141a7.288,7.288,0,0,0-.164.862,1.1,1.1,0,0,0,.144.524,6.27,6.27,0,0,0-.692,1.392,11.35,11.35,0,0,0-.172,2.908,14.978,14.978,0,0,1-1.182,4.6,1.05,1.05,0,0,1-.184.349c-.3.325-.821.164-1.259.129a1.889,1.889,0,0,0-1.634.743c-.269.362-.4.811-.655,1.182a3.935,3.935,0,0,1-2.136,1.284,1.89,1.89,0,0,0-1.2.24A.863.863,0,0,0,766.884,121.212Zm15.807-22.518-.019-.05a.207.207,0,0,0-.237-.164,7.473,7.473,0,0,0-1.415.087q-.183-.35-.394-.685c-.025-.04-.052-.081-.08-.12.013-.069.028-.138.041-.206,0-.023.009-.047.013-.071a4.016,4.016,0,0,0,.594-1.13l.006,0a9.309,9.309,0,0,0,1.054-.36.3.3,0,0,0,.162-.143.32.32,0,0,0-.056-.259,9.956,9.956,0,0,0-.641-1.007,5.264,5.264,0,0,1,.3-.73l.022.007c.122.038.271.07.364-.017a.366.366,0,0,0,.086-.213q.022-.131.044-.262l.008,0a1.028,1.028,0,0,0,.584-.682,4.907,4.907,0,0,0,1.179.05c.205-.013.417-.021.612-.047a2.666,2.666,0,0,0-.036.361,3.441,3.441,0,0,0,.134,1.008,5.124,5.124,0,0,0-.468.664.6.6,0,0,0-.092.226.543.543,0,0,0,.086.318,1.722,1.722,0,0,0,.108.171q-.414.789-.819,1.582a6.556,6.556,0,0,0-.533,1.261c0,.012-.005.024-.008.036A2.507,2.507,0,0,1,782.691,98.695Z" transform="translate(-1177.058 -77.461)" fill="#bababa"/>
      <path id="_13" data-name="13" d="M481.409,118.9c.172.25.432.428.6.679.5.732.159,1.929.882,2.439.548.387,1.308.07,1.86-.312a.227.227,0,0,0,.108-.125c.016-.075-.044-.143-.1-.2a2.832,2.832,0,0,1-.6-.647.744.744,0,0,1,.016-.829,1.081,1.081,0,0,1,.766-.268l.214-.017.052.009a15.433,15.433,0,0,0,5.777-.3,1.078,1.078,0,0,0,.315.161.473.473,0,0,0,.348,0,.366.366,0,0,0,.188-.288.744.744,0,0,0,.385.091.616.616,0,0,0,.5-.333c.048.04.1.078.15.113a.409.409,0,0,0,.279.091c.156-.024.241-.2.257-.358a.9.9,0,0,0-.005-.218c.108-.041.217-.083.325-.126a5.737,5.737,0,0,0,.612-.278,2.426,2.426,0,0,0,1.225-.684c.148-.164.258-.437.1-.586a.475.475,0,0,0-.245-.094q-.677-.12-1.363-.172a4.351,4.351,0,0,0-.57-.013,5.478,5.478,0,0,0,.4-1.787c.05-.549.058-1.1.106-1.648.454.111,1-.105,1.386.17s.34.871.333,1.358a7.444,7.444,0,0,0,1.924,4.368.909.909,0,0,1,.213.413.72.72,0,0,1-.035.29,2.93,2.93,0,0,0-.73,1.042.985.985,0,0,0-.025.864.608.608,0,0,0,.669.25,6.209,6.209,0,0,1,.869-.014,7.155,7.155,0,0,1,1.085.077q1.219.114,2.445.119a1.456,1.456,0,0,0,1.018-.262.3.3,0,0,0,.11-.2.326.326,0,0,0-.07-.177c-.383-.567-.927-.5-1.468-.76l-.627-.488a6.277,6.277,0,0,1-.76-.663c.034-.028.067-.057.1-.088a.48.48,0,0,0,.142-.221.606.606,0,0,0-.068-.358,26.831,26.831,0,0,1-1.094-5.543c-.011-.065-.024-.131-.036-.2a.509.509,0,0,0,.194-.426.6.6,0,0,0-.148-.31,1.1,1.1,0,0,0-.1-.105.5.5,0,0,0,.095-.1.594.594,0,0,0-.014-.651.666.666,0,0,0-.4-.263.591.591,0,0,0,.311-.521c-.031-.23-.266-.369-.484-.449a.714.714,0,0,0-.415-.041,5.125,5.125,0,0,0-1.58-1.805c-.166-.113-.385-.217-.558-.114a.54.54,0,0,0-.2.431c0,.042-.006.084-.009.126a.277.277,0,0,0-.223.1.479.479,0,0,0-.007.457c.074.215.159.426.251.633l-2.273-1.542a2.465,2.465,0,0,1-.245-.488,9.26,9.26,0,0,1-.2-1.072,1.8,1.8,0,0,0-.113-.346c.014-.045.029-.09.046-.134a4.018,4.018,0,0,1,.924-1.346,8.085,8.085,0,0,0,1.457-1.643l.013.03a2.042,2.042,0,0,0,.5.625.643.643,0,0,0,.159.113c.073.255.116.519.212.766a.976.976,0,0,0,.676.658l.044.006a.879.879,0,0,0,.5.121,2.288,2.288,0,0,0,.747-.214,26.882,26.882,0,0,0,2.872-1.33c.539.08,1.1-.124,1.59.082.29.121.492.348.789.334a2.037,2.037,0,0,0,.856.46c.043.013.087.023.131.035a.64.64,0,0,0,.21.108l4.088,1.427a34.118,34.118,0,0,0,4.039,1.226,2.879,2.879,0,0,0,1.249.066,1.134,1.134,0,0,0,.568-.3.991.991,0,0,0,.259-.563,1.506,1.506,0,0,0-.559-1.264,4.3,4.3,0,0,0-1.255-.687,39.834,39.834,0,0,0-5.192-1.768q-.593-.15-1.194-.27a6.746,6.746,0,0,0-.838-.291,1.988,1.988,0,0,0-.281-.057.073.073,0,0,0-.017-.006c-.171-.029-.2-.051-.237-.01a2.163,2.163,0,0,0-.83-.031.465.465,0,0,0-.284-.206c-.167-.036-.367.023-.493-.091a1.141,1.141,0,0,1-.145-.234c-.209-.308-.692-.159-1.042-.282s-.524-.491-.768-.764a1.631,1.631,0,0,0-2.132-.268,14.582,14.582,0,0,0-2.026-.8,3.744,3.744,0,0,0-.782-1.234q.1-.133.186-.273a.894.894,0,0,0,.14.244,2.072,2.072,0,0,0,1.285-1.383.722.722,0,0,0,0-.322c.054,0,.109,0,.163,0,.047-.048-.009-.126-.063-.165a2.05,2.05,0,0,0-.735-.335,5.659,5.659,0,0,0,.1-.732l.023.006A1.731,1.731,0,0,0,499.2,96a6.592,6.592,0,0,0-1.085-1.223,1.769,1.769,0,0,0-.7-1.112,2.331,2.331,0,0,0-1.023-.307l-.091-.01a2.1,2.1,0,0,0-.252-.084,1.964,1.964,0,0,0-2.057.687,1.653,1.653,0,0,0-.068,1.769l-.006.015a.407.407,0,0,0-.045.262c.032.113.15.173.253.23.025.014.048.029.073.044l-.007,0a1,1,0,0,1-.745.05c-.248-.063-.485-.168-.737-.208a1.969,1.969,0,0,0-1.509.485,5.838,5.838,0,0,0-1.048,1.246,1.182,1.182,0,0,0-.291.8,1,1,0,0,0-.538.687,1.041,1.041,0,0,0,.017.443,2.53,2.53,0,0,0-.36.68q-.665,1.695-1.207,3.435c-.066.048-.132.1-.194.149a1.631,1.631,0,0,0-.5,1.657,1.762,1.762,0,0,0,.1.252c-.006.024-.013.048-.02.073a.349.349,0,0,0-.015.18h0c-.041.063-.082.126-.121.188a1.226,1.226,0,0,0-.256.689.872.872,0,0,0,.1.338,3.052,3.052,0,0,0-.027,1.564,3.575,3.575,0,0,0,1.852,1.94q.345.192.7.357a2.936,2.936,0,0,0,.087.46,12.361,12.361,0,0,0,.81,1.837,3.228,3.228,0,0,1,.361,1.944.589.589,0,0,1-.227.4.636.636,0,0,1-.3.071c-.641.038-1.284-.066-1.926-.044a4.958,4.958,0,0,0-2.168.583,5.577,5.577,0,0,1-1.483.714,6.1,6.1,0,0,1-1.664-.091,1.62,1.62,0,0,0-1.507.523A1.11,1.11,0,0,0,481.409,118.9Zm16.731-21.216c-.09-.057-.182-.113-.277-.162.047-.131.089-.264.127-.4a3.36,3.36,0,0,0,.446.072l-.028.023A1.256,1.256,0,0,0,498.141,97.685Zm-.67.7a5.754,5.754,0,0,0,.258-.524,1.561,1.561,0,0,0,.3.129c-.042.121-.081.232-.118.313a.34.34,0,0,1-.1.144.276.276,0,0,1-.3-.033Zm1,5.579a.662.662,0,0,1-.239-.154c.163-.061.323-.13.48-.207.057-.028.119-.065.133-.127a.2.2,0,0,0-.054-.156.9.9,0,0,0-.535-.334,9.454,9.454,0,0,0-.053-1.57l1.495.563a4.348,4.348,0,0,0,.627,1.519c-.3.125-.588.266-.889.378A1.425,1.425,0,0,1,498.47,103.963Zm-5.371,4.143.213.046a1.878,1.878,0,0,1-.152-1.036l.586,1.428Z" transform="translate(-830.604 -75.68)" fill="#bababa"/>
      <path id="_14" data-name="14" d="M617.112,80.6a4.1,4.1,0,0,0-.634-.56,3.479,3.479,0,0,0,.252-.44c.061-.129.1-.312-.019-.39a.275.275,0,0,0-.145-.034,1.141,1.141,0,0,0-.232.019.23.23,0,0,0-.05-.07c-.106-.1-.325-.08-.35-.222-.013-.075.046-.142.066-.216.043-.159-.116-.314-.279-.333a.565.565,0,0,0-.237.03c0-.022-.01-.044-.016-.066-.05-.19-.184-.393-.381-.394a.338.338,0,0,0-.105.018l-.021-.008a1.221,1.221,0,0,0-.278-.662.551.551,0,0,0-.365-.174.708.708,0,0,0-.073-.341,1.471,1.471,0,0,0-.407.112.388.388,0,0,0-.331-.032,1.536,1.536,0,0,0-.639.432c-.151-.128-.311-.247-.474-.363a.7.7,0,0,0,.223-.416,1.015,1.015,0,0,0-.164-.553,39.592,39.592,0,0,0-3.391-5.355q-.953-1.268-2.006-2.457c-.49-.554-1.394-1.938-2.2-2-.911-.071-1.8,1.429-1.745,2.215a2.783,2.783,0,0,0,.5,1.228,45.07,45.07,0,0,0,6.087,7.527,1.758,1.758,0,0,0,.653.486,1.4,1.4,0,0,0,.81-.021c.063-.017.125-.037.186-.058a8.7,8.7,0,0,0,.575.78c-.058.048-.117.1-.174.146a1.169,1.169,0,0,0-.476.854.767.767,0,0,0,.223.491q-.628.576-1.207,1.2a.68.68,0,0,0-.2-.169,1.115,1.115,0,0,0-.584-.1c-.13,0-.26.015-.389.03a4.671,4.671,0,0,0-.591-.172,3.21,3.21,0,0,0-.763-.071,3.87,3.87,0,0,0-.975-.272c-.137-.023-.279-.042-.426-.057,0-.029.007-.058.011-.087.085-.543.525-.988.576-1.536a1.136,1.136,0,0,0-.151-.669l-.047-.377a2.655,2.655,0,0,0-2.559-1.535,3.092,3.092,0,0,0-2.567,1.908.545.545,0,0,1-.108.189.59.59,0,0,1-.267.114,1.637,1.637,0,0,0-.685.385.209.209,0,0,0-.077.124c-.01.108.126.162.233.18l1.223.213q-.025.118-.041.238l-.035.007a2.8,2.8,0,0,0-1.163.551.336.336,0,0,0-.12.144.241.241,0,0,0,.106.261.551.551,0,0,0,.243.081,1.015,1.015,0,0,0,0,.134,2.694,2.694,0,0,0,.119.54c-.016.017-.032.034-.047.051a.2.2,0,0,0,.1.1,1.644,1.644,0,0,0,.269.476,2.842,2.842,0,0,0-.721,1.956,6.713,6.713,0,0,0,.346,1.722,4.189,4.189,0,0,1,.164,2.012,5.189,5.189,0,0,0-.353,1.507c.041.515.4.993.318,1.5-.01.061-.025.123-.04.187a9.416,9.416,0,0,0-2.127,3.049c-.622,1.322-1.076,2.717-1.7,4.035a3.467,3.467,0,0,1-.435.73c.005-.046.011-.092.014-.138.022-.282-.026-.624-.283-.743a.717.717,0,0,0-.666.144,3.873,3.873,0,0,0-.733.636.414.414,0,0,0-.533-.034.66.66,0,0,0-.23.568,1.352,1.352,0,0,0,.074.355.983.983,0,0,0-.211.176.571.571,0,0,0-.138.52.482.482,0,0,0-.125.116.739.739,0,0,0-.113.63l-.02.056a34.812,34.812,0,0,1-1.144,3.526,3.269,3.269,0,0,0-.278.721,5.658,5.658,0,0,0-.674.53.343.343,0,0,0-.086.123,7.006,7.006,0,0,0-1.589.872.324.324,0,0,0-.14.246.264.264,0,0,0,.1.166,1.248,1.248,0,0,0,.918.187l2.955-.173a.394.394,0,0,0,.431-.3c.138-.309.277-.619.387-.939a3.533,3.533,0,0,0,.126-.455c.186-.3.337-.639.5-.957.055-.106.113-.211.172-.314a.925.925,0,0,0,.39-.221c.2-.215.182-.551.321-.809.17-.316.535-.459.832-.661a2.835,2.835,0,0,0,.718-.741,1.668,1.668,0,0,0,.6-.689.985.985,0,0,0,.073-.357c.976-.917,2-1.8,2.923-2.762a10.552,10.552,0,0,1,2.324-2.1c.271-.151.558-.271.841-.4a7.33,7.33,0,0,0,1.4.576q1.949.641,3.87,1.369a2.02,2.02,0,0,1,.366.175,3.655,3.655,0,0,0-.33.726,1.254,1.254,0,0,0-.078.5.817.817,0,0,0,.048.2,2.681,2.681,0,0,0-.81,1.294c-.118.619.159,1.291-.083,1.873-.214.516-.784.818-.995,1.336a3.294,3.294,0,0,0-.095,1.211,1.772,1.772,0,0,1-.1.6,1.317,1.317,0,0,0-.7.608,1.03,1.03,0,0,0-.126.468.678.678,0,0,0,.221,1.183,2.28,2.28,0,0,0,1.8.034c.061-.025.122-.053.184-.075q.228.02.456.036l.042.019a3.367,3.367,0,0,0,2.078.223.83.83,0,0,0,.517-.272.342.342,0,0,0-.1-.508l-.182-.03c-.442-.3-1.068-.164-1.571-.367a.535.535,0,0,1-.271-.206.33.33,0,0,0,.125-.155c1.033-2.025,2.012-4.077,2.984-6.133a1.936,1.936,0,0,0,.417-.274.821.821,0,0,0,.3-.465.443.443,0,0,0-.056-.29c.05-.037.1-.074.145-.115a.941.941,0,0,0,.343-.5.483.483,0,0,0-.023-.257,1.765,1.765,0,0,0,.348-.361.522.522,0,0,0,.124-.371.409.409,0,0,0-.246-.287l-.027-.01a9.488,9.488,0,0,0,.371-1.18c.056-.237.085-.529-.1-.686a.674.674,0,0,0-.385-.118A8.96,8.96,0,0,0,613.1,94.9a1.342,1.342,0,0,1-.559-.038,1.314,1.314,0,0,1-.6-.686,15.093,15.093,0,0,0-2.121-3.019A5.248,5.248,0,0,0,608,89.741a28.171,28.171,0,0,0,.744-4.209,1.356,1.356,0,0,1,.1-.476,1.9,1.9,0,0,1,.5-.512,2.217,2.217,0,0,0,.579-.831,4.255,4.255,0,0,1,.82-.189c1.265-.151,2.579.4,3.8.03a1.288,1.288,0,0,0,.731-.48,1.687,1.687,0,0,0,.2-.617l.183-.954a.856.856,0,0,0,.354.386.146.146,0,0,0,.105.019.163.163,0,0,0,.069-.054l.926-1.038a.176.176,0,0,0,.056-.1A.173.173,0,0,0,617.112,80.6Zm-14.958.413a3.729,3.729,0,0,0-.552.422c-.042-.074-.083-.143-.111-.192a.959.959,0,0,1-.044-.088l.066-.03.4-.184c.053-.024.107-.051.16-.08A1.424,1.424,0,0,0,602.154,81.013Zm9.947.661a3.46,3.46,0,0,0,.33-.281,4.219,4.219,0,0,0,.718-.938,2.159,2.159,0,0,0,.493.006c.055.042.111.082.163.124a1.3,1.3,0,0,1,.154.15,2,2,0,0,0,.051.7c-.008.013-.016.027-.024.04a1.01,1.01,0,0,1-.124.154A13.416,13.416,0,0,1,612.1,81.673Zm2.066-.628-.019.064-.117-.289A1.364,1.364,0,0,1,614.167,81.045Zm-12.246-.717c0,.024.006.049.011.073.009.048.02.1.032.146a1.538,1.538,0,0,0-.62.24c-.022-.134-.033-.272-.048-.409A3.276,3.276,0,0,0,601.921,80.329Z" transform="translate(-875.352 -61.55)" fill="#bababa"/>
      <path id="_5-2" data-name="5" d="M739.584,109.685a1.614,1.614,0,0,0,1.361.37,4.238,4.238,0,0,0,1.357-.523,43.678,43.678,0,0,0,6.68-4.667c.41-.331,1.477-1.126,1.543-1.845q.357-.25.707-.509a2.1,2.1,0,0,0,1.422.26,7.112,7.112,0,0,0,1.043,2.208,3.606,3.606,0,0,0,1.018.912,2.489,2.489,0,0,0,.5.4,2.276,2.276,0,0,0,.242.128,1.484,1.484,0,0,0,.372.24,2.808,2.808,0,0,0,1.142.14l.094.026a7.269,7.269,0,0,0,1.426.217c.661.2,1.307.487,1.971.682.111.1.221.2.324.314a2.939,2.939,0,0,1-.334,1.471,8.281,8.281,0,0,1-1.642,1.977,8.177,8.177,0,0,0-1.168,1.37,3.678,3.678,0,0,0-.954-1.234,1.592,1.592,0,0,0-.712-.377.759.759,0,0,0-.736.242c-.3.4-.014.95.173,1.413a4.207,4.207,0,0,1,.269,1.248.6.6,0,0,0-.317.4.581.581,0,0,0,.084.417.527.527,0,0,0-.209.237.8.8,0,0,0,.055.662,1.355,1.355,0,0,0,.1.159,1.127,1.127,0,0,0,.272.71,1.037,1.037,0,0,0,.1.1,13.01,13.01,0,0,0,1.739,5.367.89.89,0,0,1-.189.353,1.232,1.232,0,0,1-.838.309,2.16,2.16,0,0,0-.891.172.594.594,0,0,0-.3.764c.145.243.478.275.761.279l4.006.064a2.568,2.568,0,0,0,0-.517h.143q-.156-.591-.306-1.183a.977.977,0,0,0-.066-.4l-.557-2.377a2.964,2.964,0,0,0,.04-1.028,3.77,3.77,0,0,0,.2-1.256c0-.166-.01-.331-.027-.495a1.727,1.727,0,0,0-.024-1.024,1.145,1.145,0,0,1,.169-1.1,1.408,1.408,0,0,1,.764-.247,3.97,3.97,0,0,0,1.679-.688,21.808,21.808,0,0,0,.838,3.127c.117.354.24.711.38,1.061a1.462,1.462,0,0,0-.263.206,3.425,3.425,0,0,0-.631.224c-.35.165-.71.46-.691.846.022.434.491.684.9.838q.25.095.5.185a3.893,3.893,0,0,0,1.061.544l.414.152a1.036,1.036,0,0,0,.333.29.781.781,0,0,0,.5.083l.015.024a.829.829,0,0,0,.617.4.554.554,0,0,0,.414-.165,38.861,38.861,0,0,0,4.494,1.086,1.177,1.177,0,0,1,.439.35c.279.382.289,1.006.732,1.173a.7.7,0,0,0,.679-.159,2.077,2.077,0,0,0,.432-.585,1.46,1.46,0,0,0,.277-.92.98.98,0,0,0-.309-.534,1.45,1.45,0,0,0-.212-.395,2,2,0,0,0-.969-.646,4.314,4.314,0,0,0-.717-.165q-.264-.138-.532-.268a3.274,3.274,0,0,0-1.378-1.034c-.08-.065-.162-.127-.245-.187a8.551,8.551,0,0,0-3.027-1.39,3.069,3.069,0,0,1-.046-1.864,15.344,15.344,0,0,0-.006-5.068c-.037-.22-.072-.46-.115-.7a.988.988,0,0,0,.081-.107,1.994,1.994,0,0,0,.1-1.493,27.966,27.966,0,0,0-1.355-4.539,2.909,2.909,0,0,0-.037-1.035,6.118,6.118,0,0,0-1.916-3.185,18.239,18.239,0,0,0-3.081-2.174,3.707,3.707,0,0,0-1.262-.563,2.512,2.512,0,0,0-2.264,1.011,4.381,4.381,0,0,0-.471.723l-.071-.025-1.382-.485a.615.615,0,0,0-.358-.05c-.118.032-.214.172-.155.279a.424.424,0,0,0-.638.464.409.409,0,0,0-.638.075.548.548,0,0,0-.06.4.712.712,0,0,0-.154-.078,1,1,0,0,0-.858.139,1.4,1.4,0,0,0-.548.705l-.04-.039a1.948,1.948,0,0,0-.3,1.366,1.042,1.042,0,0,0,.1.224q-.273.208-.54.421c-.633-.132-1.786.766-2.211,1-.945.517-1.886,1.043-2.813,1.592a39.161,39.161,0,0,0-5.364,3.725.847.847,0,0,0-.357.511A.637.637,0,0,0,739.584,109.685Zm13.5-9.374q-.155.089-.31.181a1.1,1.1,0,0,0,.025-.247.713.713,0,0,0-.013-.117A1.942,1.942,0,0,0,753.086,100.312Zm3.527-.425.085-.044-.163.256A.46.46,0,0,0,756.613,99.886Zm1.88-1.125.919,1.108a1.031,1.031,0,0,0-.154.229l-.023-.016.016.031c-.256.536-.1,1.25-.513,1.633-.232.217-.649.228-.778.519a.5.5,0,0,0,.144.537,1.239,1.239,0,0,0,.527.257,5.454,5.454,0,0,0,.651.142,5.686,5.686,0,0,0,.389,1.129,1.059,1.059,0,0,0,.358.473.622.622,0,0,0,.132.062,2.08,2.08,0,0,0-.35.494,2.983,2.983,0,0,0-.366-.147,6.847,6.847,0,0,0-1.432-.253,3.085,3.085,0,0,0-1.434.089,2.376,2.376,0,0,1-.378-.137,3.312,3.312,0,0,0-1.048-1.2c-.182-.138-.372-.27-.56-.406l-.963-1.23a1.375,1.375,0,0,0-.515-.466l-.046-.016-.006-.007a.763.763,0,0,0-.339-.23v0c.318-.244.662-.5.969-.778a3.367,3.367,0,0,0,1.825.2A2.072,2.072,0,0,0,756.97,99.7,17.536,17.536,0,0,0,758.493,98.762Z" transform="translate(-967.755 -77.968)" fill="#bababa"/>
      <path id="_7-2" data-name="7" d="M8.926,2.376c.033.61.065,1.1.086,1.6A4.017,4.017,0,0,1,9,4.656a4.321,4.321,0,0,0-.153.623A16.05,16.05,0,0,1,8.6,8.138a10.958,10.958,0,0,0,.027,1.5c0,.335-.065.669-.072,1q-.029,1.505-.032,3.011a13.652,13.652,0,0,0,.035,1.884A8.522,8.522,0,0,0,8.9,18.113a10.191,10.191,0,0,1,.5,1.944,1.694,1.694,0,0,0,.806,1.216.362.362,0,0,1,.165.285c-.115.718-.238,1.435-.391,2.146-.137.638-.749.847-1.2,1.176-.217.159-.58.114-.874.173a.58.58,0,0,0-.518.668,4.843,4.843,0,0,1-.443,2.195,14,14,0,0,0-.523,2.035A6.031,6.031,0,0,0,6.248,31.3c.009.535.133,1.066.19,1.6.077.726.13,1.456.212,2.181a1.741,1.741,0,0,0,.179.466c.028.064.094.115.112.181.236.842.466,1.685.7,2.528.01.035.021.069.027.1.132.75-.011.916-.767.993a8.163,8.163,0,0,0-1.224.23,3.922,3.922,0,0,1-1.814.055c-.417-.088-.5-.366-.19-.667a1.474,1.474,0,0,1,.5-.333,1.758,1.758,0,0,0,.986-1.147c-.045-.033-.063-.056-.081-.056-.655-.01-.9-.222-.752-.848a3.2,3.2,0,0,0-.505-2.459A14.944,14.944,0,0,1,2.763,30.97a3.817,3.817,0,0,1-.108-1.735c.044-.295.01-.6.048-.9s.123-.574.178-.862a1.136,1.136,0,0,0,0-.275c0-.068-.042-.14-.027-.2.188-.748.367-1.5.582-2.239.142-.49.337-.965.518-1.474-.406-.374-.417-.592,0-1.05.161-.176.324-.349.508-.546a1.286,1.286,0,0,1-.641-1.1,11.143,11.143,0,0,0-.312-1.454,1.146,1.146,0,0,0-.212.338c-.1.529-.157,1.068-.275,1.593a10.512,10.512,0,0,1-1.738,3.567c-.052.077-.108.152-.183.256.274.087.483.193.737-.05a.6.6,0,0,1,.55-.009.655.655,0,0,1,.3.474,1.08,1.08,0,0,1-.389,1,.949.949,0,0,1-1.022-.1c-.271-.15-.513-.353-.77-.529a1.185,1.185,0,0,1-.446-1.4c.043-.174.106-.343.165-.512.432-1.242.868-2.483,1.3-3.726.054-.157.079-.325.119-.487.082-.33.082-.6-.332-.725a.4.4,0,0,1-.321-.516c.257-.97.49-1.947.774-2.908a2.017,2.017,0,0,1,.507-.966,14.083,14.083,0,0,0,1.176-1.1,1.45,1.45,0,0,0,.425-1.792,1.05,1.05,0,0,1,.022-.555c.073-.3.207-.6.277-.9a1.75,1.75,0,0,1,2.1-1.5c.155.017.309.037.47.057.158-.315.321-.619.465-.933A1.157,1.157,0,0,0,7.3,7.3c.033-.632.043-1.266.076-1.9.039-.743.093-1.485.145-2.227a1.562,1.562,0,0,1,.077-.5c.094-.221.125-.371-.148-.481a.349.349,0,0,1-.173-.285c.069-.376.055-.8.472-1.027.069-.037.093-.161.133-.247a2.161,2.161,0,0,1,.187-.4.534.534,0,0,1,.7-.169,1.282,1.282,0,0,1,.539.615,1.5,1.5,0,0,1-.028.835,5.819,5.819,0,0,1-.36.857" transform="translate(-164.396 6.297)" fill="#bababa"/>
    </g>
  </g>
</svg>
