<?xml version="1.0" encoding="UTF-8"?><svg id="Layer_1" xmlns="http://www.w3.org/2000/svg" width="274" height="18.36" viewBox="0 0 274 18.36"><defs><style>.cls-1{fill:#001d42;}.cls-2{fill:#696969;}.cls-3{fill:#ec2027;}.cls-4{fill:#fff;}.cls-5{fill:red;}.cls-6{fill:#e82d2e;}.cls-7{fill:#e4405f;}.cls-8{fill:#db3832;}.cls-9{fill:#e1261d;}.cls-10{fill:#1da1f2;}.cls-11{fill:#1877f2;}.cls-12{fill:#464646;}.cls-13{fill:#52ba63;}.cls-14{fill:#6e6e6e;}.cls-15{fill:#26a5e4;}</style></defs><path id="Path_1255" class="cls-14" d="M.82,7.33l2.68,2.71,2.68-2.71,.82,.82-3.5,3.5L0,8.15l.82-.82ZM0,3.5L3.5,0l3.5,3.5-.82,.82L3.5,1.62,.82,4.33l-.82-.83Z"/><path id="Path_1256" d="M15.52,0c1.73-.02,3.38,.67,4.59,1.9,1.22,1.23,1.89,2.89,1.88,4.62,0,.78-.13,1.56-.4,2.3-.26,.71-.65,1.36-1.15,1.92l.28,.28h.8l4.97,4.97-1.5,1.5-4.97-4.97v-.8l-.28-.28c-.56,.5-1.21,.89-1.92,1.15-.74,.27-1.52,.4-2.3,.4-1.73,.02-3.39-.66-4.61-1.87-1.23-1.21-1.92-2.87-1.9-4.59-.01-1.73,.67-3.4,1.9-4.62C12.12,.67,13.78-.01,15.52,0Zm0,2.02c-1.19,0-2.34,.47-3.19,1.31-.84,.84-1.3,2-1.27,3.19-.03,1.19,.42,2.34,1.27,3.18,.84,.84,2,1.3,3.19,1.27,1.19,.03,2.34-.43,3.18-1.27,.84-.84,1.3-2,1.27-3.19,.03-1.19-.42-2.34-1.27-3.18-.84-.84-1.99-1.32-3.18-1.31Z"/><path id="television-classic" class="cls-9" d="M33.13,0l-1.17,1.18,2.16,2.16h-4.45c-.92,0-1.66,.74-1.67,1.65,0,0,0,0,0,.01V13.33c0,.92,.74,1.66,1.65,1.67,0,0,0,0,.01,0h13.33c.92,0,1.66-.74,1.67-1.65,0,0,0,0,0-.01V5c0-.92-.74-1.66-1.65-1.67,0,0,0,0-.01,0h-4.45l2.16-2.16L39.53,0l-3.2,3.2L33.13,0m-3.47,5h10.83V13.33h-10.83V5m12.92,0c.46,0,.83,.37,.83,.83s-.37,.83-.83,.83-.83-.37-.83-.83,.37-.83,.83-.83h0m0,2.5c.46,0,.83,.37,.83,.83s-.37,.83-.83,.83-.83-.37-.83-.83,.37-.83,.83-.83h0Z"/><path id="Path_1258" class="cls-1" d="M55.14,14.18h-7.5V2.5h7.5V14.18Zm-3.75,3.32c-.32,0-.63-.12-.86-.35-.23-.23-.36-.55-.35-.88,0-.33,.12-.65,.35-.88,.23-.23,.55-.36,.88-.35,.33,0,.65,.12,.88,.35,.23,.23,.36,.55,.35,.88,0,.33-.12,.65-.35,.88-.24,.24-.56,.36-.9,.35ZM54.75,0h-6.68c-.56,0-1.09,.23-1.48,.62-.39,.39-.6,.93-.59,1.49v14.14c-.02,.55,.19,1.09,.59,1.48,.39,.39,.93,.62,1.48,.63h6.68c.54-.01,1.06-.24,1.44-.62,.39-.4,.62-.93,.62-1.48V2.11c0-.56-.23-1.09-.62-1.48C55.81,.24,55.3,.01,54.75,0h0Z"/><path id="Path_1263" class="cls-11" d="M64.69,0V2.66h-1.34c-.21,.01-.41,.14-.5,.33-.11,.21-.16,.44-.16,.67v1.66h2v2.69h-2v5.31h-2.69v-5.31h-2v-2.69h2V2.66c0-.7,.28-1.38,.78-1.88C61.29,.28,61.97,0,62.69,0h2Z"/><path id="Path_1262" class="cls-10" d="M80.82,1.34c-.52,.23-1.06,.39-1.62,.47,.6-.36,1.04-.93,1.25-1.59-.56,.33-1.17,.57-1.81,.69C78.08,.32,77.31,0,76.51,0c-.75,0-1.47,.31-2,.84-.54,.54-.84,1.27-.84,2.03,0,.22,.03,.44,.09,.66-1.16-.07-2.29-.38-3.33-.91-1-.51-1.88-1.22-2.58-2.09-.25,.43-.38,.92-.38,1.42,0,.49,.11,.96,.34,1.39,.22,.4,.53,.75,.91,1-.45-.01-.89-.13-1.28-.34v.03c-.01,.67,.21,1.32,.64,1.83,.42,.51,1,.85,1.64,.98-.24,.06-.5,.1-.75,.09-.18,0-.36-.02-.53-.06,.18,.57,.53,1.06,1,1.42,.48,.36,1.06,.57,1.66,.58-.48,.4-1.03,.7-1.62,.91-.61,.21-1.26,.32-1.91,.31-.23,0-.46-.01-.69-.03,.64,.4,1.33,.72,2.05,.94,.75,.23,1.54,.35,2.33,.34,2.31,.05,4.52-.92,6.05-2.66,1.33-1.52,2.07-3.45,2.11-5.47l-.03-.38c.56-.41,1.05-.92,1.44-1.5Z"/><path id="Path_1261" class="cls-7" d="M85.84,0h5.62c1.02,0,2,.4,2.72,1.12,.72,.72,1.13,1.7,1.12,2.72v5.62c0,1.02-.4,2-1.13,2.72-.72,.72-1.7,1.13-2.72,1.13h-5.62c-1.02,0-2-.4-2.72-1.13-.72-.72-1.13-1.7-1.13-2.72V3.84c0-1.02,.4-2,1.12-2.72C83.84,.4,84.82,0,85.84,0Zm-.12,1.31c-.64,0-1.25,.25-1.7,.7-.45,.45-.7,1.06-.7,1.7v5.88c0,.64,.25,1.25,.7,1.7,.45,.45,1.06,.7,1.7,.7h5.87c.64,0,1.25-.25,1.7-.7,.45-.45,.7-1.06,.7-1.7V3.72c0-.64-.25-1.25-.7-1.7-.45-.45-1.06-.7-1.7-.7h-5.87Zm6.44,.99c.22,.02,.42,.11,.58,.27,.15,.15,.24,.36,.23,.58,0,.22-.08,.43-.23,.58-.15,.15-.36,.24-.58,.23-.22,0-.43-.08-.58-.23-.15-.15-.24-.36-.23-.58,0-.22,.08-.43,.23-.58,.15-.16,.36-.25,.58-.27h0Zm-3.5,1c.89,0,1.74,.35,2.36,.98,.63,.62,.98,1.47,.98,2.36,0,.89-.35,1.74-.98,2.36-.62,.63-1.47,.99-2.36,.99-.89,0-1.74-.35-2.36-.98-.63-.62-.99-1.47-.98-2.36,0-.89,.35-1.74,.98-2.36,.62-.63,1.47-.99,2.36-.98h0Zm0,1.34c-.53,0-1.03,.22-1.41,.59-.37,.37-.58,.88-.56,1.41-.01,.53,.19,1.04,.56,1.41,.37,.37,.88,.58,1.41,.56,.53,.01,1.03-.19,1.41-.56,.37-.37,.58-.88,.56-1.41,.01-.53-.19-1.03-.56-1.41-.37-.37-.88-.59-1.41-.59Z"/><path id="Path_1260" class="cls-5" d="M102.35,8.34V2.34l4,3-4,3ZM109.04,.28c-.63-.1-1.27-.17-1.91-.19C106.11,.03,104.96,0,103.69,0c-1.27,0-2.42,.03-3.44,.08-.64,.01-1.28,.07-1.91,.17-.61,.4-1,1.06-1.05,1.78-.21,1.09-.31,2.19-.3,3.3-.01,1.11,.09,2.22,.3,3.31,.2,.97,.55,1.56,1.05,1.77,.63,.13,1.27,.19,1.91,.2,1.02,.05,2.17,.08,3.44,.08s2.42-.03,3.44-.08c.64,0,1.28-.07,1.91-.2,.5-.21,.85-.8,1.05-1.77,.21-1.09,.31-2.2,.3-3.31,.01-1.11-.09-2.21-.3-3.3-.2-.96-.55-1.54-1.05-1.75Z"/><path id="Path_1259" class="cls-15" d="M116.53,9.47l.19-2.81,5.09-4.63c.1-.1,.11-.17,.03-.2-.13-.02-.26,0-.38,.08l-6.31,4-2.72-.88c-.31-.08-.46-.21-.44-.38,.02-.17,.21-.33,.56-.5L123.22,.07c.2-.11,.45-.08,.62,.08,.18,.22,.23,.53,.12,.8l-1.81,8.53c-.15,.6-.48,.76-1,.47l-2.75-2.03-1.34,1.28c-.06,.08-.13,.15-.22,.2-.09,.06-.2,.08-.31,.08Z"/><path id="Path_1264" class="cls-9" d="M131.01,0c1.19,0,2.34,.46,3.18,1.3,.85,.83,1.33,1.97,1.32,3.16-.25,1.97-1.03,3.83-2.25,5.4-.68,1.01-1.43,1.96-2.25,2.86-.82-.9-1.57-1.86-2.25-2.86-1.22-1.57-2-3.43-2.25-5.4,0-1.19,.47-2.33,1.32-3.16C128.68,.46,129.82,0,131.01,0Zm0,2.99c-.4-.01-.78,.15-1.05,.44-.28,.29-.43,.67-.42,1.07-.01,.39,.14,.78,.42,1.06,.28,.28,.66,.43,1.05,.42,.39,.01,.78-.14,1.06-.42,.28-.28,.43-.66,.42-1.06,0-.4-.14-.79-.42-1.07-.27-.29-.66-.45-1.06-.44Zm6.01,9.74c-.14,.99-.82,1.82-1.76,2.15-1.33,.61-2.79,.9-4.25,.84-1.46,.05-2.92-.24-4.25-.84-.94-.33-1.62-1.16-1.76-2.14,.04-.51,.27-.98,.65-1.32,.49-.46,1.07-.81,1.71-1.04l.46,.67c-.84,.35-1.28,.8-1.3,1.34,.02,.52,.46,.95,1.32,1.3,1.02,.38,2.1,.56,3.18,.53,1.08,.03,2.17-.15,3.18-.53,.86-.35,1.29-.78,1.32-1.3-.02-.54-.46-.98-1.3-1.34l.46-.67c.63,.22,1.21,.58,1.7,1.04,.38,.34,.61,.81,.65,1.32Z"/><g id="Group_1244"><rect id="Rectangle_982" class="cls-8" x="139" y="0" width="23" height="12" rx="2" ry="2"/><path id="Path_46" class="cls-4" d="M146.81,9.24h-1.88l-1.8-4.83c.06,.47,.11,.89,.14,1.26,.03,.36,.05,.79,.05,1.29v2.29h-1.31V3h1.84l1.84,4.84c-.13-.77-.19-1.54-.2-2.32V3h1.32v6.24Zm4.83-5.18h-2.2v1.49h1.92v1.03h-1.92v1.59h2.35v1.06h-3.82V3h3.82l-.15,1.05Zm6.97,5.18h-1.92l-.77-4.76-.82,4.76h-1.87l-1.03-6.24h1.48l.62,5.12,.86-5.12h1.55l.81,5.12,.73-5.12h1.4l-1.04,6.24Z"/></g><path id="Path_114" class="cls-6" d="M163,4.34v1.23h7.5l-3.43,3.46,.88,.88,4.95-4.95L167.95,0l-.88,.88,3.43,3.46h-7.5Z"/><path id="lightning-bolt-outline" class="cls-4" d="M177.99,6.93v1.25h3l-1.4,2.89v-1.25h-3l1.4-2.89M179.58,0l-5.58,11.45h3.99v6.55l5.58-11.45h-3.99V0Z"/><path id="Path_129" class="cls-13" d="M194.97,8.1c.11,.03,.22,.09,.3,.17,.04,.1,.05,.2,.03,.3-.02,.18-.07,.36-.14,.52-.11,.23-.29,.41-.51,.52-.2,.13-.43,.21-.67,.22-.15,.05-.32,.06-.48,.05-.53-.11-1.04-.29-1.52-.53-.77-.36-1.45-.89-1.98-1.55-.48-.61-.74-.97-.79-1.06-.05-.1-.17-.31-.35-.65-.18-.35-.27-.75-.25-1.14-.01-.33,.07-.67,.24-.95,.11-.16,.24-.31,.38-.44,.19-.17,.35-.23,.48-.19h.32c.06,0,.11,.01,.16,.03,.06,.02,.13,.12,.19,.29l.48,1.27c.06,.08,.06,.2,0,.29l-.16,.29-.29,.29s-.07,.09-.1,.14c-.02,.07,0,.15,.03,.21,.09,.16,.19,.32,.3,.48,.18,.26,.37,.5,.59,.73,.25,.23,.53,.43,.83,.6l.51,.26c.15,.11,.26,.1,.35-.03l.54-.63c.05-.06,.11-.09,.19-.1,.07,0,.15,.01,.22,.03l1.12,.6ZM191.76,0c1.8-.01,3.52,.7,4.8,1.97,1.27,1.27,1.98,3,1.97,4.8,.01,1.8-.7,3.52-1.97,4.8-1.27,1.27-3,1.98-4.8,1.97-1.28,0-2.54-.36-3.62-1.05l-3.14,1.05,1.05-3.14c-.68-1.08-1.05-2.34-1.05-3.62-.01-1.8,.7-3.52,1.97-4.8C188.24,.7,189.97-.01,191.76,0Zm0,1.33c-1.44,0-2.82,.57-3.84,1.59-1.02,1.02-1.59,2.4-1.59,3.84,0,1.11,.34,2.2,.98,3.11l-.63,1.97,1.97-.63c.91,.64,2,.99,3.11,.98,1.44,0,2.82-.57,3.84-1.59,1.02-1.02,1.59-2.4,1.59-3.84,0-1.44-.57-2.82-1.59-3.84-1.02-1.02-2.4-1.59-3.84-1.59Z"/><path id="Path_19" class="cls-12" d="M200,0h18V2.02h-18V0Zm0,5.02h18v1.97h-18v-1.97Zm0,4.97h18v2.02h-18v-2.02Z"/><path id="Path_1274" d="M225.98,12.76v-4.5h3.02v4.5h3.73V6.75h2.25L227.49,0l-7.49,6.75h2.25v6.01h3.73Z"/><path id="Path_1292" class="cls-2" d="M247.48,1.06L246.42,0l-4.18,4.19L238.05,0l-1.05,1.05,4.18,4.18-4.18,4.18,1.05,1.05,4.18-4.19,4.18,4.18,1.06-1.05-4.18-4.18,4.18-4.18Z"/><path id="Path_1273" d="M254.89,0c1.29-.01,2.54,.5,3.44,1.42,.91,.92,1.42,2.17,1.41,3.46,0,.59-.1,1.17-.3,1.72-.19,.53-.49,1.02-.86,1.44l.21,.21h.6l3.73,3.73-1.13,1.12-3.73-3.73v-.6l-.21-.21c-.42,.37-.91,.67-1.44,.86-.55,.2-1.14,.3-1.72,.3-1.3,.01-2.54-.49-3.46-1.41-.92-.91-1.44-2.15-1.42-3.44-.01-1.3,.5-2.55,1.42-3.46,.92-.92,2.16-1.44,3.46-1.42Zm0,1.51c-.9,0-1.76,.35-2.39,.99-.63,.63-.97,1.5-.95,2.39-.03,.89,.32,1.76,.95,2.39,.63,.63,1.5,.98,2.39,.95,.89,.03,1.76-.32,2.39-.95,.63-.63,.98-1.5,.95-2.39,.02-.89-.32-1.76-.95-2.39-.63-.63-1.49-.99-2.39-.99Z"/><path id="Path_45" class="cls-3" d="M266.94,8.38l3.06,3.09,3.06-3.09,.94,.94-4,4-4-4,.94-.94Zm-.94-4.38L270,0l4,4-.94,.94-3.06-3.09-3.06,3.09-.94-.94Z"/></svg>