<svg id="Layer_1" data-name="Layer 1" xmlns="http://www.w3.org/2000/svg" xmlns:xlink="http://www.w3.org/1999/xlink" viewBox="0 0 129.9 47.7">
  <defs>
    <style>
      .cls-1, .cls-6 {
        fill: none;
      }

      .cls-2 {
        fill: #001d42;
      }

      .cls-2, .cls-3, .cls-4, .cls-5, .cls-9 {
        fill-rule: evenodd;
      }

      .cls-3 {
        fill: #fff;
      }

      .cls-4 {
        fill: #fefefe;
      }

      .cls-5 {
        fill: #e1261c;
      }

      .cls-6 {
        stroke: #fff;
        stroke-miterlimit: 10;
      }

      .cls-7 {
        clip-path: url(#clip-path);
      }

      .cls-8 {
        fill: #74c9c6;
      }

      .cls-9 {
        fill: #ee1c25;
      }
    </style>
    <clipPath id="clip-path" transform="translate(-0.1 -0.3)">
      <path class="cls-1" d="M117,29.84c4.4-.08,7.13-3.14,7.45-6,.44-3.91-1.64-5.24-2.85-6a4.62,4.62,0,0,0,2.16-4.68c-.39-3.59-3.4-5.39-6.91-5.42s-6.26,2.11-6.75,5.28a4.7,4.7,0,0,0,2.17,4.82,6.17,6.17,0,0,0-2.91,5.93A7.38,7.38,0,0,0,117,29.84Z"/>
    </clipPath>
  </defs>
  <g>
    <g>
      <path class="cls-1" d="M.4.3H129.5V48H.4Z" transform="translate(-0.1 -0.3)"/>
      <g>
        <path class="cls-2" d="M1.1,11.9H105.3V46.6H1.1Z" transform="translate(-0.1 -0.3)"/>
        <path class="cls-3" d="M7.4,18.9v21h5.1v-13l7.5,13h5v-21H19.9V31.2L12.7,18.9Z" transform="translate(-0.1 -0.3)"/>
        <path class="cls-4" d="M28,18.9v21H44.4V35.3H33.2V31.1H43V26.6H33.2V23.5H43.9V18.8Z" transform="translate(-0.1 -0.3)"/>
        <path class="cls-4" d="M45.3,18.9l6,21h5.3l2.8-13.5,2.8,13.5h4.7l6-21H67.5L64.6,31.3,62.1,18.9H56.5L54.1,30.6,51.4,18.9Z" transform="translate(-0.1 -0.3)"/>
        <path class="cls-3" d="M85,25.8s.7-2.6-3.4-3c-2.8-.3-3.4,1.7-3,2.4.9,1.5,7.4,1.5,10.5,4.1,2.7,2.3,2,7.4-.8,9.3-3.4,2.3-8.7,1.9-11.1.8a6.64,6.64,0,0,1-4-6.8h5s-.3,3.2,3.7,3.2,4.2-2.2,3.3-3c-1-1-8.8-1.3-10.9-4.5a6.37,6.37,0,0,1,2.2-8.8c3.8-2.3,9.5-1.2,11.5,1a6.77,6.77,0,0,1,2.1,5.3Z" transform="translate(-0.1 -0.3)"/>
        <path class="cls-5" d="M94.3,1.2H129V35.9H94.4Z" transform="translate(-0.1 -0.3)"/>
      </g>
      <path class="cls-3" d="M107.2,29.6h-5V13.1H98.8v-5h8.4Z" transform="translate(-0.1 -0.3)"/>
      <path class="cls-6" d="M105.2,36.6V47H.6V11.4h93" transform="translate(-0.1 -0.3)"/>
      <path class="cls-6" d="M94.1,1h35.4V36.1H94.1Z" transform="translate(-0.1 -0.3)"/>
    </g>
    <g>
      <path class="cls-3" d="M117,29.84c4.4-.08,7.13-3.14,7.45-6,.44-3.91-1.64-5.24-2.85-6a4.62,4.62,0,0,0,2.16-4.68c-.39-3.59-3.4-5.39-6.91-5.42s-6.26,2.11-6.75,5.28a4.7,4.7,0,0,0,2.17,4.82,6.17,6.17,0,0,0-2.91,5.93A7.38,7.38,0,0,0,117,29.84Z" transform="translate(-0.1 -0.3)"/>
      <g class="cls-7">
        <g>
          <path class="cls-8" d="M121,17.84a14.88,14.88,0,0,1-8,.08,7.62,7.62,0,0,1,.11-4.11c1.25.16,2.51-.68,3.77-.67s2.63.84,4,.67A6.36,6.36,0,0,1,121,17.84Z" transform="translate(-0.1 -0.3)"/>
          <path class="cls-8" d="M113.06,14.52a7.82,7.82,0,0,1-1.77-.52,9.68,9.68,0,0,1-1.52-.82l.41-.58a8.85,8.85,0,0,0,1.39.75,6.83,6.83,0,0,0,1.58.47Z" transform="translate(-0.1 -0.3)"/>
          <path class="cls-8" d="M113.15,17.94a7.71,7.71,0,0,1-1.76-.51,7.41,7.41,0,0,1-1.43-.79l.42-.56a6.73,6.73,0,0,0,1.29.7,6.59,6.59,0,0,0,1.57.46Z" transform="translate(-0.1 -0.3)"/>
          <path class="cls-8" d="M120.86,14.52l-.1-.7a6.61,6.61,0,0,0,1.57-.47,7.24,7.24,0,0,0,1.39-.77l.42.57a8.78,8.78,0,0,1-1.53.85A8.19,8.19,0,0,1,120.86,14.52Z" transform="translate(-0.1 -0.3)"/>
          <path class="cls-8" d="M120.71,17.88l0-.7a4.86,4.86,0,0,0,1.55-.4,6.18,6.18,0,0,0,1.29-.7l.43.56a7.2,7.2,0,0,1-1.44.79A5.55,5.55,0,0,1,120.71,17.88Z" transform="translate(-0.1 -0.3)"/>
          <circle cx="118.64" cy="12.22" r="0.68"/>
          <circle cx="115.07" cy="12.22" r="0.68"/>
        </g>
      </g>
      <path class="cls-9" d="M119.45,22.45A2.41,2.41,0,0,1,117.08,25a2.46,2.46,0,0,1-2.46-2.51A2.32,2.32,0,0,1,117.06,20,2.4,2.4,0,0,1,119.45,22.45Z" transform="translate(-0.1 -0.3)"/>
    </g>
  </g>
</svg>
