<?xml version="1.0" encoding="utf-8"?>
<!-- Generator: Adobe Illustrator 28.0.0, SVG Export Plug-In . SVG Version: 6.00 Build 0)  -->
<svg version="1.1" id="Layer_1" xmlns="http://www.w3.org/2000/svg" xmlns:xlink="http://www.w3.org/1999/xlink" x="0px" y="0px"
	 width="290.1px" height="525px" viewBox="0 0 290.1 525" style="enable-background:new 0 0 290.1 525;" xml:space="preserve">
<style type="text/css">
	.st0{fill:#FFFFFF;}
	.st1{fill:#E1261D;}
	.st2{fill:#3B5998;}
	.st3{fill:#8F8F8F;}
	.st4{fill:#E4405F;}
	.st5{fill:#E02F2F;}
	.st6{fill:#26A5E4;}
	.st7{fill:#0A66C2;}
	.st8{fill:#FACD00;}
	.st9{fill:#383838;stroke:#383838;stroke-width:0.25;}
	.st10{fill:#52BA63;}
	.st11{fill:#4E4E4E;}
	.st12{fill:#3E3E3E;}
	.st13{fill:#F2F2F2;}
	.st14{fill:#0C9D58;}
	.st15{opacity:0.2;}
	.st16{clip-path:url(#SVGID_00000047050915690789358090000009348783779333765009_);}
	.st17{fill:#004D40;}
	.st18{clip-path:url(#SVGID_00000039819127029966527900000006413780234055580576_);}
	.st19{clip-path:url(#SVGID_00000025417086636908949460000009573119006949912202_);}
	.st20{fill:#EA4335;}
	.st21{clip-path:url(#SVGID_00000041274563589853667350000014060498302024983715_);}
	.st22{fill:#3E2723;}
	.st23{clip-path:url(#SVGID_00000168090884260639376030000001386437656046803638_);}
	.st24{clip-path:url(#SVGID_00000111877907321342950570000005229082054492705933_);}
	.st25{fill:#FFC107;}
	.st26{clip-path:url(#SVGID_00000065759789185472038710000011792275135709854398_);}
	.st27{fill:#4285F4;}
	.st28{clip-path:url(#SVGID_00000128467992407330835310000008187695506721827982_);}
	.st29{fill:#1A237E;}
	.st30{clip-path:url(#SVGID_00000127754942517681256590000005350148526735114904_);}
	.st31{clip-path:url(#SVGID_00000083775934161476185400000014032015511967488418_);}
	.st32{clip-path:url(#SVGID_00000071519459740505973540000008827718261423851651_);}
	.st33{fill:none;}
	.st34{fill:#B8B8B8;}
	.st35{fill:none;stroke:#B8B8B8;stroke-width:2.5;stroke-linecap:round;}
	.st36{fill:#B4B4B4;}
	.st37{fill:#6E6E6E;}
	.st38{fill:#001D42;}
	.st39{fill:#1877F2;}
	.st40{fill:#FF0000;}
	.st41{fill:#DB3832;}
	.st42{fill:#E82D2E;}
	.st43{fill:#464646;}
	.st44{fill:#696969;}
	.st45{fill:#EC2027;}
	.st46{fill:#061836;}
	.st47{fill-rule:evenodd;clip-rule:evenodd;fill:#FFFFFF;}
	.st48{fill-rule:evenodd;clip-rule:evenodd;fill:#EC2027;}
	.st49{fill:#666666;}
	.st50{fill-rule:evenodd;clip-rule:evenodd;fill:#818181;}
	.st51{fill:#818181;}
	.st52{fill:#818181;stroke:#818181;stroke-width:0.5;stroke-miterlimit:10;}
</style>
<path class="st0" d="M17.6,6.8L16.5,8l2.1,2.1h-4.5c-0.4,0-0.9,0.2-1.2,0.5s-0.5,0.7-0.5,1.2v8.3c0,0.5,0.2,0.9,0.5,1.2
	c0.3,0.3,0.7,0.5,1.2,0.5h13.7c0.4,0,0.9-0.2,1.2-0.5c0.3-0.3,0.5-0.8,0.5-1.2v-8.3c0-0.4-0.2-0.9-0.5-1.2s-0.7-0.5-1.2-0.5h-4.6
	L25.4,8l-1.2-1.2L20.9,10L17.6,6.8z M14.2,11.8h11.1v8.3H14.2V11.8z M27.3,11.8c0.2,0,0.4,0.1,0.6,0.2c0.2,0.2,0.2,0.4,0.2,0.6
	c0,0.2-0.1,0.4-0.2,0.6c-0.2,0.2-0.4,0.2-0.6,0.2s-0.4-0.1-0.6-0.2c-0.2-0.2-0.2-0.4-0.2-0.6c0-0.2,0.1-0.4,0.2-0.6
	C26.9,11.9,27.1,11.8,27.3,11.8z M27.3,14.3c0.2,0,0.4,0.1,0.6,0.2c0.2,0.2,0.2,0.4,0.2,0.6c0,0.2-0.1,0.4-0.2,0.6
	c-0.2,0.2-0.4,0.2-0.6,0.2s-0.4-0.1-0.6-0.2c-0.2-0.2-0.2-0.4-0.2-0.6c0-0.2,0.1-0.4,0.2-0.6C26.9,14.4,27.1,14.3,27.3,14.3z"/>
<path class="st1" d="M44.5,19.4h-6.9V8.8h6.9V19.4z M41.1,22.3c-0.3,0-0.6-0.1-0.8-0.3c-0.2-0.2-0.3-0.5-0.3-0.8s0.1-0.6,0.3-0.8
	c0.2-0.2,0.5-0.3,0.8-0.3s0.6,0.1,0.8,0.3c0.2,0.2,0.3,0.5,0.3,0.8s-0.1,0.6-0.3,0.8S41.5,22.4,41.1,22.3z M44.2,6.6h-6.1
	c-0.5,0-1,0.2-1.3,0.6c-0.4,0.4-0.5,0.8-0.5,1.3v12.7c0,0.5,0.2,1,0.5,1.3c0.4,0.4,0.8,0.6,1.3,0.6h6.1c0.5,0,1-0.2,1.3-0.6
	c0.4-0.4,0.6-0.8,0.6-1.3V8.5c0-0.5-0.2-1-0.6-1.3C45.2,6.8,44.7,6.6,44.2,6.6z"/>
<path class="st2" d="M65.7,6.4v3h-1.5c-0.2,0-0.5,0.2-0.6,0.4s-0.2,0.5-0.2,0.8v1.9h2.2v3h-2.2v6h-3.1v-6h-2.2v-3h2.2v-3
	c0-0.8,0.3-1.6,0.9-2.1c0.6-0.6,1.3-0.9,2.1-0.9L65.7,6.4z"/>
<path class="st3" d="M84.1,20.6L79,15.7l1.2-1.1l3.9,3.7l3.9-3.7l1.2,1.1L84.1,20.6z"/>
<path class="st3" d="M84.1,6.6L79,11.5l1.2,1.1l3.9-3.7l3.9,3.7l1.2-1.1L84.1,6.6z"/>
<path class="st4" d="M41,25.8h7.1c1.3,0,2.5,0.5,3.5,1.4c0.9,0.9,1.4,2.1,1.4,3.4v7c0,1.3-0.5,2.5-1.4,3.4s-2.1,1.4-3.5,1.4H41
	c-1.3,0-2.5-0.5-3.5-1.4c-0.9-0.9-1.4-2.1-1.4-3.4v-7c0-1.3,0.5-2.5,1.4-3.4S39.6,25.8,41,25.8z M40.9,27.4c-0.8,0-1.6,0.3-2.1,0.9
	c-0.6,0.6-0.9,1.3-0.9,2.1v7.3c0,0.8,0.3,1.6,0.9,2.1c0.6,0.6,1.3,0.9,2.1,0.9h7.4c0.8,0,1.6-0.3,2.1-0.9c0.6-0.6,0.9-1.3,0.9-2.1
	v-7.3c0-0.8-0.3-1.6-0.9-2.1c-0.6-0.6-1.3-0.9-2.1-0.9C48.3,27.4,40.9,27.4,40.9,27.4z M49,28.7c0.3,0,0.5,0.1,0.7,0.3
	c0.2,0.2,0.3,0.5,0.3,0.7c0,0.3-0.1,0.5-0.3,0.7s-0.5,0.3-0.7,0.3c-0.3,0-0.5-0.1-0.7-0.3c-0.2-0.2-0.3-0.5-0.3-0.7
	c0-0.3,0.1-0.5,0.3-0.7S48.7,28.7,49,28.7z M44.5,29.9c1.1,0,2.2,0.4,3,1.2c0.8,0.8,1.2,1.8,1.2,3c0,1.1-0.4,2.2-1.2,2.9
	c-0.8,0.8-1.8,1.2-3.1,1.2c-1.1,0-2.2-0.4-3-1.2s-1.2-1.8-1.2-3c0-1.1,0.4-2.2,1.2-2.9C42.4,30.4,43.4,29.9,44.5,29.9z M44.5,31.6
	c-0.7,0-1.3,0.3-1.8,0.7c-0.5,0.5-0.7,1.1-0.7,1.8s0.2,1.3,0.7,1.8s1.1,0.7,1.8,0.7s1.3-0.2,1.8-0.7s0.7-1.1,0.7-1.8
	s-0.2-1.3-0.7-1.8C45.9,31.9,45.3,31.6,44.5,31.6z"/>
<path class="st5" d="M64.3,36.9v-7.5l5.1,3.8L64.3,36.9z M72.8,26.8c-0.8-0.1-1.6-0.2-2.4-0.2c-1.3-0.1-2.8-0.1-4.4-0.1
	s-3.1,0-4.4,0.1c-0.8,0-1.6,0.1-2.4,0.2c-0.8,0.5-1.2,1.3-1.3,2.2c-0.3,1.4-0.4,2.7-0.4,4.1c0,1.4,0.1,2.8,0.4,4.1
	c0.2,1.2,0.7,1.9,1.3,2.2c0.8,0.2,1.6,0.2,2.4,0.3c1.3,0.1,2.8,0.1,4.4,0.1s3.1,0,4.4-0.1c0.8,0,1.6-0.1,2.4-0.3
	c0.6-0.3,1.1-1,1.3-2.2c0.3-1.4,0.4-2.8,0.4-4.1c0-1.4-0.1-2.8-0.4-4.1C73.9,27.8,73.4,27,72.8,26.8z"/>
<path class="st0" d="M84.1,39.6L79,34.7l1.2-1.1l3.9,3.7l3.9-3.7l1.2,1.1L84.1,39.6z"/>
<path class="st0" d="M84.1,25.6L79,30.5l1.2,1.1l3.9-3.7l3.9,3.7l1.2-1.1L84.1,25.6z"/>
<path class="st6" d="M273,17.5l0.2-3.5l6.5-5.8c0.1-0.1,0.1-0.2,0-0.3c-0.2,0-0.3,0-0.5,0.1l-8,5l-3.4-1.1c-0.4-0.1-0.6-0.3-0.5-0.5
	c0-0.2,0.3-0.4,0.7-0.6l13.6-5.1c0.3-0.1,0.6-0.1,0.8,0.1c0.2,0.3,0.3,0.7,0.2,1l-2.3,10.7c-0.2,0.8-0.6,1-1.2,0.6l-3.5-2.5
	l-1.7,1.6c-0.1,0.1-0.2,0.2-0.3,0.3C273.3,17.4,273.2,17.5,273,17.5z"/>
<path class="st2" d="M97,4.4h40v39.3H97V4.4z"/>
<path class="st0" d="M122.6,12.9v4.4h-2.2c-0.4,0-0.7,0.2-0.8,0.5c-0.2,0.3-0.3,0.7-0.3,1.1v2.7h3.4V26h-3.4v8.8h-4.5V26h-3.4v-4.4
	h3.4v-4.4c0-1.2,0.5-2.3,1.3-3.1s2-1.3,3.3-1.3L122.6,12.9z"/>
<path d="M139.5,4.5h40v39.3h-40V4.5z"/>
<path class="st0" d="M161.5,22.5l7.9-8.9h-1.9l-6.9,7.7l-5.5-7.7h-6.4l8.4,11.7l-8.4,9.3h1.9l7.3-8.2l5.8,8.2h6.4 M151.3,14.9h2.9
	l13.3,18.3h-2.9"/>
<path class="st7" d="M182.6,4h40v40h-40V4z"/>
<path class="st0" d="M195,14.5c0.6,0,1.1,0.2,1.5,0.6c0.4,0.4,0.6,0.9,0.6,1.5s-0.2,1.1-0.6,1.5c-0.4,0.4-0.9,0.6-1.5,0.6
	s-1.1-0.2-1.5-0.6s-0.6-0.9-0.6-1.5s0.2-1.1,0.6-1.5C193.9,14.7,194.4,14.5,195,14.5z M197.2,33.5h-4.3V20.8h4.3V33.5z M212.2,33.5
	H208v-7.1c0-0.6-0.3-1-0.8-1.4s-1-0.6-1.6-0.6s-1,0.2-1.4,0.6c-0.3,0.4-0.5,0.9-0.5,1.4v7.1h-4.3V20.8h4.3V23c0.4-0.6,1-1.1,1.7-1.4
	s1.4-0.5,2-0.5c1.4,0,2.5,0.5,3.5,1.4c0.9,0.9,1.4,2,1.4,3.3L212.2,33.5L212.2,33.5z"/>
<path class="st6" d="M225.4,4.4h40v39.3h-40V4.4z"/>
<path class="st0" d="M242.8,31.5l0.3-4.7l8.8-7.8c0.2-0.2,0.2-0.3,0.1-0.3c-0.2,0-0.4,0-0.6,0.1l-10.8,6.7l-4.7-1.5
	c-0.5-0.1-0.8-0.4-0.7-0.6c0-0.3,0.3-0.6,0.9-0.8l18.3-6.9c0.3-0.2,0.8-0.1,1.1,0.1c0.3,0.4,0.4,0.9,0.2,1.3l-3.1,14.4
	c-0.2,1-0.8,1.3-1.7,0.8l-4.7-3.4l-2.3,2.2c-0.1,0.1-0.2,0.3-0.4,0.3C243.2,31.4,243,31.5,242.8,31.5z"/>
<path d="M22.8,32.1l5.7-6.4h-1.3l-5,5.6l-4-5.5h-4.5l6,8.3l-6,6.7H15l5.2-5.8l4.2,5.8H29 M15.6,26.7h2l9.6,13.1h-2"/>
<g id="Koo">
	<rect id="Rectangle_41-2" x="9.6" y="62.3" class="st8" width="40" height="40"/>
	<path class="st0" d="M26.1,75.1l0.4-0.4l0.9-1.1l1.4-0.8l0.2-0.4l0.2-0.7v-0.6l0.4-0.5L30,70h0.5l0.9,0.5l0.6,1l0.1,1.2l1.4,0.8
		l0.8,0.6L35,75l0.8,2l0.3,1.3l0.2,1.5l0.2,1.4l0.7,0.6l0.4,1.1L38,84l0.1,1.1l-0.5,1L37,86.7l-1,0.2l-0.2,0.8l-0.4,1l-0.9,1l-1,0.8
		L32.3,91l-1.5,0.4h-2.4l-1.8-0.1l-2-0.7L23.5,90l-0.8-0.6L22.1,89l-0.6-0.7L21,87.7l0.2-0.9l0.7-0.4v-0.6l0.3-1l0.6-1.2l0.6-1
		l0.5-0.8l0.5-0.5l0.4-0.3v-0.7l0.1-0.8l0.1-1.3l0.2-1.1l0.3-1L26.1,75.1z"/>
	<path class="st9" d="M38.3,84.2L38.3,84.2c-0.1-0.8-0.4-1.7-0.8-2.4c-0.1-0.2-0.3-0.4-0.4-0.6c0-0.1-0.1-0.1-0.1-0.2
		c-0.1,0-0.2-0.1-0.2-0.1c0-0.1,0-0.1,0-0.2c0-0.3-0.1-0.6-0.1-0.9v-0.2v-0.2l0,0v-0.1c0,0,0,0,0-0.1s0-0.1,0-0.1s0,0,0-0.1v-0.1V79
		v-0.1l0,0v-0.1l0,0c0,0,0-0.1,0-0.2l0,0v-0.1v-0.3v-0.1c0,0,0,0,0-0.1v-0.1c0,0,0,0,0-0.1v-0.1c0,0,0,0,0-0.1v-0.1l0,0v-0.1l0,0
		v-0.1l0,0v-0.1l0,0c0,0,0,0,0-0.1l0,0V77l0,0v-0.1l0,0v-0.1l0,0v-0.1l0,0v-0.1v-0.1v-0.1l0,0c0,0,0,0,0-0.1l0,0v-0.1l0,0
		c0,0,0,0,0-0.1l0,0V76l0,0v-0.1l0,0v-0.1l0,0v-0.1l0,0v-0.1l0,0c0,0,0,0,0-0.1l0,0v-0.1l0,0V76l0,0l0,0l0,0l0,0l0,0l0,0l0,0l0,0
		l0,0v-0.1l0,0v-0.1l0,0l0,0l0,0l0,0l0,0l0,0l0,0l0,0l0,0l0,0l0,0l-0.1-0.1l0,0v-0.1l0,0l0,0l0,0l0,0l0,0l0,0l0,0l0,0l0,0l0,0l0,0
		l-0.1-0.1l0,0l0,0l0,0l0,0l0,0l0,0l0,0l0,0l0,0l0,0l0,0h-0.1l0,0l-2.5-2.4l0,0l0,0l0,0l0,0l0,0l0,0l0,0l0,0l0,0l0,0l0,0l0,0l0,0
		l0,0l0,0l0,0l0,0l0,0l0,0l0,0l0,0l0,0h-0.1l0,0l0,0l0,0l0,0l0,0l0,0l0,0l0,0h-0.1l0,0l0,0l0,0l0,0h-1.2l0,0h-0.2h-0.1h-0.1l0,0
		c0.1-0.3,0.1-0.7,0-1s-0.2-0.6-0.4-0.9c-0.3-0.5-0.8-0.8-1.4-0.8c-0.1,0-0.2,0-0.3,0.1c-0.1,0-0.2,0.1-0.3,0.2
		c-0.1,0.2-0.2,0.3-0.2,0.5c-0.1,0-0.3,0.1-0.4,0.2c0,0.3-0.1,0.6-0.1,0.8c0,0.1,0.1,0.2,0.1,0.3c-0.2,0.2-0.4,0.5-0.4,0.9
		c-0.3,0.1-0.5,0.2-0.8,0.3l-0.2,0.1l-0.1,0.1V74l-0.3,0.2c0,0-0.1,0-0.1,0.1L27,74.4l-0.2,0.2c-0.1,0.1-0.2,0.2-0.3,0.3l-0.1,0.2
		l-0.1,0.1v0.1c-0.1,0.1-0.1,0.2-0.2,0.2c-0.1,0.1-0.1,0.2-0.2,0.3L25.8,76l-0.1,0.2l-0.1,0.3c-0.1,0.2-0.2,0.4-0.3,0.7
		s-0.1,0.3-0.1,0.4L25,77.9c0,0.1,0,0.2-0.1,0.3v0.1c0,0.1,0,0.2-0.1,0.3s0,0.2,0,0.3s-0.1,0.4-0.1,0.6s0,0.5-0.1,0.8v0.4
		c0,0.2,0,0.3,0,0.4s0,0.3,0,0.4v0.1c-0.1,0-0.5,0-1.6,1.8c-0.6,0.9-1,1.8-1.4,2.8c-0.1,0-0.1,0-0.2,0h-0.2h-0.1H21l0,0l0,0l0,0l0,0
		l0,0l0,0l0,0l0,0l0,0l0,0l0,0l0,0l0,0l0,0l0,0l0,0v0.1l0,0c0,0,0,0,0,0.1c0,0,0,0,0,0.1s0,0.1,0,0.1c0,0.3,0.1,0.5,0.2,0.7
		s0.2,0.3,0.2,0.5c0,0.1,0.1,0.1,0.1,0.2c0.3,0.4,0.7,0.8,1.1,1.1l0.4,0.3c0.2,0.2,0.5,0.3,0.8,0.5c1.1,0.6,2.2,1,3.5,1.2l0.7,0.1
		c0.5,0.1,1.1,0.1,1.6,0.1c0.6,0,1.3-0.1,1.9-0.1l0.6-0.1c1.2-0.3,2.2-0.9,3.1-1.7l0.1-0.1c0-0.1,0.1-0.1,0.1-0.2l0.1-0.1
		c0.1-0.1,0.1-0.2,0.2-0.3c0,0,0.1-0.1,0.1-0.2c0.2-0.2,0.3-0.5,0.4-0.7c0-0.1,0.1-0.1,0.1-0.2v-0.1c0-0.1,0.1-0.2,0.1-0.3
		c0-0.1,0.1-0.1,0.1-0.2l0.1-0.2l0.1-0.2h0.1c0.1,0,0.1,0,0.2,0c0.3-0.1,0.7-0.3,0.9-0.5c0.3-0.3,0.5-0.6,0.6-1
		C38.6,84.7,38.5,84.4,38.3,84.2z M30.2,71.8L30.2,71.8c-0.4-0.2-0.8-0.3-0.7-0.7c0-0.1,0.2-0.2,0.3-0.2c0.2,0,0.5,0.1,0.7,0.2l0,0
		c-0.3-0.3-0.6-0.6-0.3-0.9l0.1-0.1h0.1c0.9,0.2,1.5,1.1,1.4,2.1h-2h-0.1h-0.1l0,0l-0.2,0.1h-0.1C29.4,71.9,29.8,71.9,30.2,71.8z
		 M22.3,84.8c0.3-0.8,0.8-1.5,1.2-2.3c0.2-0.5,0.6-0.9,1-1.2l0,0c0.1,0,0.3,0.2,0.5,0.4l0,0c0.5,0.9,0.6,2,0.1,3
		c-0.1,0.2-0.2,0.3-0.3,0.5c-0.3,0.4-0.7,0.6-1.2,0.8l-0.3,0.1c-0.4,0.2-0.9,0.2-1.4,0C22,86.1,21.9,85.8,22.3,84.8L22.3,84.8z
		 M36.3,84.8c-0.1,0.7-0.2,1.3-0.3,1.9c0,0.2-0.1,0.3-0.2,0.5c-0.3,0.7-0.6,1.4-1.1,2s-1.2,1.1-2,1.4c-1,0.4-2.2,0.6-3.3,0.5
		c-0.6,0-1.2,0-1.9-0.1h-0.6c-0.8-0.2-1.7-0.4-2.5-0.8c-1-0.5-1.9-1.1-2.5-2c-0.3-0.3-0.5-0.8-0.5-1.2c0-0.2,0.1-0.3,0.9-0.3h0.4
		c0.4,0,0.9-0.1,1.3-0.2c0.8-0.3,1.4-0.8,1.8-1.5c0.5-1.1,0.5-2.4-0.1-3.5c-0.1-0.2-0.3-0.4-0.4-0.5c0-0.5,0-1,0.1-1.5
		c0-1.9,0.7-3.8,1.9-5.3c0.5-0.6,1.2-1,1.9-1.2c0.3-0.1,0.7-0.2,1-0.2s0.5,0,0.8,0c0.5,0,1,0.1,1.4,0.2c0.6,0.2,1.2,0.5,1.6,1
		c1.2,1.2,2,3.1,2.3,5.8c0.1,0.4,0.1,0.9,0.2,1.4C36.4,82.4,36.4,83.6,36.3,84.8L36.3,84.8z M37.9,84.6c0,0.1,0,0.2,0,0.3
		c0,0.1,0,0.2,0,0.2c0,0.2-0.1,0.4-0.2,0.6l-0.1,0.2L37.4,86h-0.1l-0.1,0.1L37,86.3l-0.2,0.1l-0.2,0.1c0-0.1,0-0.2,0-0.2
		s0.1-0.4,0.1-0.6v-0.1c0-0.1,0-0.2,0-0.3V85c0-0.1,0-0.2,0-0.2v-0.4c0-0.1,0-0.2,0-0.2v-1.4c0-0.1,0-0.2,0-0.2c0-0.1,0-0.2,0-0.2
		c0-0.2,0-0.5,0-0.7l0,0l0.2,0.2c0,0.1,0.1,0.1,0.1,0.2v0.1c0.1,0.2,0.2,0.3,0.3,0.5s0.1,0.2,0.1,0.3s0.1,0.3,0.1,0.4
		s0.1,0.3,0.1,0.4s0.1,0.4,0.1,0.6s0,0.1,0,0.2S37.9,84.6,37.9,84.6L37.9,84.6z"/>
	<path class="st9" d="M28.7,93.3c-0.1,0-0.2,0-0.3-0.1c-0.1-0.1-0.2-0.2-0.2-0.2l-0.5-1.4L27,91.5c0.2,0.6,0.5,1.4,0.6,1.6
		s0,0.2-0.1,0.2h-0.8c0,0-0.2,0.5,0.4,0.5c1.7,0,1.5,1.3,2.1,1.1s-0.5-1.1-0.5-1.1c2,0.2,1.4-0.5,1.4-0.5L28.7,93.3z"/>
	<path class="st9" d="M32.5,92.6L32.5,92.6l-0.2-0.1c-0.1-0.2-0.3-0.7-0.4-1.1l-0.6,0.1l0.3,0.9c0,0.1,0,0.2-0.2,0.2h-0.8
		c0,0-0.2,0.5,0.6,0.5c1.7,0,1.3,1.4,2,1c0.4-0.2-0.4-0.9-0.4-0.9s0-0.1,0.1-0.1c1.7,0.3,1.3-0.5,1.3-0.5H32.5z"/>
	<path class="st9" d="M29.8,78.3c0.2,0,0.3-0.3,0.3-0.5l0,0c-0.1-0.2-0.3-0.3-0.5-0.2c-0.2,0.1-0.3,0.2-0.2,0.4
		C29.4,78.2,29.6,78.3,29.8,78.3z"/>
	<path class="st9" d="M33.9,78.2c0.2-0.1,0.2-0.3,0.1-0.5l0,0c-0.1-0.2-0.3-0.2-0.5-0.1l0,0c-0.2,0.1-0.2,0.3-0.1,0.5
		C33.5,78.3,33.7,78.3,33.9,78.2L33.9,78.2z"/>
	<path class="st9" d="M32.8,79.2l-1-0.4h-0.1h-0.1l-1,0.4h-0.1v0.1v0.1c0,0,0,0,0.1,0.1l1,0.6c0.1,0,0.2,0,0.2,0l1-0.6
		c0,0,0,0,0.1-0.1L32.8,79.2L32.8,79.2L32.8,79.2z"/>
</g>
<g id="WhatsApp">
	<rect id="Rectangle_42" x="9.6" y="112.3" class="st10" width="40" height="40"/>
	<path class="st0" d="M29.6,124.5c4.6,0,8.3,3.7,8.3,8.3s-3.7,8.3-8.3,8.3l0,0c-1.6,0-3.1-0.4-4.5-1.3l-3.9,1.3l1.3-3.8
		c-2.5-3.9-1.3-9,2.5-11.5C26.4,125,28,124.5,29.6,124.5L29.6,124.5z M29.6,126.1c-3.7,0-6.7,3-6.7,6.7c0,1.4,0.4,2.7,1.2,3.8
		l-0.8,2.4l2.4-0.8c3,2.1,7.2,1.4,9.3-1.6c2.1-3,1.4-7.2-1.6-9.3C32.3,126.5,30.9,126.1,29.6,126.1L29.6,126.1z M33.6,134.4
		c0.1,0,0.3,0.1,0.4,0.2c0,0.1,0,0.2,0,0.4s-0.1,0.4-0.2,0.6c-0.1,0.3-0.4,0.5-0.6,0.6c-0.2,0.2-0.5,0.3-0.8,0.3
		c-0.2,0.1-0.4,0.1-0.6,0.1c-0.6-0.1-1.3-0.4-1.9-0.6c-0.9-0.4-1.8-1.1-2.4-1.9c-0.6-0.8-0.9-1.2-1-1.3s-0.2-0.4-0.4-0.8
		c-0.2-0.4-0.3-0.9-0.3-1.4c0-0.4,0.1-0.8,0.3-1.2c0.1-0.2,0.3-0.4,0.5-0.6c0.2-0.2,0.4-0.3,0.6-0.2h0.4c0.1,0,0.1,0,0.2,0
		s0.1,0.1,0.2,0.4l0.6,1.6c0.1,0.1,0.1,0.2,0,0.4l-0.2,0.4l-0.4,0.4c0,0-0.1,0.1-0.1,0.2c0,0.1,0,0.2,0,0.3s0.2,0.3,0.4,0.6
		c0.2,0.3,0.5,0.6,0.7,0.9c0.3,0.3,0.6,0.5,1,0.7l0.6,0.3c0.2,0.1,0.3,0.1,0.4,0l0.7-0.8c0.1-0.1,0.1-0.1,0.2-0.1c0.1,0,0.2,0,0.3,0
		L33.6,134.4z"/>
</g>
<g id="Mail">
	<rect id="Rectangle_43" x="9.6" y="162.3" class="st11" width="40" height="40"/>
	<path class="st0" d="M37.4,176.6c0.3,0.3,0.5,0.7,0.5,1.2v10c0,0.4-0.2,0.9-0.5,1.2s-0.7,0.5-1.2,0.5H22.9c-0.4,0-0.9-0.2-1.2-0.5
		c-0.3-0.3-0.5-0.7-0.5-1.2v-10c0-0.4,0.2-0.9,0.5-1.2s0.7-0.5,1.2-0.5h13.4C36.7,176.1,37.1,176.3,37.4,176.6z M36.2,177.8
		l-6.7,4.2l-6.7-4.2v1.7l6.7,4.1l6.7-4.1V177.8z"/>
</g>
<path id="Path_65" class="st0" d="M29.6,214.6c0.8,0,1.5,0.3,2,0.8c0.5,0.6,0.9,1.3,0.9,2.1v5.7c0,0.8-0.3,1.5-0.9,2
	c-1.1,1.1-2.9,1.1-4,0c-0.5-0.5-0.8-1.3-0.9-2v-5.7c0-0.8,0.3-1.5,0.9-2.1C28.1,214.9,28.8,214.6,29.6,214.6z M36.2,223.2
	c0,1.6-0.6,3.2-1.6,4.4c-1.1,1.2-2.5,2-4.1,2.3v2.9h-1.9v-2.9c-1.6-0.2-3-1-4.1-2.3c-1.1-1.2-1.6-2.8-1.6-4.4h1.9
	c0,1.3,0.5,2.5,1.4,3.3c1.9,1.8,4.9,1.8,6.7,0c0.9-0.9,1.4-2.1,1.4-3.3H36.2z"/>
<path id="Path_66" class="st12" d="M29.6,266.5c-4.7,0-8.6,3.8-8.6,8.5c0,0,0,0,0,0.1v6.7c0,1.6,1.3,2.8,2.9,2.9h2.9V277H23v-1.9
	c0-1.8,0.7-3.5,1.9-4.7c2.6-2.6,6.8-2.6,9.4,0l0,0c1.2,1.2,1.9,2.9,1.9,4.7v1.9h-3.8v7.6h2.9c0.8,0,1.5-0.3,2-0.8s0.8-1.3,0.9-2
	v-6.7C38.1,270.4,34.3,266.5,29.6,266.5L29.6,266.5z"/>
<g>
	<path class="st1" d="M36.5,333.2c-0.2,1.1-0.9,2.1-2,2.5c-1.5,0.7-3.2,1-4.9,1c-1.7,0.1-3.4-0.3-4.9-1c-1.1-0.4-1.9-1.3-2-2.5
		c0.1-0.6,0.3-1.1,0.7-1.5c0.6-0.5,1.2-0.9,2-1.2l0.5,0.8c-1,0.4-1.5,0.9-1.5,1.5s0.5,1.1,1.5,1.5c1.2,0.4,2.4,0.7,3.7,0.6
		c1.3,0,2.5-0.2,3.7-0.6c1-0.4,1.5-0.9,1.5-1.5s-0.5-1.1-1.5-1.5l0.5-0.8c0.8,0.3,1.5,0.7,2.1,1.2C36.2,332.1,36.5,332.6,36.5,333.2
		z M29.6,318.5c1.4,0,2.7,0.5,3.7,1.5s1.5,2.3,1.5,3.7c-0.3,2.3-1.2,4.4-2.6,6.2c-0.8,1.2-1.7,2.3-2.6,3.3c-0.9-1-1.8-2.1-2.6-3.3
		c-1.4-1.8-2.3-4-2.6-6.2c0-1.4,0.5-2.7,1.5-3.7S28.2,318.5,29.6,318.5z M29.6,321.9c-0.5,0-0.9,0.2-1.2,0.5
		c-0.3,0.3-0.5,0.8-0.5,1.2c0,0.9,0.8,1.7,1.7,1.7c0.9,0,1.7-0.8,1.7-1.7l0,0c0-0.5-0.2-0.9-0.5-1.2C30.5,322.1,30,321.9,29.6,321.9
		z"/>
</g>
<g id="Rectangle_40-2">
	<rect x="10.1" y="373.8" class="st0" width="39" height="39"/>
	<path class="st13" d="M48.6,374.3v38h-38v-38H48.6 M49.6,373.3h-40v40h40V373.3z"/>
</g>
<path id="Path_90" class="st14" d="M38.5,397.7c0,0.4-0.3,0.8-0.8,0.8l0,0H21.5c-0.4,0-0.8-0.3-0.8-0.8l0,0v-15.9
	c0-0.4,0.3-0.8,0.8-0.8l0,0h16.2c0.4,0,0.8,0.3,0.8,0.8l0,0V397.7L38.5,397.7z"/>
<g id="Group_36" class="st15">
	<g id="Group_35">
		<g>
			<g>
				<g>
					<defs>
						<rect id="SVGID_1_" x="32.4" y="384.3" width="6.1" height="1.6"/>
					</defs>
					<clipPath id="SVGID_00000162324053746131668050000017080422684604232863_">
						<use xlink:href="#SVGID_1_"  style="overflow:visible;"/>
					</clipPath>
					<g style="clip-path:url(#SVGID_00000162324053746131668050000017080422684604232863_);">
						<g id="Group_34">
							<path id="Path_91" class="st17" d="M38.5,385.1l-6.1-0.8l6.1,1.6V385.1z"/>
						</g>
					</g>
				</g>
			</g>
		</g>
	</g>
</g>
<g id="Group_39" class="st15">
	<g id="Group_38">
		<g>
			<g>
				<g>
					<defs>
						<rect id="SVGID_00000116933206014628891640000000584194155551259532_" x="20.7" y="381.8" width="10.2" height="4.2"/>
					</defs>
					<clipPath id="SVGID_00000111185726963647596590000005162043704116978109_">
						<use xlink:href="#SVGID_00000116933206014628891640000000584194155551259532_"  style="overflow:visible;"/>
					</clipPath>
					<g style="clip-path:url(#SVGID_00000111185726963647596590000005162043704116978109_);">
						<g id="Group_37">
							<path id="Path_92" class="st17" d="M29.9,381.8l-9.2,4.1l10.2-3.7l0,0C30.7,381.8,30.3,381.7,29.9,381.8L29.9,381.8"/>
						</g>
					</g>
				</g>
			</g>
		</g>
	</g>
</g>
<g id="Group_42" class="st15">
	<g id="Group_41">
		<g>
			<g>
				<g>
					<defs>
						<rect id="SVGID_00000128442745289485961030000000520341426303888265_" x="20.7" y="381" width="17.8" height="0.9"/>
					</defs>
					<clipPath id="SVGID_00000008831048549091256390000008275986235464944039_">
						<use xlink:href="#SVGID_00000128442745289485961030000000520341426303888265_"  style="overflow:visible;"/>
					</clipPath>
					<g style="clip-path:url(#SVGID_00000008831048549091256390000008275986235464944039_);">
						<g id="Group_40">
							<path id="Path_93" class="st0" d="M37.7,381H21.5c-0.4,0-0.8,0.3-0.8,0.8l0,0v0.2c0-0.4,0.3-0.8,0.8-0.8l0,0h16.2
								c0.4,0,0.8,0.3,0.8,0.8v-0.2C38.5,381.3,38.1,381,37.7,381"/>
						</g>
					</g>
				</g>
			</g>
		</g>
	</g>
</g>
<path id="Path_94" class="st20" d="M24.7,397.2c-0.1,0.4,0.1,0.8,0.5,0.9l15,4c0.4,0.1,0.8-0.2,0.9-0.5l0,0l3.6-13.2
	c0.1-0.4-0.1-0.8-0.5-0.9l-15-4c-0.4-0.1-0.8,0.2-0.9,0.5l0,0L24.7,397.2z"/>
<g id="Group_45" class="st15">
	<g id="Group_44">
		<g>
			<g>
				<g>
					<defs>
						<rect id="SVGID_00000030487012050851008760000003068181971642991286_" x="41.2" y="393.1" width="0.8" height="7.8"/>
					</defs>
					<clipPath id="SVGID_00000105414229386417003330000002984260921791502769_">
						<use xlink:href="#SVGID_00000030487012050851008760000003068181971642991286_"  style="overflow:visible;"/>
					</clipPath>
					<g style="clip-path:url(#SVGID_00000105414229386417003330000002984260921791502769_);">
						<g id="Group_43">
							<path id="Path_95" class="st22" d="M41.2,393.1l0.8,4.8l-0.8,3V393.1z"/>
						</g>
					</g>
				</g>
			</g>
		</g>
	</g>
</g>
<g id="Group_48" class="st15">
	<g id="Group_47">
		<g>
			<g>
				<g>
					<defs>
						<rect id="SVGID_00000106117266002520502270000014355004109817952185_" x="32.5" y="384.5" width="1.1" height="3.2"/>
					</defs>
					<clipPath id="SVGID_00000060028795750231829680000006004120167141406129_">
						<use xlink:href="#SVGID_00000106117266002520502270000014355004109817952185_"  style="overflow:visible;"/>
					</clipPath>
					<g style="clip-path:url(#SVGID_00000060028795750231829680000006004120167141406129_);">
						<g id="Group_46">
							<path id="Path_96" class="st22" d="M32.5,384.5l0.7,0.2l0.4,3L32.5,384.5z"/>
						</g>
					</g>
				</g>
			</g>
		</g>
	</g>
</g>
<g id="Group_51" class="st15">
	<g id="Group_50">
		<g>
			<g>
				<g>
					<defs>
						<rect id="SVGID_00000100361345059998058640000009455829358411074960_" x="24.6" y="383.4" width="20" height="13.9"/>
					</defs>
					<clipPath id="SVGID_00000051345732691939095300000002441574115707569570_">
						<use xlink:href="#SVGID_00000100361345059998058640000009455829358411074960_"  style="overflow:visible;"/>
					</clipPath>
					<g style="clip-path:url(#SVGID_00000051345732691939095300000002441574115707569570_);">
						<g id="Group_49">
							<path id="Path_97" class="st0" d="M44.1,387.4l-15-4c-0.4-0.1-0.8,0.2-0.9,0.6l-3.6,13.2c0,0,0,0,0,0.1l3.5-13.1
								c0.1-0.4,0.5-0.7,0.9-0.6l0,0l15,4c0.4,0.1,0.6,0.5,0.5,0.9v-0.1C44.7,387.9,44.5,387.5,44.1,387.4"/>
						</g>
					</g>
				</g>
			</g>
		</g>
	</g>
</g>
<path id="Path_98" class="st25" d="M36.5,395.6c0.2,0.4,0,0.8-0.4,1l0,0l-15.9,5.7c-0.4,0.1-0.8-0.1-0.9-0.5l0,0L14.6,389
	c-0.2-0.4,0-0.8,0.4-1l0,0l15.9-5.8c0.4-0.1,0.8,0.1,0.9,0.5L36.5,395.6z"/>
<g id="Group_54" class="st15">
	<g id="Group_53">
		<g>
			<g>
				<g>
					<defs>
						<rect id="SVGID_00000068636836940637005180000006735646434205452704_" x="14.6" y="382.2" width="17.3" height="19.7"/>
					</defs>
					<clipPath id="SVGID_00000121277573963512001690000018377128244973819010_">
						<use xlink:href="#SVGID_00000068636836940637005180000006735646434205452704_"  style="overflow:visible;"/>
					</clipPath>
					<g style="clip-path:url(#SVGID_00000121277573963512001690000018377128244973819010_);">
						<g id="Group_52">
							<path id="Path_99" class="st0" d="M14.7,389.1c-0.2-0.4,0-0.8,0.3-1h0.1l15.9-5.8c0.4-0.1,0.8,0.1,0.9,0.5l-0.1-0.1
								c-0.1-0.4-0.5-0.6-0.9-0.5l0,0L15,388c-0.4,0.2-0.6,0.6-0.4,1l0,0l4.7,12.9l0,0L14.7,389.1z"/>
						</g>
					</g>
				</g>
			</g>
		</g>
	</g>
</g>
<path id="Rectangle_1001" class="st27" d="M18.5,387.6h22.2c0.3,0,0.5,0.2,0.5,0.5V405c0,0.3-0.2,0.5-0.5,0.5H18.5
	c-0.3,0-0.5-0.2-0.5-0.5v-16.9C18,387.9,18.2,387.6,18.5,387.6z"/>
<path id="Path_100" class="st0" d="M37.1,394.1h-6.5v-1.7h6.5c0.2,0,0.3,0.2,0.3,0.3l0,0v1C37.4,394,37.3,394.1,37.1,394.1
	L37.1,394.1 M37.1,400.6h-6.5v-1.7h6.5c0.2,0,0.3,0.2,0.3,0.3l0,0v1C37.4,400.4,37.3,400.6,37.1,400.6L37.1,400.6 M38.1,397.3h-7.5
	v-1.7h7.5c0.2,0,0.3,0.2,0.3,0.3l0,0v1C38.4,397.2,38.3,397.3,38.1,397.3L38.1,397.3z"/>
<g id="Group_57" class="st15">
	<g id="Group_56">
		<g>
			<g>
				<g>
					<defs>
						<rect id="SVGID_00000162332824683286365040000001684263422300812684_" x="18" y="404.6" width="23.2" height="0.9"/>
					</defs>
					<clipPath id="SVGID_00000036232276324872738260000014860955239078878639_">
						<use xlink:href="#SVGID_00000162332824683286365040000001684263422300812684_"  style="overflow:visible;"/>
					</clipPath>
					<g style="clip-path:url(#SVGID_00000036232276324872738260000014860955239078878639_);">
						<g id="Group_55">
							<path id="Path_101" class="st29" d="M40.4,405.4H18.7c-0.4,0-0.8-0.3-0.8-0.8v0.2c0,0.4,0.3,0.8,0.8,0.8h21.7
								c0.4,0,0.8-0.3,0.8-0.8v-0.2C41.2,405.1,40.9,405.4,40.4,405.4"/>
						</g>
					</g>
				</g>
			</g>
		</g>
	</g>
</g>
<g id="Group_60" class="st15">
	<g id="Group_59">
		<g>
			<g>
				<g>
					<defs>
						<rect id="SVGID_00000043418412567265686120000007316975197472357250_" x="18" y="387.6" width="23.2" height="0.9"/>
					</defs>
					<clipPath id="SVGID_00000111148920132125045570000014151460002072162973_">
						<use xlink:href="#SVGID_00000043418412567265686120000007316975197472357250_"  style="overflow:visible;"/>
					</clipPath>
					<g style="clip-path:url(#SVGID_00000111148920132125045570000014151460002072162973_);">
						<g id="Group_58">
							<path id="Path_102" class="st0" d="M18.7,387.8h21.7c0.4,0,0.8,0.3,0.8,0.8v-0.2c0-0.4-0.3-0.8-0.8-0.8H18.7
								c-0.4,0-0.8,0.3-0.8,0.8v0.2C18,388.2,18.3,387.8,18.7,387.8z"/>
						</g>
					</g>
				</g>
			</g>
		</g>
	</g>
</g>
<path id="Path_103" class="st0" d="M24.8,395.8v1.5H27c-0.2,1-1.2,1.7-2.2,1.6c-1.4,0-2.5-1.1-2.5-2.5s1.1-2.5,2.5-2.5
	c0.6,0,1.2,0.2,1.6,0.6l0,0l1.2-1.1c-0.7-0.7-1.7-1.1-2.8-1.1c-2.3,0-4.1,1.8-4.1,4.1s1.8,4.1,4.1,4.1c2.1,0.1,3.8-1.5,3.9-3.6l0,0
	c0-0.1,0-0.3,0-0.4c0-0.3,0-0.5-0.1-0.8L24.8,395.8L24.8,395.8z"/>
<g id="Group_63" class="st15">
	<g id="Group_62">
		<g>
			<g>
				<g>
					<defs>
						<rect id="SVGID_00000163053893610045452990000014551938075056209821_" x="20.7" y="393.5" width="8" height="7.3"/>
					</defs>
					<clipPath id="SVGID_00000180346344878026686000000000645456479361197964_">
						<use xlink:href="#SVGID_00000163053893610045452990000014551938075056209821_"  style="overflow:visible;"/>
					</clipPath>
					<g style="clip-path:url(#SVGID_00000180346344878026686000000000645456479361197964_);">
						<g id="Group_61">
							<path id="Path_104" class="st29" d="M24.8,397.4v0.2H27c0,0,0-0.1,0-0.2H24.8z"/>
							<path id="Path_105" class="st29" d="M24.8,400.6c-2.2,0-4-1.8-4.1-4v0.1c0,2.3,1.8,4.1,4.1,4.1l0,0l0,0
								c2.1,0.1,3.8-1.5,3.9-3.6c0-0.1,0-0.3,0-0.4v-0.1c0.1,2.1-1.5,3.8-3.6,3.9l0,0H24.8 M26.4,394.7c-0.4-0.4-1-0.6-1.6-0.6
								c-1.4,0-2.4,1.1-2.4,2.5v0.1c0-1.3,1.1-2.4,2.4-2.4c0.6,0,1.1,0.2,1.6,0.6l0,0l1.2-1.2l-0.1-0.1L26.4,394.7z"/>
						</g>
					</g>
				</g>
			</g>
		</g>
	</g>
</g>
<g id="Group_66" class="st15">
	<g id="Group_65">
		<g>
			<g>
				<g>
					<defs>
						<rect id="SVGID_00000085934327204995353550000000985172098135577764_" x="30.6" y="393.8" width="7.9" height="7"/>
					</defs>
					<clipPath id="SVGID_00000173857183570157320290000001516471449134667137_">
						<use xlink:href="#SVGID_00000085934327204995353550000000985172098135577764_"  style="overflow:visible;"/>
					</clipPath>
					<g style="clip-path:url(#SVGID_00000173857183570157320290000001516471449134667137_);">
						<g id="Group_64">
							<path id="Path_106" class="st29" d="M37.4,394v-0.2c0,0.2-0.2,0.3-0.3,0.3h-6.5v0.2h6.5C37.3,394.3,37.4,394.1,37.4,394
								L37.4,394z M37.1,400.6h-6.5v0.2h6.5c0.2,0,0.3-0.2,0.3-0.3l0,0v-0.2C37.4,400.5,37.3,400.6,37.1,400.6L37.1,400.6
								 M38.1,397.4h-7.5v0.2h7.5c0.2,0,0.3-0.2,0.3-0.3l0,0V397C38.4,397.2,38.3,397.4,38.1,397.4L38.1,397.4z"/>
						</g>
					</g>
				</g>
			</g>
		</g>
	</g>
</g>
<path id="Path_107" class="st33" d="M21.2,366.7c-0.4,0-0.8,0.4-0.8,0.8l0,0v4.3l-5.9,2.2c-0.3,0.1-0.5,0.4-0.5,0.7l0,0
	c0,0.1,0,0.2,0,0.3l3.5,9.6v6.9c0,0.4,0.4,0.8,0.8,0.8h22.6c0.4,0,0.8-0.4,0.8-0.8v-3.9l3.5-13.1c0.1-0.4-0.1-0.8-0.5-1l0,0
	l-5.9-1.6v-4.4c0-0.4-0.4-0.8-0.8-0.8l0,0H21.2z"/>
<path class="st0" d="M92.2,133.8v3.1h-1.6c-0.3,0-0.5,0.1-0.6,0.4c-0.1,0.2-0.2,0.5-0.2,0.8v1.9h2.4v3.1h-2.4v6.3h-3.2v-6.3h-2.4
	V140h2.4v-3.1c0-0.9,0.4-1.6,0.9-2.2c0.6-0.6,1.5-0.9,2.3-0.9H92.2z"/>
<path class="st0" d="M91.2,168.5l4.5-5h-1l-3.9,4.4l-3.1-4.3H84l4.7,6.5l-4.7,5.3h1l4.1-4.6l3.3,4.6H96 M85.5,164.2h1.6l7.5,10.3H93
	"/>
<path class="st0" d="M88.9,228.5l0.3-4.1l7.6-6.8c0.2-0.2,0.2-0.3,0.1-0.3c-0.2,0-0.4,0-0.5,0.1l-9.4,5.8l-4.1-1.3
	c-0.4-0.1-0.7-0.3-0.6-0.5c0-0.3,0.3-0.5,0.8-0.7l15.9-6c0.3-0.2,0.7-0.1,1,0.1c0.3,0.3,0.4,0.8,0.2,1.1l-2.7,12.5
	c-0.2,0.9-0.7,1.1-1.5,0.7l-4.1-3l-2,1.9c-0.1,0.1-0.2,0.3-0.4,0.3C89.3,228.4,89.1,228.5,88.9,228.5z"/>
<g>
	<path class="st0" d="M94,203.4c-1.8,0-3.6,0-5.4,0c-0.1,0-0.2,0-0.2,0c-0.5-0.1-1.1-0.1-1.6-0.2c-1.9-0.4-3.2-1.5-3.7-3.5
		c-0.3-1-0.3-2-0.3-3c0-1.6,0-3.1,0-4.7c0-0.9,0-1.7,0.2-2.6c0.4-2,1.8-3.5,3.8-3.8c0.8-0.1,1.5-0.2,2.3-0.2c0.1,0,0.3,0,0.4,0
		c1.5,0,3,0,4.5,0c0.1,0,0.2,0,0.3,0c0.7,0.1,1.5,0.1,2.2,0.2c2.1,0.3,3.5,1.7,4,3.7c0.2,0.7,0.2,1.5,0.2,2.2c0,0.2,0,0.5,0,0.7
		c0,1.5,0,3,0,4.5c0,0.2,0,0.4,0,0.6c0,0.7,0,1.5-0.2,2.2c-0.5,1.9-1.6,3.2-3.6,3.6c-0.7,0.2-1.5,0.2-2.2,0.2
		C94.5,203.3,94.3,203.3,94,203.4z M99.1,194.1L99.1,194.1c0-0.7,0-1.3,0-2c0-0.8,0-1.6-0.2-2.4c-0.2-1.3-0.9-2.1-2.2-2.5
		c-0.5-0.1-1-0.2-1.6-0.2c-1.2,0-2.5-0.1-3.7-0.1c-0.9,0-1.8,0-2.7,0c-0.7,0-1.3,0-2,0.2c-1,0.3-1.8,0.9-2.1,1.9
		c-0.3,0.8-0.3,1.6-0.3,2.4c0,1.9,0,3.8,0,5.8c0,0.6,0.1,1.1,0.2,1.7c0.3,1.4,1.1,2.3,2.5,2.5c0.6,0.1,1.2,0.2,1.8,0.2
		c1.7,0,3.4,0,5.1,0c0.8,0,1.6,0,2.4-0.2c1.4-0.2,2.3-1,2.6-2.4c0.1-0.5,0.2-1.1,0.2-1.6C99.1,196.4,99.1,195.2,99.1,194.1z"/>
	<path class="st0" d="M91.8,189.7c2.6,0,4.6,2.1,4.6,4.6c0,2.6-2.1,4.6-4.6,4.6c-2.6,0-4.6-2.1-4.6-4.6
		C87.2,191.8,89.2,189.7,91.8,189.7z M91.8,191.3c-1.7,0-3,1.3-3,3s1.3,3,3,3s3-1.3,3-3C94.8,192.7,93.4,191.3,91.8,191.3z"/>
	<path class="st0" d="M97.6,189.5c0,0.6-0.5,1.1-1.1,1.1s-1.1-0.5-1.1-1.1s0.5-1.1,1.1-1.1C97.2,188.5,97.6,188.9,97.6,189.5z"/>
</g>
<path class="st0" d="M91.2,238.3c1.4,0.1,2.9,0.1,4.3,0.2c0.3,0,0.7,0.1,1,0.1c0.8,0.1,1.3,0.7,1.5,1.6c0.2,1.2,0.3,2.4,0.2,3.5
	c0,0.8-0.1,1.7-0.2,2.5c-0.1,0.6-0.3,1.1-0.8,1.5c-0.3,0.2-0.7,0.3-1.1,0.3c-1.4,0.2-2.9,0.2-4.4,0.2s-2.9-0.1-4.4-0.1
	c-0.5,0-0.9-0.1-1.4-0.1c-0.8-0.1-1.3-0.7-1.5-1.5s-0.2-1.7-0.2-2.5c0-1.1,0-2.2,0.1-3.3c0-0.2,0.1-0.5,0.1-0.7
	c0.2-0.7,0.8-1.2,1.6-1.3c1.4-0.2,2.7-0.2,4.1-0.2C90.6,238.3,90.9,238.3,91.2,238.3L91.2,238.3z M89.9,241.1c0,1.4,0,2.8,0,4.2
	c1.2-0.7,2.4-1.4,3.6-2.1C92.3,242.5,91.1,241.8,89.9,241.1z"/>
<g>
	<path class="st34" d="M100,59.2c-0.4,0.8-0.7,1.7-1.1,2.6c2.2,1.4,3.8,3.3,3.8,6.2c-5.3,0-10.4,0-15.7,0c0.1-2.9,1.6-4.8,3.9-6.2
		c-0.4-0.9-0.8-1.8-1.1-2.6c0.1,0,0.3,0,0.4,0c0.4,0.8,0.8,1.6,1.2,2.4c2.4-0.9,4.6-0.8,6.9,0c0.4-0.9,0.8-1.6,1.2-2.4
		C99.7,59.2,99.9,59.2,100,59.2z M91.3,65.4c0.3-0.4,0.6-0.7,0.6-0.9c0-0.2-0.3-0.6-0.5-0.5c-0.2,0-0.6,0.3-0.6,0.5
		C90.7,64.7,91,65,91.3,65.4z M98.5,63.7c-0.3,0.4-0.5,0.7-0.5,0.9s0.4,0.5,0.5,0.5c0.2-0.1,0.6-0.3,0.6-0.6
		C99.1,64.3,98.8,64.1,98.5,63.7z"/>
	<path class="st34" d="M96.1,82c-0.8,0-1.5,0-2.3,0c0,1.1,0,2.1,0,3.1c0,0.5,0,1-0.2,1.4c-0.3,0.8-0.9,1.2-1.8,1
		c-0.9-0.1-1.5-0.7-1.5-1.7c0-1.2,0-2.5,0-3.7C90.1,82.1,90,82,90,82c-2.6-0.2-2.9-0.5-2.9-3.2c0-3.3,0-6.6,0-10
		c5.2,0,10.3,0,15.6,0c0,0.4,0.1,0.7,0.1,1.1c0,3.1,0,6.3,0,9.4c0,2.1-0.5,2.6-2.6,2.7c-0.1,0-0.3,0-0.6,0.1c0,1.1,0,2.3,0,3.4
		c0,1.3-0.7,2.1-1.8,2.1c-1,0-1.7-0.8-1.7-2C96,84.4,96.1,83.2,96.1,82z"/>
	<path class="st34" d="M106.9,73.7c0,1.2,0,2.4,0,3.5s-0.7,1.8-1.6,1.9c-1,0-1.8-0.6-1.8-1.7c-0.1-2.5-0.1-4.9,0-7.4
		c0-1.1,0.8-1.7,1.8-1.6c0.9,0.1,1.6,0.7,1.6,1.8C106.9,71.4,106.9,72.5,106.9,73.7z"/>
	<path class="st34" d="M82.9,73.7c0-1.1,0-2.3,0-3.4s0.6-1.8,1.6-1.9s1.8,0.6,1.8,1.8c0.1,2.4,0.1,4.8,0,7.2c0,1.2-0.8,1.8-1.8,1.8
		c-1-0.1-1.6-0.7-1.6-1.9C82.9,76.1,82.9,74.9,82.9,73.7z"/>
</g>
<g>
	<path class="st34" d="M91.3,123.7c-0.3,0-0.6,0-0.9,0c-1-0.3-1.8-0.8-2.4-1.5c-1.2-1.3-2.3-2.8-3.1-4.5c-1-1.9-1.6-4-1.9-6.2
		c-0.2-1.6-0.2-3.1,0.2-4.6c0.6-2.4,1.8-4.3,4-5.5c1.4-0.8,2.9-1.1,4.5-0.7c0.9,0.2,1.8,0.6,2.6,0.9c0.8,0.3,1.6,0.4,2.3,0
		c0.5-0.2,1.1-0.4,1.6-0.6c2.6-0.9,5-0.7,7.3,0.9c0.6,0.4,1.1,1,1.5,1.7c-2.3,1.5-3.5,3.5-3.3,6.3s1.7,4.6,4.1,5.8
		c0,0.1,0,0.2-0.1,0.2c-0.8,2.4-2.1,4.5-3.7,6.3c-1.1,1.3-2.5,1.9-4.2,1.4c-0.6-0.2-1.2-0.4-1.8-0.6c-1.2-0.5-2.5-0.6-3.8-0.2
		C93.3,123.1,92.3,123.4,91.3,123.7z"/>
	<path class="st34" d="M101.5,93.1c0.1,1.2-0.1,2.3-0.6,3.3c-0.7,1.5-1.7,2.7-3.2,3.4c-0.7,0.3-1.5,0.5-2.3,0.4
		C95,96.9,97.8,93.4,101.5,93.1z"/>
</g>
<g>
	<line id="Line_1" class="st35" x1="83.5" y1="263.5" x2="94.5" y2="263.5"/>
	<line id="Line_2" class="st35" x1="83.5" y1="267.5" x2="94.5" y2="267.5"/>
	<line id="Line_3" class="st35" x1="83.5" y1="271.5" x2="94.5" y2="271.5"/>
	<line id="Line_4" class="st35" x1="83.5" y1="275.5" x2="94.5" y2="275.5"/>
</g>
<path id="Icon_ionic-md-play" class="st36" d="M96.7,264.4v10.2l8-5.1L96.7,264.4z"/>
<path id="Path_1255" class="st37" d="M13.3,430.7l2.7,2.7l2.7-2.7l0.8,0.8L16,435l-3.5-3.5L13.3,430.7z M12.5,426.8l3.5-3.5l3.5,3.5
	l-0.8,0.8L16,425l-2.7,2.7L12.5,426.8z"/>
<path id="Path_1256" d="M28,423.3c1.7,0,3.4,0.7,4.6,1.9c1.2,1.2,1.9,2.9,1.9,4.6c0,0.8-0.1,1.6-0.4,2.3c-0.3,0.7-0.6,1.4-1.1,1.9
	l0.3,0.3H34l5,5l-1.5,1.5l-5-5V435l-0.3-0.3c-0.6,0.5-1.2,0.9-1.9,1.1c-0.7,0.3-1.5,0.4-2.3,0.4c-1.7,0-3.4-0.7-4.6-1.9
	c-1.2-1.2-1.9-2.9-1.9-4.6s0.7-3.4,1.9-4.6C24.6,424,26.3,423.3,28,423.3z M28,425.4c-1.2,0-2.3,0.5-3.2,1.3c-0.8,0.8-1.3,2-1.3,3.2
	s0.4,2.3,1.3,3.2c0.8,0.8,2,1.3,3.2,1.3s2.3-0.4,3.2-1.3s1.3-2,1.3-3.2s-0.4-2.3-1.3-3.2C30.4,425.8,29.2,425.4,28,425.4z"/>
<path id="television-classic" class="st1" d="M45.6,423.3l-1.2,1.2l2.2,2.2h-4.5c-0.9,0-1.7,0.7-1.7,1.6l0,0v8.3
	c0,0.9,0.7,1.7,1.7,1.7l0,0h13.3c0.9,0,1.7-0.7,1.7-1.6l0,0v-8.3c0-0.9-0.7-1.7-1.7-1.7l0,0H51l2.2-2.2l-1.2-1.2l-3.2,3.2
	L45.6,423.3 M42.2,428.3H53v8.3H42.2V428.3 M55.1,428.3c0.5,0,0.8,0.4,0.8,0.8c0,0.5-0.4,0.8-0.8,0.8s-0.8-0.4-0.8-0.8
	C54.2,428.7,54.6,428.3,55.1,428.3L55.1,428.3 M55.1,430.8c0.5,0,0.8,0.4,0.8,0.8c0,0.5-0.4,0.8-0.8,0.8s-0.8-0.4-0.8-0.8
	C54.2,431.2,54.6,430.8,55.1,430.8L55.1,430.8z"/>
<path id="Path_1258" class="st38" d="M67.6,437.5h-7.5v-11.7h7.5V437.5z M63.9,440.8c-0.3,0-0.6-0.1-0.9-0.4
	c-0.2-0.2-0.4-0.5-0.3-0.9c0-0.3,0.1-0.7,0.3-0.9c0.2-0.2,0.5-0.4,0.9-0.4c0.3,0,0.6,0.1,0.9,0.4c0.2,0.2,0.4,0.5,0.3,0.9
	c0,0.3-0.1,0.6-0.3,0.9C64.6,440.7,64.2,440.9,63.9,440.8z M67.2,423.3h-6.7c-0.6,0-1.1,0.2-1.5,0.6s-0.6,0.9-0.6,1.5v14.1
	c0,0.6,0.2,1.1,0.6,1.5c0.4,0.4,0.9,0.6,1.5,0.6h6.7c0.5,0,1.1-0.2,1.4-0.6c0.4-0.4,0.6-0.9,0.6-1.5v-14.1c0-0.6-0.2-1.1-0.6-1.5
	C68.3,423.6,67.8,423.4,67.2,423.3L67.2,423.3z"/>
<path id="Path_1263" class="st39" d="M77.2,423.3v2.7h-1.3c-0.2,0-0.4,0.1-0.5,0.3c-0.1,0.2-0.2,0.4-0.2,0.7v1.7h2v2.7h-2v5.3h-2.7
	v-5.3h-2v-2.7h2V426c0-0.7,0.3-1.4,0.8-1.9s1.2-0.8,1.9-0.8L77.2,423.3L77.2,423.3z"/>
<path id="Path_1261" class="st4" d="M98.3,423.3h5.6c1,0,2,0.4,2.7,1.1s1.1,1.7,1.1,2.7v5.6c0,1-0.4,2-1.1,2.7s-1.7,1.1-2.7,1.1
	h-5.6c-1,0-2-0.4-2.7-1.1s-1.1-1.7-1.1-2.7v-5.6c0-1,0.4-2,1.1-2.7C96.3,423.7,97.3,423.3,98.3,423.3z M98.2,424.6
	c-0.6,0-1.2,0.2-1.7,0.7c-0.4,0.4-0.7,1.1-0.7,1.7v5.9c0,0.6,0.2,1.2,0.7,1.7c0.4,0.4,1.1,0.7,1.7,0.7h5.9c0.6,0,1.2-0.2,1.7-0.7
	c0.4-0.5,0.7-1.1,0.7-1.7V427c0-0.6-0.2-1.2-0.7-1.7c-0.4-0.5-1.1-0.7-1.7-0.7H98.2L98.2,424.6z M104.7,425.6c0.2,0,0.4,0.1,0.6,0.3
	c0.2,0.1,0.2,0.4,0.2,0.6s-0.1,0.4-0.2,0.6s-0.4,0.2-0.6,0.2s-0.4-0.1-0.6-0.2s-0.2-0.4-0.2-0.6s0.1-0.4,0.2-0.6
	C104.2,425.8,104.4,425.7,104.7,425.6L104.7,425.6z M101.2,426.6c0.9,0,1.7,0.3,2.4,1c0.6,0.6,1,1.5,1,2.4s-0.3,1.7-1,2.4
	c-0.6,0.6-1.5,1-2.4,1s-1.7-0.3-2.4-1c-0.6-0.6-1-1.5-1-2.4s0.3-1.7,1-2.4C99.4,427,100.3,426.6,101.2,426.6L101.2,426.6
	L101.2,426.6z M101.2,428c-0.5,0-1,0.2-1.4,0.6s-0.6,0.9-0.6,1.4s0.2,1,0.6,1.4s0.9,0.6,1.4,0.6s1-0.2,1.4-0.6s0.6-0.9,0.6-1.4
	s-0.2-1-0.6-1.4S101.7,428,101.2,428z"/>
<path id="Path_1260" class="st40" d="M114.8,431.7v-6l4,3L114.8,431.7z M121.5,423.6c-0.6-0.1-1.3-0.2-1.9-0.2
	c-1-0.1-2.2-0.1-3.4-0.1s-2.4,0-3.4,0.1c-0.6,0-1.3,0.1-1.9,0.2c-0.6,0.4-1,1.1-1.1,1.8c-0.2,1.1-0.3,2.2-0.3,3.3
	c0,1.1,0.1,2.2,0.3,3.3c0.2,1,0.6,1.6,1.1,1.8c0.6,0.1,1.3,0.2,1.9,0.2c1,0,2.2,0.1,3.4,0.1s2.4,0,3.4-0.1c0.6,0,1.3-0.1,1.9-0.2
	c0.5-0.2,0.8-0.8,1.1-1.8c0.2-1.1,0.3-2.2,0.3-3.3c0-1.1-0.1-2.2-0.3-3.3C122.4,424.4,122,423.8,121.5,423.6z"/>
<path id="Path_1259" class="st6" d="M129,432.8l0.2-2.8l5.1-4.6c0.1-0.1,0.1-0.2,0-0.2s-0.3,0-0.4,0.1l-6.3,4l-2.7-0.9
	c-0.3-0.1-0.5-0.2-0.4-0.4c0-0.2,0.2-0.3,0.6-0.5l10.7-4.1c0.2-0.1,0.4-0.1,0.6,0.1c0.2,0.2,0.2,0.5,0.1,0.8l-1.8,8.5
	c-0.2,0.6-0.5,0.8-1,0.5l-2.8-2l-1.3,1.3c-0.1,0.1-0.1,0.1-0.2,0.2C129.3,432.8,129.1,432.8,129,432.8L129,432.8z"/>
<path id="Path_1264" class="st1" d="M143.5,423.3c1.2,0,2.3,0.5,3.2,1.3s1.3,2,1.3,3.2c-0.2,2-1,3.8-2.2,5.4c-0.7,1-1.4,2-2.2,2.9
	c-0.8-0.9-1.6-1.9-2.2-2.9c-1.2-1.6-2-3.4-2.2-5.4c0-1.2,0.5-2.3,1.3-3.2C141.2,423.8,142.3,423.3,143.5,423.3z M143.5,426.3
	c-0.4,0-0.8,0.2-1.1,0.4c-0.3,0.3-0.4,0.7-0.4,1.1s0.1,0.8,0.4,1.1s0.7,0.4,1.1,0.4c0.4,0,0.8-0.1,1.1-0.4s0.4-0.7,0.4-1.1
	s-0.1-0.8-0.4-1.1C144.3,426.5,143.9,426.3,143.5,426.3z M149.5,436.1c-0.1,1-0.8,1.8-1.8,2.1c-1.3,0.6-2.8,0.9-4.2,0.8
	c-1.5,0-2.9-0.2-4.2-0.8c-0.9-0.3-1.6-1.2-1.8-2.1c0-0.5,0.3-1,0.6-1.3c0.5-0.5,1.1-0.8,1.7-1l0.5,0.7c-0.8,0.3-1.3,0.8-1.3,1.3
	s0.5,0.9,1.3,1.3c1,0.4,2.1,0.6,3.2,0.5c1.1,0,2.2-0.1,3.2-0.5c0.9-0.4,1.3-0.8,1.3-1.3s-0.5-1-1.3-1.3l0.5-0.7
	c0.6,0.2,1.2,0.6,1.7,1C149.3,435.1,149.5,435.6,149.5,436.1L149.5,436.1z"/>
<g id="Group_1244">
	<path id="Rectangle_982" class="st41" d="M153.5,423.3h19c1.1,0,2,0.9,2,2v8c0,1.1-0.9,2-2,2h-19c-1.1,0-2-0.9-2-2v-8
		C151.5,424.2,152.4,423.3,153.5,423.3z"/>
	<path id="Path_46" class="st0" d="M159.3,432.6h-1.9l-1.8-4.8c0.1,0.5,0.1,0.9,0.1,1.3s0.1,0.8,0.1,1.3v2.3h-1.3v-6.2h1.8l1.8,4.8
		c-0.1-0.8-0.2-1.5-0.2-2.3v-2.5h1.3L159.3,432.6L159.3,432.6z M164.1,427.4h-2.2v1.5h1.9v1h-1.9v1.6h2.4v1.1h-3.8v-6.2h3.8
		L164.1,427.4L164.1,427.4z M171.1,432.6h-1.9l-0.8-4.8l-0.8,4.8h-1.9l-1-6.2h1.5l0.6,5.1l0.9-5.1h1.6l0.8,5.1l0.7-5.1h1.4
		L171.1,432.6L171.1,432.6z"/>
</g>
<path id="Path_114" class="st42" d="M175.5,427.7v1.2h7.5l-3.4,3.5l0.9,0.9l4.9-5l-5-5l-0.9,0.9l3.4,3.5H175.5L175.5,427.7z"/>
<path id="lightning-bolt-outline" class="st0" d="M190.5,430.3v1.2h3l-1.4,2.9v-1.2h-3L190.5,430.3 M192.1,423.3l-5.6,11.5h4v6.5
	l5.6-11.4h-4V423.3z"/>
<path id="Path_129" class="st10" d="M207.5,431.4c0.1,0,0.2,0.1,0.3,0.2c0,0.1,0.1,0.2,0,0.3c0,0.2-0.1,0.4-0.1,0.5
	c-0.1,0.2-0.3,0.4-0.5,0.5s-0.4,0.2-0.7,0.2c-0.1,0-0.3,0.1-0.5,0c-0.5-0.1-1-0.3-1.5-0.5c-0.8-0.4-1.4-0.9-2-1.5
	c-0.5-0.6-0.7-1-0.8-1.1s-0.2-0.3-0.4-0.7c-0.2-0.3-0.3-0.8-0.2-1.1c0-0.3,0.1-0.7,0.2-1c0.1-0.2,0.2-0.3,0.4-0.4
	c0.2-0.2,0.4-0.2,0.5-0.2h0.3c0.1,0,0.1,0,0.2,0c0.1,0,0.1,0.1,0.2,0.3l0.5,1.3c0.1,0.1,0.1,0.2,0,0.3l-0.2,0.3l-0.3,0.3l-0.1,0.1
	c0,0.1,0,0.1,0,0.2c0.1,0.2,0.2,0.3,0.3,0.5c0.2,0.3,0.4,0.5,0.6,0.7c0.2,0.2,0.5,0.4,0.8,0.6l0.5,0.3c0.1,0.1,0.3,0.1,0.4,0
	l0.5-0.6c0.1-0.1,0.1-0.1,0.2-0.1c0.1,0,0.1,0,0.2,0L207.5,431.4L207.5,431.4z M204.3,423.3c1.8,0,3.5,0.7,4.8,2s2,3,2,4.8
	s-0.7,3.5-2,4.8s-3,2-4.8,2c-1.3,0-2.5-0.4-3.6-1.1l-3.1,1.1l1.1-3.1c-0.7-1.1-1.1-2.3-1.1-3.6c0-1.8,0.7-3.5,2-4.8
	S202.5,423.3,204.3,423.3z M204.3,424.7c-1.4,0-2.8,0.6-3.8,1.6s-1.6,2.4-1.6,3.8c0,1.1,0.3,2.2,1,3.1l-0.6,2l2-0.6
	c0.9,0.6,2,1,3.1,1c1.4,0,2.8-0.6,3.8-1.6s1.6-2.4,1.6-3.8s-0.6-2.8-1.6-3.8C207.1,425.2,205.7,424.7,204.3,424.7z"/>
<path id="Path_19" class="st43" d="M212.5,423.3h18v2h-18V423.3z M212.5,428.4h18v2h-18C212.5,430.3,212.5,428.4,212.5,428.4z
	 M212.5,433.3h18v2h-18V433.3z"/>
<path id="Path_1274" d="M238.5,436.1v-4.5h3v4.5h3.7v-6h2.2l-7.5-6.8l-7.5,6.8h2.2v6H238.5z"/>
<path id="Path_1292" class="st44" d="M260,424.4l-1.1-1.1l-4.2,4.2l-4.2-4.2l-1.1,1.1l4.2,4.2l-4.2,4.2l1.1,1l4.2-4.2l4.2,4.2
	l1.1-1.1l-4.2-4.2L260,424.4L260,424.4z"/>
<path id="Path_1273" d="M267.4,423.3c1.3,0,2.5,0.5,3.4,1.4s1.4,2.2,1.4,3.5c0,0.6-0.1,1.2-0.3,1.7c-0.2,0.5-0.5,1-0.9,1.4l0.2,0.2
	h0.6l3.7,3.7l-1.1,1.1l-3.7-3.7V432l-0.2-0.2c-0.4,0.4-0.9,0.7-1.4,0.9c-0.5,0.2-1.1,0.3-1.7,0.3c-1.3,0-2.5-0.5-3.5-1.4
	c-0.9-0.9-1.4-2.1-1.4-3.4s0.5-2.5,1.4-3.5C264.9,423.8,266.1,423.3,267.4,423.3L267.4,423.3z M267.4,424.9c-0.9,0-1.8,0.4-2.4,1
	s-1,1.5-1,2.4s0.3,1.8,1,2.4s1.5,1,2.4,1s1.8-0.3,2.4-1s1-1.5,1-2.4s-0.3-1.8-1-2.4S268.3,424.9,267.4,424.9z"/>
<path id="Path_45" class="st45" d="M279.4,431.7l3.1,3.1l3.1-3.1l0.9,0.9l-4,4l-4-4L279.4,431.7z M278.5,427.3l4-4l4,4l-0.9,0.9
	l-3.1-3.1l-3.1,3.1L278.5,427.3z"/>
<path d="M87.5,430l4.4-5h-1.1l-3.9,4.3l-3.1-4.3h-3.6l4.7,6.6l-4.7,5.2h1.1l4.1-4.6l3.3,4.6h3.6 M81.8,425.8h1.6l7.5,10.3h-1.6"/>
<g id="N18_Logo" transform="translate(0 -1.015)">
	<rect id="Rectangle_32" x="14.2" y="496.4" class="st0" width="65.6" height="22.7"/>
	<rect id="Rectangle_33" x="14.8" y="497" class="st46" width="64.3" height="21.4"/>
	<path id="Path_29" class="st47" d="M19,501.1v13h3.1v-8l4.6,8l3.1,0v-13h-3.2l0,7.6l-4.4-7.6L19,501.1z"/>
	<path id="Path_30" class="st47" d="M31.7,501.1l0,13h10.1v-2.8h-6.9v-2.6H41v-2.8h-6.1V504l6.6,0v-2.9H31.7z"/>
	<path id="Path_31" class="st47" d="M42.4,501.1l3.7,13h3.3l1.7-8.3l1.8,8.4h2.9l3.7-13h-3.3l-1.8,7.6l-1.6-7.6h-3.5l-1.5,7.2
		l-1.7-7.2L42.4,501.1z"/>
	<path id="Path_32" class="st47" d="M66.9,505.4c0,0,0.4-1.6-2.1-1.9c-1.7-0.2-2.1,1.1-1.8,1.5c0.5,0.9,4.6,0.9,6.5,2.6
		c1.7,1.4,1.3,4.6-0.5,5.7c-2.1,1.2-4.6,1.4-6.9,0.5c-1.7-0.7-2.7-2.4-2.5-4.2h3.1c0,0-0.2,2,2.3,2c2.6,0,2.6-1.3,2-1.9
		c-0.6-0.6-5.4-0.8-6.7-2.8c-1.1-1.8-0.6-4.2,1.3-5.4c0,0,0.1,0,0.1-0.1c2.4-1.4,5.8-0.7,7.1,0.6c0.9,0.9,1.4,2.1,1.3,3.3
		L66.9,505.4z"/>
	<path id="Path_33" class="st0" d="M72.1,489h22.7l0,22.7H72.1L72.1,489z"/>
	<path id="Path_34" class="st48" d="M72.7,489.7h21.5l0,21.4H72.7L72.7,489.7z"/>
	<path id="Path_35" class="st47" d="M74.9,493.9h5.2v13.3H77V497h-2.1V493.9z"/>
	<path id="Path_36" class="st47" d="M86.2,507.4c2.3,0.1,4.3-1.5,4.6-3.7c0.3-1.5-0.4-3-1.8-3.7c1-0.6,1.5-1.8,1.3-2.9
		c-0.2-2.2-2.1-3.4-4.3-3.4c-2-0.1-3.9,1.3-4.2,3.3c-0.2,1.2,0.3,2.4,1.4,3c-1.3,0.8-2,2.2-1.8,3.7
		C81.8,505.9,83.9,507.5,86.2,507.4z"/>
	<path id="Path_37" class="st48" d="M87.4,497.6c0,0.7-0.6,1.3-1.3,1.4c0,0,0,0,0,0c-0.7,0-1.3-0.6-1.3-1.3c0,0,0-0.1,0-0.1
		c0-0.7,0.6-1.3,1.3-1.3c0.7,0,1.3,0.5,1.3,1.2C87.5,497.5,87.5,497.6,87.4,497.6z"/>
	<path id="Path_38" class="st48" d="M87.7,502.8c0,0.8-0.6,1.5-1.4,1.6c0,0,0,0,0,0c-0.9,0-1.5-0.7-1.5-1.5c0,0,0,0,0,0
		c0-0.8,0.6-1.5,1.4-1.5c0,0,0.1,0,0.1,0C87,501.3,87.7,502,87.7,502.8C87.7,502.8,87.7,502.8,87.7,502.8z"/>
	<g id="Group_3" transform="translate(7 -35.598)">
		<path id="Path_39" d="M105.1,544.5h-1.5v2.4h-4.2c-0.1,0-0.1,0-0.1,0.1c-0.1,0-0.2,0.1-0.2,0.2c0,0.1,0.1,0.3,0.2,0.4
			c0.1,0.2,0.3,0.3,0.5,0.5c0.2,0.2,0.3,0.3,0.3,0.3c0.1,0,0.3-0.1,0.4-0.1c0.3-0.1,0.6-0.1,0.9-0.1c0.7,0,1.3,0.2,1.9,0.5
			c0.5,0.3,0.9,0.8,0.8,1.4c0,0.7-0.4,1.3-0.9,1.6l-1.2-0.8c0.4-0.1,0.6-0.4,0.6-0.8c0-0.2-0.1-0.5-0.4-0.6
			c-0.3-0.1-0.6-0.2-0.9-0.2c-0.5,0-1,0.1-1.5,0.4c-0.4,0.2-0.6,0.7-0.6,1.1c0,0.7,0.5,1.3,1.6,1.7c0.9,0.3,1.5,0.4,1.7,0.3
			l-0.5,1.1c-0.8,0-1.6-0.1-2.3-0.6c-1.5-0.6-2.2-1.6-2.2-2.8c0-0.5,0.2-1,0.6-1.3c0.2-0.2,0.4-0.4,0.6-0.5c-0.1,0-0.4-0.2-0.8-0.7
			c-0.4-0.4-0.6-0.9-0.7-1.5c0-0.2,0.1-0.5,0.3-0.7c0.2-0.2,0.4-0.3,0.7-0.3h3.7v-1.2h-5.7v-1.3h8.8V544.5z"/>
		<path id="Path_40" d="M104.3,543.6c0.1,0,0.2,0,0.2,0.1c0,0.1,0,0.1-0.1,0.2c-0.1,0-0.1,0-0.2-0.1S104.2,543.7,104.3,543.6z"/>
		<path id="Path_41" d="M103.5,543.3h-1.7c-0.4-0.6-0.9-1.1-1.4-1.6c-0.8-0.9-1.9-1.5-3.1-1.6c-1.3,0-2,0.6-2,1.8c0,0.3,0,0.7,0.2,1
			c0,0.1,0.1,0.2,0.2,0.3H97v1.3h-1.2v8.5h-1.7v-8.4h-1.4v-1.3h1.5c-0.1-0.1-0.1-0.3-0.2-0.4c-0.1-0.3-0.2-0.7-0.2-1.1
			c-0.1-0.8,0.3-1.6,0.9-2.2c0.8-0.5,1.7-0.8,2.6-0.7c1.1,0.1,2.2,0.5,3,1.1c0.9,0.6,1.6,1.3,2.3,2.2
			C102.9,542.6,103.2,543,103.5,543.3z"/>
		<path id="Path_42" d="M114.6,544.5h-2v2.7h-3.7c-0.3,0-0.6,0.1-0.8,0.3c-0.2,0.2-0.4,0.6-0.4,0.9c0,0.8,0.5,1.4,1.3,1.6
			c0.5,0.1,1.1,0.2,1.6,0.2c0-0.3,0-0.6,0.1-0.9c0.2-0.5,0.7-0.7,1.2-0.7c0.3,0,0.6,0.1,0.8,0.3c0.2,0.2,0.4,0.5,0.4,0.8
			c0,0.4-0.1,0.8-0.4,1.1c-0.1,0.1-0.3,0.2-0.4,0.3l0.3,0.9c0.1,0.2,0.2,0.4,0.3,0.7c0,0.1,0.1,0.1,0.1,0.2l-1.5,0.3
			c0,0,0-0.1-0.1-0.1c-0.1-0.2-0.2-0.4-0.2-0.6c-0.1-0.2-0.1-0.4-0.2-0.6c0-0.2,0-0.3-0.1-0.4h-0.3c-1.2,0.1-2.5-0.2-3.5-0.9
			c-0.8-0.5-1.3-1.5-1.2-2.4c0-0.6,0.2-1.3,0.7-1.7c0.5-0.4,1.1-0.7,1.7-0.7h2.6v-1.4H105v-1.3h9.6V544.5z"/>
		<path id="Path_43" d="M119,544.5h-1.2v8.4H116v-8.4h-1.5v-1.3h1.5c-0.1-0.6-0.3-1.2-0.5-1.7c-0.3-1-1.2-1.7-2.2-1.7
			c-0.4,0-0.7,0.1-1,0.3c-0.3,0.2-0.4,0.6-0.4,1c0,0.5,0.2,1,0.4,1.4c0.1,0.3,0.3,0.6,0.5,0.8h-1.6c-0.3-0.3-0.5-0.6-0.6-1
			c-0.2-0.4-0.3-0.9-0.3-1.3c0-0.6,0.2-1.3,0.7-1.7c0.5-0.4,1.2-0.7,1.9-0.6c1.1,0,2.2,0.4,3,1.2c0.6,0.6,1.1,1.4,1.3,2.2
			c0.1,0.4,0.2,0.8,0.3,1.2h1.3L119,544.5z"/>
		<path id="Path_44" d="M105.9,541.3c0-0.2-0.1-0.4-0.2-0.6c-0.1-0.1-0.3-0.2-0.5-0.2c-0.2,0-0.4,0.1-0.6,0.2
			c-0.2,0.2-0.2,0.4-0.2,0.6c0,0.4,0.2,0.7,0.4,0.9c0.1,0,0.1,0.1,0.2,0.1c0.2-0.1,0.3-0.1,0.4-0.2
			C105.7,541.9,105.8,541.6,105.9,541.3z"/>
	</g>
</g>
<path class="st0" d="M98.7,463.2c0,1.2,0,2.5,0,3.7c-6.9,0-13.9,0-20.8,0c0,0.6,0,1.2,0,1.9c6.9,0,13.9,0,20.8,0
	c-0.6,0.3-1.3,0.9-1.9,0.9c-6.7,0.1-13.4,0-20.1,0c0-4.2,0-8.4,0-12.6c0-0.5,0.6-0.9,0.9-1.4c1.1,0.6,2.3,1.7,3.4,1.8
	c5.9,0.2,11.8,0.1,17.6,0.1c0,1.2,0,2.5,0,3.7c-6.9,0-13.9,0-20.8,0c0,0.6,0,1.2,0,1.9C84.8,463.2,91.7,463.2,98.7,463.2z"/>
<path d="M98.7,463.2c-6.9,0-13.9,0-20.8,0c0-0.6,0-1.2,0-1.9c6.9,0,13.9,0,20.8,0C98.7,462,98.7,462.6,98.7,463.2z"/>
<path d="M98.7,468.8c-6.9,0-13.9,0-20.8,0c0-0.6,0-1.2,0-1.9c6.9,0,13.9,0,20.8,0C98.7,467.6,98.7,468.2,98.7,468.8z"/>
<g>
	<path class="st49" d="M23.4,452.8c0,0.6,0,1.2,0,1.8c4.1,0.8,6.5,3.2,7.3,7.3c0.3,0,0.6,0,0.9,0c0.3,0,0.6,0,0.9,0
		c0,0.6,0,1.2,0,1.8c-0.6,0-1.2,0-1.8,0c-0.8,4.1-3.2,6.5-7.3,7.3c0,0.3,0,0.6,0,0.9c0,0.3,0,0.6,0,0.9c-0.6,0-1.2,0-1.8,0
		c0-0.6,0-1.2,0-1.8c-4.1-0.8-6.5-3.2-7.3-7.3c-0.6,0-1.2,0-1.8,0c0-0.6,0-1.2,0-1.8c0.6,0,1.2,0,1.8,0c0.8-4.1,3.2-6.5,7.3-7.3
		c0-0.6,0-1.2,0-1.8C22.2,452.8,22.8,452.8,23.4,452.8z M28.9,462.8c0-3.5-2.8-6.4-6.4-6.4c-3.5,0-6.4,2.8-6.4,6.4
		c0,3.5,2.9,6.4,6.4,6.4C26,469.1,28.9,466.3,28.9,462.8z"/>
	<path class="st49" d="M22.5,466.4c-2,0-3.6-1.6-3.6-3.6c0-2,1.6-3.6,3.6-3.6c2,0,3.6,1.6,3.6,3.6C26.1,464.8,24.5,466.4,22.5,466.4
		z"/>
</g>
<g>
	<path class="st50" d="M58.1,471.6l3.8,3.3c0.3,0.3,0.7,0.2,1-0.1c0.3-0.3,0.2-0.7-0.1-1l-3.7-3.2c1.5-1.7,2.5-3.9,2.5-6.3
		c0-5.1-4.2-9.3-9.3-9.3c-5.1,0-9.3,4.2-9.3,9.3c0,5.1,4.2,9.3,9.3,9.3C54.5,473.6,56.5,472.9,58.1,471.6z M52.3,456.4
		c4.4,0,7.9,3.5,7.9,7.9c0,4.4-3.5,7.9-7.9,7.9s-7.9-3.5-7.9-7.9C44.4,460,47.9,456.4,52.3,456.4z"/>
	<rect x="45.7" y="450.5" class="st0" width="10.4" height="13"/>
	<path class="st51" d="M50.7,460.7c1.8,0,3.3-1.5,3.3-3.3c0-1.8-1.5-3.3-3.3-3.3s-3.3,1.5-3.3,3.3C47.4,459.2,48.9,460.7,50.7,460.7
		z M50.7,454.6c1.5,0,2.8,1.2,2.8,2.8s-1.2,2.8-2.8,2.8s-2.8-1.2-2.8-2.8S49.2,454.6,50.7,454.6z"/>
	<path class="st52" d="M50.5,465.7c0.1,0,0.1,0.1,0.2,0.1s0.1,0,0.2-0.1c0.2-0.2,4.8-3.8,5.2-7.8l0-0.1c0-0.2,0-0.3,0-0.5
		c0-3-2.4-5.4-5.4-5.4s-5.4,2.4-5.4,5.4c0,0.2,0,0.3,0,0.5l0,0.1C45.8,461.9,50.3,465.6,50.5,465.7z M50.7,452.4
		c2.7,0,4.9,2.2,4.9,4.9c0,0.1,0,0.3,0,0.4l0,0.1c0,0,0,0.1,0,0.1c-0.4,3.4-4,6.6-4.8,7.3c-0.8-0.7-4.4-3.9-4.8-7.3c0,0,0-0.1,0-0.1
		l0-0.1c0-0.1,0-0.3,0-0.4C45.8,454.6,48,452.4,50.7,452.4L50.7,452.4z"/>
</g>
<path d="M98.8,457.7c-6.9,0-13.9,0-20.8,0c0-0.6,0-1.2,0-1.9c6.9,0,13.9,0,20.8,0C98.8,456.4,98.8,457,98.8,457.7z"/>
</svg>
