<svg xmlns="http://www.w3.org/2000/svg" width="111.794" height="30.004" viewBox="0 0 111.794 30.004">
  <g id="N18_Logo" data-name="N18 Logo" transform="translate(0 -1.015)">
    <rect id="Rectangle_32" data-name="Rectangle 32" width="65.581" height="22.664" transform="translate(0 8.354)" fill="#fff"/>
    <rect id="Rectangle_33" data-name="Rectangle 33" width="64.343" height="21.424" transform="translate(0.62 8.974)" fill="#061836"/>
    <path id="Path_29" data-name="Path 29" d="M7.807,20.451V33.433h3.13l0-8.037,4.636,8.044,3.084-.008,0-12.98H15.5l-.008,7.567-4.442-7.569Z" transform="translate(-2.967 -7.387)" fill="#fff" fill-rule="evenodd"/>
    <path id="Path_30" data-name="Path 30" d="M28.247,20.444l-.013,12.99H38.369l0-2.85H31.46l0-2.617,6.057,0v-2.75H31.461V23.309l6.606.013V20.444Z" transform="translate(-10.731 -7.385)" fill="#fff" fill-rule="evenodd"/>
    <path id="Path_31" data-name="Path 31" d="M45.581,20.444l3.681,12.99,3.269,0,1.7-8.35,1.758,8.353,2.925,0,3.71-12.985-3.325,0L57.517,28.09,55.95,20.447l-3.474,0-1.484,7.224-1.676-7.224Z" transform="translate(-17.325 -7.385)" fill="#fff" fill-rule="evenodd"/>
    <path id="Path_32" data-name="Path 32" d="M80.6,24.49s.426-1.614-2.115-1.865c-1.744-.172-2.1,1.051-1.841,1.512.534.939,4.559.942,6.482,2.561,1.652,1.392,1.257,4.574-.495,5.748a8.148,8.148,0,0,1-6.853.5,4.044,4.044,0,0,1-2.458-4.222h3.1s-.167,2,2.279,2c2.559,0,2.563-1.337,2.033-1.88-.588-.6-5.406-.8-6.73-2.806a3.91,3.91,0,0,1,1.346-5.435c2.353-1.413,5.843-.72,7.114.6a4.216,4.216,0,0,1,1.291,3.282Z" transform="translate(-27.859 -7.151)" fill="#fff" fill-rule="evenodd"/>
    <path id="Path_33" data-name="Path 33" d="M94.387,2.015h22.7l-.015,22.652H94.4Z" transform="translate(-36.493 -1)" fill="#fff"/>
    <path id="Path_34" data-name="Path 34" d="M94.387,2.015h21.457l-.014,21.414H94.4Z" transform="translate(-35.875 -0.38)" fill="#ec2027" fill-rule="evenodd"/>
    <path id="Path_35" data-name="Path 35" d="M97.913,8.853h5.221V22.143h-3.1V11.922H97.913Z" transform="translate(-37.215 -2.979)" fill="#fff" fill-rule="evenodd"/>
    <path id="Path_36" data-name="Path 36" d="M113.183,22.23a4.538,4.538,0,0,0,4.646-3.747,3.368,3.368,0,0,0-1.777-3.721,2.884,2.884,0,0,0,1.345-2.914c-.239-2.235-2.116-3.357-4.3-3.377a3.987,3.987,0,0,0-4.209,3.288,2.927,2.927,0,0,0,1.356,3,3.847,3.847,0,0,0-1.813,3.7A4.6,4.6,0,0,0,113.183,22.23Z" transform="translate(-41.201 -2.834)" fill="#fff" fill-rule="evenodd"/>
    <path id="Path_37" data-name="Path 37" d="M116.593,14.021a1.327,1.327,0,0,1-1.3,1.356,1.3,1.3,0,0,1-1.326-1.371,1.323,1.323,0,0,1,1.326-1.281A1.238,1.238,0,0,1,116.593,14.021Z" transform="translate(-43.318 -4.451)" fill="#ec2027" fill-rule="evenodd"/>
    <path id="Path_38" data-name="Path 38" d="M116.7,22.305a1.506,1.506,0,0,1-1.478,1.57,1.542,1.542,0,0,1-1.537-1.565,1.455,1.455,0,0,1,1.525-1.524A1.5,1.5,0,0,1,116.7,22.305Z" transform="translate(-43.209 -7.515)" fill="#ec2027" fill-rule="evenodd"/>
    <g id="Group_3" data-name="Group 3" transform="translate(7 -35.598)">
      <path id="Path_39" data-name="Path 39" d="M90.922,56.451H89.4V58.9H85.167c-.067.027-.112.047-.139.06a.281.281,0,0,0-.158.237.6.6,0,0,0,.178.366,5.66,5.66,0,0,0,.455.465c.184.171.3.257.336.257a3.545,3.545,0,0,1,.4-.079,6.1,6.1,0,0,1,.949-.079,3.791,3.791,0,0,1,1.929.484,1.53,1.53,0,0,1,.841,1.394,1.758,1.758,0,0,1-.949,1.6l-1.168-.752a.784.784,0,0,0,.555-.811.561.561,0,0,0-.365-.554,2.363,2.363,0,0,0-.933-.157,2.546,2.546,0,0,0-1.456.385,1.266,1.266,0,0,0-.569,1.117q0,1.108,1.612,1.682,1.415.493,1.711.316L87.9,65.944a4.055,4.055,0,0,1-2.275-.553q-2.214-.949-2.215-2.769a2.03,2.03,0,0,1,.574-1.345,3.386,3.386,0,0,1,.573-.514q-.177,0-.751-.673a2.422,2.422,0,0,1-.672-1.483.851.851,0,0,1,.276-.653A.98.98,0,0,1,84.1,57.7h3.738V56.451H82.141V55.185h8.781Z"/>
      <path id="Path_40" data-name="Path 40" d="M90.171,55.6c.092-.027.151.02.178.138.013.079-.033.132-.139.158-.08.014-.132-.026-.157-.119S90.065,55.627,90.171,55.6Z"/>
      <path id="Path_41" data-name="Path 41" d="M89.353,55.3h-1.7a15.708,15.708,0,0,0-1.444-1.622,4.869,4.869,0,0,0-3.144-1.621q-2.018,0-2.018,1.808a2.793,2.793,0,0,0,.159,1,.96.96,0,0,0,.178.314h1.424v1.266H81.581V64.9H79.919V56.451H78.476V55.185h1.482a2.371,2.371,0,0,1-.2-.413,3.025,3.025,0,0,1-.2-1.063,2.539,2.539,0,0,1,.939-2.166,4.237,4.237,0,0,1,2.6-.709,5.275,5.275,0,0,1,3.025,1.147,13.34,13.34,0,0,1,2.315,2.156Q88.9,54.731,89.353,55.3Z"/>
      <path id="Path_42" data-name="Path 42" d="M100.413,56.451H98.37v2.7H94.681a1.151,1.151,0,0,0-.8.345,1.17,1.17,0,0,0-.367.9,1.6,1.6,0,0,0,1.278,1.6,5.484,5.484,0,0,0,1.618.2,2.512,2.512,0,0,1,.1-.854,1.137,1.137,0,0,1,1.181-.674,1.2,1.2,0,0,1,.826.318,1.064,1.064,0,0,1,.354.833,1.5,1.5,0,0,1-.4,1.051,2.755,2.755,0,0,1-.433.337l.337.853a6.3,6.3,0,0,0,.3.655.586.586,0,0,0,.114.158l-1.475.338a.249.249,0,0,1-.06-.1,2.874,2.874,0,0,1-.219-.575,3.509,3.509,0,0,1-.179-.626c-.026-.165-.046-.3-.059-.406h-.3a6.194,6.194,0,0,1-3.529-.853,2.763,2.763,0,0,1-1.242-2.42,2.18,2.18,0,0,1,.717-1.686,2.43,2.43,0,0,1,1.693-.655H96.7V56.451H90.793v-1.27h9.62Z"/>
      <path id="Path_43" data-name="Path 43" d="M104.794,56.448h-1.24v8.407h-1.679V56.448h-1.46V55.182h1.5a8.809,8.809,0,0,0-.5-1.721,2.474,2.474,0,0,0-2.239-1.721,1.435,1.435,0,0,0-.99.346,1.22,1.22,0,0,0-.389.959,3.1,3.1,0,0,0,.4,1.405,2.537,2.537,0,0,0,.54.831H97.117a2.971,2.971,0,0,1-.58-1.019,3.667,3.667,0,0,1-.28-1.316,2.189,2.189,0,0,1,.69-1.711,2.744,2.744,0,0,1,1.909-.622,4.057,4.057,0,0,1,2.979,1.167,5.732,5.732,0,0,1,1.339,2.195c.094.409.193.811.3,1.207h1.32Z"/>
      <path id="Path_44" data-name="Path 44" d="M91.678,53.224a.806.806,0,0,0-.2-.565.677.677,0,0,0-.526-.22.757.757,0,0,0-.555.23.8.8,0,0,0-.229.593,1.106,1.106,0,0,0,.44.918,2.152,2.152,0,0,0,.21.134,1.9,1.9,0,0,0,.421-.249A1.07,1.07,0,0,0,91.678,53.224Z"/>
    </g>
  </g>
</svg>
