<?xml version="1.0" encoding="UTF-8"?>
<svg xmlns="http://www.w3.org/2000/svg" xmlns:xlink="http://www.w3.org/1999/xlink" width="270px" height="40px" viewBox="0 0 270 40" version="1.1">
<g id="surface3">
<path style=" stroke:none;fill-rule:nonzero;fill:rgb(100%,100%,100%);fill-opacity:1;" d="M 7.640625 2.800781 L 6.519531 4 L 8.660156 6.101562 L 4.175781 6.101562 C 3.769531 6.101562 3.261719 6.300781 2.953125 6.601562 C 2.648438 6.898438 2.445312 7.300781 2.445312 7.800781 L 2.445312 16.101562 C 2.445312 16.601562 2.648438 17 2.953125 17.300781 C 3.261719 17.601562 3.667969 17.800781 4.175781 17.800781 L 17.832031 17.800781 C 18.238281 17.800781 18.746094 17.601562 19.054688 17.300781 C 19.359375 17 19.5625 16.5 19.5625 16.101562 L 19.5625 7.800781 C 19.5625 7.398438 19.359375 6.898438 19.054688 6.601562 C 18.746094 6.300781 18.339844 6.101562 17.832031 6.101562 L 13.246094 6.101562 L 15.386719 4 L 14.164062 2.800781 L 10.902344 6 Z M 4.175781 7.800781 L 15.28125 7.800781 L 15.28125 16.101562 L 4.175781 16.101562 Z M 17.320312 7.800781 C 17.523438 7.800781 17.726562 7.898438 17.933594 8 C 18.136719 8.199219 18.136719 8.398438 18.136719 8.601562 C 18.136719 8.800781 18.035156 9 17.933594 9.199219 C 17.726562 9.398438 17.523438 9.398438 17.320312 9.398438 C 17.117188 9.398438 16.914062 9.300781 16.710938 9.199219 C 16.503906 9 16.503906 8.800781 16.503906 8.601562 C 16.503906 8.398438 16.609375 8.199219 16.710938 8 C 16.914062 7.898438 17.117188 7.800781 17.320312 7.800781 Z M 17.320312 10.300781 C 17.523438 10.300781 17.726562 10.398438 17.933594 10.5 C 18.136719 10.699219 18.136719 10.898438 18.136719 11.101562 C 18.136719 11.300781 18.035156 11.5 17.933594 11.699219 C 17.726562 11.898438 17.523438 11.898438 17.320312 11.898438 C 17.117188 11.898438 16.914062 11.800781 16.710938 11.699219 C 16.503906 11.5 16.503906 11.300781 16.503906 11.101562 C 16.503906 10.898438 16.609375 10.699219 16.710938 10.5 C 16.914062 10.398438 17.117188 10.300781 17.320312 10.300781 Z M 17.320312 10.300781 "/>
<path style=" stroke:none;fill-rule:nonzero;fill:rgb(88.235294%,14.901961%,11.372549%);fill-opacity:1;" d="M 34.539062 15.398438 L 27.609375 15.398438 L 27.609375 4.800781 L 34.539062 4.800781 Z M 31.074219 18.300781 C 30.769531 18.300781 30.464844 18.199219 30.261719 18 C 30.054688 17.800781 29.953125 17.5 29.953125 17.199219 C 29.953125 16.898438 30.054688 16.601562 30.261719 16.398438 C 30.464844 16.199219 30.769531 16.101562 31.074219 16.101562 C 31.382812 16.101562 31.6875 16.199219 31.890625 16.398438 C 32.09375 16.601562 32.195312 16.898438 32.195312 17.199219 C 32.195312 17.5 32.09375 17.800781 31.890625 18 C 31.6875 18.199219 31.484375 18.398438 31.074219 18.300781 Z M 34.234375 2.601562 L 28.121094 2.601562 C 27.609375 2.601562 27.101562 2.800781 26.796875 3.199219 C 26.390625 3.601562 26.285156 4 26.285156 4.5 L 26.285156 17.199219 C 26.285156 17.699219 26.492188 18.199219 26.796875 18.5 C 27.203125 18.898438 27.609375 19.101562 28.121094 19.101562 L 34.234375 19.101562 C 34.742188 19.101562 35.253906 18.898438 35.558594 18.5 C 35.964844 18.101562 36.167969 17.699219 36.167969 17.199219 L 36.167969 4.5 C 36.167969 4 35.964844 3.5 35.558594 3.199219 C 35.152344 2.800781 34.742188 2.601562 34.234375 2.601562 Z M 34.234375 2.601562 "/>
<path style=" stroke:none;fill-rule:nonzero;fill:rgb(23.137255%,34.901961%,59.607843%);fill-opacity:1;" d="M 55.730469 2.398438 L 55.730469 5.398438 L 54.203125 5.398438 C 54 5.398438 53.695312 5.601562 53.59375 5.800781 C 53.492188 6 53.390625 6.300781 53.390625 6.601562 L 53.390625 8.5 L 55.628906 8.5 L 55.628906 11.5 L 53.390625 11.5 L 53.390625 17.5 L 50.332031 17.5 L 50.332031 11.5 L 48.089844 11.5 L 48.089844 8.5 L 50.332031 8.5 L 50.332031 5.5 C 50.332031 4.699219 50.636719 3.898438 51.25 3.398438 C 51.859375 2.800781 52.574219 2.5 53.390625 2.5 Z M 55.730469 2.398438 "/>
<path style=" stroke:none;fill-rule:nonzero;fill:rgb(56.078431%,56.078431%,56.078431%);fill-opacity:1;" d="M 74.082031 16.636719 L 68.988281 11.738281 L 70.210938 10.636719 L 74.082031 14.339844 L 77.953125 10.636719 L 79.175781 11.738281 Z M 74.082031 16.636719 "/>
<path style=" stroke:none;fill-rule:nonzero;fill:rgb(56.078431%,56.078431%,56.078431%);fill-opacity:1;" d="M 74.082031 2.636719 L 68.988281 7.539062 L 70.210938 8.636719 L 74.082031 4.9375 L 77.953125 8.636719 L 79.175781 7.539062 Z M 74.082031 2.636719 "/>
<path style=" stroke:none;fill-rule:nonzero;fill:rgb(89.411765%,25.098039%,37.254902%);fill-opacity:1;" d="M 30.972656 21.800781 L 38.105469 21.800781 C 39.429688 21.800781 40.652344 22.300781 41.570312 23.199219 C 42.488281 24.101562 42.996094 25.300781 42.996094 26.601562 L 42.996094 33.601562 C 42.996094 34.898438 42.488281 36.101562 41.570312 37 C 40.652344 37.898438 39.429688 38.398438 38.105469 38.398438 L 30.972656 38.398438 C 29.648438 38.398438 28.425781 37.898438 27.507812 37 C 26.59375 36.101562 26.082031 34.898438 26.082031 33.601562 L 26.082031 26.601562 C 26.082031 25.300781 26.59375 24.101562 27.507812 23.199219 C 28.425781 22.300781 29.648438 21.800781 30.972656 21.800781 Z M 30.871094 23.398438 C 30.054688 23.398438 29.242188 23.699219 28.730469 24.300781 C 28.121094 24.898438 27.816406 25.601562 27.816406 26.398438 L 27.816406 33.699219 C 27.816406 34.5 28.121094 35.300781 28.730469 35.800781 C 29.34375 36.398438 30.054688 36.699219 30.871094 36.699219 L 38.308594 36.699219 C 39.125 36.699219 39.941406 36.398438 40.449219 35.800781 C 41.058594 35.199219 41.367188 34.5 41.367188 33.699219 L 41.367188 26.398438 C 41.367188 25.601562 41.058594 24.800781 40.449219 24.300781 C 39.835938 23.699219 39.125 23.398438 38.308594 23.398438 Z M 39.023438 24.699219 C 39.328125 24.699219 39.53125 24.800781 39.734375 25 C 39.941406 25.199219 40.042969 25.5 40.042969 25.699219 C 40.042969 26 39.941406 26.199219 39.734375 26.398438 C 39.53125 26.601562 39.226562 26.699219 39.023438 26.699219 C 38.71875 26.699219 38.511719 26.601562 38.308594 26.398438 C 38.105469 26.199219 38.003906 25.898438 38.003906 25.699219 C 38.003906 25.398438 38.105469 25.199219 38.308594 25 C 38.511719 24.800781 38.71875 24.699219 39.023438 24.699219 Z M 34.539062 25.898438 C 35.660156 25.898438 36.78125 26.300781 37.496094 27.101562 C 38.308594 27.898438 38.71875 28.898438 38.71875 30.101562 C 38.71875 31.199219 38.308594 32.300781 37.496094 33 C 36.679688 33.800781 35.660156 34.199219 34.4375 34.199219 C 33.316406 34.199219 32.195312 33.800781 31.484375 33 C 30.667969 32.199219 30.261719 31.199219 30.261719 30 C 30.261719 28.898438 30.667969 27.800781 31.484375 27.101562 C 32.398438 26.398438 33.417969 25.898438 34.539062 25.898438 Z M 34.539062 27.601562 C 33.828125 27.601562 33.214844 27.898438 32.707031 28.300781 C 32.195312 28.800781 31.992188 29.398438 31.992188 30.101562 C 31.992188 30.800781 32.195312 31.398438 32.707031 31.898438 C 33.214844 32.398438 33.828125 32.601562 34.539062 32.601562 C 35.253906 32.601562 35.863281 32.398438 36.375 31.898438 C 36.882812 31.398438 37.085938 30.800781 37.085938 30.101562 C 37.085938 29.398438 36.882812 28.800781 36.375 28.300781 C 35.863281 27.898438 35.253906 27.601562 34.539062 27.601562 Z M 34.539062 27.601562 "/>
<path style=" stroke:none;fill-rule:nonzero;fill:rgb(87.843137%,18.431373%,18.431373%);fill-opacity:1;" d="M 54.304688 32.898438 L 54.304688 25.398438 L 59.398438 29.199219 Z M 62.761719 22.800781 C 61.945312 22.699219 61.132812 22.601562 60.316406 22.601562 C 58.992188 22.5 57.566406 22.5 55.9375 22.5 C 54.304688 22.5 52.878906 22.5 51.554688 22.601562 C 50.738281 22.601562 49.925781 22.699219 49.109375 22.800781 C 48.292969 23.300781 47.886719 24.101562 47.785156 25 C 47.480469 26.398438 47.378906 27.699219 47.378906 29.101562 C 47.378906 30.5 47.480469 31.898438 47.785156 33.199219 C 47.988281 34.398438 48.5 35.101562 49.109375 35.398438 C 49.925781 35.601562 50.738281 35.601562 51.554688 35.699219 C 52.878906 35.800781 54.304688 35.800781 55.9375 35.800781 C 57.566406 35.800781 58.992188 35.800781 60.316406 35.699219 C 61.132812 35.699219 61.945312 35.601562 62.761719 35.398438 C 63.375 35.101562 63.882812 34.398438 64.085938 33.199219 C 64.390625 31.800781 64.496094 30.398438 64.496094 29.101562 C 64.496094 27.699219 64.390625 26.300781 64.085938 25 C 63.882812 23.800781 63.375 23 62.761719 22.800781 Z M 62.761719 22.800781 "/>
<path style=" stroke:none;fill-rule:nonzero;fill:rgb(100%,100%,100%);fill-opacity:1;" d="M 74.082031 35.636719 L 68.988281 30.738281 L 70.210938 29.636719 L 74.082031 33.339844 L 77.953125 29.636719 L 79.175781 30.738281 Z M 74.082031 35.636719 "/>
<path style=" stroke:none;fill-rule:nonzero;fill:rgb(100%,100%,100%);fill-opacity:1;" d="M 74.082031 21.636719 L 68.988281 26.539062 L 70.210938 27.636719 L 74.082031 23.9375 L 77.953125 27.636719 L 79.175781 26.539062 Z M 74.082031 21.636719 "/>
<path style=" stroke:none;fill-rule:nonzero;fill:rgb(14.901961%,64.705882%,89.411765%);fill-opacity:1;" d="M 262.96875 13.5 L 263.171875 10 L 269.695312 4.199219 C 269.796875 4.101562 269.796875 4 269.695312 3.898438 C 269.492188 3.898438 269.390625 3.898438 269.183594 4 L 261.136719 9 L 257.773438 7.898438 C 257.367188 7.800781 257.164062 7.601562 257.265625 7.398438 C 257.265625 7.199219 257.570312 7 257.976562 6.800781 L 271.527344 1.699219 C 271.832031 1.601562 272.140625 1.601562 272.34375 1.800781 C 272.546875 2.101562 272.648438 2.5 272.546875 2.800781 L 270.203125 13.5 C 270 14.300781 269.59375 14.5 268.980469 14.101562 L 265.515625 11.601562 L 263.785156 13.199219 C 263.683594 13.300781 263.582031 13.398438 263.480469 13.5 C 263.277344 13.398438 263.171875 13.5 262.96875 13.5 Z M 262.96875 13.5 "/>
<path style=" stroke:none;fill-rule:nonzero;fill:rgb(23.137255%,34.901961%,59.607843%);fill-opacity:1;" d="M 86.605469 0 L 127.359375 0 L 127.359375 40 L 86.605469 40 Z M 86.605469 0 "/>
<path style=" stroke:none;fill-rule:nonzero;fill:rgb(100%,100%,100%);fill-opacity:1;" d="M 112.585938 8.898438 L 112.585938 13.300781 L 110.34375 13.300781 C 109.9375 13.300781 109.628906 13.5 109.527344 13.800781 C 109.324219 14.101562 109.222656 14.5 109.222656 14.898438 L 109.222656 17.601562 L 112.585938 17.601562 L 112.585938 22 L 109.222656 22 L 109.222656 30.800781 L 104.738281 30.800781 L 104.738281 22 L 101.378906 22 L 101.378906 17.601562 L 104.738281 17.601562 L 104.738281 13.199219 C 104.738281 12 105.25 10.898438 106.0625 10.101562 C 106.878906 9.300781 108.101562 8.800781 109.324219 8.800781 Z M 112.585938 8.898438 "/>
<path style=" stroke:none;fill-rule:nonzero;fill:rgb(0%,0%,0%);fill-opacity:1;" d="M 129.089844 0.101562 L 169.84375 0.101562 L 169.84375 40.101562 L 129.089844 40.101562 Z M 129.089844 0.101562 "/>
<path style=" stroke:none;fill-rule:nonzero;fill:rgb(100%,100%,100%);fill-opacity:1;" d="M 151.503906 18.5 L 159.453125 9.601562 L 157.515625 9.601562 L 150.589844 17.300781 L 145.085938 9.601562 L 138.667969 9.601562 L 147.023438 21.300781 L 138.667969 30.601562 L 140.605469 30.601562 L 147.941406 22.398438 L 153.746094 30.601562 L 160.167969 30.601562 M 141.316406 10.898438 L 144.167969 10.898438 L 157.515625 29.199219 L 154.664062 29.199219 "/>
<path style=" stroke:none;fill-rule:nonzero;fill:rgb(3.921569%,40%,76.078431%);fill-opacity:1;" d="M 172.1875 0 L 212.945312 0 L 212.945312 40 L 172.1875 40 Z M 172.1875 0 "/>
<path style=" stroke:none;fill-rule:nonzero;fill:rgb(100%,100%,100%);fill-opacity:1;" d="M 185.027344 10.5 C 185.636719 10.5 186.148438 10.699219 186.554688 11.101562 C 186.960938 11.5 187.167969 12 187.167969 12.601562 C 187.167969 13.199219 186.960938 13.699219 186.554688 14.101562 C 186.148438 14.5 185.636719 14.699219 185.027344 14.699219 C 184.414062 14.699219 183.90625 14.5 183.5 14.101562 C 183.089844 13.699219 182.886719 13.199219 182.886719 12.601562 C 182.886719 12 183.089844 11.5 183.5 11.101562 C 183.90625 10.699219 184.414062 10.5 185.027344 10.5 Z M 187.167969 29.5 L 182.886719 29.5 L 182.886719 16.800781 L 187.167969 16.800781 Z M 202.246094 29.5 L 197.964844 29.5 L 197.964844 22.398438 C 197.964844 21.800781 197.660156 21.398438 197.152344 21 C 196.640625 20.601562 196.132812 20.398438 195.519531 20.398438 C 194.910156 20.398438 194.5 20.601562 194.09375 21 C 193.789062 21.398438 193.585938 21.898438 193.585938 22.398438 L 193.585938 29.5 L 189.304688 29.5 L 189.304688 16.800781 L 193.585938 16.800781 L 193.585938 19 C 193.992188 18.398438 194.605469 17.898438 195.316406 17.601562 C 196.03125 17.300781 196.742188 17.101562 197.355469 17.101562 C 198.78125 17.101562 199.902344 17.601562 200.820312 18.5 C 201.734375 19.398438 202.246094 20.5 202.246094 21.800781 Z M 202.246094 29.5 "/>
<path style=" stroke:none;fill-rule:nonzero;fill:rgb(14.901961%,64.705882%,89.411765%);fill-opacity:1;" d="M 214.980469 0 L 255.734375 0 L 255.734375 40 L 214.980469 40 Z M 214.980469 0 "/>
<path style=" stroke:none;fill-rule:nonzero;fill:rgb(100%,100%,100%);fill-opacity:1;" d="M 232.8125 27.5 L 233.117188 22.800781 L 241.878906 15 C 242.082031 14.800781 242.082031 14.699219 241.980469 14.699219 C 241.777344 14.699219 241.574219 14.699219 241.371094 14.800781 L 230.570312 21.5 L 225.882812 20 C 225.375 19.898438 225.066406 19.601562 225.167969 19.398438 C 225.167969 19.101562 225.476562 18.800781 226.085938 18.601562 L 244.425781 11.699219 C 244.730469 11.5 245.242188 11.601562 245.546875 11.800781 C 245.851562 12.199219 245.953125 12.699219 245.75 13.101562 L 242.695312 27.5 C 242.492188 28.5 241.878906 28.800781 240.960938 28.300781 L 236.277344 24.898438 L 233.933594 27.101562 C 233.832031 27.199219 233.726562 27.398438 233.523438 27.398438 C 233.21875 27.398438 233.015625 27.5 232.8125 27.5 Z M 232.8125 27.5 "/>
<path style=" stroke:none;fill-rule:nonzero;fill:rgb(0%,0%,0%);fill-opacity:1;" d="M 12.835938 28.101562 L 18.542969 21.699219 L 17.21875 21.699219 L 12.226562 27.300781 L 8.253906 21.800781 L 3.769531 21.800781 L 9.78125 30.101562 L 3.769531 36.800781 L 5.09375 36.800781 L 10.289062 31 L 14.46875 36.800781 L 19.054688 36.800781 M 5.605469 22.699219 L 7.640625 22.699219 L 17.21875 35.800781 L 15.179688 35.800781 "/>
</g>
</svg>
