<svg xmlns="http://www.w3.org/2000/svg" width="17" height="22"><path d="M15.8,16c-0.1,1.1-0.8,1.9-2.1,2.6s-3.1,1-5.2,1c-2.1,0-3.8-0.3-5.2-1S1.2,17,1.2,16c0-0.6,0.3-1.1,0.8-1.6 c0.5-0.5,1.2-0.9,2.1-1.3l0.6,0.8c-1,0.4-1.6,1-1.6,1.6c0,0.6,0.6,1.2,1.6,1.6c1,0.4,2.3,0.6,3.9,0.6s2.8-0.2,3.9-0.6 c1-0.4,1.6-1,1.6-1.6c0-0.7-0.6-1.2-1.6-1.6l0.6-0.8c0.9,0.3,1.6,0.8,2.1,1.3C15.6,14.8,15.8,15.4,15.8,16z M8.5,0.4 C10,0.4,11.3,1,12.4,2c1,1,1.6,2.3,1.6,3.9c-0.2,2.2-1.1,4.4-2.8,6.6c-1.6,2.2-2.5,3.4-2.8,3.5c-0.2-0.1-1.1-1.3-2.8-3.5 C4.1,10.3,3.2,8.1,3,5.9C3,4.3,3.6,3,4.6,2C5.7,1,7,0.4,8.5,0.4z M8.5,4C8,4,7.6,4.2,7.2,4.6C6.9,4.9,6.7,5.4,6.7,5.9 s0.2,0.9,0.5,1.3S8,7.7,8.5,7.7s0.9-0.2,1.3-0.5s0.5-0.8,0.5-1.3s-0.2-1-0.5-1.3C9.4,4.2,9,4,8.5,4z" fill="#e1261d"></path></svg>