<?xml version="1.0" encoding="utf-8"?>
<!-- Generator: Adobe Illustrator 26.0.0, SVG Export Plug-In . SVG Version: 6.00 Build 0)  -->
<svg version="1.1" id="Layer_1" xmlns="http://www.w3.org/2000/svg" xmlns:xlink="http://www.w3.org/1999/xlink" x="0px" y="0px"
	 width="40px" height="440px" viewBox="0 0 40 440" style="enable-background:new 0 0 40 440;" xml:space="preserve">
<style type="text/css">
	.st0{fill:#4272B8;}
	.st1{fill:#FFFFFF;}
	.st2{fill:#429CD6;}
	.st3{fill:#0A66C2;}
	.st4{fill:#52BA63;}
	.st5{fill:#0088CC;}
	.st6{fill:#4E4E4E;}
	.st7{fill:#3E3E3E;}
	.st8{enable-background:new    ;}
	.st9{fill:#E1261D;}
</style>
<g id="Facebook">
	<rect id="Rectangle_40" class="st0" width="40" height="40"/>
	<path class="st1" d="M24.2,12.2v3.3h-1.7c-0.3,0-0.5,0.2-0.6,0.4c-0.1,0.2-0.2,0.5-0.2,0.8v2.1h2.5v3.4h-2.5v6.6h-3.4v-6.6h-2.5
		v-3.4h2.5v-3.3c0-0.9,0.4-1.7,1-2.3s1.4-1,2.4-1H24.2z"/>
</g>
<rect id="Rectangle_41" y="50" class="st2" width="40" height="40"/>
<path class="st1" d="M26.9,67.4l0,0.5c0,2.5-0.9,4.8-2.6,6.8c-1.7,2.1-4.3,3.2-7.6,3.3c-1,0-2-0.1-2.9-0.4c-0.9-0.3-1.8-0.7-2.6-1.2
	c0.3,0,0.6,0,0.9,0c0.8,0,1.6-0.1,2.4-0.4c0.8-0.3,1.4-0.6,2-1.1c-0.8,0-1.5-0.3-2.1-0.7c-0.6-0.5-1-1-1.2-1.8
	c0.2,0.1,0.4,0.1,0.7,0.1c0.3,0,0.7,0,0.9-0.1c-0.8-0.2-1.5-0.6-2.1-1.2c-0.5-0.6-0.8-1.4-0.8-2.3v0c0.5,0.3,1,0.4,1.6,0.4
	c-0.5-0.3-0.8-0.7-1.1-1.2c-0.3-0.5-0.4-1.1-0.4-1.7c0-0.6,0.2-1.2,0.5-1.8c0.9,1.1,2,2,3.2,2.6c1.3,0.7,2.6,1,4.2,1.1
	c-0.1-0.3-0.1-0.5-0.1-0.8c0-1,0.4-1.9,1.1-2.5c0.7-0.7,1.5-1,2.5-1.1c1.1,0,2,0.4,2.7,1.1c0.8-0.2,1.6-0.4,2.3-0.9
	c-0.3,0.9-0.8,1.5-1.6,2c0.7-0.1,1.4-0.3,2-0.6C28.2,66.2,27.6,66.9,26.9,67.4z"/>
<rect id="Rectangle_41_00000063610181313932542370000006621843818848605343_" y="100" class="st3" width="40" height="40"/>
<path class="st1" d="M14.8,113.2c0.4,0,0.8,0.1,1.1,0.4c0.3,0.3,0.4,0.7,0.4,1.1s-0.1,0.8-0.4,1.1s-0.6,0.4-1.1,0.4
	s-0.8-0.1-1.1-0.4c-0.3-0.3-0.4-0.6-0.4-1.1s0.1-0.8,0.4-1.1C14,113.4,14.3,113.2,14.8,113.2z M16.2,126.8h-3v-9h3V126.8z
	 M26.8,126.8h-3v-5.1c0-0.4-0.2-0.7-0.5-1c-0.3-0.3-0.7-0.4-1.1-0.4s-0.7,0.1-1,0.4c-0.2,0.3-0.3,0.6-0.4,1v5.1h-3v-9h3v1.5
	c0.3-0.4,0.7-0.8,1.2-1c0.5-0.2,1-0.4,1.4-0.4c1,0,1.8,0.4,2.4,1c0.6,0.6,1,1.4,1,2.4V126.8z"/>
<rect id="Rectangle_42" y="150" class="st4" width="40" height="40"/>
<path class="st1" d="M20,162.2c2.4,0.1,4.3,0.9,5.9,2.4s2.4,3.5,2.4,5.9c-0.1,2.4-0.9,4.3-2.4,5.9s-3.5,2.4-5.9,2.4
	c-1.7,0-3.2-0.5-4.5-1.3l-3.9,1.3L13,175c-0.8-1.3-1.3-2.8-1.3-4.5c0.1-2.4,0.9-4.3,2.4-5.9S17.6,162.2,20,162.2z M20,163.8
	c-1.9,0.1-3.5,0.7-4.7,2s-1.9,2.8-2,4.7c0,1.5,0.4,2.7,1.2,3.8l-0.8,2.4l2.4-0.8c1.1,0.8,2.4,1.2,3.8,1.2c1.9-0.1,3.5-0.7,4.7-2
	s1.9-2.8,2-4.7c-0.1-1.9-0.7-3.5-2-4.7S21.9,163.9,20,163.8z M23.9,172.1c0.2,0.1,0.3,0.2,0.4,0.2c0,0.1,0.1,0.2,0,0.4
	c0,0.2-0.1,0.4-0.2,0.6c-0.1,0.2-0.3,0.5-0.6,0.6c-0.3,0.2-0.6,0.3-0.8,0.3c-0.1,0.1-0.3,0.1-0.6,0.1c-0.3,0-0.9-0.2-1.9-0.6
	c-1-0.5-1.9-1.2-2.4-1.9c-0.6-0.8-0.9-1.2-1-1.3c-0.1-0.1-0.2-0.4-0.4-0.8c-0.2-0.4-0.3-0.9-0.3-1.4c0-0.5,0.1-0.9,0.3-1.2
	c0.2-0.3,0.3-0.4,0.5-0.5c0.2-0.2,0.4-0.3,0.6-0.2h0.4c0.1,0,0.1,0,0.2,0c0.1,0,0.2,0.1,0.2,0.4l0.6,1.6c0.1,0.1,0.1,0.2,0,0.4
	l-0.2,0.4l-0.4,0.4c-0.1,0.1-0.1,0.1-0.1,0.2c0,0.1,0,0.2,0,0.3c0.1,0.1,0.2,0.3,0.4,0.6c0.2,0.3,0.4,0.6,0.7,0.9
	c0.4,0.3,0.7,0.6,1,0.7l0.6,0.3c0.2,0.1,0.3,0.1,0.4,0l0.7-0.8c0.1-0.1,0.2-0.1,0.2-0.1s0.2,0,0.3,0L23.9,172.1z"/>
<rect id="Rectangle_44" y="200" class="st5" width="40" height="40"/>
<path class="st1" d="M18.2,226l0.2-3.5l6.4-5.8c0.1-0.1,0.1-0.2,0-0.3c-0.1,0-0.3,0-0.5,0.1l-7.9,5l-3.4-1.1
	c-0.4-0.1-0.6-0.3-0.5-0.5c0-0.2,0.3-0.4,0.7-0.6l13.3-5.1c0.3-0.1,0.6-0.1,0.8,0.1c0.2,0.2,0.3,0.5,0.2,1L25.2,226
	c-0.2,0.8-0.6,1-1.2,0.6l-3.4-2.5l-1.7,1.6c-0.1,0.1-0.2,0.2-0.3,0.3C18.5,226,18.3,226,18.2,226z"/>
<rect id="Rectangle_43" y="250" class="st6" width="40" height="40"/>
<path class="st1" d="M27.9,264.3c0.3,0.3,0.5,0.7,0.5,1.2v10c0,0.5-0.2,0.9-0.5,1.2s-0.7,0.5-1.2,0.5H13.3c-0.5,0-0.9-0.2-1.2-0.5
	s-0.5-0.7-0.5-1.2v-10c0-0.5,0.2-0.9,0.5-1.2s0.7-0.5,1.2-0.5h13.4C27.1,263.8,27.5,264,27.9,264.3z M26.7,265.5l-6.7,4.2l-6.7-4.2
	v1.7l6.7,4.1l6.7-4.1V265.5z"/>
<path id="Path_65" class="st1" d="M20,311.3c0.7,0,1.4,0.3,1.9,0.8c0.5,0.5,0.8,1.2,0.8,2v5.5c0,0.7-0.3,1.4-0.8,1.9
	c-0.5,0.5-1.2,0.8-1.9,0.8c-0.7,0-1.4-0.3-1.9-0.8c-0.5-0.5-0.8-1.2-0.8-1.9V314c0-0.7,0.3-1.5,0.8-2
	C18.6,311.6,19.3,311.3,20,311.3z M26.4,319.6c0,1.5-0.6,3-1.6,4.2c-1,1.2-2.4,1.9-3.9,2.2v2.8h-1.8v-2.8c-1.5-0.2-2.9-1-3.9-2.2
	c-1-1.2-1.6-2.6-1.6-4.2h1.8c0,1.2,0.5,2.4,1.4,3.2c0.9,0.9,2,1.3,3.2,1.3c1.2,0,2.4-0.5,3.2-1.3c0.9-0.8,1.4-2,1.4-3.2L26.4,319.6z
	"/>
<path id="Path_66" class="st7" d="M20,361.3c-2.2,0-4.3,0.9-5.8,2.4c-1.5,1.5-2.4,3.7-2.4,5.8v6.4c0,0.7,0.3,1.4,0.8,1.9
	c0.5,0.5,1.2,0.8,1.9,0.8h2.8v-7.4h-3.6v-1.8c0-1.7,0.6-3.3,1.8-4.5c1.2-1.2,2.8-1.9,4.6-1.9c1.7,0,3.3,0.7,4.6,1.9
	c1.2,1.2,1.9,2.8,1.8,4.5v1.8h-3.6v7.4h2.8c0.7,0,1.4-0.3,1.9-0.8c0.5-0.5,0.8-1.2,0.8-1.9v-6.4c0-2.2-0.9-4.3-2.4-5.8
	C24.3,362.1,22.2,361.3,20,361.3z"/>
<g class="st8">
	<path class="st9" d="M26.7,425.4c-0.1,1-0.7,1.8-2,2.4s-2.8,0.9-4.7,0.9c-1.9,0-3.5-0.3-4.7-0.9s-1.9-1.4-2-2.4
		c0-0.5,0.3-1,0.7-1.5c0.5-0.5,1.1-0.8,1.9-1.2l0.5,0.7c-0.9,0.4-1.4,0.9-1.4,1.5c0,0.6,0.5,1.1,1.5,1.4c1,0.4,2.1,0.6,3.5,0.6
		s2.6-0.2,3.5-0.6c1-0.4,1.4-0.9,1.5-1.4c0-0.6-0.5-1.1-1.4-1.5l0.5-0.7c0.8,0.3,1.4,0.7,1.9,1.2C26.4,424.4,26.7,424.9,26.7,425.4z
		 M20,411.3c1.4,0,2.6,0.5,3.5,1.4c1,0.9,1.4,2.1,1.5,3.5c-0.2,2-1,4-2.5,6c-1.5,2-2.3,3.1-2.5,3.2c-0.2-0.1-1-1.2-2.5-3.2
		c-1.5-2-2.3-4-2.5-6c0-1.4,0.5-2.6,1.5-3.5C17.4,411.8,18.6,411.3,20,411.3z M20,414.6c-0.5,0-0.9,0.2-1.2,0.5
		c-0.3,0.3-0.5,0.7-0.5,1.2s0.2,0.9,0.5,1.2s0.7,0.5,1.2,0.5s0.9-0.2,1.2-0.5s0.5-0.7,0.5-1.2s-0.2-0.9-0.5-1.2
		C20.9,414.8,20.5,414.6,20,414.6z"/>
</g>
</svg>
