<svg xmlns="http://www.w3.org/2000/svg" width="17" height="20"><path d="M6.5,0.4c1.7,0,3.1,0.6,4.2,1.7c1.1,1.1,1.7,2.5,1.7,4.2c0,0.7-0.1,1.4-0.4,2.1c-0.2,0.7-0.6,1.2-1.1,1.8l0.3,0.3H12 l4.6,4.6l-1.4,1.4l-4.6-4.6v-0.7l-0.3-0.3c-0.5,0.5-1.1,0.8-1.8,1.1c-0.7,0.2-1.4,0.4-2.1,0.4c-1.7,0-3.1-0.6-4.2-1.7 C1.1,9.5,0.5,8.1,0.5,6.4c0-1.7,0.6-3.1,1.7-4.2C3.4,1,4.8,0.4,6.5,0.4z M6.5,2.2c-1.2,0-2.1,0.4-2.9,1.2S2.4,5.2,2.4,6.4 c0,1.2,0.4,2.1,1.2,2.9s1.7,1.2,2.9,1.2c1.2,0,2.1-0.4,2.9-1.2s1.2-1.7,1.2-2.9c0-1.2-0.4-2.1-1.2-2.9S7.6,2.3,6.5,2.2z"></path></svg>