
<svg xmlns="http://www.w3.org/2000/svg" width="40" height="40" viewBox="0 0 40 40">
  <g id="Group_9" data-name="Group 9" transform="translate(-202.715 -309.055)">
    <g id="Rectangle_10" data-name="Rectangle 10" transform="translate(211 319)" fill="#fff" stroke="#707070" stroke-width="1">
      <rect width="27" height="19.5" stroke="none"/>
      <rect x="0.5" y="0.5" width="26" height="18.5" fill="none"/>
    </g>
    <g id="noun-play-5662473" transform="translate(196.605 302.945)">
      <path id="Path_2" data-name="Path 2" d="M26.11,6.11a20,20,0,1,1-14.142,5.858A19.938,19.938,0,0,1,26.11,6.11Zm9.24,20.828a.948.948,0,0,0,.01-1.65l-6.873-3.968L21.693,17.4a.953.953,0,0,0-1.5.777V34.047h0a.948.948,0,0,0,1.421.822L28.487,30.9Z" fill="#e1261d" fill-rule="evenodd"/>
    </g>
  </g>
</svg>
