<svg xmlns="http://www.w3.org/2000/svg" width="32" height="32" viewBox="0 0 32 32">
  <path id="Path_678" data-name="Path 678" d="M446.147,1274.524a16,16,0,1,0,16,16A16,16,0,0,0,446.147,1274.524Zm6.906,17.031-4.523,2.622-4.677,2.712a1.268,1.268,0,0,1-.635.179,1.057,1.057,0,0,1-.534-.143,1.172,1.172,0,0,1-.563-1.038v-10.654a1.146,1.146,0,0,1,.53-1.042,1.169,1.169,0,0,1,1.2.029l9.2,5.333a1.136,1.136,0,0,1,0,2Z" transform="translate(-430.147 -1274.524)" fill="#fff" opacity="0.997" style="mix-blend-mode: hard-light;isolation: isolate"/>
</svg>
