<svg xmlns="http://www.w3.org/2000/svg" width="40" height="40" viewBox="0 0 40 40"><g transform="translate(-99.752 -2008)"><circle cx="20" cy="20" r="20" transform="translate(99.752 2008)" style="opacity:.5"/><g transform="translate(103.752 2012)" style="fill:none;stroke:#fff;stroke-width:3px"><circle cx="16" cy="16" r="16" style="stroke:none" stroke="none"/><circle cx="16" cy="16" r="14.5" style="fill:none"/></g><g transform="translate(3.666 3.09)"><path d="M18 15.364a1.545 1.545 0 0 1-1.545 1.545H2.545A1.545 1.545 0 0 1 1 15.364v-8.5a1.545 1.545 0 0 1 1.545-1.546h3.091L7.182 3h4.636l1.545 2.318h3.091A1.545 1.545 0 0 1 18 6.864Z" transform="translate(107.086 2014.909)" style="fill:#fff"/><circle cx="3.973" cy="3.973" r="3.973" transform="translate(112.792 2021.152)"/></g></g></svg>