<svg xmlns="http://www.w3.org/2000/svg" width="24" height="23.791" viewBox="0 0 24 23.791">
  <g id="pin" transform="translate(368.742 38.404)">
    <path id="Path_3" data-name="Path 3" d="M13.389,19.17l-.031.016-.1.05c-.894.439-1.586.567-1.862.282s-.125-.972.343-1.851a13.74,13.74,0,0,1,2.537-3.208,13.738,13.738,0,0,1,3.288-2.43c.894-.439,1.586-.567,1.862-.282s.125.972-.343,1.851l-.006.011-.008.015a13.816,13.816,0,0,1-2.523,3.181l0,0h0l-.01.01A14.032,14.032,0,0,1,13.39,19.17h0Zm.477.326L19.5,27.518h0l.017.023h0l.019.02c.277.286.968.157,1.862-.282a13.722,13.722,0,0,0,3.275-2.417l.01-.01h0l0,0a13.749,13.749,0,0,0,2.537-3.208c.468-.879.619-1.565.343-1.851l-.027-.025-.028-.022h0L19.384,14.11a14.846,14.846,0,0,1-2.479,3.062h0l-.017.016A15.073,15.073,0,0,1,13.866,19.5h0Zm14.679,6.077,6.713,9.815L25.89,28.24q.551-.463,1.094-.986L27,27.238h0a20.716,20.716,0,0,0,1.543-1.665h0ZM27.8,19.323c.025.018.049.035.069.053s.042.038.063.059c.449.465.318,1.367-.259,2.449a14.26,14.26,0,0,1-2.629,3.332h0l-.017.016a14.243,14.243,0,0,1-3.406,2.508c-1.1.54-2.007.643-2.455.179-.015-.015-.03-.033-.046-.052h0c-.014-.016-.028-.035-.042-.055l-.676-.963a6.125,6.125,0,0,0-.573,2.007,1.845,1.845,0,0,0,.408,1.467c.616.636,1.845.593,3.333.007a16.268,16.268,0,0,0,5.058-3.447l.01-.01h0l0,0a19.934,19.934,0,0,0,1.714-1.88l.013-.016a13.882,13.882,0,0,0,1.9-3.06c.634-1.468.718-2.694.1-3.33a1.861,1.861,0,0,0-1.476-.456,6.247,6.247,0,0,0-2.051.527l.959.665h0Z" transform="translate(-380 -50)" fill="#fff" fill-rule="evenodd"/>
  </g>
</svg>