<svg id="Layer_1" data-name="Layer 1" xmlns="http://www.w3.org/2000/svg" xmlns:xlink="http://www.w3.org/1999/xlink" width="40" height="490" viewBox="0 0 40 490"><defs><style>.cls-1{fill:none;}.cls-2{fill:#4272b8;}.cls-3{fill:#fff;}.cls-4{isolation:isolate;}.cls-5{fill:#429cd6;}.cls-6{fill:#facd00;}.cls-7{fill:#383838;stroke:#383838;stroke-width:0.25px;}.cls-8{fill:#52ba63;}.cls-9{fill:#08c;}.cls-10{fill:#4e4e4e;}.cls-11{fill:#3e3e3e;}.cls-12{fill:#e1261d;}.cls-13{fill:#f2f2f2;}.cls-14{fill:#0c9d58;}.cls-15{opacity:0.2;}.cls-16{clip-path:url(#clip-path);}.cls-17{fill:#004d40;}.cls-18{clip-path:url(#clip-path-2);}.cls-19{clip-path:url(#clip-path-3);}.cls-20{fill:#ea4335;}.cls-21{clip-path:url(#clip-path-4);}.cls-22{fill:#3e2723;}.cls-23{clip-path:url(#clip-path-5);}.cls-24{clip-path:url(#clip-path-6);}.cls-25{fill:#ffc107;}.cls-26{clip-path:url(#clip-path-7);}.cls-27{fill:#4285f4;}.cls-28{clip-path:url(#clip-path-8);}.cls-29{fill:#1a237e;}.cls-30{clip-path:url(#clip-path-9);}.cls-31{clip-path:url(#clip-path-10);}.cls-32{clip-path:url(#clip-path-11);}</style><clipPath id="clip-path"><rect class="cls-1" x="22.83" y="461.01" width="6.08" height="1.63"/></clipPath><clipPath id="clip-path-2"><rect class="cls-1" x="11.11" y="458.47" width="10.18" height="4.18"/></clipPath><clipPath id="clip-path-3"><rect class="cls-1" x="11.15" y="457.7" width="17.77" height="0.93"/></clipPath><clipPath id="clip-path-4"><rect class="cls-1" x="31.65" y="469.81" width="0.79" height="7.76"/></clipPath><clipPath id="clip-path-5"><rect class="cls-1" x="22.9" y="461.21" width="1.15" height="3.16"/></clipPath><clipPath id="clip-path-6"><rect class="cls-1" x="15.07" y="460.1" width="19.99" height="13.87"/></clipPath><clipPath id="clip-path-7"><rect class="cls-1" x="5" y="458.89" width="17.31" height="19.66"/></clipPath><clipPath id="clip-path-8"><rect class="cls-1" x="8.41" y="481.36" width="23.24" height="0.94"/></clipPath><clipPath id="clip-path-9"><rect class="cls-1" x="8.41" y="464.36" width="23.24" height="0.94"/></clipPath><clipPath id="clip-path-10"><rect class="cls-1" x="11.15" y="470.22" width="8.03" height="7.3"/></clipPath><clipPath id="clip-path-11"><rect class="cls-1" x="21.01" y="470.51" width="7.86" height="7.01"/></clipPath></defs><g id="Facebook"><rect id="Rectangle_40" data-name="Rectangle 40" class="cls-2" width="40" height="40"/><path class="cls-3" d="M24.18,12.18V15.5H22.5a.72.72,0,0,0-.62.41,1.68,1.68,0,0,0-.2.84v2.07h2.5v3.36h-2.5v6.64H18.32V22.18h-2.5V18.82h2.5V15.5a3.29,3.29,0,0,1,1-2.34,3.35,3.35,0,0,1,2.38-1Z"/></g><g id="Twitter" class="cls-4"><rect id="Rectangle_41" data-name="Rectangle 41" class="cls-5" y="50" width="40" height="40"/><path class="cls-3" d="M26.91,67.38l0,.46a10.61,10.61,0,0,1-2.63,6.84A9.84,9.84,0,0,1,16.76,78a9.62,9.62,0,0,1-2.91-.43,10.86,10.86,0,0,1-2.56-1.17c.29,0,.57,0,.86,0a7.24,7.24,0,0,0,2.38-.39,6.34,6.34,0,0,0,2-1.14,3.46,3.46,0,0,1-2.07-.72,3.55,3.55,0,0,1-1.25-1.78,2.41,2.41,0,0,0,.67.08,3.89,3.89,0,0,0,.93-.11,3.68,3.68,0,0,1-2.05-1.24,3.43,3.43,0,0,1-.8-2.28v0a3.62,3.62,0,0,0,1.6.43,3.56,3.56,0,0,1-1.56-3,3.56,3.56,0,0,1,.47-1.78,9.86,9.86,0,0,0,3.22,2.62,10.54,10.54,0,0,0,4.16,1.13,2.75,2.75,0,0,1-.11-.82,3.6,3.6,0,0,1,3.55-3.59A3.61,3.61,0,0,1,26,65a6.82,6.82,0,0,0,2.26-.86,3.63,3.63,0,0,1-1.56,2,8,8,0,0,0,2-.59A7.65,7.65,0,0,1,26.91,67.38Z"/></g><g id="Koo" class="cls-4"><rect id="Rectangle_41-2" data-name="Rectangle 41" class="cls-6" y="100" width="40" height="40"/><path class="cls-3" d="M16.5,112.81l.38-.42.93-1.1,1.43-.8.25-.42.25-.71v-.59l.42-.46.25-.59h.51l.92.46.59,1,.09,1.18,1.38.75.8.59.72.93.84,2,.34,1.27.21,1.51.21,1.43.71.63.38,1.09.38,1.06.12,1.13-.5,1-.72.67-.92.17-.17.76-.42,1-.88,1-1,.84-1.3.51-1.48.38H18.86L17.09,129l-2-.68-1.18-.59-.84-.58-.58-.47-.59-.71-.42-.59.16-.88.72-.42v-.64l.29-1,.59-1.17.55-1,.55-.8.54-.5.42-.3v-.71l.13-.84.13-1.35.25-1.14.33-1Z"/><path class="cls-7" d="M28.78,121.9v0a6.21,6.21,0,0,0-.78-2.41,4.57,4.57,0,0,0-.41-.57.53.53,0,0,0-.2-.16.94.94,0,0,0-.24-.06c0-.05,0-.1,0-.15,0-.32-.07-.63-.1-.94l0-.22,0-.16a.07.07,0,0,0,0,0s0-.08,0-.11,0,0,0-.06,0-.07,0-.1a.15.15,0,0,1,0-.06s0-.07,0-.1v-.06s0-.06,0-.1a.43.43,0,0,1,0,0s0-.08,0-.12a0,0,0,0,0,0,0,.77.77,0,0,0,0-.15v0s0-.07,0-.1V116a.29.29,0,0,0,0-.09.07.07,0,0,0,0-.05l0-.09a.09.09,0,0,0,0-.05.37.37,0,0,0,0-.09.09.09,0,0,0,0-.05s0-.06,0-.09,0,0,0,0l0-.14v0s0-.07,0-.11l0,0a.31.31,0,0,0,0-.08v0s0,0,0-.08l0,0a.31.31,0,0,0,0-.08s0,0,0,0l0-.08,0,0,0-.1v0a.76.76,0,0,1,0-.11v0l0-.08v-.05l0-.07s0,0,0,0a.19.19,0,0,0,0-.07l0,0,0-.06,0,0a.36.36,0,0,0,0-.07,0,0,0,0,0,0,0s0-.07,0-.11v0l0-.07,0,0,0-.06v0l0-.06,0,0,0-.06s0,0,0,0a.33.33,0,0,1,0-.06l0,0,0-.09v0l0-.07,0,0,0-.05,0,0,0,0,0,0,0,0,0,0,0,0,0,0,0-.07s0,0,0,0a.35.35,0,0,1-.05-.08l0,0,0,0,0,0,0,0,0,0,0,0,0,0,0,0,0,0,0,0v0l-.06-.07v0l0-.05,0,0,0,0,0,0,0,0,0,0,0,0,0,0,0,0,0,0,0,0v0l-.05-.06,0,0,0,0,0,0,0,0,0,0,0,0,0,0,0,0,0,0,0,0,0,0-.06,0h0L24.3,111l0,0,0,0,0,0,0,0,0,0,0,0,0,0,0,0,0,0h0l0,0,0,0,0,0,0,0,0,0,0,0,0,0,0,0,0,0h0l0,0h0l-.06,0h0l0,0,0,0,0,0h0l0,0h0l0,0-.06,0h0l0,0h0l0,0H23l0,0h-.15l-.06,0-.06,0h0a2.51,2.51,0,0,0,0-1,2.45,2.45,0,0,0-.44-.92,1.88,1.88,0,0,0-1.37-.83.87.87,0,0,0-.32.06,1,1,0,0,0-.27.19.9.9,0,0,0-.22.54.73.73,0,0,0-.4.18.82.82,0,0,0-.25.72.85.85,0,0,0,.13.31,1.19,1.19,0,0,0-.36.86,5.25,5.25,0,0,0-.77.33l-.17.1-.14.08-.11.07-.3.22a.39.39,0,0,0-.1.08l-.19.16-.21.2a4.11,4.11,0,0,0-.29.3l-.14.17a1.13,1.13,0,0,0-.1.13l-.05.07c-.06.07-.11.15-.17.23a3,3,0,0,0-.16.26l-.12.21-.09.16-.15.31c-.09.2-.18.42-.26.65s-.1.28-.15.43l-.09.3c0,.11,0,.2-.07.31a.3.3,0,0,0,0,.1c0,.11,0,.22-.08.33s0,.2,0,.3-.07.42-.09.64-.05.52-.07.79l0,.45c0,.15,0,.29,0,.43s0,.28,0,.42v.09c-.13,0-.53,0-1.6,1.75a13.49,13.49,0,0,0-1.35,2.82A1.61,1.61,0,0,0,12,124h-.24l-.05,0h-.06l0,0h0l0,0,0,0h0l0,0h0l0,0,0,0h0l0,0v0s0,0,0,0v0a.1.1,0,0,0,0,0v0l0,.05v0a.14.14,0,0,1,0,.06s0,0,0,.07,0,.06,0,.09a1.78,1.78,0,0,0,.2.74,2.94,2.94,0,0,0,.25.46,2.14,2.14,0,0,0,.13.19,5.93,5.93,0,0,0,1.07,1.11l.39.3a7.34,7.34,0,0,0,.75.48,10.73,10.73,0,0,0,3.45,1.16l.7.1c.53.05,1.07.08,1.61.08a11.82,11.82,0,0,0,1.88-.15l.64-.13a6,6,0,0,0,3.06-1.72.94.94,0,0,1,.1-.1,2.09,2.09,0,0,1,.14-.17l.07-.09a1.94,1.94,0,0,0,.21-.29.91.91,0,0,0,.11-.16,6.37,6.37,0,0,0,.41-.72,1.54,1.54,0,0,0,.08-.19l.05-.12c0-.09.08-.18.11-.27a1.59,1.59,0,0,0,.07-.2l.06-.18.06-.17h.08a.45.45,0,0,0,.2,0,2.62,2.62,0,0,0,.93-.53,2.26,2.26,0,0,0,.65-1A3.15,3.15,0,0,0,28.78,121.9Zm-8.19-12.35h0c-.38-.18-.77-.35-.68-.66a.3.3,0,0,1,.33-.21,1.77,1.77,0,0,1,.71.21h0c-.28-.28-.57-.58-.31-.87a.26.26,0,0,1,.1-.07l.12,0A1.86,1.86,0,0,1,22.25,110H20.3l-.13,0-.13,0h0l-.24.05h-.06C19.8,109.61,20.23,109.57,20.59,109.55Zm-7.83,13A15.49,15.49,0,0,1,14,120.28a3.88,3.88,0,0,1,1-1.21l0,0c.13,0,.31.17.46.41l0,0a3.37,3.37,0,0,1,.13,3,2.45,2.45,0,0,1-.34.5,2.9,2.9,0,0,1-1.18.79l-.28.08a2.11,2.11,0,0,1-1.38,0C12.42,123.82,12.36,123.55,12.76,122.59Zm14-.06a11.47,11.47,0,0,1-.34,1.93c-.05.18-.1.34-.16.51a6.22,6.22,0,0,1-1.14,2,5.33,5.33,0,0,1-2,1.4,9,9,0,0,1-3.27.54A15.57,15.57,0,0,1,18,128.8l-.7-.11a10.11,10.11,0,0,1-2.45-.77,6.76,6.76,0,0,1-2.55-2,2,2,0,0,1-.55-1.22c0-.16.14-.28.88-.28H13a2.89,2.89,0,0,0,1.31-.24,3.15,3.15,0,0,0,1.75-1.5,3.83,3.83,0,0,0-.14-3.5,1.79,1.79,0,0,0-.42-.49q0-.72.06-1.53a8.18,8.18,0,0,1,1.92-5.29,4.68,4.68,0,0,1,1.93-1.22,5.39,5.39,0,0,1,1-.24,6.81,6.81,0,0,1,.78,0,4.29,4.29,0,0,1,1.42.21,4.17,4.17,0,0,1,1.63,1c1.21,1.15,2,3.12,2.32,5.84.05.44.11.93.15,1.44A21.21,21.21,0,0,1,26.71,122.53Zm1.59-.16a2.45,2.45,0,0,1,0,.27,2.21,2.21,0,0,1-.05.25,1.7,1.7,0,0,1-.23.56l-.14.19-.08.08-.09.08a.6.6,0,0,0-.08.08l-.28.19-.19.09-.2.08c0-.08,0-.16,0-.24s.08-.4.11-.61a.68.68,0,0,0,0-.14c0-.12,0-.24.05-.35l0-.26c0-.08,0-.17,0-.25l0-.38a2.09,2.09,0,0,1,0-.25v-1.39a2.09,2.09,0,0,1,0-.25c0-.09,0-.17,0-.25,0-.23,0-.46,0-.68h0l.18.24a1.37,1.37,0,0,1,.13.2l0,.07c.09.16.18.33.26.51s.07.17.11.26.1.28.14.42.08.29.11.43.07.4.09.59,0,.1,0,.15S28.31,122.27,28.3,122.37Z"/><path class="cls-7" d="M19.13,131a.57.57,0,0,1-.3-.1.58.58,0,0,1-.19-.25l-.5-1.35-.7-.09c.23.63.51,1.42.59,1.63s0,.16-.13.16h-.76s-.23.51.39.49c1.74,0,1.55,1.34,2.1,1.08s-.47-1.08-.46-1.08c2,.25,1.36-.49,1.36-.49Z"/><path class="cls-7" d="M22.89,130.33a.23.23,0,0,1-.14,0,.31.31,0,0,1-.09-.11c-.09-.23-.26-.72-.39-1.06l-.64.13.34.92c0,.11,0,.16-.19.16H21s-.22.48.6.48c1.68,0,1.33,1.41,2,1,.41-.23-.36-.88-.42-.95s0-.11.09-.1c1.71.27,1.29-.47,1.29-.47Z"/><path class="cls-7" d="M20.28,116a.38.38,0,0,0,.28-.46.38.38,0,0,0-.73.18A.38.38,0,0,0,20.28,116Z"/><path class="cls-7" d="M24.35,115.93a.37.37,0,0,0,.12-.52.36.36,0,0,0-.51-.12.37.37,0,0,0,.39.64Z"/><path class="cls-7" d="M23.27,116.92l-.95-.39a.16.16,0,0,0-.1,0,.18.18,0,0,0-.1,0l-.95.39-.08,0a.11.11,0,0,0,0,.08.16.16,0,0,0,0,.1s0,0,.07.06l1,.63a.26.26,0,0,0,.24,0l1-.63s.05,0,.07-.06a.16.16,0,0,0,0-.1.11.11,0,0,0,0-.08Z"/></g><g id="WhatsApp" class="cls-4"><rect id="Rectangle_42" data-name="Rectangle 42" class="cls-8" y="150" width="40" height="40"/><path class="cls-3" d="M20,162.18a8.32,8.32,0,1,1,0,16.64,8.37,8.37,0,0,1-4.45-1.29l-3.87,1.29L13,175a8.3,8.3,0,0,1,7-12.77Zm0,1.64a6.68,6.68,0,0,0-5.47,10.51l-.78,2.42,2.42-.78A6.68,6.68,0,1,0,20,163.82ZM24,172.14a.81.81,0,0,1,.37.22.69.69,0,0,1,0,.37,2.52,2.52,0,0,1-.18.64,1.39,1.39,0,0,1-.63.65,1.68,1.68,0,0,1-.82.27,1.53,1.53,0,0,1-.58.06,8.58,8.58,0,0,1-1.88-.65,7,7,0,0,1-2.44-1.91c-.58-.76-.91-1.19-1-1.31s-.21-.38-.43-.8a2.77,2.77,0,0,1-.32-1.41,2.13,2.13,0,0,1,.3-1.17,2.56,2.56,0,0,1,.47-.55c.23-.2.42-.28.58-.23h.39a.58.58,0,0,1,.2,0c.07,0,.15.14.23.35l.59,1.56a.29.29,0,0,1,0,.35l-.2.36-.35.35a.66.66,0,0,0-.12.17.37.37,0,0,0,0,.26c.05.1.18.3.37.58a7.81,7.81,0,0,0,.73.9,5.49,5.49,0,0,0,1,.74l.63.32c.18.13.32.11.43,0l.66-.78a.35.35,0,0,1,.23-.12,1,1,0,0,1,.28,0Z"/></g><g id="Telegram" class="cls-4"><rect id="Rectangle_44" data-name="Rectangle 44" class="cls-9" y="200" width="40" height="40"/><path class="cls-3" d="M18.16,226.05l.24-3.52,6.37-5.78c.13-.13.14-.21,0-.25a.62.62,0,0,0-.46.09l-7.89,5-3.4-1.09c-.39-.1-.58-.26-.55-.47s.26-.41.7-.62l13.32-5.12a.66.66,0,0,1,.78.1c.21.19.26.52.16,1L25.2,226.05c-.19.75-.6.95-1.25.58l-3.44-2.54-1.68,1.61a1.12,1.12,0,0,1-.28.25A.75.75,0,0,1,18.16,226.05Z"/></g><g id="Mail" class="cls-4"><rect id="Rectangle_43" data-name="Rectangle 43" class="cls-10" y="250" width="40" height="40"/><path class="cls-3" d="M27.85,264.33a1.59,1.59,0,0,1,.47,1.17v10a1.59,1.59,0,0,1-.47,1.17,1.75,1.75,0,0,1-1.17.51H13.32a1.75,1.75,0,0,1-1.17-.51,1.59,1.59,0,0,1-.47-1.17v-10a1.59,1.59,0,0,1,.47-1.17,1.75,1.75,0,0,1,1.17-.51H26.68A1.75,1.75,0,0,1,27.85,264.33Zm-1.17,1.17L20,269.68l-6.68-4.18v1.68L20,271.32l6.68-4.14Z"/></g><path id="Path_65" data-name="Path 65" class="cls-3" d="M20,311.3a2.63,2.63,0,0,1,1.93.77,2.84,2.84,0,0,1,.82,2v5.5a2.74,2.74,0,0,1-.82,1.93,2.78,2.78,0,0,1-3.86,0,2.74,2.74,0,0,1-.82-1.93v-5.5a2.84,2.84,0,0,1,.82-2A2.63,2.63,0,0,1,20,311.3Zm6.4,8.25a6.28,6.28,0,0,1-1.57,4.19,6.61,6.61,0,0,1-3.93,2.17v2.79H19.1v-2.79a6.58,6.58,0,0,1-3.93-2.17,6.28,6.28,0,0,1-1.57-4.19h1.8a4.5,4.5,0,0,0,1.36,3.22,4.61,4.61,0,0,0,6.48,0,4.5,4.5,0,0,0,1.36-3.22Z"/><path id="Path_66" data-name="Path 66" class="cls-11" d="M20,361.28a8.21,8.21,0,0,0-8.25,8.24V376a2.8,2.8,0,0,0,2.75,2.75h2.75v-7.35H13.6v-1.85A6.27,6.27,0,0,1,15.45,365a6.41,6.41,0,0,1,9.1,0,6.23,6.23,0,0,1,1.85,4.5v1.85H22.75v7.35H25.5a2.73,2.73,0,0,0,1.93-.81,2.78,2.78,0,0,0,.82-1.94v-6.45A8.21,8.21,0,0,0,20,361.28Z"/><g class="cls-4"><path class="cls-12" d="M26.68,425.41a2.94,2.94,0,0,1-1.95,2.38,10.49,10.49,0,0,1-4.73.94,10.49,10.49,0,0,1-4.73-.94,2.94,2.94,0,0,1-1.95-2.38A2.24,2.24,0,0,1,14,424a5.5,5.5,0,0,1,1.9-1.16l.51.75c-.94.39-1.42.88-1.45,1.48s.51,1.05,1.46,1.44a9.19,9.19,0,0,0,3.54.59,9.19,9.19,0,0,0,3.54-.59c.95-.39,1.43-.87,1.46-1.44s-.51-1.09-1.45-1.48l.51-.75A5.5,5.5,0,0,1,26,424,2.24,2.24,0,0,1,26.68,425.41ZM20,411.27a5,5,0,0,1,3.54,1.44A4.89,4.89,0,0,1,25,416.23a12.35,12.35,0,0,1-2.5,6,27.12,27.12,0,0,1-2.5,3.18,27.12,27.12,0,0,1-2.5-3.18,12.35,12.35,0,0,1-2.5-6,4.89,4.89,0,0,1,1.46-3.52A5,5,0,0,1,20,411.27Zm0,3.32a1.53,1.53,0,0,0-1.17.49,1.65,1.65,0,0,0-.47,1.19,1.64,1.64,0,1,0,3.28,0,1.65,1.65,0,0,0-.47-1.19A1.53,1.53,0,0,0,20,414.59Z"/></g><g id="Rectangle_40-2" data-name="Rectangle 40"><rect class="cls-3" x="0.5" y="450.5" width="39" height="39"/><path class="cls-13" d="M39,451v38H1V451H39m1-1H0v40H40V450Z"/></g><path id="Path_90" data-name="Path 90" class="cls-14" d="M28.91,474.39a.76.76,0,0,1-.76.76H11.91a.76.76,0,0,1-.76-.76V458.46a.76.76,0,0,1,.76-.76H28.15a.76.76,0,0,1,.76.76v15.93Z"/><g id="Group_36" data-name="Group 36" class="cls-15"><g id="Group_35" data-name="Group 35"><g class="cls-16"><g id="Group_34" data-name="Group 34"><path id="Path_91" data-name="Path 91" class="cls-17" d="M28.91,461.79,22.83,461l6.08,1.63Z"/></g></g></g></g><g id="Group_39" data-name="Group 39" class="cls-15"><g id="Group_38" data-name="Group 38"><g class="cls-18"><g id="Group_37" data-name="Group 37"><path id="Path_92" data-name="Path 92" class="cls-17" d="M20.33,458.53l-9.22,4.11,10.19-3.7h0a.74.74,0,0,0-1-.4"/></g></g></g></g><g id="Group_42" data-name="Group 42" class="cls-15"><g id="Group_41" data-name="Group 41"><g class="cls-19"><g id="Group_40" data-name="Group 40"><path id="Path_93" data-name="Path 93" class="cls-3" d="M28.15,457.7H11.91a.76.76,0,0,0-.76.76v.17a.76.76,0,0,1,.76-.76H28.15a.77.77,0,0,1,.77.76v-.17a.77.77,0,0,0-.77-.76"/></g></g></g></g><path id="Path_94" data-name="Path 94" class="cls-20" d="M15.09,473.9a.75.75,0,0,0,.48.93l15,4a.73.73,0,0,0,.88-.56L35,465.09a.75.75,0,0,0-.49-.93l-15-4a.73.73,0,0,0-.88.56Z"/><g id="Group_45" data-name="Group 45" class="cls-15"><g id="Group_44" data-name="Group 44"><g class="cls-21"><g id="Group_43" data-name="Group 43"><path id="Path_95" data-name="Path 95" class="cls-22" d="M31.65,469.81l.79,4.8-.79,2.95Z"/></g></g></g></g><g id="Group_48" data-name="Group 48" class="cls-15"><g id="Group_47" data-name="Group 47"><g class="cls-23"><g id="Group_46" data-name="Group 46"><path id="Path_96" data-name="Path 96" class="cls-22" d="M22.9,461.21l.71.19.44,3Z"/></g></g></g></g><g id="Group_51" data-name="Group 51" class="cls-15"><g id="Group_50" data-name="Group 50"><g class="cls-24"><g id="Group_49" data-name="Group 49"><path id="Path_97" data-name="Path 97" class="cls-3" d="M34.55,464.16l-15-4a.74.74,0,0,0-.88.56L15.09,473.9a.13.13,0,0,0,0,.06l3.51-13.11a.74.74,0,0,1,.89-.56l15,4a.73.73,0,0,1,.5.86l0-.1a.74.74,0,0,0-.49-.92"/></g></g></g></g><path id="Path_98" data-name="Path 98" class="cls-25" d="M26.93,472.27a.76.76,0,0,1-.4,1L10.66,479a.74.74,0,0,1-.93-.48L5,465.67a.76.76,0,0,1,.4-1l15.87-5.77a.75.75,0,0,1,.93.48Z"/><g id="Group_54" data-name="Group 54" class="cls-15"><g id="Group_53" data-name="Group 53"><g class="cls-26"><g id="Group_52" data-name="Group 52"><path id="Path_99" data-name="Path 99" class="cls-3" d="M5.11,465.83a.72.72,0,0,1,.4-1l15.86-5.78a.75.75,0,0,1,.93.47l-.06-.15a.74.74,0,0,0-.93-.48L5.45,464.7a.75.75,0,0,0-.4,1l4.68,12.86a0,0,0,0,0,0,0Z"/></g></g></g></g><rect id="Rectangle_1001" data-name="Rectangle 1001" class="cls-27" x="8.41" y="464.36" width="23.24" height="17.94" rx="0.5"/><path id="Path_100" data-name="Path 100" class="cls-3" d="M27.51,470.85H21v-1.7h6.5a.34.34,0,0,1,.34.34h0v1a.34.34,0,0,1-.34.34h0m0,6.5H21v-1.71h6.5a.34.34,0,0,1,.34.34h0v1a.35.35,0,0,1-.34.35h0m1-3.25H21v-1.71h7.52a.34.34,0,0,1,.34.34h0v1a.34.34,0,0,1-.34.34Z"/><g id="Group_57" data-name="Group 57" class="cls-15"><g id="Group_56" data-name="Group 56"><g class="cls-28"><g id="Group_55" data-name="Group 55"><path id="Path_101" data-name="Path 101" class="cls-29" d="M30.88,482.13H9.18a.78.78,0,0,1-.77-.77v.17a.77.77,0,0,0,.77.77h21.7a.77.77,0,0,0,.77-.77v-.17a.77.77,0,0,1-.77.77"/></g></g></g></g><g id="Group_60" data-name="Group 60" class="cls-15"><g id="Group_59" data-name="Group 59"><g class="cls-30"><g id="Group_58" data-name="Group 58"><path id="Path_102" data-name="Path 102" class="cls-3" d="M9.18,464.53h21.7a.77.77,0,0,1,.77.77v-.17a.77.77,0,0,0-.77-.77H9.18a.78.78,0,0,0-.77.77v.17A.78.78,0,0,1,9.18,464.53Z"/></g></g></g></g><path id="Path_103" data-name="Path 103" class="cls-3" d="M15.2,472.56v1.54h2.22a2.1,2.1,0,0,1-2.22,1.62,2.48,2.48,0,0,1,0-5,2.26,2.26,0,0,1,1.58.61h0L18,470.21a4,4,0,0,0-2.75-1.07,4.1,4.1,0,0,0,0,8.2,3.76,3.76,0,0,0,3.93-3.61,2.54,2.54,0,0,0,0-.39,4.11,4.11,0,0,0-.07-.78Z"/><g id="Group_63" data-name="Group 63" class="cls-15"><g id="Group_62" data-name="Group 62"><g class="cls-31"><g id="Group_61" data-name="Group 61"><path id="Path_104" data-name="Path 104" class="cls-29" d="M15.25,474.1v.17h2.17s0-.11,0-.17Z"/><path id="Path_105" data-name="Path 105" class="cls-29" d="M15.25,477.35a4.1,4.1,0,0,1-4.1-4v.09a4.1,4.1,0,0,0,4.1,4.1h0a3.78,3.78,0,0,0,3.93-3.61c0-.14,0-.27,0-.4v-.06a3.76,3.76,0,0,1-3.62,3.9h-.3m1.57-6a2.23,2.23,0,0,0-1.57-.61,2.46,2.46,0,0,0-2.43,2.48v.08a2.46,2.46,0,0,1,2.43-2.39,2.25,2.25,0,0,1,1.57.61h0l1.25-1.25a.73.73,0,0,0-.09-.08l-1.16,1.16Z"/></g></g></g></g><g id="Group_66" data-name="Group 66" class="cls-15"><g id="Group_65" data-name="Group 65"><g class="cls-32"><g id="Group_64" data-name="Group 64"><path id="Path_106" data-name="Path 106" class="cls-29" d="M27.85,470.68v-.17a.34.34,0,0,1-.34.34H21V471H27.5a.35.35,0,0,0,.35-.34Zm-.35,6.67H21v.17H27.5a.35.35,0,0,0,.35-.34h0V477a.35.35,0,0,1-.35.34h0m1-3.25H21v.17h7.52a.34.34,0,0,0,.34-.34h0v-.17a.34.34,0,0,1-.34.34Z"/></g></g></g></g><path id="Path_107" data-name="Path 107" class="cls-1" d="M11.91,457.7a.76.76,0,0,0-.76.76v4.17l-5.7,2.07a.71.71,0,0,0-.45.69H5a.69.69,0,0,0,0,.28l3.36,9.25v6.61a.78.78,0,0,0,.77.77h21.7a.77.77,0,0,0,.77-.77v-3.8L35,465.09a.75.75,0,0,0-.49-.93h0l-5.64-1.51v-4.19a.76.76,0,0,0-.76-.76Z"/></svg>