<svg xmlns="http://www.w3.org/2000/svg" width="15.598" height="18.305" viewBox="0 0 15.598 18.305">
  <path id="Path_65" data-name="Path 65" d="M3.652-3.652H-4.6V-9.625a4.112,4.112,0,0,1,1.2-2.922,3.962,3.962,0,0,1,2.922-1.16,3.962,3.962,0,0,1,2.922,1.16,4.112,4.112,0,0,1,1.2,2.922ZM5.5-4.6V-9.625a5.929,5.929,0,0,0-1.311-3.717A6.024,6.024,0,0,0,.9-15.426v-.6a1.338,1.338,0,0,0-.387-.988A1.312,1.312,0,0,0-.451-17.4a1.312,1.312,0,0,0-.967.387,1.5,1.5,0,0,0-.43.988v.6a5.919,5.919,0,0,0-3.266,2.084A6,6,0,0,0-6.4-9.625V-4.6L-8.25-2.75v.9h15.6v-.9ZM-.473.9A1.822,1.822,0,0,0,.838.387,1.713,1.713,0,0,0,1.375-.9H-2.277A1.749,1.749,0,0,0-1.762.387,1.749,1.749,0,0,0-.473.9Z" transform="translate(8.25 17.402)" fill="#0a1834"/>
</svg>
